%TF.GenerationSoftware,Altium Limited,Altium Designer,21.0.9 (235)*%
G04 Layer_Color=16711935*
%FSLAX45Y45*%
%MOMM*%
%TF.SameCoordinates,A479D27C-3FE7-47B0-89BC-BDD5A26E56ED*%
%TF.FilePolarity,Negative*%
%TF.FileFunction,Soldermask,Bot*%
%TF.Part,Single*%
G01*
G75*
%TA.AperFunction,ComponentPad*%
%ADD40C,2.70320*%
%ADD41C,5.20320*%
%ADD42C,2.40320*%
%ADD43O,2.20320X1.80320*%
G04:AMPARAMS|DCode=44|XSize=1.9032mm|YSize=2.1532mm|CornerRadius=0.9516mm|HoleSize=0mm|Usage=FLASHONLY|Rotation=180.000|XOffset=0mm|YOffset=0mm|HoleType=Round|Shape=RoundedRectangle|*
%AMROUNDEDRECTD44*
21,1,1.90320,0.25000,0,0,180.0*
21,1,0.00000,2.15320,0,0,180.0*
1,1,1.90320,0.00000,0.12500*
1,1,1.90320,0.00000,0.12500*
1,1,1.90320,0.00000,-0.12500*
1,1,1.90320,0.00000,-0.12500*
%
%ADD44ROUNDEDRECTD44*%
G04:AMPARAMS|DCode=45|XSize=1.9032mm|YSize=2.1532mm|CornerRadius=0.2291mm|HoleSize=0mm|Usage=FLASHONLY|Rotation=180.000|XOffset=0mm|YOffset=0mm|HoleType=Round|Shape=RoundedRectangle|*
%AMROUNDEDRECTD45*
21,1,1.90320,1.69500,0,0,180.0*
21,1,1.44500,2.15320,0,0,180.0*
1,1,0.45820,-0.72250,0.84750*
1,1,0.45820,0.72250,0.84750*
1,1,0.45820,0.72250,-0.84750*
1,1,0.45820,-0.72250,-0.84750*
%
%ADD45ROUNDEDRECTD45*%
D40*
X5950000Y960000D02*
D03*
X7690000Y4540000D02*
D03*
X2560000Y5070000D02*
D03*
X3120000Y3170000D02*
D03*
X4500000Y3060000D02*
D03*
X3620000Y3160000D02*
D03*
X7570000Y5530000D02*
D03*
X2090000Y590000D02*
D03*
X5480000Y5250000D02*
D03*
X4000000Y5490000D02*
D03*
X4860000Y3460000D02*
D03*
D41*
X1430000Y5470000D02*
D03*
X9370000D02*
D03*
X1430000Y930000D02*
D03*
X9370000D02*
D03*
D42*
X9680000Y4489984D02*
D03*
X9172000D02*
D03*
X2018001Y4580000D02*
D03*
X1510001D02*
D03*
X2018001Y3410000D02*
D03*
X1510001D02*
D03*
X9680000Y3319984D02*
D03*
X9172000D02*
D03*
D43*
X8642000Y1650000D02*
D03*
Y3540000D02*
D03*
X7880000Y4040000D02*
D03*
Y1650000D02*
D03*
D44*
X5020000Y950000D02*
D03*
X4770000D02*
D03*
X4520000D02*
D03*
X4270000D02*
D03*
X4020000D02*
D03*
X3770000D02*
D03*
X3520000D02*
D03*
X3270000D02*
D03*
X3020000D02*
D03*
X2770000D02*
D03*
X2520000D02*
D03*
D45*
X5270000D02*
D03*
%TF.MD5,0039c9665a5c38bb61762afc384b07c3*%
M02*
