%TF.GenerationSoftware,Altium Limited,Altium Designer,21.0.9 (235)*%
G04 Layer_Physical_Order=2*
G04 Layer_Color=16711680*
%FSLAX45Y45*%
%MOMM*%
%TF.SameCoordinates,A479D27C-3FE7-47B0-89BC-BDD5A26E56ED*%
%TF.FilePolarity,Positive*%
%TF.FileFunction,Copper,L2,Bot,Signal*%
%TF.Part,Single*%
G01*
G75*
%TA.AperFunction,Conductor*%
%ADD27C,0.38100*%
%TA.AperFunction,ComponentPad*%
%ADD32C,2.50000*%
%ADD33C,5.00000*%
%ADD34C,2.20000*%
%ADD35O,2.00000X1.60000*%
G04:AMPARAMS|DCode=36|XSize=1.7mm|YSize=1.95mm|CornerRadius=0.85mm|HoleSize=0mm|Usage=FLASHONLY|Rotation=180.000|XOffset=0mm|YOffset=0mm|HoleType=Round|Shape=RoundedRectangle|*
%AMROUNDEDRECTD36*
21,1,1.70000,0.25000,0,0,180.0*
21,1,0.00000,1.95000,0,0,180.0*
1,1,1.70000,0.00000,0.12500*
1,1,1.70000,0.00000,0.12500*
1,1,1.70000,0.00000,-0.12500*
1,1,1.70000,0.00000,-0.12500*
%
%ADD36ROUNDEDRECTD36*%
G04:AMPARAMS|DCode=37|XSize=1.7mm|YSize=1.95mm|CornerRadius=0.1275mm|HoleSize=0mm|Usage=FLASHONLY|Rotation=180.000|XOffset=0mm|YOffset=0mm|HoleType=Round|Shape=RoundedRectangle|*
%AMROUNDEDRECTD37*
21,1,1.70000,1.69500,0,0,180.0*
21,1,1.44500,1.95000,0,0,180.0*
1,1,0.25500,-0.72250,0.84750*
1,1,0.25500,0.72250,0.84750*
1,1,0.25500,0.72250,-0.84750*
1,1,0.25500,-0.72250,-0.84750*
%
%ADD37ROUNDEDRECTD37*%
%TA.AperFunction,ViaPad*%
%ADD38C,0.50000*%
%ADD39C,0.70000*%
G36*
X7740000Y6049609D02*
X7740000Y4688216D01*
X7724133Y4676041D01*
X7708463Y4680240D01*
X7671537D01*
X7635869Y4670683D01*
X7603891Y4652220D01*
X7577780Y4626109D01*
X7559317Y4594131D01*
X7549760Y4558463D01*
Y4521537D01*
X7559317Y4485869D01*
X7577780Y4453891D01*
X7603891Y4427780D01*
X7635869Y4409317D01*
X7671537Y4399760D01*
X7708463D01*
X7724133Y4403959D01*
X7740000Y4391784D01*
Y3310000D01*
X8958238Y3310000D01*
Y3510000D01*
X9880000D01*
X9880000Y3310000D01*
Y2750000D01*
X4047182D01*
X4043293Y2757761D01*
X4041050Y2770000D01*
X4052591Y2781541D01*
X4060240Y2800007D01*
Y2819993D01*
X4052591Y2838459D01*
X4044962Y2846088D01*
Y3099999D01*
X4044962Y3100000D01*
X4042301Y3113379D01*
X4034722Y3124722D01*
X4034721Y3124722D01*
X3810240Y3349204D01*
Y3359993D01*
X3802591Y3378459D01*
X3788459Y3392591D01*
X3769993Y3400240D01*
X3750007D01*
X3731541Y3392591D01*
X3717409Y3378459D01*
X3709760Y3359993D01*
Y3340007D01*
X3717409Y3321541D01*
X3731541Y3307409D01*
X3750007Y3299760D01*
X3760796D01*
X3975038Y3085518D01*
Y2846088D01*
X3967409Y2838459D01*
X3959760Y2819993D01*
Y2800007D01*
X3967409Y2781541D01*
X3978950Y2770000D01*
X3976708Y2757761D01*
X3972819Y2750000D01*
X850391D01*
Y5470000D01*
Y5498475D01*
X855972Y5555149D01*
X867083Y5611005D01*
X883614Y5665499D01*
X905408Y5718115D01*
X932252Y5768337D01*
X963892Y5815689D01*
X1000018Y5859709D01*
X1040288Y5899979D01*
X1084311Y5936108D01*
X1131662Y5967747D01*
X1181885Y5994592D01*
X1234500Y6016386D01*
X1288997Y6032917D01*
X1344851Y6044028D01*
X1401525Y6049609D01*
X1430000Y6049609D01*
X7740000Y6049609D01*
D02*
G37*
G36*
X2473521Y1980000D02*
X9949609Y1980000D01*
Y930000D01*
Y901524D01*
X9944027Y844851D01*
X9932917Y788995D01*
X9916386Y734500D01*
X9894592Y681885D01*
X9867748Y631663D01*
X9836108Y584311D01*
X9799980Y540289D01*
X9759712Y500021D01*
X9715689Y463892D01*
X9668337Y432252D01*
X9618115Y405408D01*
X9565499Y383614D01*
X9511002Y367082D01*
X9455148Y355972D01*
X9398475Y350390D01*
X9370000Y350391D01*
X1430000D01*
X1401524Y350390D01*
X1344851Y355972D01*
X1288995Y367083D01*
X1234500Y383614D01*
X1181885Y405408D01*
X1131663Y432252D01*
X1084311Y463892D01*
X1040291Y500018D01*
X1000021Y540288D01*
X963892Y584311D01*
X932252Y631663D01*
X905408Y681885D01*
X883614Y734500D01*
X867082Y788997D01*
X855972Y844851D01*
X850390Y901524D01*
X850391Y930000D01*
Y1980000D01*
X2473521D01*
D02*
G37*
%LPC*%
G36*
X4018463Y5630240D02*
X3981537D01*
X3945869Y5620683D01*
X3913891Y5602220D01*
X3887780Y5576109D01*
X3869317Y5544131D01*
X3859760Y5508463D01*
Y5471537D01*
X3869317Y5435869D01*
X3887780Y5403891D01*
X3913891Y5377780D01*
X3945869Y5359317D01*
X3981537Y5349760D01*
X4018463D01*
X4054131Y5359317D01*
X4086109Y5377780D01*
X4112220Y5403891D01*
X4130683Y5435869D01*
X4140240Y5471537D01*
Y5508463D01*
X4130683Y5544131D01*
X4112220Y5576109D01*
X4086109Y5602220D01*
X4054131Y5620683D01*
X4018463Y5630240D01*
D02*
G37*
G36*
X5498463Y5390240D02*
X5461537D01*
X5425869Y5380683D01*
X5393891Y5362220D01*
X5367780Y5336109D01*
X5349317Y5304131D01*
X5339760Y5268463D01*
Y5231537D01*
X5349317Y5195869D01*
X5367780Y5163891D01*
X5393891Y5137780D01*
X5425869Y5119317D01*
X5461537Y5109760D01*
X5498463D01*
X5534131Y5119317D01*
X5566109Y5137780D01*
X5592220Y5163891D01*
X5610683Y5195869D01*
X5620240Y5231537D01*
Y5268463D01*
X5610683Y5304131D01*
X5592220Y5336109D01*
X5566109Y5362220D01*
X5534131Y5380683D01*
X5498463Y5390240D01*
D02*
G37*
G36*
X1430000Y5996367D02*
X1361295Y5991864D01*
X1293766Y5978432D01*
X1228568Y5956300D01*
X1166817Y5925847D01*
X1109568Y5887595D01*
X1057802Y5842198D01*
X1012405Y5790432D01*
X974153Y5733183D01*
X943700Y5671432D01*
X921568Y5606234D01*
X908136Y5538705D01*
X903633Y5470000D01*
X908136Y5401295D01*
X921568Y5333766D01*
X943700Y5268568D01*
X974153Y5206817D01*
X1012405Y5149568D01*
X1057802Y5097802D01*
X1109568Y5052405D01*
X1166817Y5014153D01*
X1228568Y4983700D01*
X1293766Y4961568D01*
X1361295Y4948136D01*
X1430000Y4943633D01*
X1498705Y4948136D01*
X1566234Y4961568D01*
X1631432Y4983700D01*
X1693183Y5014153D01*
X1750432Y5052405D01*
X1802198Y5097802D01*
X1847595Y5149568D01*
X1885847Y5206817D01*
X1916300Y5268568D01*
X1938431Y5333766D01*
X1951864Y5401295D01*
X1956367Y5470000D01*
X1951864Y5538705D01*
X1938431Y5606234D01*
X1916300Y5671432D01*
X1885847Y5733183D01*
X1847595Y5790432D01*
X1802198Y5842198D01*
X1750432Y5887595D01*
X1693183Y5925847D01*
X1631432Y5956300D01*
X1566234Y5978432D01*
X1498705Y5991864D01*
X1430000Y5996367D01*
D02*
G37*
G36*
X2578463Y5210240D02*
X2541537D01*
X2505869Y5200683D01*
X2473891Y5182220D01*
X2447780Y5156109D01*
X2429317Y5124131D01*
X2419760Y5088463D01*
Y5051537D01*
X2429317Y5015869D01*
X2447780Y4983891D01*
X2473891Y4957780D01*
X2505869Y4939317D01*
X2541537Y4929760D01*
X2578463D01*
X2614131Y4939317D01*
X2646109Y4957780D01*
X2672220Y4983891D01*
X2690683Y5015869D01*
X2700240Y5051537D01*
Y5088463D01*
X2690683Y5124131D01*
X2672220Y5156109D01*
X2646109Y5182220D01*
X2614131Y5200683D01*
X2578463Y5210240D01*
D02*
G37*
G36*
X2034489Y4705240D02*
X2001512D01*
X1969660Y4696705D01*
X1941101Y4680217D01*
X1917784Y4656899D01*
X1901295Y4628341D01*
X1892761Y4596488D01*
Y4563512D01*
X1901295Y4531659D01*
X1917784Y4503101D01*
X1941101Y4479783D01*
X1969660Y4463295D01*
X2001512Y4454760D01*
X2034489D01*
X2066341Y4463295D01*
X2094900Y4479783D01*
X2118218Y4503101D01*
X2134706Y4531659D01*
X2143241Y4563512D01*
Y4596488D01*
X2134706Y4628341D01*
X2118218Y4656899D01*
X2094900Y4680217D01*
X2066341Y4696705D01*
X2034489Y4705240D01*
D02*
G37*
G36*
X1526489D02*
X1493512D01*
X1461660Y4696705D01*
X1433101Y4680217D01*
X1409784Y4656899D01*
X1393295Y4628341D01*
X1384761Y4596488D01*
Y4563512D01*
X1393295Y4531659D01*
X1409784Y4503101D01*
X1433101Y4479783D01*
X1461660Y4463295D01*
X1493512Y4454760D01*
X1526489D01*
X1558341Y4463295D01*
X1586900Y4479783D01*
X1610218Y4503101D01*
X1626706Y4531659D01*
X1635241Y4563512D01*
Y4596488D01*
X1626706Y4628341D01*
X1610218Y4656899D01*
X1586900Y4680217D01*
X1558341Y4696705D01*
X1526489Y4705240D01*
D02*
G37*
G36*
X4587493Y5490240D02*
X4567507D01*
X4549041Y5482591D01*
X4534909Y5468459D01*
X4527260Y5449993D01*
Y5430007D01*
X4534909Y5411541D01*
X4549041Y5397409D01*
X4567507Y5389760D01*
X4587493D01*
X4605959Y5397409D01*
X4613588Y5405038D01*
X4666934D01*
X4953993Y5117979D01*
X4949300Y5094387D01*
X4944966Y5092591D01*
X4930833Y5078459D01*
X4923184Y5059993D01*
Y5040007D01*
X4930833Y5021541D01*
X4944966Y5007409D01*
X4963431Y4999760D01*
X4974221D01*
X5334140Y4639841D01*
Y4612216D01*
X5310894Y4588969D01*
X5254008D01*
X5240629Y4586308D01*
X5229286Y4578729D01*
X5229285Y4578729D01*
X5117345Y4466789D01*
X5109767Y4455447D01*
X5107105Y4442067D01*
Y4166549D01*
X4227338Y3286782D01*
X4219759Y3275439D01*
X4217098Y3262060D01*
Y3248148D01*
X4207409Y3238459D01*
X4199760Y3219993D01*
Y3200007D01*
X4207409Y3181541D01*
X4221541Y3167409D01*
X4240007Y3159760D01*
X4259993D01*
X4278459Y3167409D01*
X4292591Y3181541D01*
X4300240Y3200007D01*
Y3219993D01*
X4292591Y3238459D01*
X4287022Y3244028D01*
Y3247578D01*
X4445038Y3405594D01*
X4465038Y3397310D01*
Y3195819D01*
X4445869Y3190683D01*
X4413891Y3172220D01*
X4387780Y3146109D01*
X4369317Y3114131D01*
X4359760Y3078463D01*
Y3041537D01*
X4369317Y3005869D01*
X4387780Y2973891D01*
X4413891Y2947780D01*
X4445869Y2929317D01*
X4481537Y2919760D01*
X4518463D01*
X4554131Y2929317D01*
X4586109Y2947780D01*
X4612220Y2973891D01*
X4630683Y3005869D01*
X4640240Y3041537D01*
Y3078463D01*
X4630683Y3114131D01*
X4612220Y3146109D01*
X4586109Y3172220D01*
X4554131Y3190683D01*
X4534962Y3195819D01*
Y3395518D01*
X4989203Y3849760D01*
X4999993D01*
X5018459Y3857409D01*
X5032591Y3871541D01*
X5040240Y3890007D01*
Y3909993D01*
X5032591Y3928459D01*
X5018459Y3942591D01*
X5012703Y3944975D01*
X5008011Y3968567D01*
X5146560Y4107117D01*
X5165038Y4099463D01*
Y3814482D01*
X4931317Y3580760D01*
X4914131Y3590683D01*
X4878463Y3600240D01*
X4841537D01*
X4805869Y3590683D01*
X4773891Y3572220D01*
X4747780Y3546109D01*
X4729317Y3514131D01*
X4719760Y3478463D01*
Y3441537D01*
X4729317Y3405869D01*
X4747780Y3373891D01*
X4773891Y3347780D01*
X4805869Y3329317D01*
X4841537Y3319760D01*
X4867302D01*
X4875586Y3299760D01*
X4830788Y3254962D01*
X4696088D01*
X4688459Y3262591D01*
X4669993Y3270240D01*
X4650007D01*
X4631541Y3262591D01*
X4617409Y3248459D01*
X4609760Y3229993D01*
Y3210007D01*
X4617409Y3191541D01*
X4631541Y3177409D01*
X4650007Y3169760D01*
X4669993D01*
X4688459Y3177409D01*
X4696088Y3185038D01*
X4845270D01*
X4858649Y3187699D01*
X4869992Y3195278D01*
X5304721Y3630008D01*
X5304722Y3630008D01*
X5312301Y3641351D01*
X5314962Y3654730D01*
Y4323912D01*
X5322591Y4331541D01*
X5330240Y4350007D01*
Y4369993D01*
X5322591Y4388459D01*
X5313289Y4397761D01*
X5310280Y4410000D01*
X5313289Y4422239D01*
X5322591Y4431541D01*
X5330240Y4450007D01*
Y4469993D01*
X5322591Y4488459D01*
X5312004Y4499046D01*
X5316188Y4515734D01*
X5318136Y4519046D01*
X5325376D01*
X5338755Y4521707D01*
X5350098Y4529286D01*
X5396600Y4575788D01*
X5407390D01*
X5415038Y4578956D01*
X5435038Y4566488D01*
Y4416088D01*
X5427408Y4408459D01*
X5419760Y4389993D01*
Y4370006D01*
X5427408Y4351541D01*
X5441541Y4337409D01*
X5460006Y4329760D01*
X5479993D01*
X5498458Y4337409D01*
X5512591Y4351541D01*
X5520240Y4370006D01*
Y4389993D01*
X5512591Y4408459D01*
X5504962Y4416088D01*
Y4651414D01*
X5504962Y4651416D01*
X5502300Y4664795D01*
X5494722Y4676137D01*
X5494721Y4676138D01*
X4706137Y5464722D01*
X4694795Y5472300D01*
X4681415Y5474962D01*
X4613588D01*
X4605959Y5482591D01*
X4587493Y5490240D01*
D02*
G37*
G36*
X3969994Y4560240D02*
X3950007D01*
X3931542Y4552591D01*
X3917409Y4538459D01*
X3909760Y4519993D01*
Y4500006D01*
X3917409Y4481541D01*
X3930038Y4468912D01*
Y3761088D01*
X3927409Y3758459D01*
X3919760Y3739993D01*
Y3720007D01*
X3927409Y3701541D01*
X3941542Y3687409D01*
X3960007Y3679760D01*
X3979994D01*
X3998459Y3687409D01*
X4012591Y3701541D01*
X4020240Y3720007D01*
Y3739993D01*
X4012591Y3758459D01*
X3999962Y3771088D01*
Y4478912D01*
X4002591Y4481541D01*
X4010240Y4500006D01*
Y4519993D01*
X4002591Y4538459D01*
X3988459Y4552591D01*
X3969994Y4560240D01*
D02*
G37*
G36*
X3138463Y3310240D02*
X3101537D01*
X3065869Y3300683D01*
X3033891Y3282220D01*
X3007780Y3256109D01*
X2989317Y3224131D01*
X2979760Y3188463D01*
Y3151537D01*
X2989317Y3115869D01*
X3007780Y3083891D01*
X3033891Y3057780D01*
X3065869Y3039317D01*
X3101537Y3029760D01*
X3138463D01*
X3174131Y3039317D01*
X3206109Y3057780D01*
X3232220Y3083891D01*
X3250683Y3115869D01*
X3260240Y3151537D01*
Y3188463D01*
X3250683Y3224131D01*
X3232220Y3256109D01*
X3206109Y3282220D01*
X3174131Y3300683D01*
X3138463Y3310240D01*
D02*
G37*
G36*
X3638463Y3300240D02*
X3601537D01*
X3565869Y3290683D01*
X3533891Y3272220D01*
X3507780Y3246109D01*
X3489317Y3214131D01*
X3479760Y3178463D01*
Y3141537D01*
X3489317Y3105869D01*
X3507780Y3073891D01*
X3533891Y3047780D01*
X3565869Y3029317D01*
X3601537Y3019760D01*
X3638463D01*
X3674131Y3029317D01*
X3706109Y3047780D01*
X3732220Y3073891D01*
X3750683Y3105869D01*
X3760240Y3141537D01*
Y3178463D01*
X3750683Y3214131D01*
X3732220Y3246109D01*
X3706109Y3272220D01*
X3674131Y3290683D01*
X3638463Y3300240D01*
D02*
G37*
G36*
X6880234Y3030240D02*
X6860247D01*
X6841782Y3022591D01*
X6834152Y3014962D01*
X6375848D01*
X6368219Y3022591D01*
X6349753Y3030240D01*
X6329767D01*
X6311301Y3022591D01*
X6297169Y3008459D01*
X6289520Y2989993D01*
Y2970007D01*
X6297169Y2951541D01*
X6311301Y2937409D01*
X6329767Y2929760D01*
X6349753D01*
X6368219Y2937409D01*
X6375848Y2945038D01*
X6834152D01*
X6841782Y2937409D01*
X6860247Y2929760D01*
X6880234D01*
X6898699Y2937409D01*
X6912831Y2951541D01*
X6920480Y2970007D01*
Y2989993D01*
X6912831Y3008459D01*
X6898699Y3022591D01*
X6880234Y3030240D01*
D02*
G37*
G36*
X5890234D02*
X5870247D01*
X5851782Y3022591D01*
X5844153Y3014962D01*
X5675848D01*
X5668219Y3022591D01*
X5649753Y3030240D01*
X5629767D01*
X5611301Y3022591D01*
X5597169Y3008459D01*
X5589520Y2989993D01*
Y2970007D01*
X5597169Y2951541D01*
X5611301Y2937409D01*
X5629767Y2929760D01*
X5649753D01*
X5668219Y2937409D01*
X5675848Y2945038D01*
X5844153D01*
X5851782Y2937409D01*
X5870247Y2929760D01*
X5890234D01*
X5908699Y2937409D01*
X5922832Y2951541D01*
X5930481Y2970007D01*
Y2989993D01*
X5922832Y3008459D01*
X5908699Y3022591D01*
X5890234Y3030240D01*
D02*
G37*
G36*
X4939993Y3200240D02*
X4920007D01*
X4901541Y3192591D01*
X4887409Y3178459D01*
X4879760Y3159993D01*
Y3140007D01*
X4887409Y3121541D01*
X4901541Y3107409D01*
X4920007Y3099760D01*
X4930796D01*
X5069175Y2961382D01*
X5080517Y2953803D01*
X5093897Y2951142D01*
X5138049D01*
X5151782Y2937409D01*
X5170247Y2929760D01*
X5190234D01*
X5208699Y2937409D01*
X5222832Y2951541D01*
X5230481Y2970007D01*
Y2989993D01*
X5222832Y3008459D01*
X5208699Y3022591D01*
X5190234Y3030240D01*
X5170247D01*
X5151782Y3022591D01*
X5150256Y3021065D01*
X5108378D01*
X4980240Y3149204D01*
Y3159993D01*
X4972591Y3178459D01*
X4958459Y3192591D01*
X4939993Y3200240D01*
D02*
G37*
G36*
X6286942Y1737188D02*
X6266955D01*
X6248490Y1729539D01*
X6234357Y1715407D01*
X6226708Y1696941D01*
Y1676955D01*
X6234357Y1658489D01*
X6248490Y1644357D01*
X6266955Y1636708D01*
X6286942D01*
X6305407Y1644357D01*
X6313036Y1651986D01*
X6618259D01*
X6622809Y1647436D01*
X6634152Y1639858D01*
X6647531Y1637196D01*
X6647532Y1637196D01*
X6973339D01*
X6980968Y1629567D01*
X6999433Y1621918D01*
X7019420D01*
X7037885Y1629567D01*
X7052018Y1643700D01*
X7059667Y1662165D01*
Y1682152D01*
X7052018Y1700617D01*
X7037885Y1714749D01*
X7019420Y1722398D01*
X6999433D01*
X6980968Y1714749D01*
X6973339Y1707120D01*
X6662013D01*
X6657463Y1711670D01*
X6646120Y1719249D01*
X6632741Y1721910D01*
X6313036D01*
X6305407Y1729539D01*
X6286942Y1737188D01*
D02*
G37*
G36*
X5669993Y1720240D02*
X5650007D01*
X5631541Y1712591D01*
X5623912Y1704962D01*
X5227501D01*
X5214121Y1702300D01*
X5202779Y1694722D01*
X4561759Y1053702D01*
X4546168Y1060160D01*
X4520000Y1063605D01*
X4493832Y1060160D01*
X4469448Y1050059D01*
X4448508Y1033992D01*
X4432441Y1013052D01*
X4422340Y988668D01*
X4418895Y962500D01*
Y937500D01*
X4422340Y911332D01*
X4432441Y886947D01*
X4448508Y866008D01*
X4469448Y849941D01*
X4493832Y839840D01*
X4520000Y836395D01*
X4546168Y839840D01*
X4570552Y849941D01*
X4591492Y866008D01*
X4607559Y886947D01*
X4617660Y911332D01*
X4621105Y937500D01*
Y962500D01*
X4617660Y988668D01*
X4611202Y1004258D01*
X5241982Y1635038D01*
X5623912D01*
X5631541Y1627409D01*
X5650007Y1619760D01*
X5669993D01*
X5688459Y1627409D01*
X5702591Y1641541D01*
X5710240Y1660007D01*
Y1679993D01*
X5702591Y1698459D01*
X5688459Y1712591D01*
X5669993Y1720240D01*
D02*
G37*
G36*
X7900000Y1746062D02*
X7860000D01*
X7835137Y1742788D01*
X7811969Y1733192D01*
X7792074Y1717926D01*
X7776808Y1698031D01*
X7767211Y1674863D01*
X7763938Y1650000D01*
X7767211Y1625137D01*
X7776808Y1601969D01*
X7792074Y1582074D01*
X7811969Y1566808D01*
X7835137Y1557212D01*
X7860000Y1553938D01*
X7900000D01*
X7924863Y1557212D01*
X7948031Y1566808D01*
X7967926Y1582074D01*
X7983192Y1601969D01*
X7992789Y1625137D01*
X7996062Y1650000D01*
X7992789Y1674863D01*
X7983192Y1698031D01*
X7967926Y1717926D01*
X7948031Y1733192D01*
X7924863Y1742788D01*
X7900000Y1746062D01*
D02*
G37*
G36*
X8662000Y1746062D02*
X8622000D01*
X8597137Y1742788D01*
X8573969Y1733192D01*
X8554074Y1717926D01*
X8538808Y1698031D01*
X8529212Y1674862D01*
X8525938Y1650000D01*
X8529212Y1625137D01*
X8538808Y1601969D01*
X8554074Y1582074D01*
X8573969Y1566808D01*
X8597137Y1557211D01*
X8622000Y1553938D01*
X8662000D01*
X8686863Y1557211D01*
X8710031Y1566808D01*
X8729926Y1582074D01*
X8745192Y1601969D01*
X8754789Y1625137D01*
X8758062Y1650000D01*
X8754789Y1674862D01*
X8745192Y1698031D01*
X8729926Y1717926D01*
X8710031Y1733192D01*
X8686863Y1742788D01*
X8662000Y1746062D01*
D02*
G37*
G36*
X2769993Y1630240D02*
X2750007D01*
X2731541Y1622591D01*
X2717409Y1608459D01*
X2709760Y1589993D01*
Y1570007D01*
X2717409Y1551541D01*
X2725038Y1543912D01*
Y1477368D01*
X2727700Y1463988D01*
X2735278Y1452646D01*
X2822075Y1365849D01*
Y1355059D01*
X2829724Y1336594D01*
X2843857Y1322461D01*
X2862322Y1314812D01*
X2882309D01*
X2900774Y1322461D01*
X2914907Y1336594D01*
X2922555Y1355059D01*
Y1375046D01*
X2914907Y1393511D01*
X2900774Y1407644D01*
X2882309Y1415292D01*
X2871519D01*
X2794962Y1491849D01*
Y1543912D01*
X2802591Y1551541D01*
X2810240Y1570007D01*
Y1589993D01*
X2802591Y1608459D01*
X2788459Y1622591D01*
X2769993Y1630240D01*
D02*
G37*
G36*
X4979993Y1780240D02*
X4960007D01*
X4941541Y1772591D01*
X4927409Y1758459D01*
X4919760Y1739993D01*
Y1720007D01*
X4927409Y1701541D01*
X4928935Y1700016D01*
Y1670878D01*
X4311758Y1053702D01*
X4296168Y1060160D01*
X4270000Y1063605D01*
X4243832Y1060160D01*
X4219448Y1050059D01*
X4198508Y1033992D01*
X4182441Y1013052D01*
X4172340Y988668D01*
X4168895Y962500D01*
Y937500D01*
X4172340Y911332D01*
X4182441Y886947D01*
X4198508Y866008D01*
X4219448Y849941D01*
X4243832Y839840D01*
X4270000Y836395D01*
X4296168Y839840D01*
X4320552Y849941D01*
X4341492Y866008D01*
X4357559Y886947D01*
X4367660Y911332D01*
X4371105Y937500D01*
Y962500D01*
X4367660Y988668D01*
X4361202Y1004258D01*
X4988618Y1631674D01*
X4996197Y1643017D01*
X4998858Y1656396D01*
X4998858Y1656397D01*
Y1687808D01*
X5012591Y1701541D01*
X5020240Y1720007D01*
Y1739993D01*
X5012591Y1758459D01*
X4998459Y1772591D01*
X4979993Y1780240D01*
D02*
G37*
G36*
X4279993Y1740240D02*
X4260007D01*
X4241541Y1732591D01*
X4227409Y1718459D01*
X4219760Y1699993D01*
Y1680007D01*
X4227409Y1661541D01*
X4235038Y1653912D01*
Y1226982D01*
X4061758Y1053702D01*
X4046168Y1060160D01*
X4020000Y1063605D01*
X3993832Y1060160D01*
X3969448Y1050059D01*
X3948508Y1033992D01*
X3932441Y1013052D01*
X3922340Y988668D01*
X3918895Y962500D01*
Y937500D01*
X3922340Y911332D01*
X3932441Y886947D01*
X3948508Y866008D01*
X3969448Y849941D01*
X3993832Y839840D01*
X4020000Y836395D01*
X4046168Y839840D01*
X4070552Y849941D01*
X4091492Y866008D01*
X4107559Y886947D01*
X4117660Y911332D01*
X4121105Y937500D01*
Y962500D01*
X4117660Y988668D01*
X4111202Y1004258D01*
X4294721Y1187778D01*
X4294722Y1187778D01*
X4302301Y1199121D01*
X4304962Y1212500D01*
X4304962Y1212501D01*
Y1653912D01*
X4312591Y1661541D01*
X4320240Y1680007D01*
Y1699993D01*
X4312591Y1718459D01*
X4298459Y1732591D01*
X4279993Y1740240D01*
D02*
G37*
G36*
X5020000Y1063605D02*
X4993832Y1060160D01*
X4969448Y1050059D01*
X4948508Y1033992D01*
X4932441Y1013052D01*
X4922340Y988668D01*
X4918895Y962500D01*
Y937500D01*
X4922340Y911332D01*
X4932441Y886947D01*
X4948508Y866008D01*
X4969448Y849941D01*
X4993832Y839840D01*
X5020000Y836395D01*
X5046168Y839840D01*
X5070552Y849941D01*
X5091492Y866008D01*
X5107559Y886947D01*
X5117660Y911332D01*
X5121105Y937500D01*
Y962500D01*
X5117660Y988668D01*
X5107559Y1013052D01*
X5091492Y1033992D01*
X5070552Y1050059D01*
X5046168Y1060160D01*
X5020000Y1063605D01*
D02*
G37*
G36*
X4770000D02*
X4743832Y1060160D01*
X4719448Y1050059D01*
X4698508Y1033992D01*
X4682441Y1013052D01*
X4672340Y988668D01*
X4668895Y962500D01*
Y937500D01*
X4672340Y911332D01*
X4682441Y886947D01*
X4698508Y866008D01*
X4719448Y849941D01*
X4743832Y839840D01*
X4770000Y836395D01*
X4796168Y839840D01*
X4820552Y849941D01*
X4841492Y866008D01*
X4857559Y886947D01*
X4867660Y911332D01*
X4871105Y937500D01*
Y962500D01*
X4867660Y988668D01*
X4857559Y1013052D01*
X4841492Y1033992D01*
X4820552Y1050059D01*
X4796168Y1060160D01*
X4770000Y1063605D01*
D02*
G37*
G36*
X3529993Y1730240D02*
X3510007D01*
X3491541Y1722591D01*
X3477409Y1708459D01*
X3469760Y1689993D01*
Y1670007D01*
X3477409Y1651541D01*
X3485038Y1643912D01*
Y1056517D01*
X3469448Y1050059D01*
X3448508Y1033992D01*
X3432441Y1013052D01*
X3422340Y988668D01*
X3418895Y962500D01*
Y937500D01*
X3422340Y911332D01*
X3432441Y886947D01*
X3448508Y866008D01*
X3469448Y849941D01*
X3493832Y839840D01*
X3520000Y836395D01*
X3546168Y839840D01*
X3570552Y849941D01*
X3591492Y866008D01*
X3607559Y886947D01*
X3617660Y911332D01*
X3621105Y937500D01*
Y962500D01*
X3617660Y988668D01*
X3607559Y1013052D01*
X3591492Y1033992D01*
X3570552Y1050059D01*
X3554962Y1056517D01*
Y1643912D01*
X3562591Y1651541D01*
X3570240Y1670007D01*
Y1689993D01*
X3562591Y1708459D01*
X3548459Y1722591D01*
X3529993Y1730240D01*
D02*
G37*
G36*
X3270000Y1063605D02*
X3243832Y1060160D01*
X3219448Y1050059D01*
X3198508Y1033992D01*
X3182441Y1013052D01*
X3172340Y988668D01*
X3168895Y962500D01*
Y937500D01*
X3172340Y911332D01*
X3182441Y886947D01*
X3198508Y866008D01*
X3219448Y849941D01*
X3243832Y839840D01*
X3270000Y836395D01*
X3296168Y839840D01*
X3320552Y849941D01*
X3341492Y866008D01*
X3357559Y886947D01*
X3367660Y911332D01*
X3371105Y937500D01*
Y962500D01*
X3367660Y988668D01*
X3357559Y1013052D01*
X3341492Y1033992D01*
X3320552Y1050059D01*
X3296168Y1060160D01*
X3270000Y1063605D01*
D02*
G37*
G36*
X1479993Y1760240D02*
X1460007D01*
X1441541Y1752591D01*
X1427409Y1738459D01*
X1419760Y1719993D01*
Y1700007D01*
X1427409Y1681541D01*
X1441541Y1667409D01*
X1460007Y1659760D01*
X1479993D01*
X1498459Y1667409D01*
X1506088Y1675038D01*
X2005518D01*
X2678066Y1002491D01*
X2672340Y988668D01*
X2668895Y962500D01*
Y937500D01*
X2672340Y911332D01*
X2682441Y886947D01*
X2698508Y866008D01*
X2719448Y849941D01*
X2743832Y839840D01*
X2770000Y836395D01*
X2796168Y839840D01*
X2820552Y849941D01*
X2841492Y866008D01*
X2857559Y886947D01*
X2867660Y911332D01*
X2871105Y937500D01*
Y962500D01*
X2867660Y988668D01*
X2857559Y1013052D01*
X2856594Y1014310D01*
X2871664Y1027525D01*
X2920965Y978223D01*
X2918895Y962500D01*
Y937500D01*
X2922340Y911332D01*
X2932441Y886947D01*
X2948508Y866008D01*
X2969448Y849941D01*
X2993832Y839840D01*
X3020000Y836395D01*
X3046168Y839840D01*
X3070552Y849941D01*
X3091492Y866008D01*
X3107559Y886947D01*
X3117660Y911332D01*
X3121105Y937500D01*
Y962500D01*
X3117660Y988668D01*
X3107559Y1013052D01*
X3091492Y1033992D01*
X3070552Y1050059D01*
X3046168Y1060160D01*
X3020000Y1063605D01*
X2993832Y1060160D01*
X2969448Y1050059D01*
X2957321Y1040754D01*
X2450240Y1547836D01*
Y1549993D01*
X2442591Y1568459D01*
X2428459Y1582591D01*
X2409993Y1590240D01*
X2390007D01*
X2371541Y1582591D01*
X2357409Y1568459D01*
X2349760Y1549993D01*
Y1530007D01*
X2357409Y1511541D01*
X2371541Y1497409D01*
X2390007Y1489760D01*
X2409428D01*
X2835025Y1064163D01*
X2821810Y1049094D01*
X2820552Y1050059D01*
X2796168Y1060160D01*
X2770000Y1063605D01*
X2743832Y1060160D01*
X2726474Y1052969D01*
X2044722Y1734722D01*
X2033379Y1742300D01*
X2020000Y1744962D01*
X1506088D01*
X1498459Y1752591D01*
X1479993Y1760240D01*
D02*
G37*
G36*
X1535465Y1590240D02*
X1515478D01*
X1497013Y1582591D01*
X1482880Y1568459D01*
X1475232Y1549993D01*
Y1530007D01*
X1482880Y1511541D01*
X1497013Y1497409D01*
X1515478Y1489760D01*
X1535465D01*
X1553930Y1497409D01*
X1561560Y1505038D01*
X1928018D01*
X2428798Y1004258D01*
X2422340Y988668D01*
X2418895Y962500D01*
Y937500D01*
X2422340Y911332D01*
X2432441Y886947D01*
X2448508Y866008D01*
X2469448Y849941D01*
X2493832Y839840D01*
X2520000Y836395D01*
X2546168Y839840D01*
X2570552Y849941D01*
X2591492Y866008D01*
X2607559Y886947D01*
X2617660Y911332D01*
X2621105Y937500D01*
Y962500D01*
X2617660Y988668D01*
X2607559Y1013052D01*
X2591492Y1033992D01*
X2570552Y1050059D01*
X2546168Y1060160D01*
X2520000Y1063605D01*
X2493832Y1060160D01*
X2478242Y1053702D01*
X1967222Y1564722D01*
X1955880Y1572300D01*
X1942500Y1574962D01*
X1561560D01*
X1553930Y1582591D01*
X1535465Y1590240D01*
D02*
G37*
G36*
X6419993Y1270240D02*
X6400007D01*
X6381541Y1262591D01*
X6367409Y1248459D01*
X6359760Y1229993D01*
Y1210007D01*
X6367409Y1191541D01*
X6372888Y1186062D01*
Y1142331D01*
X6025518Y794962D01*
X3961982D01*
X3861202Y895742D01*
X3867660Y911332D01*
X3871105Y937500D01*
Y962500D01*
X3867660Y988668D01*
X3857559Y1013052D01*
X3841492Y1033992D01*
X3820552Y1050059D01*
X3796168Y1060160D01*
X3770000Y1063605D01*
X3743832Y1060160D01*
X3719448Y1050059D01*
X3698508Y1033992D01*
X3682441Y1013052D01*
X3672340Y988668D01*
X3668895Y962500D01*
Y937500D01*
X3672340Y911332D01*
X3682441Y886947D01*
X3698508Y866008D01*
X3719448Y849941D01*
X3743832Y839840D01*
X3770000Y836395D01*
X3796168Y839840D01*
X3811758Y846298D01*
X3922778Y735278D01*
X3934121Y727700D01*
X3947500Y725038D01*
X6040000D01*
X6053380Y727700D01*
X6064722Y735278D01*
X6432571Y1103128D01*
X6432572Y1103128D01*
X6440150Y1114471D01*
X6442812Y1127850D01*
X6442812Y1127851D01*
Y1181762D01*
X6452591Y1191541D01*
X6460240Y1210007D01*
Y1229993D01*
X6452591Y1248459D01*
X6438459Y1262591D01*
X6419993Y1270240D01*
D02*
G37*
G36*
X2108463Y730240D02*
X2071537D01*
X2035869Y720683D01*
X2003891Y702220D01*
X1977780Y676109D01*
X1959317Y644131D01*
X1949760Y608463D01*
Y571537D01*
X1959317Y535869D01*
X1977780Y503891D01*
X2003891Y477780D01*
X2035869Y459317D01*
X2071537Y449760D01*
X2108463D01*
X2144131Y459317D01*
X2176109Y477780D01*
X2202220Y503891D01*
X2220683Y535869D01*
X2230240Y571537D01*
Y608463D01*
X2220683Y644131D01*
X2202220Y676109D01*
X2176109Y702220D01*
X2144131Y720683D01*
X2108463Y730240D01*
D02*
G37*
G36*
X9370000Y1456367D02*
X9301295Y1451864D01*
X9233766Y1438431D01*
X9168568Y1416300D01*
X9106816Y1385847D01*
X9049568Y1347595D01*
X8997802Y1302198D01*
X8952405Y1250432D01*
X8914153Y1193183D01*
X8883700Y1131432D01*
X8861569Y1066234D01*
X8848136Y998705D01*
X8843633Y930000D01*
X8848136Y861295D01*
X8861569Y793766D01*
X8883700Y728568D01*
X8914153Y666817D01*
X8952405Y609568D01*
X8997802Y557802D01*
X9049568Y512405D01*
X9106816Y474153D01*
X9168568Y443700D01*
X9233766Y421568D01*
X9301295Y408136D01*
X9370000Y403633D01*
X9438705Y408136D01*
X9506234Y421568D01*
X9571432Y443700D01*
X9633184Y474153D01*
X9690432Y512405D01*
X9742198Y557802D01*
X9787595Y609568D01*
X9825847Y666817D01*
X9856300Y728568D01*
X9878432Y793766D01*
X9891864Y861295D01*
X9896367Y930000D01*
X9891864Y998705D01*
X9878432Y1066234D01*
X9856300Y1131432D01*
X9825847Y1193183D01*
X9787595Y1250432D01*
X9742198Y1302198D01*
X9690432Y1347595D01*
X9633184Y1385847D01*
X9571432Y1416300D01*
X9506234Y1438431D01*
X9438705Y1451864D01*
X9370000Y1456367D01*
D02*
G37*
G36*
X1430000D02*
X1361295Y1451864D01*
X1293766Y1438431D01*
X1228568Y1416300D01*
X1166817Y1385847D01*
X1109568Y1347595D01*
X1057802Y1302198D01*
X1012405Y1250432D01*
X974153Y1193183D01*
X943700Y1131432D01*
X921568Y1066234D01*
X908136Y998705D01*
X903633Y930000D01*
X908136Y861295D01*
X921568Y793766D01*
X943700Y728568D01*
X974153Y666817D01*
X1012405Y609568D01*
X1057802Y557802D01*
X1109568Y512405D01*
X1166817Y474153D01*
X1228568Y443700D01*
X1293766Y421568D01*
X1361295Y408136D01*
X1430000Y403633D01*
X1498705Y408136D01*
X1566234Y421568D01*
X1631432Y443700D01*
X1693183Y474153D01*
X1750432Y512405D01*
X1802198Y557802D01*
X1847595Y609568D01*
X1885847Y666817D01*
X1916300Y728568D01*
X1938431Y793766D01*
X1951864Y861295D01*
X1956367Y930000D01*
X1951864Y998705D01*
X1938431Y1066234D01*
X1916300Y1131432D01*
X1885847Y1193183D01*
X1847595Y1250432D01*
X1802198Y1302198D01*
X1750432Y1347595D01*
X1693183Y1385847D01*
X1631432Y1416300D01*
X1566234Y1438431D01*
X1498705Y1451864D01*
X1430000Y1456367D01*
D02*
G37*
%LPD*%
D27*
X4500000Y3410000D02*
X4990000Y3900000D01*
X4252060Y3262060D02*
X5142067Y4152067D01*
X4252060Y3212060D02*
Y3262060D01*
X5142067Y4152067D02*
Y4442067D01*
X4500000Y3060000D02*
Y3410000D01*
X4250000Y3210000D02*
X4252060Y3212060D01*
X2520001Y950000D02*
Y962499D01*
X1525472Y1540000D02*
X1942500D01*
X2520001Y962499D01*
X4010000Y2810000D02*
Y3100000D01*
X3760000Y3350000D02*
X4010000Y3100000D01*
X6339760Y2980000D02*
X6870240D01*
X5639760D02*
X5880241D01*
X4930000Y3150000D02*
X5093897Y2986104D01*
X5174137D01*
X5180241Y2980000D01*
X4860000Y3460000D02*
X5200000Y3800000D01*
Y4380000D01*
X5280000Y4460000D01*
Y3654730D02*
Y4360000D01*
X5470000Y4380000D02*
Y4651416D01*
X4845270Y3220000D02*
X5280000Y3654730D01*
X5142067Y4442067D02*
X5254008Y4554008D01*
X4660000Y3220000D02*
X4845270D01*
X6276948Y1686948D02*
X6632741D01*
X6647531Y1672158D02*
X7009427D01*
X6632741Y1686948D02*
X6647531Y1672158D01*
X3965000Y3735000D02*
X3970000Y3730000D01*
X3965000Y3735000D02*
Y4505000D01*
X3960000Y4510000D02*
X3965000Y4505000D01*
X4270000Y1212500D02*
Y1690000D01*
X4020001Y962500D02*
X4270000Y1212500D01*
X4020001Y962500D02*
Y962500D01*
X3520000Y950000D02*
X3520001Y950000D01*
X3520000Y950000D02*
Y1680000D01*
X6407850Y1127850D02*
Y1217850D01*
X6410000Y1220000D01*
X6040000Y760000D02*
X6407850Y1127850D01*
X3947500Y760000D02*
X6040000D01*
X3770000Y937500D02*
X3947500Y760000D01*
X3770000Y937500D02*
Y950000D01*
X4681415Y5440000D02*
X5470000Y4651416D01*
X4577500Y5440000D02*
X4681415D01*
X4973424Y5050000D02*
X5397396Y4626028D01*
X5325376Y4554008D02*
X5397396Y4626028D01*
X5254008Y4554008D02*
X5325376D01*
X4963896Y1656396D02*
Y1723896D01*
X4970000Y1730000D01*
X4270001Y962500D02*
X4963896Y1656396D01*
X4270001Y962500D02*
Y962500D01*
X2760000Y1477368D02*
Y1580000D01*
Y1477368D02*
X2872315Y1365052D01*
X1470000Y1710000D02*
X2020000D01*
X2770000Y960000D01*
Y950000D02*
Y960000D01*
X4520001Y962500D02*
X5227501Y1670000D01*
X5660000D01*
X2400000Y1540000D02*
X2408632D01*
X2998632Y950000D01*
X3020000D01*
X4707999Y2675000D02*
X5406999D01*
X5408634Y2676635D01*
X6105767D01*
X6107402Y2678270D01*
X1213000Y2675000D02*
X2812999D01*
X1213000Y2675000D02*
X1213000Y2675000D01*
D32*
X5950000Y960000D02*
D03*
X7690000Y4540000D02*
D03*
X2560000Y5070000D02*
D03*
X3120000Y3170000D02*
D03*
X4500000Y3060000D02*
D03*
X3620000Y3160000D02*
D03*
X7570000Y5530000D02*
D03*
X2090000Y590000D02*
D03*
X5480000Y5250000D02*
D03*
X4000000Y5490000D02*
D03*
X4860000Y3460000D02*
D03*
D33*
X1430000Y5470000D02*
D03*
X9370000D02*
D03*
X1430000Y930000D02*
D03*
X9370000D02*
D03*
D34*
X9680000Y4489984D02*
D03*
X9172000D02*
D03*
X2018001Y4580000D02*
D03*
X1510001D02*
D03*
X2018001Y3410000D02*
D03*
X1510001D02*
D03*
X9680000Y3319984D02*
D03*
X9172000D02*
D03*
D35*
X8642000Y1650000D02*
D03*
Y3540000D02*
D03*
X7880000Y4040000D02*
D03*
Y1650000D02*
D03*
D36*
X5020000Y950000D02*
D03*
X4770000D02*
D03*
X4520000D02*
D03*
X4270000D02*
D03*
X4020000D02*
D03*
X3770000D02*
D03*
X3520000D02*
D03*
X3270000D02*
D03*
X3020000D02*
D03*
X2770000D02*
D03*
X2520000D02*
D03*
D37*
X5270000D02*
D03*
D38*
X4690001Y4302500D02*
D03*
Y4822500D02*
D03*
Y4562500D02*
D03*
Y4692500D02*
D03*
X4820001Y4432500D02*
D03*
Y4302500D02*
D03*
X4950001Y4432500D02*
D03*
X4690001D02*
D03*
X4950001Y4302500D02*
D03*
X4820001Y4562500D02*
D03*
Y4692500D02*
D03*
Y4822500D02*
D03*
X4950001Y4692500D02*
D03*
Y4822500D02*
D03*
Y4562500D02*
D03*
D39*
X6240000Y3590000D02*
D03*
X6900000Y3400000D02*
D03*
Y3600000D02*
D03*
X5990000Y3590000D02*
D03*
X6240000Y3380000D02*
D03*
X4990000Y3900000D02*
D03*
X1525472Y1540000D02*
D03*
X4010000Y2810000D02*
D03*
X5520000Y3930000D02*
D03*
X7140000Y3600000D02*
D03*
X6870240Y2980000D02*
D03*
X6339760D02*
D03*
X5880241D02*
D03*
X5639760D02*
D03*
X5180241D02*
D03*
X4930000Y3150000D02*
D03*
X5280000Y4460000D02*
D03*
X7360000Y3400000D02*
D03*
X5280000Y4360000D02*
D03*
X7140000Y3400000D02*
D03*
X7350000Y3600000D02*
D03*
X5470000Y4380000D02*
D03*
X7040000Y3230000D02*
D03*
X7350000Y3220000D02*
D03*
X4577500Y5250000D02*
D03*
X6276948Y1686948D02*
D03*
X7009427Y1672158D02*
D03*
X3970000Y3730000D02*
D03*
X3960000Y4510000D02*
D03*
X2558999Y1928901D02*
D03*
X4270000Y1690000D02*
D03*
X3520000Y1680000D02*
D03*
X2470000Y3630000D02*
D03*
X2670000D02*
D03*
Y3810000D02*
D03*
X2470000D02*
D03*
X6410000Y1220000D02*
D03*
X4577500Y5440000D02*
D03*
X4973424Y5050000D02*
D03*
X5397396Y4626028D02*
D03*
X4250000Y3210000D02*
D03*
X1860000Y2806099D02*
D03*
X4970000Y1730000D02*
D03*
X2760000Y1580000D02*
D03*
X2872315Y1365052D02*
D03*
X3564000Y2806099D02*
D03*
X1470000Y1710000D02*
D03*
X5660000Y1670000D02*
D03*
X2400000Y1540000D02*
D03*
X4660000Y3220000D02*
D03*
X4388902Y3917500D02*
D03*
X5406999Y2675000D02*
D03*
X4707999D02*
D03*
X6107402Y2678270D02*
D03*
X4310000Y3550000D02*
D03*
X4263000Y2806099D02*
D03*
X3760000Y3350000D02*
D03*
X1860000Y1928901D02*
D03*
X2812999Y2675000D02*
D03*
X1213000Y2675000D02*
D03*
X3880000Y3880000D02*
D03*
X6750000Y1500000D02*
D03*
X5410000Y3220000D02*
D03*
X6030000D02*
D03*
X5990000Y3380000D02*
D03*
X5690000Y3590000D02*
D03*
Y3380000D02*
D03*
X5410000D02*
D03*
%TF.MD5,22e6c8d3e986d675fbbd8205d1b2dc7a*%
M02*
