%TF.GenerationSoftware,Altium Limited,Altium Designer,21.0.9 (235)*%
G04 Layer_Physical_Order=1*
G04 Layer_Color=255*
%FSLAX45Y45*%
%MOMM*%
%TF.SameCoordinates,A479D27C-3FE7-47B0-89BC-BDD5A26E56ED*%
%TF.FilePolarity,Positive*%
%TF.FileFunction,Copper,L1,Top,Signal*%
%TF.Part,Single*%
G01*
G75*
%TA.AperFunction,SMDPad,CuDef*%
%ADD10R,1.40000X0.95000*%
%ADD11R,1.40000X1.00000*%
%ADD12R,2.50000X6.50000*%
%ADD13R,4.30000X4.10000*%
%ADD14R,1.60000X2.60000*%
%ADD15R,2.60000X1.60000*%
%ADD16R,0.95000X1.40000*%
%ADD17R,0.50000X0.50000*%
%TA.AperFunction,BGAPad,CuDef*%
%ADD18R,0.25000X0.25000*%
%TA.AperFunction,SMDPad,CuDef*%
%ADD19R,0.63000X0.50000*%
%TA.AperFunction,SMDPad,SMDef*%
%ADD20R,3.40000X6.50000*%
%TA.AperFunction,SMDPad,CuDef*%
%ADD21O,1.40000X0.45000*%
G04:AMPARAMS|DCode=22|XSize=1.4mm|YSize=0.95mm|CornerRadius=0mm|HoleSize=0mm|Usage=FLASHONLY|Rotation=135.000|XOffset=0mm|YOffset=0mm|HoleType=Round|Shape=Rectangle|*
%AMROTATEDRECTD22*
4,1,4,0.83085,-0.15910,0.15910,-0.83085,-0.83085,0.15910,-0.15910,0.83085,0.83085,-0.15910,0.0*
%
%ADD22ROTATEDRECTD22*%

%ADD23R,0.90000X1.40000*%
%ADD24R,0.90000X0.60000*%
%TA.AperFunction,Conductor*%
%ADD25C,1.50000*%
%ADD26C,2.00000*%
%ADD27C,0.38100*%
%ADD28C,2.54000*%
%ADD29C,1.00000*%
%ADD30C,0.50000*%
%ADD31C,0.90000*%
%TA.AperFunction,ComponentPad*%
%ADD32C,2.50000*%
%ADD33C,5.00000*%
%ADD34C,2.20000*%
%ADD35O,2.00000X1.60000*%
G04:AMPARAMS|DCode=36|XSize=1.7mm|YSize=1.95mm|CornerRadius=0.85mm|HoleSize=0mm|Usage=FLASHONLY|Rotation=180.000|XOffset=0mm|YOffset=0mm|HoleType=Round|Shape=RoundedRectangle|*
%AMROUNDEDRECTD36*
21,1,1.70000,0.25000,0,0,180.0*
21,1,0.00000,1.95000,0,0,180.0*
1,1,1.70000,0.00000,0.12500*
1,1,1.70000,0.00000,0.12500*
1,1,1.70000,0.00000,-0.12500*
1,1,1.70000,0.00000,-0.12500*
%
%ADD36ROUNDEDRECTD36*%
G04:AMPARAMS|DCode=37|XSize=1.7mm|YSize=1.95mm|CornerRadius=0.1275mm|HoleSize=0mm|Usage=FLASHONLY|Rotation=180.000|XOffset=0mm|YOffset=0mm|HoleType=Round|Shape=RoundedRectangle|*
%AMROUNDEDRECTD37*
21,1,1.70000,1.69500,0,0,180.0*
21,1,1.44500,1.95000,0,0,180.0*
1,1,0.25500,-0.72250,0.84750*
1,1,0.25500,0.72250,0.84750*
1,1,0.25500,0.72250,-0.84750*
1,1,0.25500,-0.72250,-0.84750*
%
%ADD37ROUNDEDRECTD37*%
%TA.AperFunction,ViaPad*%
%ADD38C,0.50000*%
%ADD39C,0.70000*%
G36*
X3670000Y5319999D02*
X4144600Y5320000D01*
Y5270000D01*
X4217500D01*
Y5230000D01*
X4144600D01*
Y5190000D01*
X4060000Y5190000D01*
X4060000Y5017975D01*
X4046600D01*
Y4967575D01*
X4026600D01*
Y4947575D01*
X3969700D01*
Y4922275D01*
X4026600D01*
Y4882275D01*
X3969700D01*
Y4856975D01*
X4026600D01*
Y4816975D01*
X3969700D01*
Y4800000D01*
X3760000D01*
Y4900000D01*
X3460000Y4900000D01*
X3460000Y4680000D01*
X3504601D01*
Y4655000D01*
X3600001D01*
Y4615000D01*
X3504601D01*
Y4600000D01*
X3335400D01*
Y4642500D01*
X3240001D01*
X3144601D01*
Y4600000D01*
X2832532Y4600000D01*
X2800400D01*
Y4745400D01*
X2580000D01*
Y4515001D01*
Y4284600D01*
X2610000D01*
Y4150000D01*
X1150000D01*
X1150000Y5000186D01*
X1170000Y5009180D01*
X1292885Y4958279D01*
X1430000Y4940228D01*
X1567115Y4958279D01*
X1694886Y5011204D01*
X1804605Y5095394D01*
X1888796Y5205114D01*
X1941721Y5332885D01*
X1959772Y5470000D01*
X1953853Y5514962D01*
X1967040Y5529999D01*
X3670000Y5530000D01*
Y5319999D01*
D02*
G37*
G36*
X4590000Y4910368D02*
X4580183Y4902311D01*
X4572501Y4903839D01*
X4545001D01*
Y4855001D01*
X4525001D01*
Y4835001D01*
X4433256D01*
X4441608Y4822500D01*
X4433256Y4810000D01*
X4525001D01*
Y4770000D01*
X4433256D01*
X4441608Y4757500D01*
X4433256Y4745000D01*
X4525001D01*
Y4705000D01*
X4425881D01*
X4422485Y4700000D01*
X4160000Y4699999D01*
Y4722100D01*
D01*
Y4747575D01*
X4114100D01*
Y4992574D01*
X4160000D01*
Y5017900D01*
X4160000D01*
Y5109999D01*
X4590000Y5110000D01*
X4590000Y4910368D01*
D02*
G37*
G36*
X7260000Y5000000D02*
X7474600D01*
Y4997500D01*
X7665400D01*
Y5000000D01*
X7894600D01*
Y4877500D01*
X8000000D01*
Y4857500D01*
X8020000D01*
Y4702100D01*
X8090000D01*
Y3849496D01*
X7670000Y3849496D01*
Y4190000D01*
X6910000D01*
Y4260000D01*
X6550000D01*
Y4320000D01*
X5640000D01*
Y4682500D01*
X5540000D01*
Y4702500D01*
X5520000D01*
Y4775400D01*
X5444600D01*
Y4700000D01*
X5225628D01*
X5221807Y4705000D01*
X5115001D01*
Y4745000D01*
X5206746D01*
X5198394Y4757500D01*
X5206746Y4770000D01*
X5115001D01*
Y4810000D01*
X5206747D01*
X5198394Y4822500D01*
X5206746Y4835000D01*
X5115001D01*
Y4855000D01*
X5095001D01*
Y4903839D01*
X5067501D01*
X5065461Y4903433D01*
X5050000Y4916121D01*
Y5040000D01*
X5651002Y5039999D01*
Y5470000D01*
X7260000D01*
X7260000Y5000000D01*
D02*
G37*
G36*
X6449600Y4010000D02*
Y3690000D01*
X6750400D01*
Y3971610D01*
X6760000Y3980000D01*
X7500000D01*
X7500000Y3189443D01*
X7464803Y3154247D01*
X7464802Y3154246D01*
X7420556Y3110000D01*
X6926199D01*
X6845400D01*
Y3152499D01*
X6750000D01*
X6654600D01*
Y3110000D01*
X6555400D01*
Y3142500D01*
X6364600D01*
Y3110000D01*
X5855400Y3109999D01*
Y3142500D01*
X5664601D01*
Y3109999D01*
X5319116D01*
X5155400D01*
Y3142500D01*
X5060000D01*
Y3162500D01*
X5040000D01*
Y3235400D01*
X4990000D01*
Y3289999D01*
X5710001Y4010000D01*
X6449600Y4010000D01*
D02*
G37*
G36*
X9910000Y4220000D02*
X8850000D01*
Y3400000D01*
X8450000D01*
Y4700000D01*
X9910000D01*
Y4220000D01*
D02*
G37*
%LPC*%
G36*
X4006600Y5017975D02*
X3969700D01*
Y4987575D01*
X4006600D01*
Y5017975D01*
D02*
G37*
G36*
X3335400Y4735400D02*
X3260001D01*
Y4682500D01*
X3335400D01*
Y4735400D01*
D02*
G37*
G36*
X3220001D02*
X3144601D01*
Y4682500D01*
X3220001D01*
Y4735400D01*
D02*
G37*
G36*
X2540001Y4745400D02*
X2319601D01*
Y4535001D01*
X2540001D01*
Y4745400D01*
D02*
G37*
G36*
Y4495001D02*
X2319601D01*
Y4284600D01*
X2540001D01*
Y4495001D01*
D02*
G37*
G36*
X4217900Y5017900D02*
X4200000D01*
Y4992574D01*
X4226700D01*
Y5017475D01*
X4217900D01*
Y5017900D01*
D02*
G37*
G36*
X4284600Y5017475D02*
X4266700D01*
Y4992574D01*
X4313250Y4992574D01*
Y5005775D01*
X4297300D01*
X4295350Y5005775D01*
X4284600Y5010481D01*
Y5017475D01*
D02*
G37*
G36*
X4353250Y5005775D02*
Y4987875D01*
X4371150D01*
Y5005775D01*
X4353250D01*
D02*
G37*
G36*
X4371150Y4947875D02*
X4346101D01*
Y4942877D01*
X4304100Y4942876D01*
X4304100Y4927426D01*
X4346100D01*
Y4922475D01*
X4370400D01*
Y4929975D01*
X4371150D01*
Y4947875D01*
D02*
G37*
G36*
X4505001Y4903839D02*
X4477501D01*
X4458811Y4900121D01*
X4442967Y4889534D01*
X4433256Y4875001D01*
X4505001D01*
Y4903839D01*
D02*
G37*
G36*
X4370400Y4882475D02*
X4346100D01*
Y4877776D01*
X4304100D01*
X4304101Y4862476D01*
X4346100D01*
Y4857075D01*
X4371300D01*
Y4874975D01*
X4370400D01*
Y4882475D01*
D02*
G37*
G36*
X4371300Y4817075D02*
X4346100D01*
Y4812676D01*
X4304100D01*
Y4797226D01*
X4346100D01*
Y4791675D01*
X4370550D01*
Y4799175D01*
X4371300D01*
Y4817075D01*
D02*
G37*
G36*
X4370550Y4751675D02*
X4352650D01*
Y4733775D01*
X4370550D01*
Y4751675D01*
D02*
G37*
G36*
X4312650Y4747575D02*
X4266700D01*
Y4723275D01*
X4284600D01*
Y4727620D01*
X4294750Y4733775D01*
X4297300Y4733775D01*
X4312650D01*
Y4747575D01*
D02*
G37*
G36*
X4226700D02*
X4200000D01*
Y4722100D01*
X4217900D01*
Y4723275D01*
X4226700D01*
Y4747575D01*
D02*
G37*
G36*
X6750400Y5270400D02*
X6620000D01*
Y4940000D01*
X6750400D01*
Y5270400D01*
D02*
G37*
G36*
X6580000D02*
X6449600D01*
Y4940000D01*
X6580000D01*
Y5270400D01*
D02*
G37*
G36*
X7665400Y4957500D02*
X7590000D01*
Y4904600D01*
X7665400D01*
Y4957500D01*
D02*
G37*
G36*
X7550000D02*
X7474600D01*
Y4904600D01*
X7550000D01*
Y4957500D01*
D02*
G37*
G36*
X5162501Y4903839D02*
X5135001D01*
Y4875000D01*
X5206746D01*
X5197035Y4889534D01*
X5181191Y4900121D01*
X5162501Y4903839D01*
D02*
G37*
G36*
X5635400Y4775400D02*
X5560000D01*
Y4722500D01*
X5635400D01*
Y4775400D01*
D02*
G37*
G36*
X7980000Y4837500D02*
X7894600D01*
Y4702100D01*
X7980000D01*
Y4837500D01*
D02*
G37*
G36*
X6750400Y4900000D02*
X6620000D01*
Y4569600D01*
X6750400D01*
Y4900000D01*
D02*
G37*
G36*
X6580000D02*
X6449600D01*
Y4569600D01*
X6580000D01*
Y4900000D01*
D02*
G37*
G36*
X6750400Y3650000D02*
X6620000D01*
Y3319600D01*
X6750400D01*
Y3650000D01*
D02*
G37*
G36*
X6580000D02*
X6449600D01*
Y3319600D01*
X6580000D01*
Y3650000D01*
D02*
G37*
G36*
X6845400Y3245400D02*
X6770000D01*
Y3192499D01*
X6845400D01*
Y3245400D01*
D02*
G37*
G36*
X6730001D02*
X6654600D01*
Y3192499D01*
X6730001D01*
Y3245400D01*
D02*
G37*
G36*
X6555400Y3235400D02*
X6480000D01*
Y3182500D01*
X6555400D01*
Y3235400D01*
D02*
G37*
G36*
X6440000D02*
X6364600D01*
Y3182500D01*
X6440000D01*
Y3235400D01*
D02*
G37*
G36*
X5855400D02*
X5780000D01*
Y3182500D01*
X5855400D01*
Y3235400D01*
D02*
G37*
G36*
X5740000D02*
X5664601D01*
Y3182500D01*
X5740000D01*
Y3235400D01*
D02*
G37*
G36*
X5155400D02*
X5080000D01*
Y3182500D01*
X5155400D01*
Y3235400D01*
D02*
G37*
%LPD*%
D10*
X7400000Y2737500D02*
D03*
X5660000Y1392500D02*
D03*
Y1207500D02*
D03*
X7570000Y4977500D02*
D03*
Y5162500D02*
D03*
X4520000Y3917500D02*
D03*
Y4102500D02*
D03*
X3240000Y4662500D02*
D03*
Y4477500D02*
D03*
X5540000Y4702500D02*
D03*
Y4517500D02*
D03*
X3240000Y4212500D02*
D03*
Y4027500D02*
D03*
Y3802500D02*
D03*
Y3617500D02*
D03*
X5540000Y4252500D02*
D03*
Y4067500D02*
D03*
X6750000Y3172500D02*
D03*
Y2987500D02*
D03*
X7610000Y3227500D02*
D03*
Y3412500D02*
D03*
Y2867500D02*
D03*
Y3052500D02*
D03*
X7400000Y2922500D02*
D03*
X3320000Y1762500D02*
D03*
Y1577500D02*
D03*
X1210000Y1762500D02*
D03*
Y1577500D02*
D03*
X6760000Y1782500D02*
D03*
Y1597500D02*
D03*
X4940000Y5247500D02*
D03*
Y5432500D02*
D03*
X2160000Y3162500D02*
D03*
X4710000Y1762500D02*
D03*
Y1577500D02*
D03*
X5410000Y1762500D02*
D03*
Y1577500D02*
D03*
X6110000Y1772500D02*
D03*
Y1587500D02*
D03*
X2640000Y3152500D02*
D03*
Y2967500D02*
D03*
X5060000Y3162500D02*
D03*
Y2977500D02*
D03*
X5760000Y3162500D02*
D03*
Y2977500D02*
D03*
X6460000Y3162500D02*
D03*
Y2977500D02*
D03*
X4010000Y1762500D02*
D03*
Y1577500D02*
D03*
X2160000Y2977500D02*
D03*
D11*
X7000000Y1020000D02*
D03*
X7220000Y1115000D02*
D03*
Y925000D02*
D03*
X3820001Y4730000D02*
D03*
X3600001Y4635000D02*
D03*
Y4825000D02*
D03*
D12*
X6600000Y3670000D02*
D03*
Y4920000D02*
D03*
D13*
X2560000Y4515000D02*
D03*
Y3725000D02*
D03*
D14*
X8000000Y4857500D02*
D03*
Y5262500D02*
D03*
D15*
X8057500Y1070000D02*
D03*
X8462500D02*
D03*
D16*
X3547500Y4300000D02*
D03*
X3732500D02*
D03*
X4047500Y4190000D02*
D03*
X4232500D02*
D03*
X4442500Y3730000D02*
D03*
X4257500D02*
D03*
X3547500Y3880000D02*
D03*
X3732500D02*
D03*
X4762500Y5250000D02*
D03*
X4577500D02*
D03*
X4762500Y5440000D02*
D03*
X4577500D02*
D03*
X3052500Y1720000D02*
D03*
X2867500D02*
D03*
X2302500D02*
D03*
X2117500D02*
D03*
X4402500Y5250000D02*
D03*
X4217500D02*
D03*
X7212500Y2910000D02*
D03*
X7027500D02*
D03*
D17*
X4275250Y4870825D02*
D03*
D18*
X4332650Y4771675D02*
D03*
X4333400Y4837075D02*
D03*
X4332500Y4902475D02*
D03*
X4333250Y4967875D02*
D03*
X4246700Y4761175D02*
D03*
X4180000Y4760000D02*
D03*
Y4980000D02*
D03*
X4246700Y4979575D02*
D03*
D19*
X4026600Y4967575D02*
D03*
Y4902275D02*
D03*
Y4836975D02*
D03*
Y4771675D02*
D03*
D20*
X4820001Y4562500D02*
D03*
D21*
X5115001Y4855000D02*
D03*
Y4790000D02*
D03*
Y4725000D02*
D03*
Y4660000D02*
D03*
Y4595000D02*
D03*
Y4530000D02*
D03*
Y4465000D02*
D03*
Y4400000D02*
D03*
Y4335000D02*
D03*
Y4270000D02*
D03*
X4525001D02*
D03*
Y4335000D02*
D03*
Y4400000D02*
D03*
Y4465000D02*
D03*
Y4530000D02*
D03*
Y4595000D02*
D03*
Y4660000D02*
D03*
Y4725000D02*
D03*
Y4790000D02*
D03*
Y4855000D02*
D03*
D22*
X5195407Y3715407D02*
D03*
X5064593Y3584593D02*
D03*
D23*
X3310000Y2045000D02*
D03*
X3564000D02*
D03*
Y2675000D02*
D03*
X3310000D02*
D03*
X2812999Y2675000D02*
D03*
X2558999D02*
D03*
Y2045000D02*
D03*
X2812999D02*
D03*
X1860000Y2675000D02*
D03*
Y2045000D02*
D03*
X2114000D02*
D03*
X1213000Y2045000D02*
D03*
X1467000D02*
D03*
Y2675000D02*
D03*
X1213000D02*
D03*
X7006999Y2685000D02*
D03*
X6752999D02*
D03*
Y2055000D02*
D03*
X7006999D02*
D03*
X4707999Y2045000D02*
D03*
X4961999D02*
D03*
Y2675000D02*
D03*
X4707999D02*
D03*
X5406999Y2045000D02*
D03*
X5660999D02*
D03*
Y2675000D02*
D03*
X5406999D02*
D03*
X6105999Y2045000D02*
D03*
X6359999D02*
D03*
Y2675000D02*
D03*
X6105999D02*
D03*
X4009000Y2045000D02*
D03*
X4263000D02*
D03*
Y2675000D02*
D03*
X4009000D02*
D03*
X2114000Y2675000D02*
D03*
D24*
X4415000Y3355000D02*
D03*
Y3545000D02*
D03*
X4185000Y3450000D02*
D03*
D25*
X7670000Y5262500D02*
X8000000D01*
X7570000Y5162500D02*
X7670000Y5262500D01*
X7570000Y5162500D02*
Y5530000D01*
D26*
X6370000Y3670000D02*
X6600000D01*
X6810000D01*
X2210000Y4510000D02*
X2555000D01*
X2560000Y4515000D01*
X2560000Y4515001D02*
Y4850000D01*
Y4515001D02*
X2560000Y4515000D01*
X6590000Y4910000D02*
X6600000Y4920000D01*
X6360000Y4910000D02*
X6590000D01*
X6600000Y4920000D02*
X6800000D01*
D27*
X5415000Y1582500D02*
X6110000D01*
X5432500Y1577500D02*
X5460950Y1549050D01*
Y1526550D02*
Y1549050D01*
X5566550Y1420950D02*
X5631550D01*
X5387500Y1577500D02*
X5432500D01*
X6110000Y1582500D02*
X6237150D01*
X5460950Y1526550D02*
X5566550Y1420950D01*
X5631550D02*
X5660000Y1392500D01*
X5265000Y1207500D02*
X5660000D01*
X5020000Y950000D02*
Y962500D01*
X5265000Y1207500D01*
X4710000Y1577500D02*
X5387500D01*
X4770001Y962500D02*
X5107501Y1300000D01*
X6087991D02*
X6360000Y1572009D01*
X5107501Y1300000D02*
X6087991D01*
X7008213Y1673372D02*
Y2053786D01*
X7006999Y2055000D02*
X7008213Y2053786D01*
Y1673372D02*
X7009427Y1672158D01*
X8462500Y1490500D02*
X8622000Y1650000D01*
X8642000D01*
X8462500Y1070000D02*
Y1490500D01*
X6990000Y1325000D02*
Y1390000D01*
X6760000Y1597500D02*
X6782500D01*
X7200000Y1115000D02*
X7220000D01*
X6990000Y1325000D02*
X7200000Y1115000D01*
X6782500Y1597500D02*
X6990000Y1390000D01*
X7040217Y1650000D02*
X7880000D01*
X7018059Y1672158D02*
X7040217Y1650000D01*
X7009427Y1672158D02*
X7018059D01*
X8057500Y1070000D02*
Y1492500D01*
X7900000Y1650000D02*
X8057500Y1492500D01*
X7880000Y1650000D02*
X7900000D01*
X8412500Y1070000D02*
X8462500D01*
X7000000Y1020000D02*
X7594181D01*
X7658472Y955710D01*
X8298210D01*
X8412500Y1070000D01*
X5020000Y937500D02*
X5187500Y770000D01*
X5020000Y937500D02*
Y950000D01*
X5187500Y770000D02*
X7045000D01*
X7200000Y925000D02*
X7220000D01*
X7045000Y770000D02*
X7200000Y925000D01*
X5477137Y4170631D02*
X6134120D01*
X6218765Y4085985D02*
X7541265D01*
X6134120Y4170631D02*
X6218765Y4085985D01*
X7541265D02*
X7625910Y4001340D01*
Y3428410D02*
Y4001340D01*
X5382370Y4102370D02*
Y4292370D01*
X5270000Y4080000D02*
Y4260000D01*
X4990000Y3900000D02*
X5115001Y4025001D01*
X4980000Y3700000D02*
X5382370Y4102370D01*
X4650000Y3700000D02*
X4980000D01*
X5115001Y4025001D02*
Y4270000D01*
X4470950Y3770000D02*
X4960000D01*
X5270000Y4080000D01*
X4940000Y5432500D02*
X5677682D01*
X5700000Y4980000D02*
Y5410181D01*
X5677682Y5432500D02*
X5700000Y5410181D01*
X5435710Y4129203D02*
X5477137Y4170631D01*
X5435710Y4080276D02*
Y4129203D01*
X5195407Y3839973D02*
X5435710Y4080276D01*
X5179497Y3771552D02*
X5195407Y3787462D01*
Y3839973D01*
X5179497Y3731317D02*
X5195407Y3715407D01*
X5179497Y3731317D02*
Y3771552D01*
X7610000Y3412500D02*
X7625910Y3428410D01*
X5382370Y4292370D02*
X5470000Y4380000D01*
X1210000Y1577500D02*
X1479339D01*
X1516839Y1540000D01*
X1525472D01*
X1467000Y2700000D02*
X2011290Y3244290D01*
X2714290D01*
X2285738Y785738D02*
X2368239D01*
X2520000Y937500D01*
X2090000Y590000D02*
X2285738Y785738D01*
X4009500Y2675500D02*
Y2809500D01*
X4010000Y2810000D01*
X3504030Y2894030D02*
X4054030D01*
X3987370Y2947370D02*
X4250000Y3210000D01*
X2740001Y3070000D02*
X2862631Y2947370D01*
X3987370D01*
X4054030Y2894030D02*
X4380000Y3220000D01*
X4009000Y2675000D02*
X4009500Y2675500D01*
X6938873Y3040000D02*
X7400000D01*
X7489525Y3129525D02*
Y3129525D01*
X7400000Y3040000D02*
X7489525Y3129525D01*
Y3129525D02*
X7587500Y3227500D01*
X7610000D01*
X6870240Y2980000D02*
X6878872D01*
X6938873Y3040000D01*
X5880241Y2980000D02*
X6339760D01*
X5180241D02*
X5639760D01*
X4907991Y3070000D02*
X6645000D01*
X6727500Y2987500D01*
X4688701Y3289290D02*
X4907991Y3070000D01*
X4900545Y3278153D02*
Y3419455D01*
X4860000Y3460000D02*
X4900545Y3419455D01*
Y3278153D02*
X4930000Y3248698D01*
Y3150000D02*
Y3248698D01*
X4300710Y3289290D02*
X4688701D01*
X6750000Y2987500D02*
X6752999Y2984501D01*
Y2685000D02*
Y2984501D01*
X6727500Y2987500D02*
X6750000D01*
X5276320Y4463680D02*
X5280000Y4460000D01*
X5115001Y4465000D02*
X5116321Y4463680D01*
X5276320D01*
X5271399Y4360000D02*
X5280000D01*
X5231399Y4400000D02*
X5271399Y4360000D01*
X5196320Y4333680D02*
X5270000Y4260000D01*
X5319999Y4530000D02*
X5470000Y4380000D01*
X5116321Y4333680D02*
X5196320D01*
X7645993Y2737500D02*
X7730000Y2821507D01*
Y3910000D01*
X4442500Y3730000D02*
Y3741550D01*
X4470950Y3770000D01*
X7400000Y2737500D02*
X7645993D01*
X7610000Y3052500D02*
Y3227500D01*
X7532500Y2922500D02*
X7587500Y2867500D01*
X7400000Y2922500D02*
X7532500D01*
X7587500Y2867500D02*
X7610000D01*
X7225000Y2922500D02*
X7400000D01*
X7212500Y2910000D02*
X7225000Y2922500D01*
X4705001Y3630000D02*
X4950005D01*
X4979502Y3600503D01*
X4430001Y3355000D02*
X4705001Y3630000D01*
X4979502Y3600503D02*
X5048683D01*
X4569290Y3619290D02*
X4650000Y3700000D01*
X4415000Y3355000D02*
X4430001D01*
X5048683Y3600503D02*
X5064593Y3584593D01*
X2114000Y2700000D02*
X2160000Y2746001D01*
X2114000Y2675000D02*
Y2700000D01*
X2160000Y2746001D02*
Y2977500D01*
X6237150Y1582500D02*
X6270845Y1616195D01*
X4010000Y1577500D02*
X4710000D01*
X6270845Y1616195D02*
Y1680844D01*
X3320000Y1577500D02*
X4010000D01*
X6270845Y1680844D02*
X6276948Y1686948D01*
X3172500Y1577500D02*
X3320000D01*
X3052500Y1697500D02*
X3172500Y1577500D01*
X2750000Y1394999D02*
X3052500Y1697500D01*
Y1720000D01*
X2425000D02*
X2750000Y1394999D01*
Y1210000D02*
Y1394999D01*
X2302500Y1720000D02*
X2425000D01*
X2520001Y980001D02*
X2750000Y1210000D01*
X2520001Y950000D02*
Y980001D01*
X7017249Y2695251D02*
Y2899749D01*
X7027500Y2910000D01*
X7006999Y2685000D02*
X7017249Y2695251D01*
X4095000Y4030000D02*
X4232500Y4167500D01*
Y4190000D01*
X4315001D01*
X3675000Y4030000D02*
X4095000D01*
X4315001Y4190000D02*
X4384489Y4259489D01*
X3547500Y3902500D02*
X3675000Y4030000D01*
X4384489Y4259489D02*
Y4322302D01*
X3547500Y3857500D02*
Y3880000D01*
Y3902500D01*
X4384489Y4322302D02*
X4460867Y4398680D01*
X3492501Y3802500D02*
X3547500Y3857500D01*
X4460867Y4398680D02*
X4523681D01*
X3240000Y3802500D02*
X3492501D01*
X4523681Y4398680D02*
X4525001Y4400000D01*
X3135710Y3720710D02*
X3217500Y3802500D01*
X3240000D01*
X3135710Y3524290D02*
Y3720710D01*
Y3524290D02*
X3270000Y3390000D01*
X3390000D01*
X3620000Y3160000D01*
X3970000Y3730000D02*
X4257500D01*
X3745001Y4510000D02*
X3960000D01*
X4090000D01*
X3620001Y4635000D02*
X3745001Y4510000D01*
X4110000Y4530000D02*
X4525000D01*
X4090000Y4510000D02*
X4110000Y4530000D01*
X3600001Y4635000D02*
X3620001D01*
X4525000Y4530000D02*
X4525001Y4530000D01*
Y4335000D02*
X4669051D01*
X4690001Y4302500D02*
Y4314050D01*
X4669051Y4335000D02*
X4690001Y4314050D01*
X4266500Y1693500D02*
Y2041500D01*
X4263000Y2045000D02*
X4266500Y2041500D01*
Y1693500D02*
X4270000Y1690000D01*
X3520000Y1680000D02*
Y1688632D01*
X3567000Y1735632D01*
Y2042000D01*
X3564000Y2045000D02*
X3567000Y2042000D01*
X6410000Y1455000D02*
X6737500Y1782500D01*
X6752999Y1789501D02*
X6760000Y1782500D01*
X6752999Y1789501D02*
Y2055000D01*
X6737500Y1782500D02*
X6760000D01*
X6410000Y1220000D02*
Y1455000D01*
X2640000Y3152500D02*
X2642500Y3150000D01*
X2790000D01*
X2939290Y3000710D01*
X3770710D01*
X3920000Y3150000D01*
Y3410000D01*
X4129290Y3619290D01*
X4569290D01*
X5115001Y4530000D02*
X5319999D01*
X4577500Y5440000D02*
Y5461550D01*
X4549050Y5490000D02*
X4577500Y5461550D01*
X4000000Y5490000D02*
X4549050D01*
X2960000Y3955000D02*
X3217500Y4212500D01*
X3240000D01*
X2960000Y3490000D02*
Y3955000D01*
X2714290Y3244290D02*
X2960000Y3490000D01*
X1467000Y2675000D02*
Y2700000D01*
X3450000Y4420000D02*
X3519050Y4350950D01*
X3519050D01*
X3547500Y4322500D01*
Y4300000D02*
Y4322500D01*
X3313269Y4420000D02*
X3450000D01*
X3290950Y4442319D02*
X3313269Y4420000D01*
X3262500Y4477500D02*
X3290950Y4449050D01*
Y4442319D02*
Y4449050D01*
X3240000Y4477500D02*
X3262500D01*
X3820000Y4190000D02*
X4047500D01*
Y4212500D02*
X4300001Y4465000D01*
X4047500Y4190000D02*
Y4212500D01*
X3732500Y4277500D02*
X3820000Y4190000D01*
X4300001Y4465000D02*
X4525001D01*
X3732500Y4277500D02*
Y4300000D01*
X3482500Y4027500D02*
X3732500Y4277500D01*
X3240000Y4027500D02*
X3482500D01*
X3189050Y3999050D02*
X3217500Y4027500D01*
X3240000D01*
X3050000Y3837500D02*
X3189050Y3976550D01*
Y3999050D01*
X3050000Y3297340D02*
Y3837500D01*
Y3297340D02*
X3120000Y3227340D01*
Y3170000D02*
Y3227340D01*
X1213000Y1765500D02*
Y2045000D01*
X1210000Y1762500D02*
X1213000Y1765500D01*
X6360000Y1572009D02*
Y1865294D01*
X6359999Y1865295D02*
Y2045000D01*
Y1865295D02*
X6360000Y1865294D01*
X4940000Y5092056D02*
Y5247500D01*
Y5092056D02*
X4973424Y5058632D01*
X4971542Y5050000D02*
X4973424D01*
X4907323Y4985781D02*
X4971542Y5050000D01*
X4973424D02*
X5173424Y5250000D01*
X4973424Y5050000D02*
Y5058632D01*
X4834219Y4985781D02*
X4907323D01*
X5173424Y5250000D02*
X5480000D01*
X4762500Y5057500D02*
X4834219Y4985781D01*
X5354792Y4660000D02*
X5388764Y4626028D01*
X5397396D01*
X4762500Y5057500D02*
Y5250000D01*
X5115001Y4660000D02*
X5354792D01*
X2275000Y3070000D02*
X2740001D01*
X2182500Y3162500D02*
X2275000Y3070000D01*
X2160000Y3162500D02*
X2182500D01*
X4402500Y5227500D02*
X4484290Y5145710D01*
X4402500Y5227500D02*
Y5250000D01*
X4484290Y5145710D02*
X4639203D01*
X4659290Y5165797D01*
Y5314290D01*
X4762500Y5417500D01*
Y5440000D01*
X4966000Y1734000D02*
Y2041000D01*
X4961999Y2045000D02*
X4966000Y2041000D01*
Y1734000D02*
X4970000Y1730000D01*
X4520000Y4102500D02*
Y4266813D01*
X4523188Y4270000D01*
X4525001D01*
X6105999Y1776501D02*
X6110000Y1772500D01*
X6105999Y1776501D02*
Y2045000D01*
X2812999Y1797001D02*
Y2045000D01*
Y1797001D02*
X2867500Y1742500D01*
Y1697500D02*
Y1720000D01*
Y1742500D01*
X2766104Y1596103D02*
X2867500Y1697500D01*
X2760000Y1580000D02*
X2766104Y1586104D01*
Y1596103D01*
X2872315Y1365052D02*
X3270000Y967368D01*
Y950000D02*
Y967368D01*
X1467000Y2045000D02*
X1468500Y2043500D01*
Y1711500D02*
Y2043500D01*
Y1711500D02*
X1470000Y1710000D01*
X3820001Y4730000D02*
X3976701D01*
X4018751Y4772050D01*
X4025251D01*
X4026601Y4771675D02*
X4033101D01*
X4144776Y4660000D01*
X4525001D01*
X5660000Y1670000D02*
X5660500Y1670500D01*
Y2044500D01*
X5660999Y2045000D01*
X3310000Y1772500D02*
X3320000Y1762500D01*
X3310000Y1772500D02*
Y2045000D01*
X4707999Y1764500D02*
X4710000Y1762500D01*
X4707999Y1764500D02*
Y2045000D01*
X2114000Y2045000D02*
X2115750Y2043250D01*
Y1721750D02*
Y2043250D01*
X2117500Y1697500D02*
Y1720000D01*
Y1697500D02*
X2275000Y1540000D01*
X2115750Y1721750D02*
X2117500Y1720000D01*
X2275000Y1540000D02*
X2400000D01*
X5115001Y4400000D02*
X5231399D01*
X4380000Y3220000D02*
X4660000D01*
X3310000Y2700000D02*
X3504030Y2894030D01*
X3310000Y2675000D02*
Y2700000D01*
X2558999Y2675000D02*
Y2909000D01*
X2617500Y2967500D01*
X2640000D01*
X4682049Y2700950D02*
X4707999Y2675000D01*
X4682049Y2700950D02*
Y2877951D01*
X4500000Y3060000D02*
X4682049Y2877951D01*
X3240000Y3617500D02*
X3243750Y3613750D01*
X3496250D01*
X3760000Y3350000D01*
X1872451Y2030000D02*
Y2045000D01*
X1213000Y2675000D02*
Y4333000D01*
X1510001Y4630000D01*
X5406999Y1765501D02*
Y2045000D01*
Y1765501D02*
X5410000Y1762500D01*
X5540000Y4252500D02*
Y4517500D01*
X5407934D02*
X5540000D01*
X5330433Y4595000D02*
X5407934Y4517500D01*
X5115001Y4595000D02*
X5330433D01*
X3786507D02*
X4525001D01*
X3715711Y4665797D02*
X3786507Y4595000D01*
X3715711Y4665797D02*
Y4729290D01*
X3620001Y4825000D02*
X3715711Y4729290D01*
X3600001Y4825000D02*
X3620001D01*
X3732500Y3880000D02*
X3880000D01*
X5115001Y4335000D02*
X5116321Y4333680D01*
X4210950Y3379050D02*
Y3439050D01*
X4200000Y3450000D02*
X4210950Y3439050D01*
X4185000Y3450000D02*
X4200000D01*
X4210950Y3379050D02*
X4300710Y3289290D01*
X4009000Y1763500D02*
Y2045000D01*
Y1763500D02*
X4010000Y1762500D01*
X6750000Y1500000D02*
Y1587500D01*
X6760000Y1597500D01*
D28*
X1510001Y3410000D02*
X2018001D01*
X2472000Y3608790D02*
Y3647000D01*
X2018001Y3410000D02*
X2273211D01*
X2472000Y3608790D01*
Y3647000D02*
X2550000Y3725000D01*
X2560000D01*
D29*
X5520000Y3930000D02*
Y4065000D01*
D30*
X5060000Y2798001D02*
Y2977500D01*
X4961999Y2700000D02*
X5060000Y2798001D01*
X5660999Y2675000D02*
Y2700000D01*
X5760000Y2799001D01*
Y2977500D01*
X6359999Y2675000D02*
Y2700000D01*
X6460000Y2800001D01*
Y2977500D01*
X4961999Y2675000D02*
Y2700000D01*
X4412500Y3547500D02*
X4415000Y3545000D01*
X4312500Y3547500D02*
X4412500D01*
X4310000Y3550000D02*
X4312500Y3547500D01*
D31*
X2558999Y1928901D02*
Y2045000D01*
X1860000Y2675000D02*
Y2806099D01*
X3564000Y2675000D02*
Y2806099D01*
X4388902Y3917500D02*
X4520000D01*
X4263000Y2675000D02*
Y2806099D01*
X1860000Y1928901D02*
Y2045000D01*
D32*
X5950000Y960000D02*
D03*
X7690000Y4540000D02*
D03*
X2560000Y5070000D02*
D03*
X3120000Y3170000D02*
D03*
X4500000Y3060000D02*
D03*
X3620000Y3160000D02*
D03*
X7570000Y5530000D02*
D03*
X2090000Y590000D02*
D03*
X5480000Y5250000D02*
D03*
X4000000Y5490000D02*
D03*
X4860000Y3460000D02*
D03*
D33*
X1430000Y5470000D02*
D03*
X9370000D02*
D03*
X1430000Y930000D02*
D03*
X9370000D02*
D03*
D34*
X9680000Y4489984D02*
D03*
X9172000D02*
D03*
X2018001Y4580000D02*
D03*
X1510001D02*
D03*
X2018001Y3410000D02*
D03*
X1510001D02*
D03*
X9680000Y3319984D02*
D03*
X9172000D02*
D03*
D35*
X8642000Y1650000D02*
D03*
Y3540000D02*
D03*
X7880000Y4040000D02*
D03*
Y1650000D02*
D03*
D36*
X5020000Y950000D02*
D03*
X4770000D02*
D03*
X4520000D02*
D03*
X4270000D02*
D03*
X4020000D02*
D03*
X3770000D02*
D03*
X3520000D02*
D03*
X3270000D02*
D03*
X3020000D02*
D03*
X2770000D02*
D03*
X2520000D02*
D03*
D37*
X5270000D02*
D03*
D38*
X4690001Y4302500D02*
D03*
Y4822500D02*
D03*
Y4562500D02*
D03*
Y4692500D02*
D03*
X4820001Y4432500D02*
D03*
Y4302500D02*
D03*
X4950001Y4432500D02*
D03*
X4690001D02*
D03*
X4950001Y4302500D02*
D03*
X4820001Y4562500D02*
D03*
Y4692500D02*
D03*
Y4822500D02*
D03*
X4950001Y4692500D02*
D03*
Y4822500D02*
D03*
Y4562500D02*
D03*
D39*
X6240000Y3590000D02*
D03*
X6900000Y3400000D02*
D03*
Y3600000D02*
D03*
X5990000Y3590000D02*
D03*
X6240000Y3380000D02*
D03*
X4990000Y3900000D02*
D03*
X1525472Y1540000D02*
D03*
X4010000Y2810000D02*
D03*
X5520000Y3930000D02*
D03*
X7140000Y3600000D02*
D03*
X6870240Y2980000D02*
D03*
X6339760D02*
D03*
X5880241D02*
D03*
X5639760D02*
D03*
X5180241D02*
D03*
X4930000Y3150000D02*
D03*
X5280000Y4460000D02*
D03*
X7360000Y3400000D02*
D03*
X5280000Y4360000D02*
D03*
X7140000Y3400000D02*
D03*
X7350000Y3600000D02*
D03*
X5470000Y4380000D02*
D03*
X7040000Y3230000D02*
D03*
X7350000Y3220000D02*
D03*
X4577500Y5250000D02*
D03*
X6276948Y1686948D02*
D03*
X7009427Y1672158D02*
D03*
X3970000Y3730000D02*
D03*
X3960000Y4510000D02*
D03*
X2558999Y1928901D02*
D03*
X4270000Y1690000D02*
D03*
X3520000Y1680000D02*
D03*
X2470000Y3630000D02*
D03*
X2670000D02*
D03*
Y3810000D02*
D03*
X2470000D02*
D03*
X6410000Y1220000D02*
D03*
X4577500Y5440000D02*
D03*
X4973424Y5050000D02*
D03*
X5397396Y4626028D02*
D03*
X4250000Y3210000D02*
D03*
X1860000Y2806099D02*
D03*
X4970000Y1730000D02*
D03*
X2760000Y1580000D02*
D03*
X2872315Y1365052D02*
D03*
X3564000Y2806099D02*
D03*
X1470000Y1710000D02*
D03*
X5660000Y1670000D02*
D03*
X2400000Y1540000D02*
D03*
X4660000Y3220000D02*
D03*
X4388902Y3917500D02*
D03*
X5406999Y2675000D02*
D03*
X4707999D02*
D03*
X6107402Y2678270D02*
D03*
X4310000Y3550000D02*
D03*
X4263000Y2806099D02*
D03*
X3760000Y3350000D02*
D03*
X1860000Y1928901D02*
D03*
X2812999Y2675000D02*
D03*
X1213000Y2675000D02*
D03*
X3880000Y3880000D02*
D03*
X6750000Y1500000D02*
D03*
X5410000Y3220000D02*
D03*
X6030000D02*
D03*
X5990000Y3380000D02*
D03*
X5690000Y3590000D02*
D03*
Y3380000D02*
D03*
X5410000D02*
D03*
%TF.MD5,06a9f913ff4d5427460fa61ea4b23a35*%
M02*
