%TF.GenerationSoftware,Altium Limited,Altium Designer,21.0.9 (235)*%
G04 Layer_Color=128*
%FSLAX45Y45*%
%MOMM*%
%TF.SameCoordinates,71B597FC-B595-447E-897B-07A554CEBC7C*%
%TF.FilePolarity,Positive*%
%TF.FileFunction,Drillmap*%
%TF.Part,Single*%
G01*
G75*
%TA.AperFunction,NonConductor*%
%ADD73C,0.12700*%
D73*
X5870000Y960000D02*
X6030000D01*
X5950000Y880000D02*
Y1040000D01*
X1230000Y5470000D02*
X1630000D01*
X1430000Y5270000D02*
Y5670000D01*
X9170000Y5470000D02*
X9570000D01*
X9370000Y5270000D02*
Y5670000D01*
X1230000Y930000D02*
X1630000D01*
X1430000Y730000D02*
Y1130000D01*
X9170000Y930000D02*
X9570000D01*
X9370000Y730000D02*
Y1130000D01*
X9607500Y4489984D02*
X9752500D01*
X9680000Y4417484D02*
Y4562484D01*
X9099500Y4489984D02*
X9244500D01*
X9172000Y4417484D02*
Y4562484D01*
X1945501Y4580000D02*
X2090501D01*
X2018001Y4507500D02*
Y4652500D01*
X1437501Y4580000D02*
X1582501D01*
X1510001Y4507500D02*
Y4652500D01*
X1945501Y3410000D02*
X2090501D01*
X2018001Y3337500D02*
Y3482500D01*
X1437501Y3410000D02*
X1582501D01*
X1510001Y3337500D02*
Y3482500D01*
X9607500Y3319984D02*
X9752500D01*
X9680000Y3247484D02*
Y3392484D01*
X9099500Y3319984D02*
X9244500D01*
X9172000Y3247484D02*
Y3392484D01*
X8612000Y1650000D02*
X8672000D01*
X8642000Y1620000D02*
Y1680000D01*
X8612000Y3540000D02*
X8672000D01*
X8642000Y3510000D02*
Y3570000D01*
X7850000Y4040000D02*
X7910000D01*
X7880000Y4010000D02*
Y4069999D01*
X7850000Y1650000D02*
X7910000D01*
X7880000Y1620000D02*
Y1680000D01*
X7610000Y4540000D02*
X7770000D01*
X7690000Y4460000D02*
Y4620000D01*
X2480000Y5070000D02*
X2640000D01*
X2560000Y4990000D02*
Y5150000D01*
X3040000Y3170000D02*
X3200000D01*
X3120000Y3090000D02*
Y3250000D01*
X4420000Y3060000D02*
X4580000D01*
X4500000Y2980000D02*
Y3140000D01*
X3540000Y3160000D02*
X3700000D01*
X3620000Y3080000D02*
Y3240000D01*
X7490000Y5530000D02*
X7650000D01*
X7570000Y5450000D02*
Y5610000D01*
X4972500Y950000D02*
X5067500D01*
X5020000Y902500D02*
Y997500D01*
X2010000Y590000D02*
X2170000D01*
X2090000Y510000D02*
Y670000D01*
X5222500Y950000D02*
X5317500D01*
X5270000Y902500D02*
Y997500D01*
X4722500Y950000D02*
X4817500D01*
X4770000Y902500D02*
Y997500D01*
X4472500Y950000D02*
X4567500D01*
X4520000Y902500D02*
Y997500D01*
X4222500Y950000D02*
X4317500D01*
X4270000Y902500D02*
Y997500D01*
X3972500Y950000D02*
X4067500D01*
X4020000Y902500D02*
Y997500D01*
X3722500Y950000D02*
X3817500D01*
X3770000Y902500D02*
Y997500D01*
X3472500Y950000D02*
X3567500D01*
X3520000Y902500D02*
Y997500D01*
X3222500Y950000D02*
X3317500D01*
X3270000Y902500D02*
Y997500D01*
X2972500Y950000D02*
X3067500D01*
X3020000Y902500D02*
Y997500D01*
X2722500Y950000D02*
X2817500D01*
X2770000Y902500D02*
Y997500D01*
X2472500Y950000D02*
X2567500D01*
X2520000Y902500D02*
Y997500D01*
X5400000Y5250000D02*
X5560000D01*
X5480000Y5170000D02*
Y5330000D01*
X3920000Y5490000D02*
X4080000D01*
X4000000Y5410000D02*
Y5570000D01*
X4780000Y3460000D02*
X4940000D01*
X4860000Y3380000D02*
Y3540000D01*
X4675001Y4302500D02*
X4705001D01*
X4690001Y4287500D02*
Y4317500D01*
X4675001Y4822500D02*
X4705001D01*
X4690001Y4807500D02*
Y4837500D01*
X4675001Y4562500D02*
X4705001D01*
X4690001Y4547500D02*
Y4577500D01*
X4675001Y4692500D02*
X4705001D01*
X4690001Y4677500D02*
Y4707500D01*
X4805001Y4432500D02*
X4835001D01*
X4820001Y4417500D02*
Y4447500D01*
X4805001Y4302500D02*
X4835001D01*
X4820001Y4287500D02*
Y4317500D01*
X4935001Y4432500D02*
X4965001D01*
X4950001Y4417500D02*
Y4447500D01*
X4675001Y4432500D02*
X4705001D01*
X4690001Y4417500D02*
Y4447500D01*
X4935001Y4302500D02*
X4965001D01*
X4950001Y4287500D02*
Y4317500D01*
X4805001Y4562500D02*
X4835001D01*
X4820001Y4547500D02*
Y4577500D01*
X4805001Y4692500D02*
X4835001D01*
X4820001Y4677500D02*
Y4707500D01*
X4805001Y4822500D02*
X4835001D01*
X4820001Y4807500D02*
Y4837500D01*
X4935001Y4692500D02*
X4965001D01*
X4950001Y4677500D02*
Y4707500D01*
X4935001Y4822500D02*
X4965001D01*
X4950001Y4807500D02*
Y4837500D01*
X4935001Y4562500D02*
X4965001D01*
X4950001Y4547500D02*
Y4577500D01*
X6225000Y3590000D02*
X6255000D01*
X6240000Y3575000D02*
Y3605000D01*
X6885000Y3400000D02*
X6915000D01*
X6900000Y3385000D02*
Y3415000D01*
X6885000Y3600000D02*
X6915000D01*
X6900000Y3585000D02*
Y3615000D01*
X5975000Y3590000D02*
X6005000D01*
X5990000Y3575000D02*
Y3605000D01*
X6225000Y3380000D02*
X6255000D01*
X6240000Y3365000D02*
Y3395000D01*
X4975000Y3900000D02*
X5005000D01*
X4990000Y3885000D02*
Y3915000D01*
X1510472Y1540000D02*
X1540472D01*
X1525472Y1525000D02*
Y1555000D01*
X3995000Y2810000D02*
X4025000D01*
X4010000Y2795000D02*
Y2825000D01*
X5505000Y3930000D02*
X5535000D01*
X5520000Y3915000D02*
Y3945000D01*
X7125000Y3600000D02*
X7155000D01*
X7140000Y3585000D02*
Y3615000D01*
X6855240Y2980000D02*
X6885240D01*
X6870240Y2965000D02*
Y2995000D01*
X6324760Y2980000D02*
X6354760D01*
X6339760Y2965000D02*
Y2995000D01*
X5865241Y2980000D02*
X5895241D01*
X5880241Y2965000D02*
Y2995000D01*
X5624760Y2980000D02*
X5654760D01*
X5639760Y2965000D02*
Y2995000D01*
X5165241Y2980000D02*
X5195241D01*
X5180241Y2965000D02*
Y2995000D01*
X4915000Y3150000D02*
X4945000D01*
X4930000Y3135000D02*
Y3165000D01*
X5265000Y4460000D02*
X5295000D01*
X5280000Y4445000D02*
Y4475000D01*
X7345000Y3400000D02*
X7375000D01*
X7360000Y3385000D02*
Y3415000D01*
X5265000Y4360000D02*
X5295000D01*
X5280000Y4345000D02*
Y4375000D01*
X7125000Y3400000D02*
X7155000D01*
X7140000Y3385000D02*
Y3415000D01*
X7335000Y3600000D02*
X7365000D01*
X7350000Y3585000D02*
Y3615000D01*
X5455000Y4380000D02*
X5485000D01*
X5470000Y4365000D02*
Y4395000D01*
X7025000Y3230000D02*
X7055000D01*
X7040000Y3215000D02*
Y3245000D01*
X7335000Y3220000D02*
X7365000D01*
X7350000Y3205000D02*
Y3235000D01*
X4562500Y5250000D02*
X4592500D01*
X4577500Y5235000D02*
Y5265000D01*
X6261948Y1686948D02*
X6291948D01*
X6276948Y1671948D02*
Y1701948D01*
X6994427Y1672158D02*
X7024427D01*
X7009427Y1657158D02*
Y1687158D01*
X3955000Y3730000D02*
X3985000D01*
X3970000Y3715000D02*
Y3745000D01*
X3945000Y4510000D02*
X3975000D01*
X3960000Y4495000D02*
Y4525000D01*
X2543999Y1928901D02*
X2573999D01*
X2558999Y1913901D02*
Y1943901D01*
X4255000Y1690000D02*
X4285000D01*
X4270000Y1675000D02*
Y1705000D01*
X3505000Y1680000D02*
X3535000D01*
X3520000Y1665000D02*
Y1695000D01*
X2455000Y3630000D02*
X2485000D01*
X2470000Y3615000D02*
Y3645000D01*
X2655000Y3630000D02*
X2685000D01*
X2670000Y3615000D02*
Y3645000D01*
X2655000Y3810000D02*
X2685000D01*
X2670000Y3795000D02*
Y3825000D01*
X2455000Y3810000D02*
X2485000D01*
X2470000Y3795000D02*
Y3825000D01*
X6395000Y1220000D02*
X6425000D01*
X6410000Y1205000D02*
Y1235000D01*
X4562500Y5440000D02*
X4592500D01*
X4577500Y5425000D02*
Y5455000D01*
X4958424Y5050000D02*
X4988424D01*
X4973424Y5035000D02*
Y5065000D01*
X5382396Y4626028D02*
X5412396D01*
X5397396Y4611028D02*
Y4641028D01*
X4235000Y3210000D02*
X4265000D01*
X4250000Y3195000D02*
Y3225000D01*
X1845000Y2806099D02*
X1875000D01*
X1860000Y2791099D02*
Y2821099D01*
X4955000Y1730000D02*
X4985000D01*
X4970000Y1715000D02*
Y1745000D01*
X2745000Y1580000D02*
X2775000D01*
X2760000Y1565000D02*
Y1595000D01*
X2857315Y1365052D02*
X2887315D01*
X2872315Y1350052D02*
Y1380052D01*
X3549000Y2806099D02*
X3579000D01*
X3564000Y2791099D02*
Y2821099D01*
X1455000Y1710000D02*
X1485000D01*
X1470000Y1695000D02*
Y1725000D01*
X5645000Y1670000D02*
X5675000D01*
X5660000Y1655000D02*
Y1685000D01*
X2385000Y1540000D02*
X2415000D01*
X2400000Y1525000D02*
Y1555000D01*
X4645000Y3220000D02*
X4675000D01*
X4660000Y3205000D02*
Y3235000D01*
X4373902Y3917500D02*
X4403902D01*
X4388902Y3902500D02*
Y3932500D01*
X5391999Y2675000D02*
X5421999D01*
X5406999Y2660000D02*
Y2690000D01*
X4693000Y2675000D02*
X4722999D01*
X4707999Y2660000D02*
Y2690000D01*
X6092402Y2678270D02*
X6122402D01*
X6107402Y2663270D02*
Y2693270D01*
X4295000Y3550000D02*
X4325000D01*
X4310000Y3535000D02*
Y3565000D01*
X4248000Y2806099D02*
X4278000D01*
X4263000Y2791099D02*
Y2821099D01*
X3745000Y3350000D02*
X3775000D01*
X3760000Y3335000D02*
Y3365000D01*
X1845000Y1928901D02*
X1875000D01*
X1860000Y1913901D02*
Y1943901D01*
X2797999Y2675000D02*
X2827999D01*
X2812999Y2660000D02*
Y2690000D01*
X1198000Y2675000D02*
X1228000D01*
X1213000Y2660000D02*
Y2690000D01*
X3865000Y3880000D02*
X3895000D01*
X3880000Y3865000D02*
Y3895000D01*
X6735000Y1500000D02*
X6765000D01*
X6750000Y1485000D02*
Y1515000D01*
X5395000Y3220000D02*
X5425000D01*
X5410000Y3205000D02*
Y3235000D01*
X6015000Y3220000D02*
X6045000D01*
X6030000Y3205000D02*
Y3235000D01*
X5975000Y3380000D02*
X6005000D01*
X5990000Y3365000D02*
Y3395000D01*
X5675000Y3590000D02*
X5705000D01*
X5690000Y3575000D02*
Y3605000D01*
X5675000Y3380000D02*
X5705000D01*
X5690000Y3365000D02*
Y3395000D01*
X5395000Y3380000D02*
X5425000D01*
X5410000Y3365000D02*
Y3395000D01*
%TF.MD5,bb5006dab522fc55b662111f45e844cc*%
M02*
