%TF.GenerationSoftware,Altium Limited,Altium Designer,21.0.9 (235)*%
G04 Layer_Color=8388736*
%FSLAX45Y45*%
%MOMM*%
%TF.SameCoordinates,71B597FC-B595-447E-897B-07A554CEBC7C*%
%TF.FilePolarity,Negative*%
%TF.FileFunction,Soldermask,Top*%
%TF.Part,Single*%
G01*
G75*
%TA.AperFunction,SMDPad,CuDef*%
%ADD17R,0.50000X0.50000*%
%TA.AperFunction,BGAPad,CuDef*%
%ADD18R,0.25000X0.25000*%
%TA.AperFunction,ComponentPad*%
%ADD39C,2.70320*%
%ADD40C,5.20320*%
%ADD41C,2.40320*%
%ADD42O,2.20320X1.80320*%
G04:AMPARAMS|DCode=43|XSize=1.9032mm|YSize=2.1532mm|CornerRadius=0.9516mm|HoleSize=0mm|Usage=FLASHONLY|Rotation=180.000|XOffset=0mm|YOffset=0mm|HoleType=Round|Shape=RoundedRectangle|*
%AMROUNDEDRECTD43*
21,1,1.90320,0.25000,0,0,180.0*
21,1,0.00000,2.15320,0,0,180.0*
1,1,1.90320,0.00000,0.12500*
1,1,1.90320,0.00000,0.12500*
1,1,1.90320,0.00000,-0.12500*
1,1,1.90320,0.00000,-0.12500*
%
%ADD43ROUNDEDRECTD43*%
G04:AMPARAMS|DCode=44|XSize=1.9032mm|YSize=2.1532mm|CornerRadius=0.2291mm|HoleSize=0mm|Usage=FLASHONLY|Rotation=180.000|XOffset=0mm|YOffset=0mm|HoleType=Round|Shape=RoundedRectangle|*
%AMROUNDEDRECTD44*
21,1,1.90320,1.69500,0,0,180.0*
21,1,1.44500,2.15320,0,0,180.0*
1,1,0.45820,-0.72250,0.84750*
1,1,0.45820,0.72250,0.84750*
1,1,0.45820,0.72250,-0.84750*
1,1,0.45820,-0.72250,-0.84750*
%
%ADD44ROUNDEDRECTD44*%
%TA.AperFunction,NonConductor*%
%ADD53R,3.06000X3.06000*%
%TA.AperFunction,SMDPad,CuDef*%
%ADD54R,1.60320X1.15320*%
%ADD55R,1.60320X1.20320*%
%ADD56R,2.70320X6.70320*%
%ADD57R,4.50320X4.30320*%
%ADD58R,1.80320X2.80320*%
%ADD59R,2.80320X1.80320*%
%ADD60R,1.15320X1.60320*%
%ADD61R,0.79000X0.66000*%
%ADD62O,1.50000X0.55000*%
G04:AMPARAMS|DCode=63|XSize=1.6032mm|YSize=1.1532mm|CornerRadius=0mm|HoleSize=0mm|Usage=FLASHONLY|Rotation=135.000|XOffset=0mm|YOffset=0mm|HoleType=Round|Shape=Rectangle|*
%AMROTATEDRECTD63*
4,1,4,0.97453,-0.15910,0.15910,-0.97453,-0.97453,0.15910,-0.15910,0.97453,0.97453,-0.15910,0.0*
%
%ADD63ROTATEDRECTD63*%

%ADD64R,1.10320X1.60320*%
%ADD65R,1.10320X0.80320*%
G36*
X4346101Y5002755D02*
X4347430Y5002668D01*
X4348737Y5002408D01*
X4349998Y5001980D01*
X4351192Y5001391D01*
X4352300Y5000651D01*
X4353301Y4999773D01*
X4354179Y4998772D01*
X4354919Y4997664D01*
X4355508Y4996470D01*
X4355936Y4995209D01*
X4356196Y4993902D01*
X4356283Y4992573D01*
X4356283Y4942877D01*
X4356196Y4941548D01*
X4355936Y4940242D01*
X4355791Y4939814D01*
X4355508Y4938981D01*
X4354919Y4937786D01*
X4354179Y4936679D01*
X4353301Y4935678D01*
X4353301D01*
Y4935677D01*
X4352701Y4935151D01*
X4353300Y4934626D01*
X4354178Y4933624D01*
X4354918Y4932517D01*
X4355507Y4931322D01*
X4355935Y4930061D01*
X4356195Y4928755D01*
X4356282Y4927426D01*
Y4877776D01*
X4356195Y4876447D01*
X4355935Y4875141D01*
X4355507Y4873880D01*
X4354918Y4872685D01*
X4354178Y4871578D01*
X4353300Y4870577D01*
X4352786Y4870126D01*
X4353300Y4869676D01*
X4354178Y4868675D01*
X4354918Y4867567D01*
X4355507Y4866373D01*
X4355935Y4865112D01*
X4356195Y4863805D01*
X4356282Y4862476D01*
X4356282Y4812676D01*
X4356195Y4811348D01*
X4355935Y4810041D01*
X4355507Y4808780D01*
X4354918Y4807586D01*
X4354178Y4806478D01*
X4353300Y4805477D01*
X4352701Y4804952D01*
X4353300Y4804426D01*
X4354178Y4803425D01*
X4354918Y4802317D01*
X4355507Y4801123D01*
X4355935Y4799862D01*
X4356195Y4798555D01*
X4356282Y4797226D01*
Y4747575D01*
X4356195Y4746246D01*
X4355935Y4744939D01*
X4355507Y4743678D01*
X4354918Y4742484D01*
X4354178Y4741376D01*
X4353300Y4740375D01*
X4352299Y4739497D01*
X4351191Y4738757D01*
X4349997Y4738168D01*
X4348736Y4737740D01*
X4347429Y4737480D01*
X4346100Y4737393D01*
X4114100D01*
X4112771Y4737480D01*
X4111465Y4737740D01*
X4110204Y4738168D01*
X4109009Y4738757D01*
X4107902Y4739497D01*
X4106901Y4740375D01*
X4106023Y4741376D01*
X4105283Y4742484D01*
X4104693Y4743678D01*
X4104265Y4744939D01*
X4104006Y4746246D01*
X4103918Y4747575D01*
Y4992574D01*
X4104006Y4993903D01*
X4104265Y4995210D01*
X4104693Y4996471D01*
X4105283Y4997665D01*
X4106023Y4998773D01*
X4106901Y4999774D01*
X4107902Y5000652D01*
X4109009Y5001392D01*
X4110204Y5001981D01*
X4111465Y5002409D01*
X4112771Y5002669D01*
X4114100Y5002756D01*
X4175600D01*
X4346101Y5002755D01*
D02*
G37*
D17*
X4275250Y4870825D02*
D03*
D18*
X4332650Y4771675D02*
D03*
X4333400Y4837075D02*
D03*
X4332500Y4902475D02*
D03*
X4333250Y4967875D02*
D03*
X4246700Y4761175D02*
D03*
X4180000Y4760000D02*
D03*
Y4980000D02*
D03*
X4246700Y4979575D02*
D03*
D39*
X5950000Y960000D02*
D03*
X7690000Y4540000D02*
D03*
X2560000Y5070000D02*
D03*
X3120000Y3170000D02*
D03*
X4500000Y3060000D02*
D03*
X3620000Y3160000D02*
D03*
X7570000Y5530000D02*
D03*
X2090000Y590000D02*
D03*
X5480000Y5250000D02*
D03*
X4000000Y5490000D02*
D03*
X4860000Y3460000D02*
D03*
D40*
X1430000Y5470000D02*
D03*
X9370000D02*
D03*
X1430000Y930000D02*
D03*
X9370000D02*
D03*
D41*
X9680000Y4489984D02*
D03*
X9172000D02*
D03*
X2018001Y4580000D02*
D03*
X1510001D02*
D03*
X2018001Y3410000D02*
D03*
X1510001D02*
D03*
X9680000Y3319984D02*
D03*
X9172000D02*
D03*
D42*
X8642000Y1650000D02*
D03*
Y3540000D02*
D03*
X7880000Y4040000D02*
D03*
Y1650000D02*
D03*
D43*
X5020000Y950000D02*
D03*
X4770000D02*
D03*
X4520000D02*
D03*
X4270000D02*
D03*
X4020000D02*
D03*
X3770000D02*
D03*
X3520000D02*
D03*
X3270000D02*
D03*
X3020000D02*
D03*
X2770000D02*
D03*
X2520000D02*
D03*
D44*
X5270000D02*
D03*
D53*
X4820001Y4562500D02*
D03*
D54*
X7400000Y2737500D02*
D03*
X5660000Y1392500D02*
D03*
Y1207500D02*
D03*
X7570000Y4977500D02*
D03*
Y5162500D02*
D03*
X4520000Y3917500D02*
D03*
Y4102500D02*
D03*
X3240000Y4662500D02*
D03*
Y4477500D02*
D03*
X5540000Y4702500D02*
D03*
Y4517500D02*
D03*
X3240000Y4212500D02*
D03*
Y4027500D02*
D03*
Y3802500D02*
D03*
Y3617500D02*
D03*
X5540000Y4252500D02*
D03*
Y4067500D02*
D03*
X6750000Y3172500D02*
D03*
Y2987500D02*
D03*
X7610000Y3227500D02*
D03*
Y3412500D02*
D03*
Y2867500D02*
D03*
Y3052500D02*
D03*
X7400000Y2922500D02*
D03*
X3320000Y1762500D02*
D03*
Y1577500D02*
D03*
X1210000Y1762500D02*
D03*
Y1577500D02*
D03*
X6760000Y1782500D02*
D03*
Y1597500D02*
D03*
X4940000Y5247500D02*
D03*
Y5432500D02*
D03*
X2160000Y3162500D02*
D03*
X4710000Y1762500D02*
D03*
Y1577500D02*
D03*
X5410000Y1762500D02*
D03*
Y1577500D02*
D03*
X6110000Y1772500D02*
D03*
Y1587500D02*
D03*
X2640000Y3152500D02*
D03*
Y2967500D02*
D03*
X5060000Y3162500D02*
D03*
Y2977500D02*
D03*
X5760000Y3162500D02*
D03*
Y2977500D02*
D03*
X6460000Y3162500D02*
D03*
Y2977500D02*
D03*
X4010000Y1762500D02*
D03*
Y1577500D02*
D03*
X2160000Y2977500D02*
D03*
D55*
X7000000Y1020000D02*
D03*
X7220000Y1115000D02*
D03*
Y925000D02*
D03*
X3820001Y4730000D02*
D03*
X3600001Y4635000D02*
D03*
Y4825000D02*
D03*
D56*
X6600000Y3670000D02*
D03*
Y4920000D02*
D03*
D57*
X2560000Y4515000D02*
D03*
Y3725000D02*
D03*
D58*
X8000000Y4857500D02*
D03*
Y5262500D02*
D03*
D59*
X8057500Y1070000D02*
D03*
X8462500D02*
D03*
D60*
X3547500Y4300000D02*
D03*
X3732500D02*
D03*
X4047500Y4190000D02*
D03*
X4232500D02*
D03*
X4442500Y3730000D02*
D03*
X4257500D02*
D03*
X3547500Y3880000D02*
D03*
X3732500D02*
D03*
X4762500Y5250000D02*
D03*
X4577500D02*
D03*
X4762500Y5440000D02*
D03*
X4577500D02*
D03*
X3052500Y1720000D02*
D03*
X2867500D02*
D03*
X2302500D02*
D03*
X2117500D02*
D03*
X4402500Y5250000D02*
D03*
X4217500D02*
D03*
X7212500Y2910000D02*
D03*
X7027500D02*
D03*
D61*
X4026600Y4967575D02*
D03*
Y4902275D02*
D03*
Y4836975D02*
D03*
Y4771675D02*
D03*
D62*
X5115001Y4855000D02*
D03*
Y4790000D02*
D03*
Y4725000D02*
D03*
Y4660000D02*
D03*
Y4595000D02*
D03*
Y4530000D02*
D03*
Y4465000D02*
D03*
Y4400000D02*
D03*
Y4335000D02*
D03*
Y4270000D02*
D03*
X4525001D02*
D03*
Y4335000D02*
D03*
Y4400000D02*
D03*
Y4465000D02*
D03*
Y4530000D02*
D03*
Y4595000D02*
D03*
Y4660000D02*
D03*
Y4725000D02*
D03*
Y4790000D02*
D03*
Y4855000D02*
D03*
D63*
X5195407Y3715407D02*
D03*
X5064593Y3584593D02*
D03*
D64*
X3310000Y2045000D02*
D03*
X3564000D02*
D03*
Y2675000D02*
D03*
X3310000D02*
D03*
X2812999Y2675000D02*
D03*
X2558999D02*
D03*
Y2045000D02*
D03*
X2812999D02*
D03*
X1860000Y2675000D02*
D03*
Y2045000D02*
D03*
X2114000D02*
D03*
X1213000Y2045000D02*
D03*
X1467000D02*
D03*
Y2675000D02*
D03*
X1213000D02*
D03*
X7006999Y2685000D02*
D03*
X6752999D02*
D03*
Y2055000D02*
D03*
X7006999D02*
D03*
X4707999Y2045000D02*
D03*
X4961999D02*
D03*
Y2675000D02*
D03*
X4707999D02*
D03*
X5406999Y2045000D02*
D03*
X5660999D02*
D03*
Y2675000D02*
D03*
X5406999D02*
D03*
X6105999Y2045000D02*
D03*
X6359999D02*
D03*
Y2675000D02*
D03*
X6105999D02*
D03*
X4009000Y2045000D02*
D03*
X4263000D02*
D03*
Y2675000D02*
D03*
X4009000D02*
D03*
X2114000Y2675000D02*
D03*
D65*
X4415000Y3355000D02*
D03*
Y3545000D02*
D03*
X4185000Y3450000D02*
D03*
%TF.MD5,0a8c97bb6451d2fa469a7a31aa61a055*%
M02*
