%TF.GenerationSoftware,Altium Limited,Altium Designer,21.0.9 (235)*%
G04 Layer_Color=0*
%FSLAX45Y45*%
%MOMM*%
%TF.SameCoordinates,71B597FC-B595-447E-897B-07A554CEBC7C*%
%TF.FilePolarity,Positive*%
%TF.FileFunction,Plated,1,2,PTH,Drill*%
%TF.Part,Single*%
G01*
G75*
%TA.AperFunction,ComponentDrill*%
%ADD66C,1.60000*%
%ADD67C,4.00000*%
%ADD68C,1.45000*%
%ADD69O,1.00000X0.60000*%
%ADD70C,0.95000*%
%TA.AperFunction,ViaDrill,NotFilled*%
%ADD71C,0.30000*%
D66*
X5950000Y960000D02*
D03*
X7690000Y4540000D02*
D03*
X2560000Y5070000D02*
D03*
X3120000Y3170000D02*
D03*
X4500000Y3060000D02*
D03*
X3620000Y3160000D02*
D03*
X7570000Y5530000D02*
D03*
X2090000Y590000D02*
D03*
X5480000Y5250000D02*
D03*
X4000000Y5490000D02*
D03*
X4860000Y3460000D02*
D03*
D67*
X1430000Y5470000D02*
D03*
X9370000D02*
D03*
X1430000Y930000D02*
D03*
X9370000D02*
D03*
D68*
X9680000Y4489984D02*
D03*
X9172000D02*
D03*
X2018001Y4580000D02*
D03*
X1510001D02*
D03*
X2018001Y3410000D02*
D03*
X1510001D02*
D03*
X9680000Y3319984D02*
D03*
X9172000D02*
D03*
D69*
X8642000Y1650000D02*
D03*
Y3540000D02*
D03*
X7880000Y4040000D02*
D03*
Y1650000D02*
D03*
D70*
X5020000Y950000D02*
D03*
X5270000D02*
D03*
X4770000D02*
D03*
X4520000D02*
D03*
X4270000D02*
D03*
X4020000D02*
D03*
X3770000D02*
D03*
X3520000D02*
D03*
X3270000D02*
D03*
X3020000D02*
D03*
X2770000D02*
D03*
X2520000D02*
D03*
D71*
X4690001Y4302500D02*
D03*
Y4822500D02*
D03*
Y4562500D02*
D03*
Y4692500D02*
D03*
X4820001Y4432500D02*
D03*
Y4302500D02*
D03*
X4950001Y4432500D02*
D03*
X4690001D02*
D03*
X4950001Y4302500D02*
D03*
X4820001Y4562500D02*
D03*
Y4692500D02*
D03*
Y4822500D02*
D03*
X4950001Y4692500D02*
D03*
Y4822500D02*
D03*
Y4562500D02*
D03*
X6240000Y3590000D02*
D03*
X6900000Y3400000D02*
D03*
Y3600000D02*
D03*
X5990000Y3590000D02*
D03*
X6240000Y3380000D02*
D03*
X4990000Y3900000D02*
D03*
X1525472Y1540000D02*
D03*
X4010000Y2810000D02*
D03*
X5520000Y3930000D02*
D03*
X7140000Y3600000D02*
D03*
X6870240Y2980000D02*
D03*
X6339760D02*
D03*
X5880241D02*
D03*
X5639760D02*
D03*
X5180241D02*
D03*
X4930000Y3150000D02*
D03*
X5280000Y4460000D02*
D03*
X7360000Y3400000D02*
D03*
X5280000Y4360000D02*
D03*
X7140000Y3400000D02*
D03*
X7350000Y3600000D02*
D03*
X5470000Y4380000D02*
D03*
X7040000Y3230000D02*
D03*
X7350000Y3220000D02*
D03*
X4577500Y5250000D02*
D03*
X6276948Y1686948D02*
D03*
X7009427Y1672158D02*
D03*
X3970000Y3730000D02*
D03*
X3960000Y4510000D02*
D03*
X2558999Y1928901D02*
D03*
X4270000Y1690000D02*
D03*
X3520000Y1680000D02*
D03*
X2470000Y3630000D02*
D03*
X2670000D02*
D03*
Y3810000D02*
D03*
X2470000D02*
D03*
X6410000Y1220000D02*
D03*
X4577500Y5440000D02*
D03*
X4973424Y5050000D02*
D03*
X5397396Y4626028D02*
D03*
X4250000Y3210000D02*
D03*
X1860000Y2806099D02*
D03*
X4970000Y1730000D02*
D03*
X2760000Y1580000D02*
D03*
X2872315Y1365052D02*
D03*
X3564000Y2806099D02*
D03*
X1470000Y1710000D02*
D03*
X5660000Y1670000D02*
D03*
X2400000Y1540000D02*
D03*
X4660000Y3220000D02*
D03*
X4388902Y3917500D02*
D03*
X5406999Y2675000D02*
D03*
X4707999D02*
D03*
X6107402Y2678270D02*
D03*
X4310000Y3550000D02*
D03*
X4263000Y2806099D02*
D03*
X3760000Y3350000D02*
D03*
X1860000Y1928901D02*
D03*
X2812999Y2675000D02*
D03*
X1213000Y2675000D02*
D03*
X3880000Y3880000D02*
D03*
X6750000Y1500000D02*
D03*
X5410000Y3220000D02*
D03*
X6030000D02*
D03*
X5990000Y3380000D02*
D03*
X5690000Y3590000D02*
D03*
Y3380000D02*
D03*
X5410000D02*
D03*
%TF.MD5,ef36af68aa2ee099acf30c594c7c425f*%
M02*
