%TF.GenerationSoftware,Altium Limited,Altium Designer,21.3.2 (30)*%
G04 Layer_Color=2752767*
%FSLAX45Y45*%
%MOMM*%
%TF.SameCoordinates,D9DFDB92-F573-4E1A-9105-0BCF1000EC4C*%
%TF.FilePolarity,Positive*%
%TF.FileFunction,Drawing*%
%TF.Part,Single*%
G01*
G75*
%TA.AperFunction,NonConductor*%
%ADD72C,0.12700*%
%ADD73C,0.16933*%
D72*
X8241200Y3249200D02*
Y3350800D01*
X8342800D01*
Y3249200D01*
X8241200D01*
X8749200D02*
Y3350800D01*
X8850800D01*
Y3249200D01*
X8749200D01*
X8241200Y3749200D02*
Y3850800D01*
X8342800D01*
Y3749200D01*
X8241200D01*
X8749200D02*
Y3850800D01*
X8850800D01*
Y3749200D01*
X8749200D01*
X3100000Y469200D02*
X3049200Y570800D01*
X3150800D01*
X3100000Y469200D01*
X3350000D02*
X3299200Y570800D01*
X3400800D01*
X3350000Y469200D01*
X3600000D02*
X3549200Y570800D01*
X3650800D01*
X3600000Y469200D01*
X3850000D02*
X3799200Y570800D01*
X3900800D01*
X3850000Y469200D01*
X4100000D02*
X4049200Y570800D01*
X4150800D01*
X4100000Y469200D01*
X4350000D02*
X4299200Y570800D01*
X4400800D01*
X4350000Y469200D01*
X4600000D02*
X4549200Y570800D01*
X4650800D01*
X4600000Y469200D01*
X4850000D02*
X4799200Y570800D01*
X4900800D01*
X4850000Y469200D01*
X549200Y3349200D02*
Y3450800D01*
X650800D01*
Y3349200D01*
X549200D01*
X1057200D02*
Y3450800D01*
X1158800D01*
Y3349200D01*
X1057200D01*
X549200Y3849200D02*
Y3950800D01*
X650800D01*
Y3849200D01*
X549200D01*
X1057200D02*
Y3950800D01*
X1158800D01*
Y3849200D01*
X1057200D01*
X8500000Y549200D02*
X8525400Y574600D01*
X8550800D01*
X8525400Y600000D01*
X8550800Y625400D01*
X8525400D01*
X8500000Y650800D01*
X8474600Y625400D01*
X8449200D01*
X8474600Y600000D01*
X8449200Y574600D01*
X8474600D01*
X8500000Y549200D01*
X600000Y549200D02*
X625400Y574600D01*
X650800D01*
X625400Y600000D01*
X650800Y625400D01*
X625400D01*
X600000Y650800D01*
X574600Y625400D01*
X549200D01*
X574600Y600000D01*
X549200Y574600D01*
X574600D01*
X600000Y549200D01*
X8500000Y5049200D02*
X8525400Y5074600D01*
X8550800D01*
X8525400Y5100000D01*
X8550800Y5125400D01*
X8525400D01*
X8500000Y5150800D01*
X8474600Y5125400D01*
X8449200D01*
X8474600Y5100000D01*
X8449200Y5074600D01*
X8474600D01*
X8500000Y5049200D01*
X600000D02*
X625400Y5074600D01*
X650800D01*
X625400Y5100000D01*
X650800Y5125400D01*
X625400D01*
X600000Y5150800D01*
X574600Y5125400D01*
X549200D01*
X574600Y5100000D01*
X549200Y5074600D01*
X574600D01*
X600000Y5049200D01*
X4469200Y3569200D02*
X4494600Y3620000D01*
X4469200Y3670800D01*
X4520000Y3645400D01*
X4570800Y3670800D01*
X4545400Y3620000D01*
X4570800Y3569200D01*
X4520000Y3594600D01*
X4469200Y3569200D01*
X2789200Y2919200D02*
X2814600Y2970000D01*
X2789200Y3020800D01*
X2840000Y2995400D01*
X2890800Y3020800D01*
X2865400Y2970000D01*
X2890800Y2919200D01*
X2840000Y2944600D01*
X2789200Y2919200D01*
X1889200Y3249200D02*
X1914600Y3300000D01*
X1889200Y3350800D01*
X1940000Y3325400D01*
X1990800Y3350800D01*
X1965400Y3300000D01*
X1990800Y3249200D01*
X1940000Y3274600D01*
X1889200Y3249200D01*
Y3069200D02*
X1914600Y3120000D01*
X1889200Y3170800D01*
X1940000Y3145400D01*
X1990800Y3170800D01*
X1965400Y3120000D01*
X1990800Y3069200D01*
X1940000Y3094600D01*
X1889200Y3069200D01*
X2089200D02*
X2114600Y3120000D01*
X2089200Y3170800D01*
X2140000Y3145400D01*
X2190800Y3170800D01*
X2165400Y3120000D01*
X2190800Y3069200D01*
X2140000Y3094600D01*
X2089200Y3069200D01*
Y3249200D02*
X2114600Y3300000D01*
X2089200Y3350800D01*
X2140000Y3325400D01*
X2190800Y3350800D01*
X2165400Y3300000D01*
X2190800Y3249200D01*
X2140000Y3274600D01*
X2089200Y3249200D01*
X2419200Y1479200D02*
X2444600Y1530000D01*
X2419200Y1580800D01*
X2470000Y1555400D01*
X2520800Y1580800D01*
X2495400Y1530000D01*
X2520800Y1479200D01*
X2470000Y1504600D01*
X2419200Y1479200D01*
X4142012Y3762813D02*
X4167412Y3813613D01*
X4142012Y3864413D01*
X4192812Y3839013D01*
X4243612Y3864413D01*
X4218212Y3813613D01*
X4243612Y3762813D01*
X4192812Y3788213D01*
X4142012Y3762813D01*
X2499200Y2919200D02*
X2524600Y2970000D01*
X2499200Y3020800D01*
X2550000Y2995400D01*
X2600800Y3020800D01*
X2575400Y2970000D01*
X2600800Y2919200D01*
X2550000Y2944600D01*
X2499200Y2919200D01*
X3419200Y2459200D02*
X3444600Y2510000D01*
X3419200Y2560800D01*
X3470000Y2535400D01*
X3520800Y2560800D01*
X3495400Y2510000D01*
X3520800Y2459200D01*
X3470000Y2484600D01*
X3419200Y2459200D01*
X3429200Y1409200D02*
X3454600Y1460000D01*
X3429200Y1510800D01*
X3480000Y1485400D01*
X3530800Y1510800D01*
X3505400Y1460000D01*
X3530800Y1409200D01*
X3480000Y1434600D01*
X3429200Y1409200D01*
X2829200Y1359200D02*
X2854600Y1410000D01*
X2829200Y1460800D01*
X2880000Y1435400D01*
X2930800Y1460800D01*
X2905400Y1410000D01*
X2930800Y1359200D01*
X2880000Y1384600D01*
X2829200Y1359200D01*
X6479200Y849200D02*
X6504600Y900000D01*
X6479200Y950800D01*
X6530000Y925400D01*
X6580800Y950800D01*
X6555400Y900000D01*
X6580800Y849200D01*
X6530000Y874600D01*
X6479200Y849200D01*
X5479200Y1449200D02*
X5504600Y1500000D01*
X5479200Y1550800D01*
X5530000Y1525400D01*
X5580800Y1550800D01*
X5555400Y1500000D01*
X5580800Y1449200D01*
X5530000Y1474600D01*
X5479200Y1449200D01*
X4779200Y1409200D02*
X4804600Y1460000D01*
X4779200Y1510800D01*
X4830000Y1485400D01*
X4880800Y1510800D01*
X4855400Y1460000D01*
X4880800Y1409200D01*
X4830000Y1434600D01*
X4779200Y1409200D01*
X4089200Y1349200D02*
X4114600Y1400000D01*
X4089200Y1450800D01*
X4140000Y1425400D01*
X4190800Y1450800D01*
X4165400Y1400000D01*
X4190800Y1349200D01*
X4140000Y1374600D01*
X4089200Y1349200D01*
X6714600Y5174600D02*
Y5149200D01*
X6765400D01*
Y5174600D01*
X6790800D01*
Y5225400D01*
X6765400D01*
Y5250800D01*
X6714600D01*
Y5225400D01*
X6689200D01*
Y5174600D01*
X6714600D01*
X4389200Y4139200D02*
X4414600Y4190000D01*
X4389200Y4240800D01*
X4440000Y4215400D01*
X4490800Y4240800D01*
X4465400Y4190000D01*
X4490800Y4139200D01*
X4440000Y4164600D01*
X4389200Y4139200D01*
X4139200Y3609200D02*
X4164600Y3660000D01*
X4139200Y3710800D01*
X4190000Y3685400D01*
X4240800Y3710800D01*
X4215400Y3660000D01*
X4240800Y3609200D01*
X4190000Y3634600D01*
X4139200Y3609200D01*
X4359200Y3829200D02*
X4384600Y3880000D01*
X4359200Y3930800D01*
X4410000Y3905400D01*
X4460800Y3930800D01*
X4435400Y3880000D01*
X4460800Y3829200D01*
X4410000Y3854600D01*
X4359200Y3829200D01*
X4309200Y4839200D02*
X4334600Y4890000D01*
X4309200Y4940800D01*
X4360000Y4915400D01*
X4410800Y4940800D01*
X4385400Y4890000D01*
X4410800Y4839200D01*
X4360000Y4864600D01*
X4309200Y4839200D01*
X4519200Y4249200D02*
X4544600Y4300000D01*
X4519200Y4350800D01*
X4570000Y4325400D01*
X4620800Y4350800D01*
X4595400Y4300000D01*
X4620800Y4249200D01*
X4570000Y4274600D01*
X4519200Y4249200D01*
X3014910Y3439820D02*
X3040310Y3490620D01*
X3014910Y3541420D01*
X3065710Y3516020D01*
X3116510Y3541420D01*
X3091110Y3490620D01*
X3116510Y3439820D01*
X3065710Y3465220D01*
X3014910Y3439820D01*
X4069201Y4181700D02*
X4094601Y4232500D01*
X4069201Y4283300D01*
X4120001Y4257900D01*
X4170801Y4283300D01*
X4145401Y4232500D01*
X4170801Y4181700D01*
X4120001Y4207100D01*
X4069201Y4181700D01*
Y4441700D02*
X4094601Y4492500D01*
X4069201Y4543300D01*
X4120001Y4517900D01*
X4170801Y4543300D01*
X4145401Y4492500D01*
X4170801Y4441700D01*
X4120001Y4467100D01*
X4069201Y4441700D01*
Y4311700D02*
X4094601Y4362500D01*
X4069201Y4413300D01*
X4120001Y4387900D01*
X4170801Y4413300D01*
X4145401Y4362500D01*
X4170801Y4311700D01*
X4120001Y4337100D01*
X4069201Y4311700D01*
X3939201Y4441700D02*
X3964601Y4492500D01*
X3939201Y4543300D01*
X3990001Y4517900D01*
X4040801Y4543300D01*
X4015401Y4492500D01*
X4040801Y4441700D01*
X3990001Y4467100D01*
X3939201Y4441700D01*
Y4311700D02*
X3964601Y4362500D01*
X3939201Y4413300D01*
X3990001Y4387900D01*
X4040801Y4413300D01*
X4015401Y4362500D01*
X4040801Y4311700D01*
X3990001Y4337100D01*
X3939201Y4311700D01*
Y4181700D02*
X3964601Y4232500D01*
X3939201Y4283300D01*
X3990001Y4257900D01*
X4040801Y4283300D01*
X4015401Y4232500D01*
X4040801Y4181700D01*
X3990001Y4207100D01*
X3939201Y4181700D01*
X4069201Y3921700D02*
X4094601Y3972500D01*
X4069201Y4023300D01*
X4120001Y3997900D01*
X4170801Y4023300D01*
X4145401Y3972500D01*
X4170801Y3921700D01*
X4120001Y3947100D01*
X4069201Y3921700D01*
X3809201Y4051700D02*
X3834601Y4102500D01*
X3809201Y4153300D01*
X3860001Y4127900D01*
X3910801Y4153300D01*
X3885401Y4102500D01*
X3910801Y4051700D01*
X3860001Y4077100D01*
X3809201Y4051700D01*
X4069201D02*
X4094601Y4102500D01*
X4069201Y4153300D01*
X4120001Y4127900D01*
X4170801Y4153300D01*
X4145401Y4102500D01*
X4170801Y4051700D01*
X4120001Y4077100D01*
X4069201Y4051700D01*
X3939201Y3921700D02*
X3964601Y3972500D01*
X3939201Y4023300D01*
X3990001Y3997900D01*
X4040801Y4023300D01*
X4015401Y3972500D01*
X4040801Y3921700D01*
X3990001Y3947100D01*
X3939201Y3921700D01*
Y4051700D02*
X3964601Y4102500D01*
X3939201Y4153300D01*
X3990001Y4127900D01*
X4040801Y4153300D01*
X4015401Y4102500D01*
X4040801Y4051700D01*
X3990001Y4077100D01*
X3939201Y4051700D01*
X3809201Y4311700D02*
X3834601Y4362500D01*
X3809201Y4413300D01*
X3860001Y4387900D01*
X3910801Y4413300D01*
X3885401Y4362500D01*
X3910801Y4311700D01*
X3860001Y4337100D01*
X3809201Y4311700D01*
Y4181700D02*
X3834601Y4232500D01*
X3809201Y4283300D01*
X3860001Y4257900D01*
X3910801Y4283300D01*
X3885401Y4232500D01*
X3910801Y4181700D01*
X3860001Y4207100D01*
X3809201Y4181700D01*
Y4441700D02*
X3834601Y4492500D01*
X3809201Y4543300D01*
X3860001Y4517900D01*
X3910801Y4543300D01*
X3885401Y4492500D01*
X3910801Y4441700D01*
X3860001Y4467100D01*
X3809201Y4441700D01*
Y3921700D02*
X3834601Y3972500D01*
X3809201Y4023300D01*
X3860001Y3997900D01*
X3910801Y4023300D01*
X3885401Y3972500D01*
X3910801Y3921700D01*
X3860001Y3947100D01*
X3809201Y3921700D01*
X4529200Y2999200D02*
X4554600Y3050000D01*
X4529200Y3100800D01*
X4580000Y3075400D01*
X4630800Y3100800D01*
X4605400Y3050000D01*
X4630800Y2999200D01*
X4580000Y3024600D01*
X4529200Y2999200D01*
X4809200D02*
X4834600Y3050000D01*
X4809200Y3100800D01*
X4860000Y3075400D01*
X4910800Y3100800D01*
X4885400Y3050000D01*
X4910800Y2999200D01*
X4860000Y3024600D01*
X4809200Y2999200D01*
Y3209200D02*
X4834600Y3260000D01*
X4809200Y3310800D01*
X4860000Y3285400D01*
X4910800Y3310800D01*
X4885400Y3260000D01*
X4910800Y3209200D01*
X4860000Y3234600D01*
X4809200Y3209200D01*
X5109200Y2999200D02*
X5134600Y3050000D01*
X5109200Y3100800D01*
X5160000Y3075400D01*
X5210800Y3100800D01*
X5185400Y3050000D01*
X5210800Y2999200D01*
X5160000Y3024600D01*
X5109200Y2999200D01*
X5149200Y2839200D02*
X5174600Y2890000D01*
X5149200Y2940800D01*
X5200000Y2915400D01*
X5250800Y2940800D01*
X5225400Y2890000D01*
X5250800Y2839200D01*
X5200000Y2864600D01*
X5149200Y2839200D01*
X4529200D02*
X4554600Y2890000D01*
X4529200Y2940800D01*
X4580000Y2915400D01*
X4630800Y2940800D01*
X4605400Y2890000D01*
X4630800Y2839200D01*
X4580000Y2864600D01*
X4529200Y2839200D01*
X5226602Y2297470D02*
X5252002Y2348270D01*
X5226602Y2399070D01*
X5277402Y2373670D01*
X5328202Y2399070D01*
X5302802Y2348270D01*
X5328202Y2297470D01*
X5277402Y2322870D01*
X5226602Y2297470D01*
X3827200Y2294200D02*
X3852600Y2345000D01*
X3827200Y2395800D01*
X3878000Y2370400D01*
X3928800Y2395800D01*
X3903400Y2345000D01*
X3928800Y2294200D01*
X3878000Y2319600D01*
X3827200Y2294200D01*
X4526199D02*
X4551599Y2345000D01*
X4526199Y2395800D01*
X4576999Y2370400D01*
X4627799Y2395800D01*
X4602399Y2345000D01*
X4627799Y2294200D01*
X4576999Y2319600D01*
X4526199Y2294200D01*
X3508102Y3536700D02*
X3533502Y3587500D01*
X3508102Y3638300D01*
X3558902Y3612900D01*
X3609702Y3638300D01*
X3584302Y3587500D01*
X3609702Y3536700D01*
X3558902Y3562100D01*
X3508102Y3536700D01*
X6469200Y2839200D02*
X6494600Y2890000D01*
X6469200Y2940800D01*
X6520000Y2915400D01*
X6570800Y2940800D01*
X6545400Y2890000D01*
X6570800Y2839200D01*
X6520000Y2864600D01*
X6469200Y2839200D01*
X6159200Y2849200D02*
X6184600Y2900000D01*
X6159200Y2950800D01*
X6210000Y2925400D01*
X6260800Y2950800D01*
X6235400Y2900000D01*
X6260800Y2849200D01*
X6210000Y2874600D01*
X6159200Y2849200D01*
X6469200Y3219200D02*
X6494600Y3270000D01*
X6469200Y3320800D01*
X6520000Y3295400D01*
X6570800Y3320800D01*
X6545400Y3270000D01*
X6570800Y3219200D01*
X6520000Y3244600D01*
X6469200Y3219200D01*
X6259200Y3019200D02*
X6284600Y3070000D01*
X6259200Y3120800D01*
X6310000Y3095400D01*
X6360800Y3120800D01*
X6335400Y3070000D01*
X6360800Y3019200D01*
X6310000Y3044600D01*
X6259200Y3019200D01*
X6479200D02*
X6504600Y3070000D01*
X6479200Y3120800D01*
X6530000Y3095400D01*
X6580800Y3120800D01*
X6555400Y3070000D01*
X6580800Y3019200D01*
X6530000Y3044600D01*
X6479200Y3019200D01*
X6259200Y3219200D02*
X6284600Y3270000D01*
X6259200Y3320800D01*
X6310000Y3295400D01*
X6360800Y3320800D01*
X6335400Y3270000D01*
X6360800Y3219200D01*
X6310000Y3244600D01*
X6259200Y3219200D01*
X4639200Y3549200D02*
X4664600Y3600000D01*
X4639200Y3650800D01*
X4690000Y3625400D01*
X4740800Y3650800D01*
X4715400Y3600000D01*
X4740800Y3549200D01*
X4690000Y3574600D01*
X4639200Y3549200D01*
X5359200Y2999200D02*
X5384600Y3050000D01*
X5359200Y3100800D01*
X5410000Y3075400D01*
X5460800Y3100800D01*
X5435400Y3050000D01*
X5460800Y2999200D01*
X5410000Y3024600D01*
X5359200Y2999200D01*
X5109200Y3209200D02*
X5134600Y3260000D01*
X5109200Y3310800D01*
X5160000Y3285400D01*
X5210800Y3310800D01*
X5185400Y3260000D01*
X5210800Y3209200D01*
X5160000Y3234600D01*
X5109200Y3209200D01*
X6019200Y3219200D02*
X6044600Y3270000D01*
X6019200Y3320800D01*
X6070000Y3295400D01*
X6120800Y3320800D01*
X6095400Y3270000D01*
X6120800Y3219200D01*
X6070000Y3244600D01*
X6019200Y3219200D01*
Y3019200D02*
X6044600Y3070000D01*
X6019200Y3120800D01*
X6070000Y3095400D01*
X6120800Y3120800D01*
X6095400Y3070000D01*
X6120800Y3019200D01*
X6070000Y3044600D01*
X6019200Y3019200D01*
X5359200Y3209200D02*
X5384600Y3260000D01*
X5359200Y3310800D01*
X5410000Y3285400D01*
X5460800Y3310800D01*
X5435400Y3260000D01*
X5460800Y3209200D01*
X5410000Y3234600D01*
X5359200Y3209200D01*
D73*
X7100800Y1320000D02*
G03*
X7100800Y1320000I-50800J0D01*
G01*
Y3709999D02*
G03*
X7100800Y3709999I-50800J0D01*
G01*
X7862800Y3210000D02*
G03*
X7862800Y3210000I-50800J0D01*
G01*
Y1320000D02*
G03*
X7862800Y1320000I-50800J0D01*
G01*
%TF.MD5,84c11ed66e14673c855441447261ef13*%
M02*
