%TF.GenerationSoftware,Altium Limited,Altium Designer,21.3.2 (30)*%
G04 Layer_Color=16711935*
%FSLAX45Y45*%
%MOMM*%
%TF.SameCoordinates,D9DFDB92-F573-4E1A-9105-0BCF1000EC4C*%
%TF.FilePolarity,Negative*%
%TF.FileFunction,Soldermask,Bot*%
%TF.Part,Single*%
G01*
G75*
%TA.AperFunction,ComponentPad*%
%ADD40C,2.40320*%
%ADD41O,2.20320X1.80320*%
G04:AMPARAMS|DCode=42|XSize=1.9032mm|YSize=2.1532mm|CornerRadius=0.9516mm|HoleSize=0mm|Usage=FLASHONLY|Rotation=180.000|XOffset=0mm|YOffset=0mm|HoleType=Round|Shape=RoundedRectangle|*
%AMROUNDEDRECTD42*
21,1,1.90320,0.25000,0,0,180.0*
21,1,0.00000,2.15320,0,0,180.0*
1,1,1.90320,0.00000,0.12500*
1,1,1.90320,0.00000,0.12500*
1,1,1.90320,0.00000,-0.12500*
1,1,1.90320,0.00000,-0.12500*
%
%ADD42ROUNDEDRECTD42*%
G04:AMPARAMS|DCode=43|XSize=1.9032mm|YSize=2.1532mm|CornerRadius=0.2291mm|HoleSize=0mm|Usage=FLASHONLY|Rotation=180.000|XOffset=0mm|YOffset=0mm|HoleType=Round|Shape=RoundedRectangle|*
%AMROUNDEDRECTD43*
21,1,1.90320,1.69500,0,0,180.0*
21,1,1.44500,2.15320,0,0,180.0*
1,1,0.45820,-0.72250,0.84750*
1,1,0.45820,0.72250,0.84750*
1,1,0.45820,0.72250,-0.84750*
1,1,0.45820,-0.72250,-0.84750*
%
%ADD43ROUNDEDRECTD43*%
%ADD44C,5.20320*%
D40*
X8292000Y3300000D02*
D03*
X8800000D02*
D03*
X8292000Y3800000D02*
D03*
X8800000D02*
D03*
X600000Y3400000D02*
D03*
X1108000D02*
D03*
X600000Y3900000D02*
D03*
X1108000D02*
D03*
D41*
X7050000Y1320000D02*
D03*
Y3709999D02*
D03*
X7812000Y3210000D02*
D03*
Y1320000D02*
D03*
D42*
X3100000Y520000D02*
D03*
X3350000D02*
D03*
X3600000D02*
D03*
X3850000D02*
D03*
X4100000D02*
D03*
X4350000D02*
D03*
X4600000D02*
D03*
D43*
X4850000D02*
D03*
D44*
X8500000Y600000D02*
D03*
X600000Y600000D02*
D03*
X8500000Y5100000D02*
D03*
X600000D02*
D03*
%TF.MD5,b22a848c1cd5703320caaf30d4219eec*%
M02*
