%TF.GenerationSoftware,Altium Limited,Altium Designer,21.3.2 (30)*%
G04 Layer_Color=8388736*
%FSLAX45Y45*%
%MOMM*%
%TF.SameCoordinates,D9DFDB92-F573-4E1A-9105-0BCF1000EC4C*%
%TF.FilePolarity,Negative*%
%TF.FileFunction,Soldermask,Top*%
%TF.Part,Single*%
G01*
G75*
%TA.AperFunction,BGAPad,CuDef*%
%ADD18R,0.25000X0.25000*%
%TA.AperFunction,SMDPad,CuDef*%
%ADD19R,0.50000X0.50000*%
%TA.AperFunction,ComponentPad*%
%ADD40C,2.40320*%
%ADD41O,2.20320X1.80320*%
G04:AMPARAMS|DCode=42|XSize=1.9032mm|YSize=2.1532mm|CornerRadius=0.9516mm|HoleSize=0mm|Usage=FLASHONLY|Rotation=180.000|XOffset=0mm|YOffset=0mm|HoleType=Round|Shape=RoundedRectangle|*
%AMROUNDEDRECTD42*
21,1,1.90320,0.25000,0,0,180.0*
21,1,0.00000,2.15320,0,0,180.0*
1,1,1.90320,0.00000,0.12500*
1,1,1.90320,0.00000,0.12500*
1,1,1.90320,0.00000,-0.12500*
1,1,1.90320,0.00000,-0.12500*
%
%ADD42ROUNDEDRECTD42*%
G04:AMPARAMS|DCode=43|XSize=1.9032mm|YSize=2.1532mm|CornerRadius=0.2291mm|HoleSize=0mm|Usage=FLASHONLY|Rotation=180.000|XOffset=0mm|YOffset=0mm|HoleType=Round|Shape=RoundedRectangle|*
%AMROUNDEDRECTD43*
21,1,1.90320,1.69500,0,0,180.0*
21,1,1.44500,2.15320,0,0,180.0*
1,1,0.45820,-0.72250,0.84750*
1,1,0.45820,0.72250,0.84750*
1,1,0.45820,0.72250,-0.84750*
1,1,0.45820,-0.72250,-0.84750*
%
%ADD43ROUNDEDRECTD43*%
%ADD44C,5.20320*%
%TA.AperFunction,NonConductor*%
%ADD53R,3.06000X3.06000*%
%TA.AperFunction,SMDPad,CuDef*%
%ADD54R,1.15320X1.60320*%
%ADD55R,4.50320X4.30320*%
%ADD56R,1.10320X1.60320*%
%ADD57R,1.60320X1.15320*%
%ADD58R,1.60320X1.20320*%
%ADD59O,1.50000X0.55000*%
%ADD60R,0.79000X0.66000*%
%ADD61R,2.80320X1.80320*%
%ADD62R,1.80320X2.80320*%
%ADD63R,2.70320X6.70320*%
G36*
X3516101Y4672755D02*
X3517430Y4672668D01*
X3518737Y4672408D01*
X3519998Y4671980D01*
X3521192Y4671391D01*
X3522300Y4670651D01*
X3523301Y4669773D01*
X3524179Y4668772D01*
X3524919Y4667664D01*
X3525508Y4666470D01*
X3525936Y4665209D01*
X3526196Y4663902D01*
X3526283Y4662573D01*
X3526283Y4612877D01*
X3526196Y4611548D01*
X3525936Y4610242D01*
X3525791Y4609814D01*
X3525508Y4608981D01*
X3524919Y4607786D01*
X3524179Y4606679D01*
X3523301Y4605678D01*
X3523301D01*
Y4605677D01*
X3522701Y4605151D01*
X3523300Y4604626D01*
X3524178Y4603624D01*
X3524918Y4602517D01*
X3525507Y4601322D01*
X3525935Y4600061D01*
X3526195Y4598755D01*
X3526282Y4597426D01*
Y4547776D01*
X3526195Y4546447D01*
X3525935Y4545141D01*
X3525507Y4543880D01*
X3524918Y4542685D01*
X3524178Y4541578D01*
X3523300Y4540577D01*
X3522786Y4540126D01*
X3523300Y4539676D01*
X3524178Y4538675D01*
X3524918Y4537567D01*
X3525507Y4536373D01*
X3525935Y4535112D01*
X3526195Y4533805D01*
X3526282Y4532476D01*
X3526282Y4482676D01*
X3526195Y4481347D01*
X3525935Y4480041D01*
X3525507Y4478780D01*
X3524918Y4477585D01*
X3524178Y4476478D01*
X3523300Y4475477D01*
X3522701Y4474951D01*
X3523300Y4474426D01*
X3524178Y4473425D01*
X3524918Y4472317D01*
X3525507Y4471123D01*
X3525935Y4469862D01*
X3526195Y4468555D01*
X3526282Y4467226D01*
Y4417575D01*
X3526195Y4416246D01*
X3525935Y4414939D01*
X3525507Y4413678D01*
X3524918Y4412484D01*
X3524178Y4411376D01*
X3523300Y4410375D01*
X3522299Y4409497D01*
X3521191Y4408757D01*
X3519997Y4408168D01*
X3518736Y4407740D01*
X3517429Y4407480D01*
X3516100Y4407393D01*
X3284100D01*
X3282771Y4407480D01*
X3281465Y4407740D01*
X3280204Y4408168D01*
X3279009Y4408757D01*
X3277902Y4409497D01*
X3276901Y4410375D01*
X3276023Y4411376D01*
X3275283Y4412484D01*
X3274693Y4413678D01*
X3274265Y4414939D01*
X3274006Y4416246D01*
X3273919Y4417575D01*
Y4662574D01*
X3274006Y4663903D01*
X3274265Y4665210D01*
X3274693Y4666471D01*
X3275283Y4667665D01*
X3276023Y4668773D01*
X3276901Y4669774D01*
X3277902Y4670652D01*
X3279009Y4671392D01*
X3280204Y4671981D01*
X3281465Y4672409D01*
X3282771Y4672669D01*
X3284100Y4672756D01*
X3345600D01*
X3516101Y4672755D01*
D02*
G37*
D18*
X3416700Y4649575D02*
D03*
X3350000Y4650000D02*
D03*
Y4430000D02*
D03*
X3416700Y4431175D02*
D03*
X3503250Y4637875D02*
D03*
X3502500Y4572475D02*
D03*
X3503400Y4507075D02*
D03*
X3502650Y4441675D02*
D03*
D19*
X3445250Y4540825D02*
D03*
D40*
X8292000Y3300000D02*
D03*
X8800000D02*
D03*
X8292000Y3800000D02*
D03*
X8800000D02*
D03*
X600000Y3400000D02*
D03*
X1108000D02*
D03*
X600000Y3900000D02*
D03*
X1108000D02*
D03*
D41*
X7050000Y1320000D02*
D03*
Y3709999D02*
D03*
X7812000Y3210000D02*
D03*
Y1320000D02*
D03*
D42*
X3100000Y520000D02*
D03*
X3350000D02*
D03*
X3600000D02*
D03*
X3850000D02*
D03*
X4100000D02*
D03*
X4350000D02*
D03*
X4600000D02*
D03*
D43*
X4850000D02*
D03*
D44*
X8500000Y600000D02*
D03*
X600000Y600000D02*
D03*
X8500000Y5100000D02*
D03*
X600000D02*
D03*
D53*
X3990001Y4232501D02*
D03*
D54*
X4297500Y5070000D02*
D03*
X4482500D02*
D03*
X3187500Y4920000D02*
D03*
X3372500D02*
D03*
X2902500Y3550000D02*
D03*
X2717501D02*
D03*
X3402500Y3860000D02*
D03*
X3217501D02*
D03*
X2902500Y3970000D02*
D03*
X2717501D02*
D03*
X5862500Y590000D02*
D03*
X5677500D02*
D03*
D55*
X2030000Y3215000D02*
D03*
Y4005000D02*
D03*
D56*
X2723000Y1695000D02*
D03*
X2469000D02*
D03*
Y2325000D02*
D03*
X2723000D02*
D03*
X3220000Y2325000D02*
D03*
X3474000D02*
D03*
Y1695000D02*
D03*
X3220000D02*
D03*
X3878000Y2345000D02*
D03*
X4132000D02*
D03*
Y1715000D02*
D03*
X3878000D02*
D03*
X4576999Y2345000D02*
D03*
X4830999D02*
D03*
Y1715000D02*
D03*
X4576999D02*
D03*
X5275999Y2345000D02*
D03*
X5529999D02*
D03*
Y1715000D02*
D03*
X5275999D02*
D03*
D57*
X4310000Y3087500D02*
D03*
Y3272500D02*
D03*
X4520000Y3500000D02*
D03*
Y3315000D02*
D03*
X4710000Y3737500D02*
D03*
Y3922500D02*
D03*
X5630000Y2647500D02*
D03*
Y2832500D02*
D03*
X4930001Y2647500D02*
D03*
Y2832500D02*
D03*
X4230000Y2647500D02*
D03*
Y2832500D02*
D03*
X4710000Y4187500D02*
D03*
Y4372500D02*
D03*
X2470000Y2597500D02*
D03*
Y2782500D02*
D03*
X2410001Y4147500D02*
D03*
Y4332500D02*
D03*
X5280000Y1257500D02*
D03*
Y1442500D02*
D03*
X4580000Y1247500D02*
D03*
Y1432500D02*
D03*
X3880000Y1247500D02*
D03*
Y1432500D02*
D03*
X3230000Y1247500D02*
D03*
Y1432500D02*
D03*
X2720000D02*
D03*
Y1247500D02*
D03*
X3690000Y3772500D02*
D03*
Y3587500D02*
D03*
X6740000Y4832500D02*
D03*
Y4647500D02*
D03*
D58*
X2770001Y4495000D02*
D03*
Y4305000D02*
D03*
X2990001Y4400000D02*
D03*
X6390000Y595000D02*
D03*
Y785000D02*
D03*
X6170000Y690000D02*
D03*
D59*
X3695001Y4525000D02*
D03*
Y4460000D02*
D03*
Y4395000D02*
D03*
Y4330000D02*
D03*
Y4265000D02*
D03*
Y4200000D02*
D03*
Y4135000D02*
D03*
Y4070000D02*
D03*
Y4005000D02*
D03*
Y3940000D02*
D03*
X4285001D02*
D03*
Y4005000D02*
D03*
Y4070000D02*
D03*
Y4135000D02*
D03*
Y4200000D02*
D03*
Y4265000D02*
D03*
Y4330000D02*
D03*
Y4395000D02*
D03*
Y4460000D02*
D03*
Y4525000D02*
D03*
D60*
X3196600Y4441675D02*
D03*
Y4506975D02*
D03*
Y4572275D02*
D03*
Y4637575D02*
D03*
D61*
X7227500Y740000D02*
D03*
X7632500D02*
D03*
D62*
X7170000Y4527500D02*
D03*
Y4932500D02*
D03*
D63*
X5770000Y4590000D02*
D03*
Y3340000D02*
D03*
%TF.MD5,10d49815f39210ff23e98509eb49ffc5*%
M02*
