%TF.GenerationSoftware,Altium Limited,Altium Designer,21.3.2 (30)*%
G04 Layer_Physical_Order=1*
G04 Layer_Color=255*
%FSLAX45Y45*%
%MOMM*%
%TF.SameCoordinates,D9DFDB92-F573-4E1A-9105-0BCF1000EC4C*%
%TF.FilePolarity,Positive*%
%TF.FileFunction,Copper,L1,Top,Signal*%
%TF.Part,Single*%
G01*
G75*
%TA.AperFunction,SMDPad,CuDef*%
%ADD10R,0.95000X1.40000*%
%ADD11R,4.30000X4.10000*%
%ADD12R,0.90000X1.40000*%
%ADD13R,1.40000X0.95000*%
%ADD14R,1.40000X1.00000*%
%ADD15O,1.40000X0.45000*%
%TA.AperFunction,SMDPad,SMDef*%
%ADD16R,3.40000X6.50000*%
%TA.AperFunction,SMDPad,CuDef*%
%ADD17R,0.63000X0.50000*%
%TA.AperFunction,BGAPad,CuDef*%
%ADD18R,0.25000X0.25000*%
%TA.AperFunction,SMDPad,CuDef*%
%ADD19R,0.50000X0.50000*%
%ADD20R,2.60000X1.60000*%
%ADD21R,1.60000X2.60000*%
%ADD22R,2.50000X6.50000*%
%TA.AperFunction,Conductor*%
%ADD23C,0.38100*%
%ADD24C,2.00000*%
%ADD25C,1.50000*%
%ADD26C,0.80000*%
%ADD27C,0.50000*%
%ADD28C,0.90000*%
%ADD29C,1.00000*%
%TA.AperFunction,NonConductor*%
%ADD30C,0.38100*%
%TA.AperFunction,ComponentPad*%
%ADD31C,2.20000*%
%ADD32O,2.00000X1.60000*%
G04:AMPARAMS|DCode=33|XSize=1.7mm|YSize=1.95mm|CornerRadius=0.85mm|HoleSize=0mm|Usage=FLASHONLY|Rotation=180.000|XOffset=0mm|YOffset=0mm|HoleType=Round|Shape=RoundedRectangle|*
%AMROUNDEDRECTD33*
21,1,1.70000,0.25000,0,0,180.0*
21,1,0.00000,1.95000,0,0,180.0*
1,1,1.70000,0.00000,0.12500*
1,1,1.70000,0.00000,0.12500*
1,1,1.70000,0.00000,-0.12500*
1,1,1.70000,0.00000,-0.12500*
%
%ADD33ROUNDEDRECTD33*%
G04:AMPARAMS|DCode=34|XSize=1.7mm|YSize=1.95mm|CornerRadius=0.1275mm|HoleSize=0mm|Usage=FLASHONLY|Rotation=180.000|XOffset=0mm|YOffset=0mm|HoleType=Round|Shape=RoundedRectangle|*
%AMROUNDEDRECTD34*
21,1,1.70000,1.69500,0,0,180.0*
21,1,1.44500,1.95000,0,0,180.0*
1,1,0.25500,-0.72250,0.84750*
1,1,0.25500,0.72250,0.84750*
1,1,0.25500,0.72250,-0.84750*
1,1,0.25500,-0.72250,-0.84750*
%
%ADD34ROUNDEDRECTD34*%
%ADD35C,5.00000*%
%TA.AperFunction,ViaPad*%
%ADD36C,0.70000*%
%ADD37C,1.00000*%
%ADD38C,0.50000*%
G36*
X2840000Y4989999D02*
X3114600Y4989999D01*
Y4932700D01*
X3187500D01*
Y4920000D01*
X3200200D01*
Y4824600D01*
X3230000D01*
X3230000Y4707975D01*
X3210700Y4687975D01*
X3209300D01*
Y4637575D01*
X3196600D01*
Y4624875D01*
X3139701D01*
Y4587175D01*
Y4584975D01*
X3196600D01*
Y4559575D01*
X3139701D01*
Y4519675D01*
X3196600D01*
Y4494275D01*
X3139701D01*
Y4470000D01*
X2930000D01*
Y4570000D01*
X2630000Y4570000D01*
X2630000Y4350000D01*
X2674601D01*
Y4317700D01*
X2770001D01*
Y4292300D01*
X2674601D01*
Y4270000D01*
X2505400D01*
Y4319800D01*
X2410001D01*
X2314601D01*
Y4270000D01*
X2240000D01*
Y4235400D01*
X2042700D01*
Y4005000D01*
X2030000D01*
Y3992300D01*
X1789600D01*
Y3870000D01*
X1245450D01*
X1243400Y3873067D01*
Y3887300D01*
X1108000D01*
X972600D01*
Y3873067D01*
X970551Y3870000D01*
X737450D01*
X735400Y3873067D01*
Y3887300D01*
X600000D01*
X464600D01*
Y3873067D01*
X462551Y3870000D01*
X320000D01*
X320000Y4630186D01*
X340000Y4639180D01*
X462885Y4588279D01*
X600000Y4570228D01*
X737115Y4588279D01*
X864886Y4641204D01*
X974606Y4725394D01*
X1058796Y4835114D01*
X1111721Y4962885D01*
X1129772Y5100000D01*
X1118587Y5184962D01*
X1131774Y5199999D01*
X2840000Y5200000D01*
Y4989999D01*
D02*
G37*
G36*
X3760000Y4580368D02*
X3750183Y4572311D01*
X3742501Y4573839D01*
X3707701D01*
Y4525000D01*
X3695001D01*
Y4512300D01*
X3601189D01*
X3602380Y4506311D01*
X3611608Y4492500D01*
X3602380Y4478690D01*
X3601189Y4472700D01*
X3695001D01*
Y4447300D01*
X3601189D01*
X3602380Y4441311D01*
X3611608Y4427500D01*
X3602380Y4413690D01*
X3601189Y4407701D01*
X3695001D01*
Y4382301D01*
X3600838D01*
X3592485Y4370000D01*
X3330000Y4369999D01*
Y4392100D01*
X3337300D01*
Y4417575D01*
X3284100D01*
Y4662574D01*
X3337300D01*
Y4687899D01*
X3330000D01*
Y4779999D01*
X3760000Y4780000D01*
X3760000Y4580368D01*
D02*
G37*
G36*
X6430000Y4670000D02*
X6644600D01*
Y4660200D01*
X6835400D01*
Y4670000D01*
X7064600D01*
Y4540200D01*
X7170001D01*
Y4527500D01*
X7182701D01*
Y4372100D01*
X7260000D01*
Y3519496D01*
X6840000Y3519496D01*
Y3860000D01*
X6080000D01*
Y3930000D01*
X5720000D01*
Y3990000D01*
X4810000D01*
Y4359800D01*
X4710000D01*
Y4372500D01*
X4697300D01*
Y4445400D01*
X4614600D01*
Y4370000D01*
X4395628D01*
X4386229Y4382300D01*
X4285002D01*
Y4407700D01*
X4378813D01*
X4377622Y4413690D01*
X4368394Y4427500D01*
X4377622Y4441311D01*
X4378813Y4447300D01*
X4285001D01*
Y4472700D01*
X4378813D01*
X4377622Y4478690D01*
X4368394Y4492500D01*
X4377622Y4506311D01*
X4378813Y4512300D01*
X4285001D01*
Y4525000D01*
X4272301D01*
Y4573839D01*
X4237501D01*
X4235461Y4573433D01*
X4220000Y4586121D01*
Y4710000D01*
X4821002Y4709999D01*
Y5140000D01*
X6430000D01*
X6430000Y4670000D01*
D02*
G37*
G36*
X5619600Y3680000D02*
Y3352700D01*
X5920400D01*
Y3641610D01*
X5930000Y3650000D01*
X6670000D01*
X6670000Y2780000D01*
X5725400D01*
Y2819800D01*
X5534601D01*
Y2780000D01*
X5025400Y2779999D01*
Y2819800D01*
X4834601D01*
Y2779999D01*
X4325400D01*
Y2819800D01*
X4230000D01*
Y2832500D01*
X4217300D01*
Y2905400D01*
X4160000D01*
Y2959999D01*
X4214601Y3014600D01*
X4297300D01*
Y3087500D01*
X4310000D01*
Y3100200D01*
X4405400D01*
Y3160400D01*
X4386532D01*
X4378878Y3178878D01*
X4442101Y3242100D01*
X4507300D01*
Y3315000D01*
X4520000D01*
Y3327700D01*
X4615400D01*
Y3387900D01*
X4614032D01*
X4606379Y3406378D01*
X4880001Y3680000D01*
X5619600Y3680000D01*
D02*
G37*
G36*
X9080000Y3600000D02*
X8020000D01*
Y3070000D01*
X7620000D01*
Y4000000D01*
X9080000D01*
Y3600000D01*
D02*
G37*
%LPC*%
G36*
X3174800Y4907300D02*
X3114600D01*
Y4824600D01*
X3174800D01*
Y4907300D01*
D02*
G37*
G36*
X3183900Y4687975D02*
X3139701D01*
Y4650275D01*
X3183900D01*
Y4687975D01*
D02*
G37*
G36*
X2505400Y4405400D02*
X2422701D01*
Y4345200D01*
X2505400D01*
Y4405400D01*
D02*
G37*
G36*
X2397301D02*
X2314601D01*
Y4345200D01*
X2397301D01*
Y4405400D01*
D02*
G37*
G36*
X2017300Y4235400D02*
X1789600D01*
Y4017700D01*
X2017300D01*
Y4235400D01*
D02*
G37*
G36*
X1134933Y4035400D02*
X1120700D01*
Y3912700D01*
X1243400D01*
Y3926932D01*
X1222786Y3976698D01*
X1184698Y4014786D01*
X1134933Y4035400D01*
D02*
G37*
G36*
X626933D02*
X612700D01*
Y3912700D01*
X735400D01*
Y3926932D01*
X714786Y3976698D01*
X676698Y4014786D01*
X626933Y4035400D01*
D02*
G37*
G36*
X1095300D02*
X1081067D01*
X1031302Y4014786D01*
X993214Y3976698D01*
X972600Y3926932D01*
Y3912700D01*
X1095300D01*
Y4035400D01*
D02*
G37*
G36*
X587300D02*
X573067D01*
X523302Y4014786D01*
X485214Y3976698D01*
X464600Y3926932D01*
Y3912700D01*
X587300D01*
Y4035400D01*
D02*
G37*
G36*
X3387900Y4687899D02*
X3362700D01*
Y4662574D01*
X3404000Y4662574D01*
Y4687474D01*
X3387900D01*
Y4687899D01*
D02*
G37*
G36*
X3454600Y4687474D02*
X3429400D01*
Y4662574D01*
X3490550Y4662574D01*
Y4675774D01*
X3467300D01*
X3465350Y4675775D01*
X3454600Y4680481D01*
Y4687474D01*
D02*
G37*
G36*
X3515950Y4675774D02*
Y4662573D01*
X3516101D01*
Y4650575D01*
X3541150D01*
Y4675774D01*
X3515950D01*
D02*
G37*
G36*
X3541150Y4625175D02*
X3516101D01*
Y4612877D01*
X3474100Y4612875D01*
X3474100Y4597426D01*
X3516100D01*
Y4585175D01*
X3540400D01*
Y4599975D01*
X3541150D01*
Y4625175D01*
D02*
G37*
G36*
X3682301Y4573839D02*
X3647501D01*
X3628811Y4570121D01*
X3612967Y4559534D01*
X3602380Y4543690D01*
X3601189Y4537700D01*
X3682301D01*
Y4573839D01*
D02*
G37*
G36*
X3540400Y4559775D02*
X3516100D01*
Y4547776D01*
X3474100D01*
X3474101Y4532476D01*
X3516100D01*
Y4519775D01*
X3541300D01*
Y4544975D01*
X3540400D01*
Y4559775D01*
D02*
G37*
G36*
X3541300Y4494375D02*
X3516100D01*
Y4482676D01*
X3474100D01*
Y4467226D01*
X3516100D01*
Y4454375D01*
X3540550D01*
Y4469175D01*
X3541300D01*
Y4494375D01*
D02*
G37*
G36*
X3540550Y4428975D02*
X3516100D01*
Y4417575D01*
X3515350D01*
Y4403775D01*
X3540550D01*
Y4428975D01*
D02*
G37*
G36*
X3489950Y4417575D02*
X3429400D01*
Y4393275D01*
X3454600D01*
Y4397620D01*
X3464750Y4403775D01*
X3467300Y4403775D01*
X3489950D01*
Y4417575D01*
D02*
G37*
G36*
X3404000D02*
X3362700D01*
Y4392100D01*
X3387900D01*
Y4393275D01*
X3404000D01*
Y4417575D01*
D02*
G37*
G36*
X5920400Y4940400D02*
X5782700D01*
Y4602700D01*
X5920400D01*
Y4940400D01*
D02*
G37*
G36*
X5757300D02*
X5619600D01*
Y4602700D01*
X5757300D01*
Y4940400D01*
D02*
G37*
G36*
X6835400Y4634800D02*
X6752700D01*
Y4574600D01*
X6835400D01*
Y4634800D01*
D02*
G37*
G36*
X6727300D02*
X6644600D01*
Y4574600D01*
X6727300D01*
Y4634800D01*
D02*
G37*
G36*
X4332501Y4573839D02*
X4297701D01*
Y4537700D01*
X4378813D01*
X4377622Y4543690D01*
X4367035Y4559534D01*
X4351191Y4570121D01*
X4332501Y4573839D01*
D02*
G37*
G36*
X4805400Y4445400D02*
X4722700D01*
Y4385200D01*
X4805400D01*
Y4445400D01*
D02*
G37*
G36*
X7157301Y4514800D02*
X7064600D01*
Y4372100D01*
X7157301D01*
Y4514800D01*
D02*
G37*
G36*
X5920400Y4577300D02*
X5782700D01*
Y4239600D01*
X5920400D01*
Y4577300D01*
D02*
G37*
G36*
X5757300D02*
X5619600D01*
Y4239600D01*
X5757300D01*
Y4577300D01*
D02*
G37*
G36*
X7070000Y3816309D02*
X7062700D01*
Y3722699D01*
X7174638D01*
X7172687Y3737514D01*
X7162067Y3763154D01*
X7145172Y3785171D01*
X7123155Y3802066D01*
X7097515Y3812687D01*
X7070000Y3816309D01*
D02*
G37*
G36*
X7037300D02*
X7030000D01*
X7002485Y3812687D01*
X6976845Y3802066D01*
X6954828Y3785171D01*
X6937933Y3763154D01*
X6927313Y3737514D01*
X6925362Y3722699D01*
X7037300D01*
Y3816309D01*
D02*
G37*
G36*
X7174638Y3697299D02*
X7062700D01*
Y3603690D01*
X7070000D01*
X7097515Y3607312D01*
X7123155Y3617933D01*
X7145172Y3634827D01*
X7162067Y3656845D01*
X7172687Y3682485D01*
X7174638Y3697299D01*
D02*
G37*
G36*
X7037300D02*
X6925362D01*
X6927313Y3682485D01*
X6937933Y3656845D01*
X6954828Y3634827D01*
X6976845Y3617933D01*
X7002485Y3607312D01*
X7030000Y3603690D01*
X7037300D01*
Y3697299D01*
D02*
G37*
G36*
X4615400Y3302300D02*
X4532700D01*
Y3242100D01*
X4615400D01*
Y3302300D01*
D02*
G37*
G36*
X4405400Y3074800D02*
X4322700D01*
Y3014600D01*
X4405400D01*
Y3074800D01*
D02*
G37*
G36*
X5920400Y3327300D02*
X5782700D01*
Y2989600D01*
X5920400D01*
Y3327300D01*
D02*
G37*
G36*
X5757300D02*
X5619600D01*
Y2989600D01*
X5757300D01*
Y3327300D01*
D02*
G37*
G36*
X5725400Y2905400D02*
X5642700D01*
Y2845200D01*
X5725400D01*
Y2905400D01*
D02*
G37*
G36*
X5617300D02*
X5534601D01*
Y2845200D01*
X5617300D01*
Y2905400D01*
D02*
G37*
G36*
X5025400D02*
X4942701D01*
Y2845200D01*
X5025400D01*
Y2905400D01*
D02*
G37*
G36*
X4917301D02*
X4834601D01*
Y2845200D01*
X4917301D01*
Y2905400D01*
D02*
G37*
G36*
X4325400D02*
X4242700D01*
Y2845200D01*
X4325400D01*
Y2905400D01*
D02*
G37*
G36*
X8817826Y3935400D02*
X8812700D01*
Y3812700D01*
X8935400D01*
Y3817825D01*
X8926173Y3852262D01*
X8908347Y3883137D01*
X8883137Y3908347D01*
X8852262Y3926172D01*
X8817826Y3935400D01*
D02*
G37*
G36*
X8787300D02*
X8782174D01*
X8747737Y3926172D01*
X8716862Y3908347D01*
X8691653Y3883137D01*
X8673827Y3852262D01*
X8664600Y3817825D01*
Y3812700D01*
X8787300D01*
Y3935400D01*
D02*
G37*
G36*
X8309826D02*
X8304700D01*
Y3812700D01*
X8427400D01*
Y3817825D01*
X8418173Y3852262D01*
X8400347Y3883137D01*
X8375137Y3908347D01*
X8344262Y3926172D01*
X8309826Y3935400D01*
D02*
G37*
G36*
X8279300D02*
X8274174D01*
X8239737Y3926172D01*
X8208862Y3908347D01*
X8183653Y3883137D01*
X8165827Y3852262D01*
X8156600Y3817825D01*
Y3812700D01*
X8279300D01*
Y3935400D01*
D02*
G37*
G36*
X8935400Y3787300D02*
X8812700D01*
Y3664600D01*
X8817826D01*
X8852262Y3673827D01*
X8883137Y3691653D01*
X8908347Y3716862D01*
X8926173Y3747737D01*
X8935400Y3782174D01*
Y3787300D01*
D02*
G37*
G36*
X8787300D02*
X8664600D01*
Y3782174D01*
X8673827Y3747737D01*
X8691653Y3716862D01*
X8716862Y3691653D01*
X8747737Y3673827D01*
X8782174Y3664600D01*
X8787300D01*
Y3787300D01*
D02*
G37*
G36*
X8427400D02*
X8304700D01*
Y3664600D01*
X8309826D01*
X8344262Y3673827D01*
X8375137Y3691653D01*
X8400347Y3716862D01*
X8418173Y3747737D01*
X8427400Y3782174D01*
Y3787300D01*
D02*
G37*
G36*
X8279300D02*
X8156600D01*
Y3782174D01*
X8165827Y3747737D01*
X8183653Y3716862D01*
X8208862Y3691653D01*
X8239737Y3673827D01*
X8274174Y3664600D01*
X8279300D01*
Y3787300D01*
D02*
G37*
G36*
X7832001Y3316309D02*
X7824700D01*
Y3222700D01*
X7936638D01*
X7934688Y3237514D01*
X7924067Y3263154D01*
X7907173Y3285172D01*
X7885155Y3302066D01*
X7859515Y3312687D01*
X7832001Y3316309D01*
D02*
G37*
G36*
X7799300D02*
X7792000D01*
X7764485Y3312687D01*
X7738846Y3302066D01*
X7716828Y3285172D01*
X7699934Y3263154D01*
X7689313Y3237514D01*
X7687363Y3222700D01*
X7799300D01*
Y3316309D01*
D02*
G37*
G36*
X7936638Y3197300D02*
X7824700D01*
Y3103690D01*
X7832001D01*
X7859515Y3107313D01*
X7885155Y3117933D01*
X7907173Y3134828D01*
X7924067Y3156845D01*
X7934688Y3182485D01*
X7936638Y3197300D01*
D02*
G37*
G36*
X7799300D02*
X7687363D01*
X7689313Y3182485D01*
X7699934Y3156845D01*
X7716828Y3134828D01*
X7738846Y3117933D01*
X7764485Y3107313D01*
X7792000Y3103690D01*
X7799300D01*
Y3197300D01*
D02*
G37*
%LPD*%
D10*
X4297500Y5070000D02*
D03*
X4482500D02*
D03*
X3187500Y4920000D02*
D03*
X3372500D02*
D03*
X2902500Y3550000D02*
D03*
X2717501D02*
D03*
X3402500Y3860000D02*
D03*
X3217501D02*
D03*
X2902500Y3970000D02*
D03*
X2717501D02*
D03*
X5862500Y590000D02*
D03*
X5677500D02*
D03*
D11*
X2030000Y3215000D02*
D03*
Y4005000D02*
D03*
D12*
X2723000Y1695000D02*
D03*
X2469000D02*
D03*
Y2325000D02*
D03*
X2723000D02*
D03*
X3220000Y2325000D02*
D03*
X3474000D02*
D03*
Y1695000D02*
D03*
X3220000D02*
D03*
X3878000Y2345000D02*
D03*
X4132000D02*
D03*
Y1715000D02*
D03*
X3878000D02*
D03*
X4576999Y2345000D02*
D03*
X4830999D02*
D03*
Y1715000D02*
D03*
X4576999D02*
D03*
X5275999Y2345000D02*
D03*
X5529999D02*
D03*
Y1715000D02*
D03*
X5275999D02*
D03*
D13*
X4310000Y3087500D02*
D03*
Y3272500D02*
D03*
X4520000Y3500000D02*
D03*
Y3315000D02*
D03*
X4710000Y3737500D02*
D03*
Y3922500D02*
D03*
X5630000Y2647500D02*
D03*
Y2832500D02*
D03*
X4930001Y2647500D02*
D03*
Y2832500D02*
D03*
X4230000Y2647500D02*
D03*
Y2832500D02*
D03*
X4710000Y4187500D02*
D03*
Y4372500D02*
D03*
X2470000Y2597500D02*
D03*
Y2782500D02*
D03*
X2410001Y4147500D02*
D03*
Y4332500D02*
D03*
X5280000Y1257500D02*
D03*
Y1442500D02*
D03*
X4580000Y1247500D02*
D03*
Y1432500D02*
D03*
X3880000Y1247500D02*
D03*
Y1432500D02*
D03*
X3230000Y1247500D02*
D03*
Y1432500D02*
D03*
X2720000D02*
D03*
Y1247500D02*
D03*
X3690000Y3772500D02*
D03*
Y3587500D02*
D03*
X6740000Y4832500D02*
D03*
Y4647500D02*
D03*
D14*
X2770001Y4495000D02*
D03*
Y4305000D02*
D03*
X2990001Y4400000D02*
D03*
X6390000Y595000D02*
D03*
Y785000D02*
D03*
X6170000Y690000D02*
D03*
D15*
X3695001Y4525000D02*
D03*
Y4460000D02*
D03*
Y4395000D02*
D03*
Y4330000D02*
D03*
Y4265000D02*
D03*
Y4200000D02*
D03*
Y4135000D02*
D03*
Y4070000D02*
D03*
Y4005000D02*
D03*
Y3940000D02*
D03*
X4285001D02*
D03*
Y4005000D02*
D03*
Y4070000D02*
D03*
Y4135000D02*
D03*
Y4200000D02*
D03*
Y4265000D02*
D03*
Y4330000D02*
D03*
Y4395000D02*
D03*
Y4460000D02*
D03*
Y4525000D02*
D03*
D16*
X3990001Y4232500D02*
D03*
D17*
X3196600Y4441675D02*
D03*
Y4506975D02*
D03*
Y4572275D02*
D03*
Y4637575D02*
D03*
D18*
X3416700Y4649575D02*
D03*
X3350000Y4650000D02*
D03*
Y4430000D02*
D03*
X3416700Y4431175D02*
D03*
X3503250Y4637875D02*
D03*
X3502500Y4572475D02*
D03*
X3503400Y4507075D02*
D03*
X3502650Y4441675D02*
D03*
D19*
X3445250Y4540825D02*
D03*
D20*
X7227500Y740000D02*
D03*
X7632500D02*
D03*
D21*
X7170000Y4527500D02*
D03*
Y4932500D02*
D03*
D22*
X5770000Y4590000D02*
D03*
Y3340000D02*
D03*
D23*
X4520000Y3500000D02*
Y3620000D01*
X2215950Y3819050D02*
X2340950D01*
X2030000Y4005000D02*
X2215950Y3819050D01*
X2340950D02*
X2480000Y3680000D01*
Y3340000D02*
Y3680000D01*
Y3340000D02*
X2723000Y3097000D01*
Y2325000D02*
Y3097000D01*
X2470000Y2890000D02*
X2550000Y2970000D01*
X2470000Y2782500D02*
Y2890000D01*
X2840000Y2970000D02*
X3349199D01*
X3220000Y1442500D02*
X3230000Y1432500D01*
X3220000Y1442500D02*
Y1695000D01*
Y2325000D02*
Y2690000D01*
X4400710Y5174290D02*
X4482500Y5092500D01*
X4144290Y5174290D02*
X4400710D01*
X4482500Y5070000D02*
Y5092500D01*
X3890000Y4920000D02*
X4144290Y5174290D01*
X3372500Y4920000D02*
X3890000D01*
X4297500Y4952500D02*
Y5070000D01*
Y4952500D02*
X4360000Y4890000D01*
X3349199Y2970000D02*
X4192812Y3813613D01*
X4285001Y3535001D02*
Y3940000D01*
X2469000Y2325000D02*
Y2596500D01*
X2470000Y2597500D01*
X2865000Y3720000D02*
X3285000D01*
X2717501Y3572500D02*
X2865000Y3720000D01*
X5867500Y572500D02*
Y595000D01*
X5615000Y320000D02*
X5867500Y572500D01*
X4600000Y507500D02*
Y520000D01*
Y507500D02*
X4787500Y320000D01*
X5615000D01*
X3477000Y1463000D02*
Y1692000D01*
X3474000Y1695000D02*
X3477000Y1692000D01*
Y1463000D02*
X3480000Y1460000D01*
X2720000Y1432500D02*
X2848868D01*
X2871368Y1410000D01*
X2880000D01*
X2720000Y1432500D02*
X2723000Y1435500D01*
Y1695000D01*
X4580000Y1247500D02*
X4602500D01*
X3880000D02*
X4580000D01*
X3230000Y1247500D02*
X3880000D01*
X3880000Y1247500D01*
X2720000Y1247500D02*
X3230000D01*
X2720000Y890000D02*
Y1247500D01*
Y890000D02*
X3090000Y520000D01*
X3100000D01*
Y540000D01*
X4585000Y1252500D02*
X5280000D01*
Y1257500D01*
Y1010000D02*
Y1252500D01*
Y1010000D02*
X5520000Y770000D01*
X5677500Y590000D02*
Y612500D01*
X5520000Y770000D02*
X5677500Y612500D01*
X5520000Y770000D02*
X5520000D01*
X5867500Y595000D02*
X6390000D01*
Y785000D02*
X6410000D01*
X6525000Y900000D01*
X6530000D01*
X5530000Y1500001D02*
X5530000Y1500000D01*
X5529999Y1715000D02*
X5530000Y1715000D01*
Y1500001D02*
Y1715000D01*
X4830500Y1460499D02*
Y1714500D01*
X4830000Y1460000D02*
X4830500Y1460499D01*
Y1714500D02*
X4830999Y1715000D01*
X4136000Y1404000D02*
X4140000Y1400000D01*
X4132000Y1715000D02*
X4136000Y1711000D01*
Y1404000D02*
Y1711000D01*
X4359568Y4133680D02*
X4479290Y4013958D01*
X4285001Y4265000D02*
X4500433D01*
X4479290Y3716624D02*
Y4013958D01*
X4286321Y4133680D02*
X4359568D01*
X4357815Y4190000D02*
X4440000D01*
X4500433Y4265000D02*
X4577934Y4187500D01*
X4360950Y3598284D02*
X4479290Y3716624D01*
X3220000Y2690000D02*
X4190000Y3660000D01*
X4410000Y3880000D02*
Y4007815D01*
X4349135Y4068680D02*
X4410000Y4007815D01*
X4360950Y3300950D02*
Y3598284D01*
X4285001Y4070000D02*
X4286321Y4068680D01*
X4349135D01*
X4332500Y3272500D02*
X4360950Y3300950D01*
X3878000Y3128000D02*
X4285001Y3535001D01*
Y4135000D02*
X4286321Y4133680D01*
X4310000Y3272500D02*
X4332500D01*
X3878000Y2345000D02*
Y3128000D01*
X4349135Y4198680D02*
X4357815Y4190000D01*
X4285001Y4200000D02*
X4286321Y4198680D01*
X4349135D01*
X4561368Y4300000D02*
X4570000D01*
X4531368Y4330000D02*
X4561368Y4300000D01*
X4285001Y4330000D02*
X4531368D01*
X4577934Y4187500D02*
X4710000D01*
X2902500Y3947500D02*
X2990000Y3860000D01*
X2902500Y3947500D02*
Y3970000D01*
X2990000Y3860000D02*
X3217501D01*
Y3882500D02*
X3470001Y4135000D01*
X3695001D01*
X3217501Y3860000D02*
Y3882500D01*
X2717501Y3550000D02*
Y3572500D01*
X2902500Y3550000D02*
X3007150D01*
X3065710Y3490620D02*
Y3491440D01*
X3007150Y3550000D02*
X3065710Y3491440D01*
X3285000Y3720000D02*
X3402500Y3837500D01*
Y3860000D01*
X3453451Y3910950D02*
X3611180Y4068680D01*
X3430950Y3910950D02*
X3453451D01*
X3402500Y3882500D02*
X3430950Y3910950D01*
X3693681Y4068680D02*
X3695001Y4070000D01*
X3611180Y4068680D02*
X3693681D01*
X3402500Y3860000D02*
Y3882500D01*
X4602500Y1247500D02*
X4630950Y1219050D01*
X3878000Y1434500D02*
X3880000Y1432500D01*
X3878000Y1434500D02*
Y1715000D01*
X7070000Y1320000D02*
X7227500Y1162500D01*
Y740000D02*
Y1162500D01*
X7050000Y1320000D02*
X7070000D01*
X6820000D02*
X7050000D01*
X6757500Y1257500D02*
X6820000Y1320000D01*
X5280000Y1257500D02*
X6757500D01*
X2770001Y4495000D02*
X2790001D01*
X2885711Y4399290D01*
Y4335797D02*
Y4399290D01*
Y4335797D02*
X2956507Y4265000D01*
X3695001D01*
X4710000Y3922500D02*
Y4187500D01*
X4576999Y1435501D02*
X4580000Y1432500D01*
X4576999Y1435501D02*
Y1715000D01*
X3314776Y4330000D02*
X3695001D01*
X3203101Y4441675D02*
X3314776Y4330000D01*
X3196601Y4441675D02*
X3203101D01*
X3188751Y4442050D02*
X3195251D01*
X3146701Y4400000D02*
X3188751Y4442050D01*
X2990001Y4400000D02*
X3146701D01*
X5275999Y1446501D02*
Y1715000D01*
Y1446501D02*
X5280000Y1442500D01*
X3693188Y3940000D02*
X3695001D01*
X3690000Y3936813D02*
X3693188Y3940000D01*
X3690000Y3772500D02*
Y3936813D01*
X2410001Y4147500D02*
X2432501D01*
X2460951Y4112318D02*
Y4119050D01*
X2432501Y4147500D02*
X2460951Y4119050D01*
Y4112318D02*
X2483269Y4090000D01*
X2620001D01*
X2717501Y3970000D02*
Y3992500D01*
X2689051Y4020950D02*
X2717501Y3992500D01*
X2689050Y4020950D02*
X2689051D01*
X2620001Y4090000D02*
X2689050Y4020950D01*
X3839051Y4005000D02*
X3860001Y3984050D01*
Y3972500D02*
Y3984050D01*
X3695001Y4005000D02*
X3839051D01*
X3695000Y4200000D02*
X3695001Y4200000D01*
X2770001Y4305000D02*
X2790001D01*
X3260000Y4180000D02*
X3280000Y4200000D01*
X3695000D01*
X2790001Y4305000D02*
X2915001Y4180000D01*
X3260000D01*
X7468210Y625710D02*
X7582500Y740000D01*
X6828472Y625710D02*
X7468210D01*
X6764182Y690000D02*
X6828472Y625710D01*
X6170000Y690000D02*
X6764182D01*
X7582500Y740000D02*
X7632500D01*
Y1160500D01*
X7792000Y1320000D02*
X7812000D01*
X7632500Y1160500D02*
X7792000Y1320000D01*
D24*
X2030000Y4005000D02*
Y4410000D01*
X1835000Y3400000D02*
X1915000Y3320000D01*
X600000Y3400000D02*
X1835000D01*
X1915000Y3320000D02*
X1925000D01*
X2030000Y3215000D01*
X603827Y3903827D02*
Y4263827D01*
X600000Y3900000D02*
X603827Y3903827D01*
Y4263827D02*
X620000Y4280000D01*
X1108000Y4228000D02*
X1110000Y4230000D01*
X1108000Y3900000D02*
Y4228000D01*
X1940000Y3300000D02*
X2025000Y3215000D01*
X2030000D01*
X5770000Y4590000D02*
X5970000D01*
X5530000Y4580000D02*
X5760000D01*
X5770000Y4590000D01*
Y3340000D02*
X5980000D01*
X5540000D02*
X5770000D01*
D25*
X8292000Y3800000D02*
X8800000D01*
X8050000Y3800000D02*
X8292000D01*
X8292000Y3800000D01*
X7810000Y3470000D02*
X7812000Y3467999D01*
Y3210000D02*
Y3467999D01*
X7050000Y3709999D02*
Y4000000D01*
X6740000Y4832500D02*
Y5200000D01*
Y4832500D02*
X6840001Y4932500D01*
X7170000D01*
D26*
X2469000Y1531000D02*
X2470000Y1530000D01*
X2469000Y1531000D02*
Y1695000D01*
X3474000Y2325000D02*
Y2506000D01*
X3470000Y2510000D02*
X3474000Y2506000D01*
D27*
X4132000Y2345000D02*
Y2370000D01*
X5630000Y2470001D02*
Y2647500D01*
X5529999Y2370000D02*
X5630000Y2470001D01*
X5529999Y2345000D02*
Y2370000D01*
X4930001Y2469001D02*
Y2647500D01*
X4830999Y2370000D02*
X4930001Y2469001D01*
X4830999Y2345000D02*
Y2370000D01*
X4132000D02*
X4230000Y2468001D01*
Y2647500D01*
D28*
X3558902Y3587500D02*
X3690000D01*
D29*
X4690000Y3600000D02*
Y3735000D01*
D30*
X6176999Y1725000D02*
X6178213Y1723786D01*
D31*
X8292000Y3300000D02*
D03*
X8800000D02*
D03*
X8292000Y3800000D02*
D03*
X8800000D02*
D03*
X600000Y3400000D02*
D03*
X1108000D02*
D03*
X600000Y3900000D02*
D03*
X1108000D02*
D03*
D32*
X7050000Y1320000D02*
D03*
Y3709999D02*
D03*
X7812000Y3210000D02*
D03*
Y1320000D02*
D03*
D33*
X3100000Y520000D02*
D03*
X3350000D02*
D03*
X3600000D02*
D03*
X3850000D02*
D03*
X4100000D02*
D03*
X4350000D02*
D03*
X4600000D02*
D03*
D34*
X4850000D02*
D03*
D35*
X8500000Y600000D02*
D03*
X600000Y600000D02*
D03*
X8500000Y5100000D02*
D03*
X600000D02*
D03*
D36*
X4520000Y3620000D02*
D03*
X2840000Y2970000D02*
D03*
X1940000Y3300000D02*
D03*
Y3120000D02*
D03*
X2140000D02*
D03*
Y3300000D02*
D03*
X2470000Y1530000D02*
D03*
X4192812Y3813613D02*
D03*
X2550000Y2970000D02*
D03*
X3470000Y2510000D02*
D03*
X3480000Y1460000D02*
D03*
X2880000Y1410000D02*
D03*
X6530000Y900000D02*
D03*
X5530000Y1500000D02*
D03*
X4830000Y1460000D02*
D03*
X4140000Y1400000D02*
D03*
X4440000Y4190000D02*
D03*
X4190000Y3660000D02*
D03*
X4410000Y3880000D02*
D03*
X4360000Y4890000D02*
D03*
X4570000Y4300000D02*
D03*
X3065710Y3490620D02*
D03*
X4580000Y3050000D02*
D03*
X4860000D02*
D03*
Y3260000D02*
D03*
X5160000Y3050000D02*
D03*
X5200000Y2890000D02*
D03*
X4580000D02*
D03*
X5277402Y2348270D02*
D03*
X3878000Y2345000D02*
D03*
X4576999D02*
D03*
X3558902Y3587500D02*
D03*
X6520000Y2890000D02*
D03*
X6210000Y2900000D02*
D03*
X6520000Y3270000D02*
D03*
X6310000Y3070000D02*
D03*
X6530000D02*
D03*
X6310000Y3270000D02*
D03*
X4690000Y3600000D02*
D03*
X5410000Y3050000D02*
D03*
X5160000Y3260000D02*
D03*
X6070000Y3270000D02*
D03*
Y3070000D02*
D03*
X5410000Y3260000D02*
D03*
D37*
X6740000Y5200000D02*
D03*
D38*
X4120001Y4232500D02*
D03*
Y4492500D02*
D03*
Y4362500D02*
D03*
X3990001Y4492500D02*
D03*
Y4362500D02*
D03*
Y4232500D02*
D03*
X4120001Y3972500D02*
D03*
X3860001Y4102500D02*
D03*
X4120001D02*
D03*
X3990001Y3972500D02*
D03*
Y4102500D02*
D03*
X3860001Y4362500D02*
D03*
Y4232500D02*
D03*
Y4492500D02*
D03*
Y3972500D02*
D03*
%TF.MD5,f626bdebc1cde8d722bdf7f05d0e215c*%
M02*
