%TF.GenerationSoftware,Altium Limited,Altium Designer,21.3.2 (30)*%
G04 Layer_Physical_Order=2*
G04 Layer_Color=16711680*
%FSLAX45Y45*%
%MOMM*%
%TF.SameCoordinates,D9DFDB92-F573-4E1A-9105-0BCF1000EC4C*%
%TF.FilePolarity,Positive*%
%TF.FileFunction,Copper,L2,Bot,Signal*%
%TF.Part,Single*%
G01*
G75*
%TA.AperFunction,Conductor*%
%ADD23C,0.38100*%
%TA.AperFunction,ComponentPad*%
%ADD31C,2.20000*%
%ADD32O,2.00000X1.60000*%
G04:AMPARAMS|DCode=33|XSize=1.7mm|YSize=1.95mm|CornerRadius=0.85mm|HoleSize=0mm|Usage=FLASHONLY|Rotation=180.000|XOffset=0mm|YOffset=0mm|HoleType=Round|Shape=RoundedRectangle|*
%AMROUNDEDRECTD33*
21,1,1.70000,0.25000,0,0,180.0*
21,1,0.00000,1.95000,0,0,180.0*
1,1,1.70000,0.00000,0.12500*
1,1,1.70000,0.00000,0.12500*
1,1,1.70000,0.00000,-0.12500*
1,1,1.70000,0.00000,-0.12500*
%
%ADD33ROUNDEDRECTD33*%
G04:AMPARAMS|DCode=34|XSize=1.7mm|YSize=1.95mm|CornerRadius=0.1275mm|HoleSize=0mm|Usage=FLASHONLY|Rotation=180.000|XOffset=0mm|YOffset=0mm|HoleType=Round|Shape=RoundedRectangle|*
%AMROUNDEDRECTD34*
21,1,1.70000,1.69500,0,0,180.0*
21,1,1.44500,1.95000,0,0,180.0*
1,1,0.25500,-0.72250,0.84750*
1,1,0.25500,0.72250,0.84750*
1,1,0.25500,0.72250,-0.84750*
1,1,0.25500,-0.72250,-0.84750*
%
%ADD34ROUNDEDRECTD34*%
%ADD35C,5.00000*%
%TA.AperFunction,ViaPad*%
%ADD36C,0.70000*%
%ADD37C,1.00000*%
%ADD38C,0.50000*%
%TA.AperFunction,Conductor*%
%ADD39C,1.80000*%
G36*
X6910000Y5686255D02*
Y5626367D01*
Y5534911D01*
X6910000Y5326853D01*
Y5302314D01*
Y5168705D01*
Y5038065D01*
Y4918414D01*
Y4834760D01*
Y4663379D01*
X6910000Y4240000D01*
Y2980000D01*
X8128238Y2980000D01*
Y3500000D01*
X9049999D01*
X9050000Y2980000D01*
Y2420000D01*
X13745D01*
X13744Y5100000D01*
Y5128802D01*
X19389Y5186125D01*
X30627Y5242619D01*
X47348Y5297743D01*
X69391Y5350957D01*
X96546Y5401761D01*
X128548Y5449654D01*
X165088Y5494179D01*
X205820Y5534911D01*
X250347Y5571453D01*
X298239Y5603453D01*
X349040Y5630607D01*
X402256Y5652650D01*
X457380Y5669372D01*
X513876Y5680609D01*
X571198Y5686255D01*
X600000D01*
X6910000Y5686255D01*
D02*
G37*
G36*
X5278727Y1650000D02*
X9086255Y1649999D01*
Y600000D01*
Y571198D01*
X9080609Y513875D01*
X9069371Y457381D01*
X9052650Y402257D01*
X9030608Y349043D01*
X9003453Y298239D01*
X8971452Y250347D01*
X8934911Y205821D01*
X8894179Y165089D01*
X8849651Y128547D01*
X8801760Y96547D01*
X8750959Y69393D01*
X8697743Y47350D01*
X8642619Y30628D01*
X8586124Y19391D01*
X8528802Y13745D01*
X571198D01*
X513876Y19391D01*
X457381Y30628D01*
X402257Y47350D01*
X349043Y69392D01*
X298239Y96547D01*
X250347Y128548D01*
X205822Y165089D01*
X165089Y205821D01*
X128547Y250348D01*
X96547Y298239D01*
X69393Y349041D01*
X47350Y402257D01*
X30628Y457381D01*
X19391Y513876D01*
X13745Y571198D01*
X13745Y600000D01*
X13745Y1650000D01*
X5278727Y1650000D01*
D02*
G37*
%LPC*%
G36*
X600000Y5626367D02*
X531295Y5621864D01*
X463766Y5608432D01*
X398568Y5586300D01*
X336817Y5555847D01*
X279568Y5517595D01*
X227802Y5472198D01*
X182405Y5420432D01*
X144153Y5363184D01*
X113700Y5301432D01*
X91569Y5236234D01*
X78136Y5168705D01*
X73633Y5100000D01*
X78136Y5031295D01*
X91569Y4963766D01*
X113700Y4898568D01*
X144153Y4836816D01*
X182405Y4779568D01*
X227802Y4727802D01*
X279568Y4682405D01*
X336816Y4644153D01*
X398568Y4613700D01*
X463766Y4591568D01*
X531295Y4578136D01*
X600000Y4573633D01*
X668705Y4578136D01*
X736234Y4591568D01*
X801432Y4613700D01*
X863183Y4644153D01*
X920432Y4682405D01*
X972198Y4727802D01*
X1017595Y4779568D01*
X1055847Y4836816D01*
X1086300Y4898568D01*
X1108432Y4963766D01*
X1121864Y5031295D01*
X1126367Y5100000D01*
X1121864Y5168705D01*
X1108432Y5236234D01*
X1086300Y5301432D01*
X1055847Y5363184D01*
X1017595Y5420432D01*
X972198Y5472198D01*
X920432Y5517595D01*
X863183Y5555847D01*
X801432Y5586300D01*
X736234Y5608432D01*
X668705Y5621864D01*
X600000Y5626367D01*
D02*
G37*
G36*
X1124488Y4025240D02*
X1091512D01*
X1059659Y4016705D01*
X1031101Y4000217D01*
X1007783Y3976899D01*
X991295Y3948341D01*
X982760Y3916488D01*
Y3883512D01*
X991295Y3851659D01*
X1007783Y3823101D01*
X1031101Y3799783D01*
X1059659Y3783295D01*
X1091512Y3774760D01*
X1124488D01*
X1156341Y3783295D01*
X1184899Y3799783D01*
X1208217Y3823101D01*
X1224705Y3851659D01*
X1233240Y3883512D01*
Y3916488D01*
X1224705Y3948341D01*
X1208217Y3976899D01*
X1184899Y4000217D01*
X1156341Y4016705D01*
X1124488Y4025240D01*
D02*
G37*
G36*
X616488D02*
X583512D01*
X551659Y4016705D01*
X523101Y4000217D01*
X499783Y3976899D01*
X483295Y3948341D01*
X474760Y3916488D01*
Y3883512D01*
X483295Y3851659D01*
X499783Y3823101D01*
X523101Y3799783D01*
X551659Y3783295D01*
X583512Y3774760D01*
X616488D01*
X648341Y3783295D01*
X676899Y3799783D01*
X700217Y3823101D01*
X716705Y3851659D01*
X725240Y3883512D01*
Y3916488D01*
X716705Y3948341D01*
X700217Y3976899D01*
X676899Y4000217D01*
X648341Y4016705D01*
X616488Y4025240D01*
D02*
G37*
G36*
X4419993Y3930240D02*
X4400007D01*
X4381541Y3922591D01*
X4367409Y3908459D01*
X4359760Y3889993D01*
Y3879204D01*
X4190796Y3710240D01*
X4180007D01*
X4161541Y3702591D01*
X4147409Y3688459D01*
X4139760Y3669993D01*
Y3650007D01*
X4147409Y3631541D01*
X4161541Y3617409D01*
X4180007Y3609760D01*
X4199993D01*
X4218459Y3617409D01*
X4232591Y3631541D01*
X4240240Y3650007D01*
Y3660796D01*
X4409204Y3829760D01*
X4419993D01*
X4438459Y3837409D01*
X4452591Y3851541D01*
X4460240Y3870007D01*
Y3889993D01*
X4452591Y3908459D01*
X4438459Y3922591D01*
X4419993Y3930240D01*
D02*
G37*
G36*
X4369994Y4940240D02*
X4350007D01*
X4331542Y4932591D01*
X4317409Y4918459D01*
X4309760Y4899993D01*
Y4880006D01*
X4317409Y4861541D01*
X4325038Y4853912D01*
Y4730000D01*
X4327700Y4716620D01*
X4335278Y4705278D01*
X4405038Y4635518D01*
Y4226088D01*
X4397409Y4218459D01*
X4389760Y4199993D01*
Y4180007D01*
X4397409Y4161541D01*
X4405038Y4153912D01*
Y4075283D01*
X4193609Y3863853D01*
X4182819D01*
X4164354Y3856205D01*
X4150221Y3842072D01*
X4142572Y3823607D01*
Y3803620D01*
X4150221Y3785155D01*
X4164354Y3771022D01*
X4182819Y3763373D01*
X4202806D01*
X4221271Y3771022D01*
X4235404Y3785155D01*
X4243052Y3803620D01*
Y3814410D01*
X4464721Y4036079D01*
X4464722Y4036079D01*
X4465038Y4036553D01*
X4485038Y4030486D01*
Y3656088D01*
X4477409Y3648459D01*
X4469760Y3629994D01*
Y3610007D01*
X4477409Y3591541D01*
X4491541Y3577409D01*
X4510007Y3569760D01*
X4529993D01*
X4548459Y3577409D01*
X4562591Y3591541D01*
X4570240Y3610007D01*
Y3629994D01*
X4562591Y3648459D01*
X4554962Y3656088D01*
Y4226886D01*
X4577836Y4249760D01*
X4579993D01*
X4598459Y4257409D01*
X4612591Y4271541D01*
X4620240Y4290007D01*
Y4309993D01*
X4612591Y4328459D01*
X4598459Y4342591D01*
X4579993Y4350240D01*
X4560007D01*
X4541541Y4342591D01*
X4527409Y4328459D01*
X4519760Y4309993D01*
Y4290572D01*
X4495278Y4266090D01*
X4494962Y4265616D01*
X4474962Y4271683D01*
Y4649999D01*
X4474962Y4650000D01*
X4472300Y4663379D01*
X4464722Y4674722D01*
X4394962Y4744482D01*
Y4853912D01*
X4402591Y4861541D01*
X4410240Y4880006D01*
Y4899993D01*
X4402591Y4918459D01*
X4388459Y4932591D01*
X4369994Y4940240D01*
D02*
G37*
G36*
X1125826Y3535400D02*
X1120700D01*
Y3412700D01*
X1243400D01*
Y3417826D01*
X1234173Y3452262D01*
X1216347Y3483137D01*
X1191138Y3508347D01*
X1160263Y3526173D01*
X1125826Y3535400D01*
D02*
G37*
G36*
X617826D02*
X612700D01*
Y3412700D01*
X735400D01*
Y3417826D01*
X726173Y3452262D01*
X708347Y3483137D01*
X683138Y3508347D01*
X652263Y3526173D01*
X617826Y3535400D01*
D02*
G37*
G36*
X1095300D02*
X1090174D01*
X1055738Y3526173D01*
X1024863Y3508347D01*
X999653Y3483137D01*
X981827Y3452262D01*
X972600Y3417826D01*
Y3412700D01*
X1095300D01*
Y3535400D01*
D02*
G37*
G36*
X587300D02*
X582174D01*
X547738Y3526173D01*
X516863Y3508347D01*
X491653Y3483137D01*
X473827Y3452262D01*
X464600Y3417826D01*
Y3412700D01*
X587300D01*
Y3535400D01*
D02*
G37*
G36*
X8817826Y3435400D02*
X8812700D01*
Y3312700D01*
X8935400D01*
Y3317826D01*
X8926173Y3352263D01*
X8908347Y3383138D01*
X8883137Y3408347D01*
X8852262Y3426173D01*
X8817826Y3435400D01*
D02*
G37*
G36*
X8787300D02*
X8782174D01*
X8747737Y3426173D01*
X8716862Y3408347D01*
X8691653Y3383138D01*
X8673827Y3352263D01*
X8664600Y3317826D01*
Y3312700D01*
X8787300D01*
Y3435400D01*
D02*
G37*
G36*
X8309826D02*
X8304700D01*
Y3312700D01*
X8427400D01*
Y3317826D01*
X8418173Y3352263D01*
X8400347Y3383138D01*
X8375137Y3408347D01*
X8344262Y3426173D01*
X8309826Y3435400D01*
D02*
G37*
G36*
X8279300D02*
X8274174D01*
X8239737Y3426173D01*
X8208862Y3408347D01*
X8183653Y3383138D01*
X8165827Y3352263D01*
X8156600Y3317826D01*
Y3312700D01*
X8279300D01*
Y3435400D01*
D02*
G37*
G36*
X1243400Y3387300D02*
X1120700D01*
Y3264600D01*
X1125826D01*
X1160263Y3273827D01*
X1191138Y3291653D01*
X1216347Y3316862D01*
X1234173Y3347737D01*
X1243400Y3382174D01*
Y3387300D01*
D02*
G37*
G36*
X1095300D02*
X972600D01*
Y3382174D01*
X981827Y3347737D01*
X999653Y3316862D01*
X1024863Y3291653D01*
X1055738Y3273827D01*
X1090174Y3264600D01*
X1095300D01*
Y3387300D01*
D02*
G37*
G36*
X735400D02*
X612700D01*
Y3264600D01*
X617826D01*
X652263Y3273827D01*
X683138Y3291653D01*
X708347Y3316862D01*
X726173Y3347737D01*
X735400Y3382174D01*
Y3387300D01*
D02*
G37*
G36*
X587300D02*
X464600D01*
Y3382174D01*
X473827Y3347737D01*
X491653Y3316862D01*
X516863Y3291653D01*
X547738Y3273827D01*
X582174Y3264600D01*
X587300D01*
Y3387300D01*
D02*
G37*
G36*
X8935400Y3287300D02*
X8812700D01*
Y3164600D01*
X8817826D01*
X8852262Y3173827D01*
X8883137Y3191653D01*
X8908347Y3216863D01*
X8926173Y3247737D01*
X8935400Y3282174D01*
Y3287300D01*
D02*
G37*
G36*
X8787300D02*
X8664600D01*
Y3282174D01*
X8673827Y3247737D01*
X8691653Y3216863D01*
X8716862Y3191653D01*
X8747737Y3173827D01*
X8782174Y3164600D01*
X8787300D01*
Y3287300D01*
D02*
G37*
G36*
X8427400D02*
X8304700D01*
Y3164600D01*
X8309826D01*
X8344262Y3173827D01*
X8375137Y3191653D01*
X8400347Y3216863D01*
X8418173Y3247737D01*
X8427400Y3282174D01*
Y3287300D01*
D02*
G37*
G36*
X8279300D02*
X8156600D01*
Y3282174D01*
X8165827Y3247737D01*
X8183653Y3216863D01*
X8208862Y3191653D01*
X8239737Y3173827D01*
X8274174Y3164600D01*
X8279300D01*
Y3287300D01*
D02*
G37*
G36*
X2849993Y3020240D02*
X2830007D01*
X2811541Y3012591D01*
X2803912Y3004962D01*
X2586088D01*
X2578459Y3012591D01*
X2559993Y3020240D01*
X2540007D01*
X2521541Y3012591D01*
X2507409Y2998459D01*
X2499760Y2979993D01*
Y2960007D01*
X2507409Y2941541D01*
X2521541Y2927409D01*
X2540007Y2919760D01*
X2559993D01*
X2578459Y2927409D01*
X2586088Y2935038D01*
X2803912D01*
X2811541Y2927409D01*
X2830007Y2919760D01*
X2849993D01*
X2868459Y2927409D01*
X2882591Y2941541D01*
X2890240Y2960007D01*
Y2979993D01*
X2882591Y2998459D01*
X2868459Y3012591D01*
X2849993Y3020240D01*
D02*
G37*
G36*
X5539993Y1550240D02*
X5520007D01*
X5501541Y1542591D01*
X5493912Y1534962D01*
X5317500D01*
X5304120Y1532300D01*
X5292778Y1524722D01*
X4391758Y623702D01*
X4376168Y630160D01*
X4350000Y633605D01*
X4323832Y630160D01*
X4299448Y620059D01*
X4278508Y603992D01*
X4262441Y583052D01*
X4252340Y558668D01*
X4248895Y532500D01*
Y507500D01*
X4252340Y481332D01*
X4262441Y456948D01*
X4278508Y436008D01*
X4299448Y419941D01*
X4323832Y409840D01*
X4350000Y406395D01*
X4376168Y409840D01*
X4400552Y419941D01*
X4421492Y436008D01*
X4437559Y456948D01*
X4447660Y481332D01*
X4451105Y507500D01*
Y532500D01*
X4447660Y558668D01*
X4441202Y574258D01*
X5331982Y1465038D01*
X5493912D01*
X5501541Y1457409D01*
X5520007Y1449760D01*
X5539993D01*
X5558459Y1457409D01*
X5572591Y1471541D01*
X5580240Y1490007D01*
Y1509993D01*
X5572591Y1528459D01*
X5558459Y1542591D01*
X5539993Y1550240D01*
D02*
G37*
G36*
X7070000Y1416062D02*
X7030000D01*
X7005137Y1412788D01*
X6981969Y1403192D01*
X6962074Y1387926D01*
X6946808Y1368031D01*
X6937211Y1344862D01*
X6933938Y1320000D01*
X6937211Y1295137D01*
X6946808Y1271969D01*
X6962074Y1252074D01*
X6981969Y1236808D01*
X7005137Y1227211D01*
X7030000Y1223938D01*
X7070000D01*
X7094863Y1227211D01*
X7118031Y1236808D01*
X7137926Y1252074D01*
X7153192Y1271969D01*
X7162789Y1295137D01*
X7166062Y1320000D01*
X7162789Y1344862D01*
X7153192Y1368031D01*
X7137926Y1387926D01*
X7118031Y1403192D01*
X7094863Y1412788D01*
X7070000Y1416062D01*
D02*
G37*
G36*
X7832001Y1416061D02*
X7792000D01*
X7767138Y1412788D01*
X7743969Y1403192D01*
X7724074Y1387926D01*
X7708808Y1368031D01*
X7699212Y1344862D01*
X7695938Y1320000D01*
X7699212Y1295137D01*
X7708808Y1271969D01*
X7724074Y1252074D01*
X7743969Y1236808D01*
X7767138Y1227211D01*
X7792000Y1223938D01*
X7832001D01*
X7856863Y1227211D01*
X7880031Y1236808D01*
X7899927Y1252074D01*
X7915192Y1271969D01*
X7924789Y1295137D01*
X7928062Y1320000D01*
X7924789Y1344862D01*
X7915192Y1368031D01*
X7899927Y1387926D01*
X7880031Y1403192D01*
X7856863Y1412788D01*
X7832001Y1416061D01*
D02*
G37*
G36*
X4922250Y643647D02*
X4862700D01*
Y532700D01*
X4961147D01*
Y604750D01*
X4958186Y619635D01*
X4949754Y632255D01*
X4937135Y640687D01*
X4922250Y643647D01*
D02*
G37*
G36*
X4837300D02*
X4777750D01*
X4762865Y640687D01*
X4750246Y632255D01*
X4741813Y619635D01*
X4738853Y604750D01*
Y532700D01*
X4837300D01*
Y643647D01*
D02*
G37*
G36*
X4600000Y633605D02*
X4573832Y630160D01*
X4549448Y620059D01*
X4528508Y603992D01*
X4512441Y583052D01*
X4502340Y558668D01*
X4498895Y532500D01*
Y507500D01*
X4502340Y481332D01*
X4512441Y456948D01*
X4528508Y436008D01*
X4549448Y419941D01*
X4573832Y409840D01*
X4600000Y406395D01*
X4626168Y409840D01*
X4650552Y419941D01*
X4671492Y436008D01*
X4687559Y456948D01*
X4697660Y481332D01*
X4701105Y507500D01*
Y532500D01*
X4697660Y558668D01*
X4687559Y583052D01*
X4671492Y603992D01*
X4650552Y620059D01*
X4626168Y630160D01*
X4600000Y633605D01*
D02*
G37*
G36*
X4839993Y1510240D02*
X4820007D01*
X4801541Y1502591D01*
X4787409Y1488459D01*
X4779760Y1469993D01*
Y1459203D01*
X4075278Y754722D01*
X4067700Y743379D01*
X4065038Y730000D01*
Y626517D01*
X4049448Y620059D01*
X4028508Y603992D01*
X4012441Y583052D01*
X4002340Y558668D01*
X3998895Y532500D01*
Y507500D01*
X4002340Y481332D01*
X4012441Y456948D01*
X4028508Y436008D01*
X4049448Y419941D01*
X4073832Y409840D01*
X4100000Y406395D01*
X4126168Y409840D01*
X4150552Y419941D01*
X4171492Y436008D01*
X4187559Y456948D01*
X4197660Y481332D01*
X4201105Y507500D01*
Y532500D01*
X4197660Y558668D01*
X4187559Y583052D01*
X4171492Y603992D01*
X4150552Y620059D01*
X4134962Y626517D01*
Y715518D01*
X4829203Y1409760D01*
X4839993D01*
X4858459Y1417409D01*
X4872591Y1431541D01*
X4880240Y1450006D01*
Y1469993D01*
X4872591Y1488459D01*
X4858459Y1502591D01*
X4839993Y1510240D01*
D02*
G37*
G36*
X4149993Y1450240D02*
X4130007D01*
X4111541Y1442591D01*
X4097409Y1428459D01*
X4089760Y1409993D01*
Y1399204D01*
X3825278Y1134722D01*
X3817700Y1123379D01*
X3815038Y1110000D01*
Y626517D01*
X3799448Y620059D01*
X3778508Y603992D01*
X3762441Y583052D01*
X3752340Y558668D01*
X3748895Y532500D01*
Y507500D01*
X3752340Y481332D01*
X3762441Y456948D01*
X3778508Y436008D01*
X3799448Y419941D01*
X3823832Y409840D01*
X3850000Y406395D01*
X3876168Y409840D01*
X3900552Y419941D01*
X3921492Y436008D01*
X3937559Y456948D01*
X3947660Y481332D01*
X3951105Y507500D01*
Y532500D01*
X3947660Y558668D01*
X3937559Y583052D01*
X3921492Y603992D01*
X3900552Y620059D01*
X3884962Y626517D01*
Y1095518D01*
X4139204Y1349760D01*
X4149993D01*
X4168459Y1357409D01*
X4182591Y1371541D01*
X4190240Y1390007D01*
Y1409993D01*
X4182591Y1428459D01*
X4168459Y1442591D01*
X4149993Y1450240D01*
D02*
G37*
G36*
X3489993Y1510240D02*
X3470007D01*
X3451541Y1502591D01*
X3437409Y1488459D01*
X3429760Y1469993D01*
Y1450006D01*
X3437409Y1431541D01*
X3451541Y1417409D01*
X3470007Y1409760D01*
X3480796D01*
X3565038Y1325518D01*
Y626517D01*
X3549448Y620059D01*
X3528508Y603992D01*
X3512441Y583052D01*
X3502340Y558668D01*
X3498895Y532500D01*
Y507500D01*
X3502340Y481332D01*
X3512441Y456948D01*
X3528508Y436008D01*
X3549448Y419941D01*
X3573832Y409840D01*
X3600000Y406395D01*
X3626168Y409840D01*
X3650552Y419941D01*
X3671492Y436008D01*
X3687559Y456948D01*
X3697660Y481332D01*
X3701105Y507500D01*
Y532500D01*
X3697660Y558668D01*
X3687559Y583052D01*
X3671492Y603992D01*
X3650552Y620059D01*
X3634962Y626517D01*
Y1340000D01*
X3632300Y1353379D01*
X3624722Y1364722D01*
X3624721Y1364722D01*
X3530240Y1459204D01*
Y1469993D01*
X3522591Y1488459D01*
X3508459Y1502591D01*
X3489993Y1510240D01*
D02*
G37*
G36*
X2889993Y1460240D02*
X2870007D01*
X2851541Y1452591D01*
X2837409Y1438459D01*
X2829760Y1419993D01*
Y1400007D01*
X2837409Y1381541D01*
X2851541Y1367409D01*
X2870007Y1359760D01*
X2880796D01*
X3315038Y925518D01*
Y626517D01*
X3299448Y620059D01*
X3278508Y603992D01*
X3262441Y583052D01*
X3252340Y558668D01*
X3248895Y532500D01*
Y507500D01*
X3252340Y481332D01*
X3262441Y456948D01*
X3278508Y436008D01*
X3299448Y419941D01*
X3323832Y409840D01*
X3350000Y406395D01*
X3376168Y409840D01*
X3400552Y419941D01*
X3421492Y436008D01*
X3437559Y456948D01*
X3447660Y481332D01*
X3451105Y507500D01*
Y532500D01*
X3447660Y558668D01*
X3437559Y583052D01*
X3421492Y603992D01*
X3400552Y620059D01*
X3384962Y626517D01*
Y940000D01*
X3382300Y953379D01*
X3374722Y964722D01*
X2930240Y1409204D01*
Y1419993D01*
X2922591Y1438459D01*
X2908459Y1452591D01*
X2889993Y1460240D01*
D02*
G37*
G36*
X3100000Y633605D02*
X3073832Y630160D01*
X3049448Y620059D01*
X3028508Y603992D01*
X3012441Y583052D01*
X3002340Y558668D01*
X2998895Y532500D01*
Y507500D01*
X3002340Y481332D01*
X3012441Y456948D01*
X3028508Y436008D01*
X3049448Y419941D01*
X3073832Y409840D01*
X3100000Y406395D01*
X3126168Y409840D01*
X3150552Y419941D01*
X3171492Y436008D01*
X3187559Y456948D01*
X3197660Y481332D01*
X3201105Y507500D01*
Y532500D01*
X3197660Y558668D01*
X3187559Y583052D01*
X3171492Y603992D01*
X3150552Y620059D01*
X3126168Y630160D01*
X3100000Y633605D01*
D02*
G37*
G36*
X4961147Y507300D02*
X4862700D01*
Y396353D01*
X4922250D01*
X4937135Y399313D01*
X4949754Y407745D01*
X4958186Y420365D01*
X4961147Y435250D01*
Y507300D01*
D02*
G37*
G36*
X4837300D02*
X4738853D01*
Y435250D01*
X4741813Y420365D01*
X4750246Y407745D01*
X4762865Y399313D01*
X4777750Y396353D01*
X4837300D01*
Y507300D01*
D02*
G37*
G36*
X8500000Y1126367D02*
X8431295Y1121864D01*
X8363766Y1108432D01*
X8298568Y1086300D01*
X8236817Y1055847D01*
X8179568Y1017595D01*
X8127802Y972198D01*
X8082405Y920432D01*
X8044153Y863183D01*
X8013700Y801432D01*
X7991568Y736234D01*
X7978136Y668705D01*
X7973633Y600000D01*
X7978136Y531295D01*
X7991568Y463766D01*
X8013700Y398568D01*
X8044153Y336816D01*
X8082405Y279568D01*
X8127802Y227802D01*
X8179568Y182405D01*
X8236817Y144153D01*
X8298568Y113700D01*
X8363766Y91569D01*
X8431295Y78136D01*
X8500000Y73633D01*
X8568705Y78136D01*
X8636234Y91569D01*
X8701432Y113700D01*
X8763183Y144153D01*
X8820432Y182405D01*
X8872198Y227802D01*
X8917595Y279568D01*
X8955847Y336816D01*
X8986300Y398568D01*
X9008432Y463766D01*
X9021864Y531295D01*
X9026367Y600000D01*
X9021864Y668705D01*
X9008432Y736234D01*
X8986300Y801432D01*
X8955847Y863183D01*
X8917595Y920432D01*
X8872198Y972198D01*
X8820432Y1017595D01*
X8763183Y1055847D01*
X8701432Y1086300D01*
X8636234Y1108432D01*
X8568705Y1121864D01*
X8500000Y1126367D01*
D02*
G37*
G36*
X600000Y1126367D02*
X531295Y1121863D01*
X463766Y1108431D01*
X398568Y1086299D01*
X336817Y1055847D01*
X279568Y1017595D01*
X227802Y972197D01*
X182405Y920431D01*
X144153Y863183D01*
X113700Y801431D01*
X91569Y736233D01*
X78136Y668704D01*
X73633Y600000D01*
X78136Y531295D01*
X91569Y463766D01*
X113700Y398568D01*
X144153Y336816D01*
X182405Y279568D01*
X227802Y227802D01*
X279568Y182405D01*
X336816Y144152D01*
X398568Y113700D01*
X463766Y91568D01*
X531295Y78136D01*
X600000Y73633D01*
X668705Y78136D01*
X736234Y91568D01*
X801432Y113700D01*
X863183Y144152D01*
X920432Y182405D01*
X972198Y227802D01*
X1017595Y279568D01*
X1055847Y336816D01*
X1086300Y398568D01*
X1108432Y463766D01*
X1121864Y531295D01*
X1126367Y600000D01*
X1121864Y668704D01*
X1108432Y736233D01*
X1086300Y801431D01*
X1055847Y863183D01*
X1017595Y920431D01*
X972198Y972197D01*
X920432Y1017595D01*
X863183Y1055847D01*
X801432Y1086299D01*
X736234Y1108431D01*
X668705Y1121863D01*
X600000Y1126367D01*
D02*
G37*
%LPD*%
D23*
X4520000Y3620000D02*
Y4241368D01*
X2550000Y2970000D02*
X2840000D01*
X4360000Y4730000D02*
X4440000Y4650000D01*
Y4190000D02*
Y4650000D01*
X4360000Y4730000D02*
Y4890000D01*
X4440000Y4060801D02*
Y4190000D01*
X4192812Y3813613D02*
X4440000Y4060801D01*
X4350000Y532500D02*
X5317500Y1500000D01*
X5530000D01*
X4350000Y520000D02*
Y532500D01*
X4100000Y730000D02*
X4830000Y1460000D01*
X4100000Y520000D02*
Y730000D01*
X3850000Y1110000D02*
X4140000Y1400000D01*
X3850000Y520000D02*
Y1110000D01*
X3600000Y520000D02*
Y1340000D01*
X3480000Y1460000D02*
X3600000Y1340000D01*
X2880000Y1410000D02*
X3350000Y940000D01*
Y520000D02*
Y940000D01*
X4520000Y4241368D02*
X4570000Y4291368D01*
X4190000Y3660000D02*
X4410000Y3880000D01*
X4570000Y4291368D02*
Y4300000D01*
X5275767Y2346635D02*
X5277402Y2348270D01*
X4578634Y2346635D02*
X5275767D01*
X4576999Y2345000D02*
X4578634Y2346635D01*
X3878000Y2345000D02*
X4576999D01*
D31*
X8292000Y3300000D02*
D03*
X8800000D02*
D03*
X8292000Y3800000D02*
D03*
X8800000D02*
D03*
X600000Y3400000D02*
D03*
X1108000D02*
D03*
X600000Y3900000D02*
D03*
X1108000D02*
D03*
D32*
X7050000Y1320000D02*
D03*
Y3709999D02*
D03*
X7812000Y3210000D02*
D03*
Y1320000D02*
D03*
D33*
X3100000Y520000D02*
D03*
X3350000D02*
D03*
X3600000D02*
D03*
X3850000D02*
D03*
X4100000D02*
D03*
X4350000D02*
D03*
X4600000D02*
D03*
D34*
X4850000D02*
D03*
D35*
X8500000Y600000D02*
D03*
X600000Y600000D02*
D03*
X8500000Y5100000D02*
D03*
X600000D02*
D03*
D36*
X4520000Y3620000D02*
D03*
X2840000Y2970000D02*
D03*
X1940000Y3300000D02*
D03*
Y3120000D02*
D03*
X2140000D02*
D03*
Y3300000D02*
D03*
X2470000Y1530000D02*
D03*
X4192812Y3813613D02*
D03*
X2550000Y2970000D02*
D03*
X3470000Y2510000D02*
D03*
X3480000Y1460000D02*
D03*
X2880000Y1410000D02*
D03*
X6530000Y900000D02*
D03*
X5530000Y1500000D02*
D03*
X4830000Y1460000D02*
D03*
X4140000Y1400000D02*
D03*
X4440000Y4190000D02*
D03*
X4190000Y3660000D02*
D03*
X4410000Y3880000D02*
D03*
X4360000Y4890000D02*
D03*
X4570000Y4300000D02*
D03*
X3065710Y3490620D02*
D03*
X4580000Y3050000D02*
D03*
X4860000D02*
D03*
Y3260000D02*
D03*
X5160000Y3050000D02*
D03*
X5200000Y2890000D02*
D03*
X4580000D02*
D03*
X5277402Y2348270D02*
D03*
X3878000Y2345000D02*
D03*
X4576999D02*
D03*
X3558902Y3587500D02*
D03*
X6520000Y2890000D02*
D03*
X6210000Y2900000D02*
D03*
X6520000Y3270000D02*
D03*
X6310000Y3070000D02*
D03*
X6530000D02*
D03*
X6310000Y3270000D02*
D03*
X4690000Y3600000D02*
D03*
X5410000Y3050000D02*
D03*
X5160000Y3260000D02*
D03*
X6070000Y3270000D02*
D03*
Y3070000D02*
D03*
X5410000Y3260000D02*
D03*
D37*
X6740000Y5200000D02*
D03*
D38*
X4120001Y4232500D02*
D03*
Y4492500D02*
D03*
Y4362500D02*
D03*
X3990001Y4492500D02*
D03*
Y4362500D02*
D03*
Y4232500D02*
D03*
X4120001Y3972500D02*
D03*
X3860001Y4102500D02*
D03*
X4120001D02*
D03*
X3990001Y3972500D02*
D03*
Y4102500D02*
D03*
X3860001Y4362500D02*
D03*
Y4232500D02*
D03*
Y4492500D02*
D03*
Y3972500D02*
D03*
D39*
X8292000Y3300000D02*
X8800000D01*
X8710000Y3199176D02*
X8800000Y3289176D01*
Y3300000D01*
X8710000Y3130000D02*
Y3199176D01*
%TF.MD5,74fb360fe211179d62af2192403230f6*%
M02*
