%TF.GenerationSoftware,Altium Limited,Altium Designer,21.3.2 (30)*%
G04 Layer_Color=0*
%FSLAX45Y45*%
%MOMM*%
%TF.SameCoordinates,D9DFDB92-F573-4E1A-9105-0BCF1000EC4C*%
%TF.FilePolarity,Positive*%
%TF.FileFunction,Plated,1,2,PTH,Drill*%
%TF.Part,Single*%
G01*
G75*
%TA.AperFunction,ComponentDrill*%
%ADD65C,1.45000*%
%ADD66O,1.00000X0.60000*%
%ADD67C,0.95000*%
%ADD68C,4.00000*%
%TA.AperFunction,ViaDrill,NotFilled*%
%ADD69C,0.30000*%
%ADD70C,0.50000*%
D65*
X8292000Y3300000D02*
D03*
X8800000D02*
D03*
X8292000Y3800000D02*
D03*
X8800000D02*
D03*
X600000Y3400000D02*
D03*
X1108000D02*
D03*
X600000Y3900000D02*
D03*
X1108000D02*
D03*
D66*
X7050000Y1320000D02*
D03*
Y3709999D02*
D03*
X7812000Y3210000D02*
D03*
Y1320000D02*
D03*
D67*
X3100000Y520000D02*
D03*
X3350000D02*
D03*
X3600000D02*
D03*
X3850000D02*
D03*
X4100000D02*
D03*
X4350000D02*
D03*
X4600000D02*
D03*
X4850000D02*
D03*
D68*
X8500000Y600000D02*
D03*
X600000Y600000D02*
D03*
X8500000Y5100000D02*
D03*
X600000D02*
D03*
D69*
X4520000Y3620000D02*
D03*
X2840000Y2970000D02*
D03*
X1940000Y3300000D02*
D03*
Y3120000D02*
D03*
X2140000D02*
D03*
Y3300000D02*
D03*
X2470000Y1530000D02*
D03*
X4192812Y3813613D02*
D03*
X2550000Y2970000D02*
D03*
X3470000Y2510000D02*
D03*
X3480000Y1460000D02*
D03*
X2880000Y1410000D02*
D03*
X6530000Y900000D02*
D03*
X5530000Y1500000D02*
D03*
X4830000Y1460000D02*
D03*
X4140000Y1400000D02*
D03*
X4440000Y4190000D02*
D03*
X4190000Y3660000D02*
D03*
X4410000Y3880000D02*
D03*
X4360000Y4890000D02*
D03*
X4570000Y4300000D02*
D03*
X3065710Y3490620D02*
D03*
X4120001Y4232500D02*
D03*
Y4492500D02*
D03*
Y4362500D02*
D03*
X3990001Y4492500D02*
D03*
Y4362500D02*
D03*
Y4232500D02*
D03*
X4120001Y3972500D02*
D03*
X3860001Y4102500D02*
D03*
X4120001D02*
D03*
X3990001Y3972500D02*
D03*
Y4102500D02*
D03*
X3860001Y4362500D02*
D03*
Y4232500D02*
D03*
Y4492500D02*
D03*
Y3972500D02*
D03*
X4580000Y3050000D02*
D03*
X4860000D02*
D03*
Y3260000D02*
D03*
X5160000Y3050000D02*
D03*
X5200000Y2890000D02*
D03*
X4580000D02*
D03*
X5277402Y2348270D02*
D03*
X3878000Y2345000D02*
D03*
X4576999D02*
D03*
X3558902Y3587500D02*
D03*
X6520000Y2890000D02*
D03*
X6210000Y2900000D02*
D03*
X6520000Y3270000D02*
D03*
X6310000Y3070000D02*
D03*
X6530000D02*
D03*
X6310000Y3270000D02*
D03*
X4690000Y3600000D02*
D03*
X5410000Y3050000D02*
D03*
X5160000Y3260000D02*
D03*
X6070000Y3270000D02*
D03*
Y3070000D02*
D03*
X5410000Y3260000D02*
D03*
D70*
X6740000Y5200000D02*
D03*
%TF.MD5,1b072fd0fbbc6ac1dff232b133d19e5d*%
M02*
