%TF.GenerationSoftware,Altium Limited,Altium Designer,21.3.2 (30)*%
G04 Layer_Color=65535*
%FSLAX45Y45*%
%MOMM*%
%TF.SameCoordinates,D9DFDB92-F573-4E1A-9105-0BCF1000EC4C*%
%TF.FilePolarity,Positive*%
%TF.FileFunction,Legend,Top*%
%TF.Part,Single*%
G01*
G75*
%TA.AperFunction,NonConductor*%
%ADD45C,0.20000*%
%ADD46C,0.25000*%
%ADD47C,0.60000*%
%ADD48C,0.25400*%
%ADD49C,0.12000*%
D45*
X4292808Y4937500D02*
G03*
X4292808Y4937500I-10308J0D01*
G01*
X3144050Y4422575D02*
G03*
X3144050Y4422575I-2700J0D01*
G01*
X9000000Y600000D02*
G03*
X9000000Y600000I-500000J0D01*
G01*
X1100000Y600000D02*
G03*
X1100000Y600000I-500000J0D01*
G01*
X9000000Y5100000D02*
G03*
X9000000Y5100000I-500000J0D01*
G01*
X1100000D02*
G03*
X1100000Y5100000I-500000J0D01*
G01*
Y600000D02*
G03*
X1100000Y600000I-500000J0D01*
G01*
X4385000Y5130000D02*
X4395000D01*
X4385000Y5010000D02*
X4395000D01*
X6931000Y3880000D02*
X7931000D01*
X6931000Y1030000D02*
X7931000D01*
X2285000Y3960000D02*
X2340000D01*
Y3260000D02*
Y3960000D01*
X2285000Y3260000D02*
X2340000D01*
X1720000Y3960000D02*
X1775000D01*
X1720000Y3260000D02*
X1775000D01*
X1720000D02*
Y3960000D01*
X1620000Y3520000D02*
X1680000Y3580000D01*
X1620000Y3640000D02*
X1680000Y3580000D01*
X1420000D02*
X1680000D01*
X2406000Y2210000D02*
X2786000D01*
X2406000Y1810000D02*
X2786000D01*
Y2210000D01*
X2406000Y1810000D02*
Y2210000D01*
X3157000Y1810000D02*
X3537000D01*
X3157000Y2210000D02*
X3537000D01*
X3157000Y1810000D02*
Y2210000D01*
X3537000Y1810000D02*
Y2210000D01*
X3815000Y1830000D02*
X4194999D01*
X3815000Y2230000D02*
X4194999D01*
X3815000Y1830000D02*
Y2230000D01*
X4194999Y1830000D02*
Y2230000D01*
X4514000Y1830000D02*
Y2230000D01*
Y1830000D02*
X4893999D01*
X4514000Y2230000D02*
X4893999D01*
Y1830000D02*
Y2230000D01*
X5212999Y1830000D02*
X5592999D01*
X5212999Y2230000D02*
X5592999D01*
X5212999Y1830000D02*
Y2230000D01*
X5592999Y1830000D02*
Y2230000D01*
X4250000Y3175000D02*
Y3185000D01*
X4370000Y3175000D02*
Y3185000D01*
X4580000Y3402500D02*
Y3412500D01*
X4460000Y3402500D02*
Y3412500D01*
X3275000Y4980000D02*
X3285000D01*
X3275000Y4860000D02*
X3285000D01*
X2955001Y4490000D02*
Y4555000D01*
X2870001D02*
X2955001D01*
Y4245000D02*
Y4310000D01*
X2870001Y4245000D02*
X2955001D01*
X3805001Y4562500D02*
X4175001D01*
X3805001Y3902500D02*
X4175001D01*
X3175101Y4705074D02*
X3505100D01*
X3175101Y4375074D02*
X3505100D01*
X4770000Y3825000D02*
Y3835000D01*
X4650000Y3825000D02*
Y3835000D01*
X5690001Y2735000D02*
Y2745000D01*
X5570001Y2735000D02*
Y2745000D01*
X4990001Y2735000D02*
Y2745000D01*
X4870001Y2735000D02*
Y2745000D01*
X4290001Y2735000D02*
Y2745000D01*
X4170001Y2735000D02*
Y2745000D01*
X2805000Y3610000D02*
X2815000D01*
X2805000Y3490000D02*
X2815000D01*
X3305001Y3920000D02*
X3315000D01*
X3305001Y3800000D02*
X3315000D01*
X2805000Y4030000D02*
X2815000D01*
X2805000Y3910000D02*
X2815000D01*
X4770000Y4275000D02*
Y4285000D01*
X4650000Y4275000D02*
Y4285000D01*
X2530000Y2685000D02*
Y2695000D01*
X2410000Y2685000D02*
Y2695000D01*
X2470000Y4235000D02*
Y4245000D01*
X2350000Y4235000D02*
Y4245000D01*
X5340000Y1345000D02*
Y1355000D01*
X5220000Y1345000D02*
Y1355000D01*
X4640000Y1335000D02*
Y1345000D01*
X4520000Y1335000D02*
Y1345000D01*
X3940000Y1335000D02*
Y1345000D01*
X3820000Y1335000D02*
Y1345000D01*
X3290000Y1335000D02*
Y1345000D01*
X3170000Y1335000D02*
Y1345000D01*
X2660000Y1335000D02*
Y1345000D01*
X2780000Y1335000D02*
Y1345000D01*
X7145000Y595000D02*
Y620000D01*
Y860000D02*
Y885000D01*
Y595000D02*
X7715000D01*
Y620000D01*
X7145000Y885000D02*
X7715000D01*
Y860000D02*
Y885000D01*
X7290000Y5015000D02*
X7315000D01*
Y4445000D02*
Y5015000D01*
X7290000Y4445000D02*
X7315000D01*
X7025000Y5015000D02*
X7050000D01*
X7025000Y4445000D02*
X7050000D01*
X7025000D02*
Y5015000D01*
X3750001Y3675000D02*
Y3685000D01*
X3630001Y3675000D02*
Y3685000D01*
X6680000Y4735000D02*
Y4745000D01*
X6800000Y4735000D02*
Y4745000D01*
X5925000Y4825000D02*
X6262500D01*
X6630000Y4457500D01*
X4910000D02*
X5277500Y4825000D01*
X5615000D01*
X6630000Y3105000D02*
Y4457500D01*
X5925000Y3105000D02*
X6630000D01*
X4910000D02*
X5615000D01*
X4910000D02*
Y4457500D01*
X6205000Y845000D02*
X6290000D01*
X6205000Y535000D02*
X6290000D01*
X6205000D02*
Y600000D01*
Y780000D02*
Y845000D01*
X5765000Y530000D02*
X5775000D01*
X5765000Y650000D02*
X5775000D01*
X7640000Y3980000D02*
X7700000Y4040000D01*
X7640000Y4100000D02*
X7700000Y4040000D01*
X7440000D02*
X7700000D01*
D46*
X2835500Y2325000D02*
G03*
X2835500Y2325000I-12500J0D01*
G01*
X3132500Y1695000D02*
G03*
X3132500Y1695000I-12500J0D01*
G01*
X3790500Y1715000D02*
G03*
X3790500Y1715000I-12500J0D01*
G01*
X4489500D02*
G03*
X4489500Y1715000I-12500J0D01*
G01*
X5188499D02*
G03*
X5188499Y1715000I-12500J0D01*
G01*
X2782501Y4600000D02*
G03*
X2782501Y4600000I-12500J0D01*
G01*
X3707501Y4602500D02*
G03*
X3707501Y4602500I-12500J0D01*
G01*
X7092500Y875000D02*
G03*
X7092500Y875000I-12500J0D01*
G01*
X7047500Y4380000D02*
G03*
X7047500Y4380000I-12500J0D01*
G01*
X6402500Y490000D02*
G03*
X6402500Y490000I-12500J0D01*
G01*
D47*
X2716000Y2110000D02*
G03*
X2716000Y2110000I-30000J0D01*
G01*
X3287000Y1910000D02*
G03*
X3287000Y1910000I-30000J0D01*
G01*
X3944999Y1930000D02*
G03*
X3944999Y1930000I-30000J0D01*
G01*
X4643999D02*
G03*
X4643999Y1930000I-30000J0D01*
G01*
X5342999D02*
G03*
X5342999Y1930000I-30000J0D01*
G01*
X1380000Y3350000D02*
X1660000D01*
X1390000Y3900000D02*
X1670000D01*
X1530000Y3760000D02*
Y4040000D01*
X8010000Y2730000D02*
X8290000D01*
X7780000Y4130000D02*
X8060000D01*
X7920000Y3990000D02*
Y4270000D01*
D48*
X8150000Y3258500D02*
Y3341500D01*
X8942000Y3258500D02*
Y3341500D01*
X8150000Y3758500D02*
Y3841500D01*
X8942000Y3758500D02*
Y3841500D01*
X1250000Y3358500D02*
Y3441500D01*
X458000Y3358500D02*
Y3441500D01*
X1250000Y3858500D02*
Y3941500D01*
X458000Y3858500D02*
Y3941500D01*
X1085400Y3707751D02*
X1136183D01*
X1110792D01*
Y3555400D01*
X1085400D01*
X1136183D01*
X1212359D02*
Y3707751D01*
X1313926Y3555400D01*
Y3707751D01*
X7011575Y4117751D02*
X6960792D01*
X6935400Y4092359D01*
Y3990792D01*
X6960792Y3965400D01*
X7011575D01*
X7036967Y3990792D01*
Y4092359D01*
X7011575Y4117751D01*
X7087751D02*
Y3990792D01*
X7113142Y3965400D01*
X7163926D01*
X7189318Y3990792D01*
Y4117751D01*
X7240101D02*
X7341669D01*
X7290885D01*
Y3965400D01*
X5215400Y3905361D02*
X5255387D01*
X5235394D01*
Y3785400D01*
X5215400D01*
X5255387D01*
X5315368D02*
Y3805393D01*
X5335361D01*
Y3785400D01*
X5315368D01*
X5415336Y3905361D02*
Y3785400D01*
X5475316D01*
X5495310Y3805393D01*
Y3825387D01*
X5475316Y3845380D01*
X5415336D01*
X5475316D01*
X5495310Y3865374D01*
Y3885368D01*
X5475316Y3905361D01*
X5415336D01*
X5535297Y3785400D02*
Y3805393D01*
X5555290D01*
Y3785400D01*
X5535297D01*
X3136900Y5092700D02*
Y5206963D01*
X3194031D01*
X3213075Y5187919D01*
Y5149831D01*
X3194031Y5130788D01*
X3136900D01*
X3174988D02*
X3213075Y5092700D01*
X3251163D02*
X3289251D01*
X3270207D01*
Y5206963D01*
X3251163Y5187919D01*
X3346382Y5092700D02*
X3384470D01*
X3365426D01*
Y5206963D01*
X3346382Y5187919D01*
X4246880Y5356823D02*
Y5242560D01*
X4304011D01*
X4323055Y5261604D01*
Y5337779D01*
X4304011Y5356823D01*
X4246880D01*
X4437319D02*
X4361143D01*
Y5299691D01*
X4399231Y5318735D01*
X4418275D01*
X4437319Y5299691D01*
Y5261604D01*
X4418275Y5242560D01*
X4380187D01*
X4361143Y5261604D01*
X4197131Y3084781D02*
X4082868D01*
Y3141912D01*
X4101912Y3160956D01*
X4140000D01*
X4159043Y3141912D01*
Y3084781D01*
Y3122869D02*
X4197131Y3160956D01*
Y3256176D02*
X4082868D01*
X4140000Y3199044D01*
Y3275220D01*
X4757131Y3312281D02*
X4642868D01*
Y3369413D01*
X4661912Y3388457D01*
X4700000D01*
X4719043Y3369413D01*
Y3312281D01*
Y3350369D02*
X4757131Y3388457D01*
Y3502720D02*
Y3426544D01*
X4680956Y3502720D01*
X4661912D01*
X4642868Y3483676D01*
Y3445588D01*
X4661912Y3426544D01*
X5652868Y1936215D02*
X5748087D01*
X5767131Y1955259D01*
Y1993347D01*
X5748087Y2012390D01*
X5652868D01*
X5767131Y2050478D02*
Y2088566D01*
Y2069522D01*
X5652868D01*
X5671912Y2050478D01*
X5767131Y2145698D02*
Y2183785D01*
Y2164741D01*
X5652868D01*
X5671912Y2145698D01*
X4962868Y1907171D02*
X5058088D01*
X5077132Y1926215D01*
Y1964303D01*
X5058088Y1983347D01*
X4962868D01*
X5077132Y2021434D02*
Y2059522D01*
Y2040478D01*
X4962868D01*
X4981912Y2021434D01*
Y2116654D02*
X4962868Y2135698D01*
Y2173785D01*
X4981912Y2192829D01*
X5058088D01*
X5077132Y2173785D01*
Y2135698D01*
X5058088Y2116654D01*
X4981912D01*
X4252868Y1934781D02*
X4348088D01*
X4367131Y1953825D01*
Y1991912D01*
X4348088Y2010956D01*
X4252868D01*
X4348088Y2049044D02*
X4367131Y2068088D01*
Y2106175D01*
X4348088Y2125219D01*
X4271912D01*
X4252868Y2106175D01*
Y2068088D01*
X4271912Y2049044D01*
X4290956D01*
X4310000Y2068088D01*
Y2125219D01*
X2724781Y4197132D02*
Y4101913D01*
X2743825Y4082869D01*
X2781913D01*
X2800957Y4101913D01*
Y4197132D01*
X2839045Y4178088D02*
X2858089Y4197132D01*
X2896176D01*
X2915220Y4178088D01*
Y4159044D01*
X2896176Y4140000D01*
X2915220Y4120956D01*
Y4101913D01*
X2896176Y4082869D01*
X2858089D01*
X2839045Y4101913D01*
Y4120956D01*
X2858089Y4140000D01*
X2839045Y4159044D01*
Y4178088D01*
X2858089Y4140000D02*
X2896176D01*
X3884781Y3827132D02*
Y3731913D01*
X3903825Y3712869D01*
X3941913D01*
X3960957Y3731913D01*
Y3827132D01*
X3999045D02*
X4075220D01*
Y3808088D01*
X3999045Y3731913D01*
Y3712869D01*
X3254781Y4327132D02*
Y4231912D01*
X3273825Y4212868D01*
X3311912D01*
X3330956Y4231912D01*
Y4327132D01*
X3445219D02*
X3407132Y4308088D01*
X3369044Y4270000D01*
Y4231912D01*
X3388088Y4212868D01*
X3426176D01*
X3445219Y4231912D01*
Y4250956D01*
X3426176Y4270000D01*
X3369044D01*
X2852869Y1924781D02*
X2948088D01*
X2967132Y1943824D01*
Y1981912D01*
X2948088Y2000956D01*
X2852869D01*
X2967132Y2115219D02*
Y2039044D01*
X2890957Y2115219D01*
X2871913D01*
X2852869Y2096175D01*
Y2058088D01*
X2871913Y2039044D01*
X3592868Y1933825D02*
X3688088D01*
X3707132Y1952869D01*
Y1990956D01*
X3688088Y2010000D01*
X3592868D01*
X3707132Y2048088D02*
Y2086176D01*
Y2067132D01*
X3592868D01*
X3611912Y2048088D01*
X4607132Y3687649D02*
X4492868D01*
Y3744781D01*
X4511912Y3763825D01*
X4550000D01*
X4569044Y3744781D01*
Y3687649D01*
Y3725737D02*
X4607132Y3763825D01*
Y3878088D02*
Y3801912D01*
X4530956Y3878088D01*
X4511912D01*
X4492868Y3859044D01*
Y3820956D01*
X4511912Y3801912D01*
X4492868Y3992351D02*
Y3916176D01*
X4550000D01*
X4530956Y3954263D01*
Y3973307D01*
X4550000Y3992351D01*
X4588088D01*
X4607132Y3973307D01*
Y3935219D01*
X4588088Y3916176D01*
X5507131Y2597649D02*
X5392868D01*
Y2654781D01*
X5411912Y2673824D01*
X5450000D01*
X5469044Y2654781D01*
Y2597649D01*
Y2635737D02*
X5507131Y2673824D01*
Y2788088D02*
Y2711912D01*
X5430956Y2788088D01*
X5411912D01*
X5392868Y2769044D01*
Y2730956D01*
X5411912Y2711912D01*
X5507131Y2883307D02*
X5392868D01*
X5450000Y2826175D01*
Y2902351D01*
X4807132Y2597649D02*
X4692868D01*
Y2654781D01*
X4711912Y2673824D01*
X4750000D01*
X4769044Y2654781D01*
Y2597649D01*
Y2635737D02*
X4807132Y2673824D01*
Y2788088D02*
Y2711912D01*
X4730956Y2788088D01*
X4711912D01*
X4692868Y2769044D01*
Y2730956D01*
X4711912Y2711912D01*
Y2826175D02*
X4692868Y2845219D01*
Y2883307D01*
X4711912Y2902351D01*
X4730956D01*
X4750000Y2883307D01*
Y2864263D01*
Y2883307D01*
X4769044Y2902351D01*
X4788088D01*
X4807132Y2883307D01*
Y2845219D01*
X4788088Y2826175D01*
X4107131Y2587649D02*
X3992868D01*
Y2644781D01*
X4011912Y2663824D01*
X4050000D01*
X4069044Y2644781D01*
Y2587649D01*
Y2625737D02*
X4107131Y2663824D01*
Y2778088D02*
Y2701912D01*
X4030956Y2778088D01*
X4011912D01*
X3992868Y2759044D01*
Y2720956D01*
X4011912Y2701912D01*
X4107131Y2892351D02*
Y2816175D01*
X4030956Y2892351D01*
X4011912D01*
X3992868Y2873307D01*
Y2835219D01*
X4011912Y2816175D01*
X2666693Y3322868D02*
Y3437132D01*
X2723825D01*
X2742869Y3418088D01*
Y3380000D01*
X2723825Y3360956D01*
X2666693D01*
X2704781D02*
X2742869Y3322868D01*
X2857132D02*
X2780956D01*
X2857132Y3399044D01*
Y3418088D01*
X2838088Y3437132D01*
X2800000D01*
X2780956Y3418088D01*
X2895220Y3322868D02*
X2933307D01*
X2914263D01*
Y3437132D01*
X2895220Y3418088D01*
X3157171Y3622868D02*
Y3737131D01*
X3214303D01*
X3233347Y3718088D01*
Y3680000D01*
X3214303Y3660956D01*
X3157171D01*
X3195259D02*
X3233347Y3622868D01*
X3271435D02*
X3309522D01*
X3290479D01*
Y3737131D01*
X3271435Y3718088D01*
X3366654D02*
X3385698Y3737131D01*
X3423785D01*
X3442829Y3718088D01*
Y3699044D01*
X3423785Y3680000D01*
X3442829Y3660956D01*
Y3641912D01*
X3423785Y3622868D01*
X3385698D01*
X3366654Y3641912D01*
Y3660956D01*
X3385698Y3680000D01*
X3366654Y3699044D01*
Y3718088D01*
X3385698Y3680000D02*
X3423785D01*
X2677171Y3742869D02*
Y3857132D01*
X2734303D01*
X2753347Y3838088D01*
Y3800000D01*
X2734303Y3780956D01*
X2677171D01*
X2715259D02*
X2753347Y3742869D01*
X2791435D02*
X2829522D01*
X2810479D01*
Y3857132D01*
X2791435Y3838088D01*
X2886654Y3857132D02*
X2962829D01*
Y3838088D01*
X2886654Y3761912D01*
Y3742869D01*
X4567171Y4472868D02*
Y4587132D01*
X4624303D01*
X4643347Y4568088D01*
Y4530000D01*
X4624303Y4510956D01*
X4567171D01*
X4605259D02*
X4643347Y4472868D01*
X4681435D02*
X4719522D01*
X4700479D01*
Y4587132D01*
X4681435Y4568088D01*
X4833785Y4472868D02*
Y4587132D01*
X4776654Y4530000D01*
X4852829D01*
X2347131Y2547171D02*
X2232868D01*
Y2604303D01*
X2251912Y2623347D01*
X2290000D01*
X2309043Y2604303D01*
Y2547171D01*
Y2585259D02*
X2347131Y2623347D01*
Y2661434D02*
Y2699522D01*
Y2680478D01*
X2232868D01*
X2251912Y2661434D01*
Y2756654D02*
X2232868Y2775698D01*
Y2813785D01*
X2251912Y2832829D01*
X2270956D01*
X2290000Y2813785D01*
Y2794741D01*
Y2813785D01*
X2309043Y2832829D01*
X2328087D01*
X2347131Y2813785D01*
Y2775698D01*
X2328087Y2756654D01*
X2257172Y4462869D02*
Y4577132D01*
X2314303D01*
X2333347Y4558088D01*
Y4520000D01*
X2314303Y4500956D01*
X2257172D01*
X2295260D02*
X2333347Y4462869D01*
X2371435D02*
X2409523D01*
X2390479D01*
Y4577132D01*
X2371435Y4558088D01*
X2542830Y4462869D02*
X2466654D01*
X2542830Y4539044D01*
Y4558088D01*
X2523786Y4577132D01*
X2485698D01*
X2466654Y4558088D01*
X5387171Y1292869D02*
Y1407132D01*
X5444303D01*
X5463347Y1388088D01*
Y1350000D01*
X5444303Y1330956D01*
X5387171D01*
X5425259D02*
X5463347Y1292869D01*
X5501435D02*
X5539522D01*
X5520478D01*
Y1407132D01*
X5501435Y1388088D01*
X5596654D02*
X5615698Y1407132D01*
X5653785D01*
X5672829Y1388088D01*
Y1311913D01*
X5653785Y1292869D01*
X5615698D01*
X5596654Y1311913D01*
Y1388088D01*
X4694781Y1402868D02*
Y1517132D01*
X4751912D01*
X4770956Y1498088D01*
Y1460000D01*
X4751912Y1440956D01*
X4694781D01*
X4732869D02*
X4770956Y1402868D01*
X4809044Y1421912D02*
X4828088Y1402868D01*
X4866175D01*
X4885219Y1421912D01*
Y1498088D01*
X4866175Y1517132D01*
X4828088D01*
X4809044Y1498088D01*
Y1479044D01*
X4828088Y1460000D01*
X4885219D01*
X4034781Y1282868D02*
Y1397132D01*
X4091912D01*
X4110956Y1378088D01*
Y1340000D01*
X4091912Y1320956D01*
X4034781D01*
X4072869D02*
X4110956Y1282868D01*
X4149044Y1378088D02*
X4168088Y1397132D01*
X4206175D01*
X4225219Y1378088D01*
Y1359044D01*
X4206175Y1340000D01*
X4225219Y1320956D01*
Y1301912D01*
X4206175Y1282868D01*
X4168088D01*
X4149044Y1301912D01*
Y1320956D01*
X4168088Y1340000D01*
X4149044Y1359044D01*
Y1378088D01*
X4168088Y1340000D02*
X4206175D01*
X3384781Y1282869D02*
Y1397132D01*
X3441912D01*
X3460956Y1378088D01*
Y1340001D01*
X3441912Y1320957D01*
X3384781D01*
X3422868D02*
X3460956Y1282869D01*
X3499044Y1378088D02*
X3518088Y1397132D01*
X3556175D01*
X3575219Y1378088D01*
Y1359045D01*
X3556175Y1340001D01*
X3537132D01*
X3556175D01*
X3575219Y1320957D01*
Y1301913D01*
X3556175Y1282869D01*
X3518088D01*
X3499044Y1301913D01*
X2412868Y1466175D02*
X2527132D01*
Y1409044D01*
X2508088Y1390000D01*
X2470000D01*
X2450956Y1409044D01*
Y1466175D01*
Y1428088D02*
X2412868Y1390000D01*
Y1351912D02*
Y1313824D01*
Y1332868D01*
X2527132D01*
X2508088Y1351912D01*
X6723825Y1177132D02*
Y1062869D01*
Y1100956D01*
X6800000Y1177132D01*
X6742869Y1120000D01*
X6800000Y1062869D01*
X6838088D02*
X6876176D01*
X6857132D01*
Y1177132D01*
X6838088Y1158088D01*
X8522956Y3107132D02*
X8484868D01*
X8503912D01*
Y3011912D01*
X8484868Y2992869D01*
X8465825D01*
X8446781Y3011912D01*
X8637219Y3107132D02*
X8561044D01*
Y3050000D01*
X8599132Y3069044D01*
X8618175D01*
X8637219Y3050000D01*
Y3011912D01*
X8618175Y2992869D01*
X8580088D01*
X8561044Y3011912D01*
X820956Y3157132D02*
X782868D01*
X801912D01*
Y3061912D01*
X782868Y3042868D01*
X763824D01*
X744780Y3061912D01*
X916175Y3042868D02*
Y3157132D01*
X859043Y3100000D01*
X935219D01*
X840956Y4187131D02*
X802868D01*
X821912D01*
Y4091912D01*
X802868Y4072868D01*
X783824D01*
X764780Y4091912D01*
X879043Y4168087D02*
X898087Y4187131D01*
X936175D01*
X955219Y4168087D01*
Y4149044D01*
X936175Y4130000D01*
X917131D01*
X936175D01*
X955219Y4110956D01*
Y4091912D01*
X936175Y4072868D01*
X898087D01*
X879043Y4091912D01*
X8540956Y4137148D02*
X8502868D01*
X8521912D01*
Y4041928D01*
X8502868Y4022885D01*
X8483825D01*
X8464781Y4041928D01*
X8655219Y4022885D02*
X8579044D01*
X8655219Y4099060D01*
Y4118104D01*
X8636175Y4137148D01*
X8598088D01*
X8579044Y4118104D01*
X2700000Y417132D02*
X2661912D01*
X2680956D01*
Y321912D01*
X2661912Y302869D01*
X2642868D01*
X2623825Y321912D01*
X2738088Y302869D02*
X2776176D01*
X2757132D01*
Y417132D01*
X2738088Y398088D01*
X8784781Y1197132D02*
Y1082869D01*
Y1140000D01*
X8860956D01*
Y1197132D01*
Y1082869D01*
X8956175D02*
Y1197132D01*
X8899044Y1140000D01*
X8975219D01*
X874781Y1217131D02*
Y1102868D01*
Y1160000D01*
X950956D01*
Y1217131D01*
Y1102868D01*
X989044Y1198088D02*
X1008088Y1217131D01*
X1046175D01*
X1065219Y1198088D01*
Y1179044D01*
X1046175Y1160000D01*
X1027132D01*
X1046175D01*
X1065219Y1140956D01*
Y1121912D01*
X1046175Y1102868D01*
X1008088D01*
X989044Y1121912D01*
X7824781Y5537132D02*
Y5422869D01*
Y5480000D01*
X7900956D01*
Y5537132D01*
Y5422869D01*
X8015219D02*
X7939044D01*
X8015219Y5499044D01*
Y5518088D01*
X7996175Y5537132D01*
X7958088D01*
X7939044Y5518088D01*
X1053825Y5557132D02*
Y5442868D01*
Y5500000D01*
X1130000D01*
Y5557132D01*
Y5442868D01*
X1168088D02*
X1206176D01*
X1187132D01*
Y5557132D01*
X1168088Y5538088D01*
X7525219Y422868D02*
Y537132D01*
X7468088D01*
X7449044Y518088D01*
Y441912D01*
X7468088Y422868D01*
X7525219D01*
X7410956Y441912D02*
X7391912Y422868D01*
X7353825D01*
X7334781Y441912D01*
Y460956D01*
X7353825Y480000D01*
X7372868D01*
X7353825D01*
X7334781Y499044D01*
Y518088D01*
X7353825Y537132D01*
X7391912D01*
X7410956Y518088D01*
X7362868Y4654781D02*
X7477132D01*
Y4711912D01*
X7458088Y4730956D01*
X7381912D01*
X7362868Y4711912D01*
Y4654781D01*
X7477132Y4845219D02*
Y4769044D01*
X7400956Y4845219D01*
X7381912D01*
X7362868Y4826175D01*
Y4788088D01*
X7381912Y4769044D01*
X1717040Y4409403D02*
Y4295140D01*
X1774171D01*
X1793215Y4314184D01*
Y4390359D01*
X1774171Y4409403D01*
X1717040D01*
X1831303Y4295140D02*
X1869391D01*
X1850347D01*
Y4409403D01*
X1831303Y4390359D01*
X3890957Y3618088D02*
X3871913Y3637132D01*
X3833825D01*
X3814781Y3618088D01*
Y3541912D01*
X3833825Y3522868D01*
X3871913D01*
X3890957Y3541912D01*
X3929044Y3618088D02*
X3948088Y3637132D01*
X3986176D01*
X4005220Y3618088D01*
Y3599044D01*
X3986176Y3580000D01*
X3967132D01*
X3986176D01*
X4005220Y3560956D01*
Y3541912D01*
X3986176Y3522868D01*
X3948088D01*
X3929044Y3541912D01*
X6510956Y4948088D02*
X6491912Y4967132D01*
X6453825D01*
X6434781Y4948088D01*
Y4871912D01*
X6453825Y4852868D01*
X6491912D01*
X6510956Y4871912D01*
X6625219Y4852868D02*
X6549044D01*
X6625219Y4929044D01*
Y4948088D01*
X6606176Y4967132D01*
X6568088D01*
X6549044Y4948088D01*
X5430000Y3463088D02*
X5410956Y3482131D01*
X5372868D01*
X5353824Y3463088D01*
Y3386912D01*
X5372868Y3367868D01*
X5410956D01*
X5430000Y3386912D01*
X5468088Y3367868D02*
X5506175D01*
X5487132D01*
Y3482131D01*
X5468088Y3463088D01*
X6147171Y1037132D02*
Y941913D01*
X6166215Y922869D01*
X6204303D01*
X6223347Y941913D01*
Y1037132D01*
X6261435Y922869D02*
X6299522D01*
X6280478D01*
Y1037132D01*
X6261435Y1018088D01*
X6413785Y922869D02*
Y1037132D01*
X6356654Y980000D01*
X6432829D01*
X5627649Y342869D02*
Y457132D01*
X5684781D01*
X5703825Y438088D01*
Y400000D01*
X5684781Y380956D01*
X5627649D01*
X5665737D02*
X5703825Y342869D01*
X5741913Y438088D02*
X5760956Y457132D01*
X5799044D01*
X5818088Y438088D01*
Y419044D01*
X5799044Y400000D01*
X5780000D01*
X5799044D01*
X5818088Y380956D01*
Y361912D01*
X5799044Y342869D01*
X5760956D01*
X5741913Y361912D01*
X5932351Y342869D02*
X5856176D01*
X5932351Y419044D01*
Y438088D01*
X5913307Y457132D01*
X5875220D01*
X5856176Y438088D01*
D49*
X5135000Y245000D02*
Y370000D01*
X5010000Y245000D02*
X5135000D01*
X2920000Y795000D02*
X3975000D01*
X2920000Y500000D02*
Y795000D01*
X2845000Y500000D02*
X2920000D01*
X3975000Y795000D02*
X5030000D01*
Y500000D02*
Y795000D01*
Y500000D02*
X5105000D01*
X2845000Y275000D02*
X3025000D01*
X2845000D02*
Y350000D01*
X3025000D01*
Y275000D02*
Y350000D01*
X4925000Y275000D02*
X5105000D01*
X4925000D02*
Y350000D01*
X5105000D01*
Y275000D02*
Y350000D01*
X3175000Y275000D02*
X4775000D01*
X3175000D02*
Y350000D01*
X4775000D01*
Y275000D02*
Y350000D01*
X2844000Y274000D02*
X5106000D01*
X2844000D02*
Y871000D01*
X5106000D01*
Y274000D02*
Y871000D01*
%TF.MD5,b205cdb3566d6218f1f74106a52b942c*%
M02*
