%TF.GenerationSoftware,Altium Limited,Altium Designer,21.3.2 (30)*%
G04 Layer_Color=128*
%FSLAX45Y45*%
%MOMM*%
%TF.SameCoordinates,D9DFDB92-F573-4E1A-9105-0BCF1000EC4C*%
%TF.FilePolarity,Positive*%
%TF.FileFunction,Drillmap*%
%TF.Part,Single*%
G01*
G75*
%TA.AperFunction,NonConductor*%
%ADD72C,0.12700*%
D72*
X8219500Y3300000D02*
X8364500D01*
X8292000Y3227500D02*
Y3372500D01*
X8727500Y3300000D02*
X8872500D01*
X8800000Y3227500D02*
Y3372500D01*
X8219500Y3800000D02*
X8364500D01*
X8292000Y3727500D02*
Y3872500D01*
X8727500Y3800000D02*
X8872500D01*
X8800000Y3727500D02*
Y3872500D01*
X7020000Y1320000D02*
X7080000D01*
X7050000Y1290000D02*
Y1350000D01*
X7020000Y3709999D02*
X7080000D01*
X7050000Y3679999D02*
Y3739999D01*
X7782000Y3210000D02*
X7842000D01*
X7812000Y3180000D02*
Y3240000D01*
X7782000Y1320000D02*
X7842000D01*
X7812000Y1290000D02*
Y1350000D01*
X3052500Y520000D02*
X3147500D01*
X3100000Y472500D02*
Y567500D01*
X3302500Y520000D02*
X3397500D01*
X3350000Y472500D02*
Y567500D01*
X3552500Y520000D02*
X3647500D01*
X3600000Y472500D02*
Y567500D01*
X3802500Y520000D02*
X3897500D01*
X3850000Y472500D02*
Y567500D01*
X4052500Y520000D02*
X4147500D01*
X4100000Y472500D02*
Y567500D01*
X4302500Y520000D02*
X4397500D01*
X4350000Y472500D02*
Y567500D01*
X4552500Y520000D02*
X4647500D01*
X4600000Y472500D02*
Y567500D01*
X4802500Y520000D02*
X4897500D01*
X4850000Y472500D02*
Y567500D01*
X527500Y3400000D02*
X672500D01*
X600000Y3327500D02*
Y3472500D01*
X1035500Y3400000D02*
X1180500D01*
X1108000Y3327500D02*
Y3472500D01*
X527500Y3900000D02*
X672500D01*
X600000Y3827500D02*
Y3972500D01*
X1035500Y3900000D02*
X1180500D01*
X1108000Y3827500D02*
Y3972500D01*
X8300000Y600000D02*
X8700000D01*
X8500000Y400000D02*
Y800000D01*
X400000Y600000D02*
X800000D01*
X600000Y400000D02*
Y799999D01*
X8300000Y5100000D02*
X8700000D01*
X8500000Y4900000D02*
Y5300000D01*
X400000Y5100000D02*
X800000D01*
X600000Y4900000D02*
Y5300000D01*
X4505000Y3620000D02*
X4535000D01*
X4520000Y3605000D02*
Y3635000D01*
X2825000Y2970000D02*
X2855000D01*
X2840000Y2955000D02*
Y2985000D01*
X1925000Y3300000D02*
X1955000D01*
X1940000Y3285000D02*
Y3315000D01*
X1925000Y3120000D02*
X1955000D01*
X1940000Y3105000D02*
Y3135000D01*
X2125000Y3120000D02*
X2155000D01*
X2140000Y3105000D02*
Y3135000D01*
X2125000Y3300000D02*
X2155000D01*
X2140000Y3285000D02*
Y3315000D01*
X2455000Y1530000D02*
X2485000D01*
X2470000Y1515000D02*
Y1545000D01*
X4177812Y3813613D02*
X4207812D01*
X4192812Y3798613D02*
Y3828613D01*
X2535000Y2970000D02*
X2565000D01*
X2550000Y2955000D02*
Y2985000D01*
X3455000Y2510000D02*
X3485000D01*
X3470000Y2495000D02*
Y2525000D01*
X3465000Y1460000D02*
X3495000D01*
X3480000Y1445000D02*
Y1475000D01*
X2865000Y1410000D02*
X2895000D01*
X2880000Y1395000D02*
Y1425000D01*
X6515000Y900000D02*
X6545000D01*
X6530000Y885000D02*
Y915000D01*
X5515000Y1500000D02*
X5545000D01*
X5530000Y1485000D02*
Y1515000D01*
X4815000Y1460000D02*
X4845000D01*
X4830000Y1445000D02*
Y1475000D01*
X4125000Y1400000D02*
X4155000D01*
X4140000Y1385000D02*
Y1415000D01*
X6715000Y5200000D02*
X6765000D01*
X6740000Y5175000D02*
Y5225000D01*
X4425000Y4190000D02*
X4455000D01*
X4440000Y4175000D02*
Y4205000D01*
X4175000Y3660000D02*
X4205000D01*
X4190000Y3645000D02*
Y3675000D01*
X4395000Y3880000D02*
X4425000D01*
X4410000Y3865000D02*
Y3895000D01*
X4345000Y4890000D02*
X4375000D01*
X4360000Y4875000D02*
Y4905000D01*
X4555000Y4300000D02*
X4585000D01*
X4570000Y4285000D02*
Y4315000D01*
X3050710Y3490620D02*
X3080710D01*
X3065710Y3475620D02*
Y3505620D01*
X4105001Y4232500D02*
X4135001D01*
X4120001Y4217500D02*
Y4247500D01*
X4105001Y4492500D02*
X4135001D01*
X4120001Y4477500D02*
Y4507500D01*
X4105001Y4362500D02*
X4135001D01*
X4120001Y4347500D02*
Y4377500D01*
X3975001Y4492500D02*
X4005001D01*
X3990001Y4477500D02*
Y4507500D01*
X3975001Y4362500D02*
X4005001D01*
X3990001Y4347500D02*
Y4377500D01*
X3975001Y4232500D02*
X4005001D01*
X3990001Y4217500D02*
Y4247500D01*
X4105001Y3972500D02*
X4135001D01*
X4120001Y3957500D02*
Y3987500D01*
X3845001Y4102500D02*
X3875001D01*
X3860001Y4087500D02*
Y4117500D01*
X4105001Y4102500D02*
X4135001D01*
X4120001Y4087500D02*
Y4117500D01*
X3975001Y3972500D02*
X4005001D01*
X3990001Y3957500D02*
Y3987500D01*
X3975001Y4102500D02*
X4005001D01*
X3990001Y4087500D02*
Y4117500D01*
X3845001Y4362500D02*
X3875001D01*
X3860001Y4347500D02*
Y4377500D01*
X3845001Y4232500D02*
X3875001D01*
X3860001Y4217500D02*
Y4247500D01*
X3845001Y4492500D02*
X3875001D01*
X3860001Y4477500D02*
Y4507500D01*
X3845001Y3972500D02*
X3875001D01*
X3860001Y3957500D02*
Y3987500D01*
X4565000Y3050000D02*
X4595000D01*
X4580000Y3035000D02*
Y3065000D01*
X4845000Y3050000D02*
X4875000D01*
X4860000Y3035000D02*
Y3065000D01*
X4845000Y3260000D02*
X4875000D01*
X4860000Y3245000D02*
Y3275000D01*
X5145000Y3050000D02*
X5175000D01*
X5160000Y3035000D02*
Y3065000D01*
X5185000Y2890000D02*
X5215000D01*
X5200000Y2875000D02*
Y2905000D01*
X4565000Y2890000D02*
X4595000D01*
X4580000Y2875000D02*
Y2905000D01*
X5262402Y2348270D02*
X5292402D01*
X5277402Y2333270D02*
Y2363270D01*
X3863000Y2345000D02*
X3893000D01*
X3878000Y2330000D02*
Y2360000D01*
X4562000Y2345000D02*
X4591999D01*
X4576999Y2330000D02*
Y2360000D01*
X3543902Y3587500D02*
X3573902D01*
X3558902Y3572500D02*
Y3602500D01*
X6505000Y2890000D02*
X6535000D01*
X6520000Y2875000D02*
Y2905000D01*
X6195000Y2900000D02*
X6225000D01*
X6210000Y2885000D02*
Y2915000D01*
X6505000Y3270000D02*
X6535000D01*
X6520000Y3255000D02*
Y3285000D01*
X6295000Y3070000D02*
X6325000D01*
X6310000Y3055000D02*
Y3085000D01*
X6515000Y3070000D02*
X6545000D01*
X6530000Y3055000D02*
Y3085000D01*
X6295000Y3270000D02*
X6325000D01*
X6310000Y3255000D02*
Y3285000D01*
X4675000Y3600000D02*
X4705000D01*
X4690000Y3585000D02*
Y3615000D01*
X5395000Y3050000D02*
X5425000D01*
X5410000Y3035000D02*
Y3065000D01*
X5145000Y3260000D02*
X5175000D01*
X5160000Y3245000D02*
Y3275000D01*
X6055000Y3270000D02*
X6085000D01*
X6070000Y3255000D02*
Y3285000D01*
X6055000Y3070000D02*
X6085000D01*
X6070000Y3055000D02*
Y3085000D01*
X5395000Y3260000D02*
X5425000D01*
X5410000Y3245000D02*
Y3275000D01*
%TF.MD5,46cae76834e1ccb1dd976c2dd72cd998*%
M02*
