%TF.GenerationSoftware,Altium Limited,Altium Designer,21.3.2 (30)*%
G04 Layer_Color=8421504*
%FSLAX45Y45*%
%MOMM*%
%TF.SameCoordinates,D9DFDB92-F573-4E1A-9105-0BCF1000EC4C*%
%TF.FilePolarity,Positive*%
%TF.FileFunction,Paste,Top*%
%TF.Part,Single*%
G01*
G75*
%TA.AperFunction,SMDPad,CuDef*%
%ADD10R,0.95000X1.40000*%
%ADD11R,4.30000X4.10000*%
%ADD12R,0.90000X1.40000*%
%ADD13R,1.40000X0.95000*%
%ADD14R,1.40000X1.00000*%
%ADD15O,1.40000X0.45000*%
%ADD20R,2.60000X1.60000*%
%ADD21R,1.60000X2.60000*%
%ADD22R,2.50000X6.50000*%
%TA.AperFunction,NonConductor*%
%ADD50R,2.96000X2.96000*%
%ADD51R,0.45000X0.34000*%
%ADD52R,1.44500X1.02000*%
D10*
X4297500Y5070000D02*
D03*
X4482500D02*
D03*
X3187500Y4920000D02*
D03*
X3372500D02*
D03*
X2902500Y3550000D02*
D03*
X2717501D02*
D03*
X3402500Y3860000D02*
D03*
X3217501D02*
D03*
X2902500Y3970000D02*
D03*
X2717501D02*
D03*
X5862500Y590000D02*
D03*
X5677500D02*
D03*
D11*
X2030000Y3215000D02*
D03*
Y4005000D02*
D03*
D12*
X2723000Y1695000D02*
D03*
X2469000D02*
D03*
Y2325000D02*
D03*
X2723000D02*
D03*
X3220000Y2325000D02*
D03*
X3474000D02*
D03*
Y1695000D02*
D03*
X3220000D02*
D03*
X3878000Y2345000D02*
D03*
X4132000D02*
D03*
Y1715000D02*
D03*
X3878000D02*
D03*
X4576999Y2345000D02*
D03*
X4830999D02*
D03*
Y1715000D02*
D03*
X4576999D02*
D03*
X5275999Y2345000D02*
D03*
X5529999D02*
D03*
Y1715000D02*
D03*
X5275999D02*
D03*
D13*
X4310000Y3087500D02*
D03*
Y3272500D02*
D03*
X4520000Y3500000D02*
D03*
Y3315000D02*
D03*
X4710000Y3737500D02*
D03*
Y3922500D02*
D03*
X5630000Y2647500D02*
D03*
Y2832500D02*
D03*
X4930001Y2647500D02*
D03*
Y2832500D02*
D03*
X4230000Y2647500D02*
D03*
Y2832500D02*
D03*
X4710000Y4187500D02*
D03*
Y4372500D02*
D03*
X2470000Y2597500D02*
D03*
Y2782500D02*
D03*
X2410001Y4147500D02*
D03*
Y4332500D02*
D03*
X5280000Y1257500D02*
D03*
Y1442500D02*
D03*
X4580000Y1247500D02*
D03*
Y1432500D02*
D03*
X3880000Y1247500D02*
D03*
Y1432500D02*
D03*
X3230000Y1247500D02*
D03*
Y1432500D02*
D03*
X2720000D02*
D03*
Y1247500D02*
D03*
X3690000Y3772500D02*
D03*
Y3587500D02*
D03*
X6740000Y4832500D02*
D03*
Y4647500D02*
D03*
D14*
X2770001Y4495000D02*
D03*
Y4305000D02*
D03*
X2990001Y4400000D02*
D03*
X6390000Y595000D02*
D03*
Y785000D02*
D03*
X6170000Y690000D02*
D03*
D15*
X3695001Y4525000D02*
D03*
Y4460000D02*
D03*
Y4395000D02*
D03*
Y4330000D02*
D03*
Y4265000D02*
D03*
Y4200000D02*
D03*
Y4135000D02*
D03*
Y4070000D02*
D03*
Y4005000D02*
D03*
Y3940000D02*
D03*
X4285001D02*
D03*
Y4005000D02*
D03*
Y4070000D02*
D03*
Y4135000D02*
D03*
Y4200000D02*
D03*
Y4265000D02*
D03*
Y4330000D02*
D03*
Y4395000D02*
D03*
Y4460000D02*
D03*
Y4525000D02*
D03*
D20*
X7227500Y740000D02*
D03*
X7632500D02*
D03*
D21*
X7170000Y4527500D02*
D03*
Y4932500D02*
D03*
D22*
X5770000Y4590000D02*
D03*
Y3340000D02*
D03*
D50*
X3990001Y4232500D02*
D03*
D51*
X3489101Y4637574D02*
D03*
X3489100Y4572572D02*
D03*
X3489101Y4507578D02*
D03*
X3489101Y4442574D02*
D03*
X3202100Y4441677D02*
D03*
Y4506974D02*
D03*
Y4572277D02*
D03*
X3202101Y4637575D02*
D03*
D52*
X3371850Y4603574D02*
D03*
X3371849Y4476574D02*
D03*
%TF.MD5,ed6c5cba6ee417fb82c1df3e145bc308*%
M02*
