%TF.GenerationSoftware,Altium Limited,Altium Designer,21.3.2 (30)*%
G04 Layer_Color=65535*
%FSLAX45Y45*%
%MOMM*%
%TF.SameCoordinates,699C74A5-B4CE-432A-A201-728FBB0A9CBA*%
%TF.FilePolarity,Positive*%
%TF.FileFunction,Legend,Top*%
%TF.Part,Single*%
G01*
G75*
%TA.AperFunction,NonConductor*%
%ADD23C,0.12000*%
%ADD24C,0.25400*%
D23*
X10345000Y885000D02*
X10470000D01*
X10345000D02*
Y1010000D01*
X10895000Y2045000D02*
Y3100000D01*
X10600000D02*
X10895000D01*
X10600000D02*
Y3175000D01*
X10895000Y990000D02*
Y2045000D01*
X10600000Y990000D02*
X10895000D01*
X10600000Y915000D02*
Y990000D01*
X10375000Y2995000D02*
Y3175000D01*
X10450000D01*
Y2995000D02*
Y3175000D01*
X10375000Y2995000D02*
X10450000D01*
X10375000Y915000D02*
Y1095000D01*
X10450000D01*
Y915000D02*
Y1095000D01*
X10375000Y915000D02*
X10450000D01*
X10375000Y1245000D02*
Y2845000D01*
X10450000D01*
Y1245000D02*
Y2845000D01*
X10375000Y1245000D02*
X10450000D01*
X10374000Y914000D02*
Y3176000D01*
X10971000D01*
Y914000D02*
Y3176000D01*
X10374000Y914000D02*
X10971000D01*
X7213300Y3021300D02*
X7338300D01*
Y2896300D02*
Y3021300D01*
X6788300Y806300D02*
Y1861300D01*
Y806300D02*
X7083300D01*
Y731300D02*
Y806300D01*
X6788300Y1861300D02*
Y2916300D01*
X7083300D01*
Y2991300D01*
X7308300Y731300D02*
Y911300D01*
X7233300Y731300D02*
X7308300D01*
X7233300D02*
Y911300D01*
X7308300D01*
Y2811300D02*
Y2991300D01*
X7233300Y2811300D02*
X7308300D01*
X7233300D02*
Y2991300D01*
X7308300D01*
Y1061300D02*
Y2661300D01*
X7233300Y1061300D02*
X7308300D01*
X7233300D02*
Y2661300D01*
X7308300D01*
X7309300Y730300D02*
Y2992300D01*
X6712300Y730300D02*
X7309300D01*
X6712300D02*
Y2992300D01*
X7309300D01*
X8191200Y4066700D02*
X8316200D01*
Y3941700D02*
Y4066700D01*
X7766200Y1851700D02*
Y2906700D01*
Y1851700D02*
X8061200D01*
Y1776700D02*
Y1851700D01*
X7766200Y2906700D02*
Y3961699D01*
X8061200D01*
Y4036700D01*
X8286200Y1776700D02*
Y1956700D01*
X8211200Y1776700D02*
X8286200D01*
X8211200D02*
Y1956700D01*
X8286200D01*
Y3856700D02*
Y4036700D01*
X8211200Y3856700D02*
X8286200D01*
X8211200D02*
Y4036700D01*
X8286200D01*
Y2106700D02*
Y3706699D01*
X8211200Y2106700D02*
X8286200D01*
X8211200D02*
Y3706699D01*
X8286200D01*
X8287200Y1775700D02*
Y4037700D01*
X7690200Y1775700D02*
X8287200D01*
X7690200D02*
Y4037700D01*
X8287200D01*
X6526000Y4084000D02*
Y4681000D01*
X2264000D02*
X6526000D01*
X2264000Y4084000D02*
Y4681000D01*
Y4084000D02*
X6526000D01*
X6195000Y4085000D02*
Y4160000D01*
X2595000D02*
X6195000D01*
X2595000Y4085000D02*
Y4160000D01*
Y4085000D02*
X6195000D01*
X6525000D02*
Y4160000D01*
X6345001D02*
X6525000D01*
X6345001Y4085000D02*
Y4160000D01*
Y4085000D02*
X6525000D01*
X2445000D02*
Y4160000D01*
X2265000D02*
X2445000D01*
X2265000Y4085000D02*
Y4160000D01*
Y4085000D02*
X2445000D01*
X6450000Y4310000D02*
X6525000D01*
X6450000D02*
Y4605000D01*
X4395000D02*
X6450000D01*
X2265000Y4310000D02*
X2340000D01*
Y4605000D01*
X4395000D01*
X6430000Y4055000D02*
X6555000D01*
Y4180000D01*
X9140000Y5005000D02*
X9265000D01*
Y4880000D02*
Y5005000D01*
X8715000Y2790000D02*
Y3845000D01*
Y2790000D02*
X9010000D01*
Y2715000D02*
Y2790000D01*
X8715000Y3845000D02*
Y4900000D01*
X9010000D01*
Y4975000D01*
X9235000Y2715000D02*
Y2895000D01*
X9160000Y2715000D02*
X9235000D01*
X9160000D02*
Y2895000D01*
X9235000D01*
Y4795000D02*
Y4975000D01*
X9160000Y4795000D02*
X9235000D01*
X9160000D02*
Y4975000D01*
X9235000D01*
Y3045000D02*
Y4645000D01*
X9160000Y3045000D02*
X9235000D01*
X9160000D02*
Y4645000D01*
X9235000D01*
X9236000Y2714000D02*
Y4976000D01*
X8639000Y2714000D02*
X9236000D01*
X8639000D02*
Y4976000D01*
X9236000D01*
D24*
X2723825Y457132D02*
Y361912D01*
X2742869Y342869D01*
X2780956D01*
X2800000Y361912D01*
Y457132D01*
X2838088Y342869D02*
X2876176D01*
X2857132D01*
Y457132D01*
X2838088Y438088D01*
X10434295Y3408643D02*
X10396208D01*
X10415251D01*
Y3313424D01*
X10396208Y3294380D01*
X10377164D01*
X10358120Y3313424D01*
X10548559Y3408643D02*
X10472383D01*
Y3351511D01*
X10510471Y3370555D01*
X10529515D01*
X10548559Y3351511D01*
Y3313424D01*
X10529515Y3294380D01*
X10491427D01*
X10472383Y3313424D01*
X6505956Y2982132D02*
X6467868D01*
X6486912D01*
Y2886912D01*
X6467868Y2867869D01*
X6448825D01*
X6429781Y2886912D01*
X6601175Y2867869D02*
Y2982132D01*
X6544044Y2925000D01*
X6620219D01*
X7480956Y4032132D02*
X7442869D01*
X7461912D01*
Y3936912D01*
X7442869Y3917868D01*
X7423825D01*
X7404781Y3936912D01*
X7519044Y4013088D02*
X7538088Y4032132D01*
X7576175D01*
X7595219Y4013088D01*
Y3994044D01*
X7576175Y3975000D01*
X7557132D01*
X7576175D01*
X7595219Y3955956D01*
Y3936912D01*
X7576175Y3917868D01*
X7538088D01*
X7519044Y3936912D01*
X2055956Y4657132D02*
X2017868D01*
X2036912D01*
Y4561912D01*
X2017868Y4542868D01*
X1998825D01*
X1979781Y4561912D01*
X2170219Y4542868D02*
X2094044D01*
X2170219Y4619044D01*
Y4638088D01*
X2151175Y4657132D01*
X2113088D01*
X2094044Y4638088D01*
X8500000Y4957132D02*
X8461912D01*
X8480956D01*
Y4861913D01*
X8461912Y4842869D01*
X8442869D01*
X8423825Y4861913D01*
X8538088Y4842869D02*
X8576176D01*
X8557132D01*
Y4957132D01*
X8538088Y4938088D01*
%TF.MD5,a6b41c0c0793f81dfd16e8fbf560c414*%
M02*
