%TF.GenerationSoftware,Altium Limited,Altium Designer,21.3.2 (30)*%
G04 Layer_Physical_Order=1*
G04 Layer_Color=255*
%FSLAX45Y45*%
%MOMM*%
%TF.SameCoordinates,699C74A5-B4CE-432A-A201-728FBB0A9CBA*%
%TF.FilePolarity,Positive*%
%TF.FileFunction,Copper,L1,Top,Signal*%
%TF.Part,Single*%
G01*
G75*
%TA.AperFunction,Conductor*%
%ADD10C,0.80000*%
%TA.AperFunction,ComponentPad*%
%ADD11C,1.70000*%
%ADD12C,4.00000*%
G04:AMPARAMS|DCode=13|XSize=1.7mm|YSize=1.95mm|CornerRadius=0.85mm|HoleSize=0mm|Usage=FLASHONLY|Rotation=90.000|XOffset=0mm|YOffset=0mm|HoleType=Round|Shape=RoundedRectangle|*
%AMROUNDEDRECTD13*
21,1,1.70000,0.25000,0,0,90.0*
21,1,0.00000,1.95000,0,0,90.0*
1,1,1.70000,0.12500,0.00000*
1,1,1.70000,0.12500,0.00000*
1,1,1.70000,-0.12500,0.00000*
1,1,1.70000,-0.12500,0.00000*
%
%ADD13ROUNDEDRECTD13*%
G04:AMPARAMS|DCode=14|XSize=1.7mm|YSize=1.95mm|CornerRadius=0.1275mm|HoleSize=0mm|Usage=FLASHONLY|Rotation=90.000|XOffset=0mm|YOffset=0mm|HoleType=Round|Shape=RoundedRectangle|*
%AMROUNDEDRECTD14*
21,1,1.70000,1.69500,0,0,90.0*
21,1,1.44500,1.95000,0,0,90.0*
1,1,0.25500,0.84750,0.72250*
1,1,0.25500,0.84750,-0.72250*
1,1,0.25500,-0.84750,-0.72250*
1,1,0.25500,-0.84750,0.72250*
%
%ADD14ROUNDEDRECTD14*%
G04:AMPARAMS|DCode=15|XSize=1.7mm|YSize=1.95mm|CornerRadius=0.1275mm|HoleSize=0mm|Usage=FLASHONLY|Rotation=180.000|XOffset=0mm|YOffset=0mm|HoleType=Round|Shape=RoundedRectangle|*
%AMROUNDEDRECTD15*
21,1,1.70000,1.69500,0,0,180.0*
21,1,1.44500,1.95000,0,0,180.0*
1,1,0.25500,-0.72250,0.84750*
1,1,0.25500,0.72250,0.84750*
1,1,0.25500,0.72250,-0.84750*
1,1,0.25500,-0.72250,-0.84750*
%
%ADD15ROUNDEDRECTD15*%
G04:AMPARAMS|DCode=16|XSize=1.7mm|YSize=1.95mm|CornerRadius=0.85mm|HoleSize=0mm|Usage=FLASHONLY|Rotation=180.000|XOffset=0mm|YOffset=0mm|HoleType=Round|Shape=RoundedRectangle|*
%AMROUNDEDRECTD16*
21,1,1.70000,0.25000,0,0,180.0*
21,1,0.00000,1.95000,0,0,180.0*
1,1,1.70000,0.00000,0.12500*
1,1,1.70000,0.00000,0.12500*
1,1,1.70000,0.00000,-0.12500*
1,1,1.70000,0.00000,-0.12500*
%
%ADD16ROUNDEDRECTD16*%
G36*
X10684340Y5668575D02*
X10739663Y5657570D01*
X10793643Y5641196D01*
X10845757Y5619610D01*
X10895504Y5593019D01*
X10942406Y5561680D01*
X10986008Y5525897D01*
X11025897Y5486008D01*
X11061681Y5442404D01*
X11093019Y5395505D01*
X11119609Y5345757D01*
X11141196Y5293643D01*
X11157570Y5239663D01*
X11168575Y5184340D01*
X11174104Y5128204D01*
Y5100000D01*
Y600000D01*
Y571796D01*
X11168575Y515660D01*
X11157570Y460337D01*
X11141196Y406357D01*
X11119609Y354243D01*
X11093019Y304495D01*
X11061680Y257594D01*
X11025897Y213991D01*
X10986008Y174103D01*
X10942404Y138318D01*
X10895504Y106981D01*
X10845757Y80390D01*
X10793643Y58804D01*
X10739663Y42429D01*
X10684340Y31425D01*
X10628204Y25896D01*
X571796D01*
X515660Y31425D01*
X460337Y42429D01*
X406357Y58804D01*
X354243Y80390D01*
X304495Y106981D01*
X257594Y138320D01*
X213991Y174103D01*
X174103Y213991D01*
X138318Y257595D01*
X106981Y304495D01*
X80390Y354243D01*
X58804Y406357D01*
X42429Y460336D01*
X31425Y515660D01*
X25896Y571796D01*
Y600000D01*
Y5100000D01*
Y5128204D01*
X31425Y5184340D01*
X42429Y5239663D01*
X58804Y5293643D01*
X80390Y5345757D01*
X106981Y5395505D01*
X138320Y5442406D01*
X174103Y5486008D01*
X213991Y5525897D01*
X257595Y5561681D01*
X304495Y5593019D01*
X354243Y5619610D01*
X406357Y5641196D01*
X460336Y5657570D01*
X515660Y5668575D01*
X571796Y5674104D01*
X10628204D01*
X10684340Y5668575D01*
D02*
G37*
%LPC*%
G36*
X10022897Y5337740D02*
X9996503D01*
X9971009Y5330908D01*
X9948152Y5317711D01*
X9929488Y5299048D01*
X9916292Y5276191D01*
X9909460Y5250697D01*
Y5224303D01*
X9916292Y5198809D01*
X9929488Y5175951D01*
X9948152Y5157288D01*
X9971009Y5144091D01*
X9996503Y5137260D01*
X10022897D01*
X10048391Y5144091D01*
X10071249Y5157288D01*
X10089912Y5175951D01*
X10103109Y5198809D01*
X10109940Y5224303D01*
Y5250697D01*
X10103109Y5276191D01*
X10089912Y5299048D01*
X10071249Y5317711D01*
X10048391Y5330908D01*
X10022897Y5337740D01*
D02*
G37*
G36*
X9768897D02*
X9742503D01*
X9717009Y5330908D01*
X9694152Y5317711D01*
X9675488Y5299048D01*
X9662292Y5276191D01*
X9655460Y5250697D01*
Y5224303D01*
X9662292Y5198809D01*
X9675488Y5175951D01*
X9694152Y5157288D01*
X9717009Y5144091D01*
X9742503Y5137260D01*
X9768897D01*
X9794391Y5144091D01*
X9817249Y5157288D01*
X9835912Y5175951D01*
X9849109Y5198809D01*
X9855940Y5224303D01*
Y5250697D01*
X9849109Y5276191D01*
X9835912Y5299048D01*
X9817249Y5317711D01*
X9794391Y5330908D01*
X9768897Y5337740D01*
D02*
G37*
G36*
X9006897D02*
X8980503D01*
X8955009Y5330908D01*
X8932152Y5317711D01*
X8913488Y5299048D01*
X8900292Y5276191D01*
X8893460Y5250697D01*
Y5224303D01*
X8900292Y5198809D01*
X8913488Y5175951D01*
X8932152Y5157288D01*
X8955009Y5144091D01*
X8980503Y5137260D01*
X9006897D01*
X9032391Y5144091D01*
X9055249Y5157288D01*
X9073912Y5175951D01*
X9087109Y5198809D01*
X9093940Y5224303D01*
Y5250697D01*
X9087109Y5276191D01*
X9073912Y5299048D01*
X9055249Y5317711D01*
X9032391Y5330908D01*
X9006897Y5337740D01*
D02*
G37*
G36*
X8752897D02*
X8726503D01*
X8701009Y5330908D01*
X8678152Y5317711D01*
X8659488Y5299048D01*
X8646292Y5276191D01*
X8639460Y5250697D01*
Y5224303D01*
X8646292Y5198809D01*
X8659488Y5175951D01*
X8678152Y5157288D01*
X8701009Y5144091D01*
X8726503Y5137260D01*
X8752897D01*
X8778391Y5144091D01*
X8801249Y5157288D01*
X8819912Y5175951D01*
X8833109Y5198809D01*
X8839940Y5224303D01*
Y5250697D01*
X8833109Y5276191D01*
X8819912Y5299048D01*
X8801249Y5317711D01*
X8778391Y5330908D01*
X8752897Y5337740D01*
D02*
G37*
G36*
X8498897D02*
X8472503D01*
X8447009Y5330908D01*
X8424152Y5317711D01*
X8405488Y5299048D01*
X8392292Y5276191D01*
X8385460Y5250697D01*
Y5224303D01*
X8392292Y5198809D01*
X8405488Y5175951D01*
X8424152Y5157288D01*
X8447009Y5144091D01*
X8472503Y5137260D01*
X8498897D01*
X8524391Y5144091D01*
X8547249Y5157288D01*
X8565912Y5175951D01*
X8579109Y5198809D01*
X8585940Y5224303D01*
Y5250697D01*
X8579109Y5276191D01*
X8565912Y5299048D01*
X8547249Y5317711D01*
X8524391Y5330908D01*
X8498897Y5337740D01*
D02*
G37*
G36*
X8244897D02*
X8218503D01*
X8193009Y5330908D01*
X8170152Y5317711D01*
X8151488Y5299048D01*
X8138292Y5276191D01*
X8131460Y5250697D01*
Y5224303D01*
X8138292Y5198809D01*
X8151488Y5175951D01*
X8170152Y5157288D01*
X8193009Y5144091D01*
X8218503Y5137260D01*
X8244897D01*
X8270391Y5144091D01*
X8293249Y5157288D01*
X8311912Y5175951D01*
X8325109Y5198809D01*
X8331940Y5224303D01*
Y5250697D01*
X8325109Y5276191D01*
X8311912Y5299048D01*
X8293249Y5317711D01*
X8270391Y5330908D01*
X8244897Y5337740D01*
D02*
G37*
G36*
X7990897D02*
X7964503D01*
X7939009Y5330908D01*
X7916152Y5317711D01*
X7897488Y5299048D01*
X7884292Y5276191D01*
X7877460Y5250697D01*
Y5224303D01*
X7884292Y5198809D01*
X7897488Y5175951D01*
X7916152Y5157288D01*
X7939009Y5144091D01*
X7964503Y5137260D01*
X7990897D01*
X8016391Y5144091D01*
X8039249Y5157288D01*
X8057912Y5175951D01*
X8071109Y5198809D01*
X8077940Y5224303D01*
Y5250697D01*
X8071109Y5276191D01*
X8057912Y5299048D01*
X8039249Y5317711D01*
X8016391Y5330908D01*
X7990897Y5337740D01*
D02*
G37*
G36*
X7736897D02*
X7710503D01*
X7685009Y5330908D01*
X7662152Y5317711D01*
X7643488Y5299048D01*
X7630292Y5276191D01*
X7623460Y5250697D01*
Y5224303D01*
X7630292Y5198809D01*
X7643488Y5175951D01*
X7662152Y5157288D01*
X7685009Y5144091D01*
X7710503Y5137260D01*
X7736897D01*
X7762391Y5144091D01*
X7785249Y5157288D01*
X7803912Y5175951D01*
X7817109Y5198809D01*
X7823940Y5224303D01*
Y5250697D01*
X7817109Y5276191D01*
X7803912Y5299048D01*
X7785249Y5317711D01*
X7762391Y5330908D01*
X7736897Y5337740D01*
D02*
G37*
G36*
X7482897D02*
X7456503D01*
X7431009Y5330908D01*
X7408152Y5317711D01*
X7389488Y5299048D01*
X7376292Y5276191D01*
X7369460Y5250697D01*
Y5224303D01*
X7376292Y5198809D01*
X7389488Y5175951D01*
X7408152Y5157288D01*
X7431009Y5144091D01*
X7456503Y5137260D01*
X7482897D01*
X7508391Y5144091D01*
X7531249Y5157288D01*
X7549912Y5175951D01*
X7563109Y5198809D01*
X7569940Y5224303D01*
Y5250697D01*
X7563109Y5276191D01*
X7549912Y5299048D01*
X7531249Y5317711D01*
X7508391Y5330908D01*
X7482897Y5337740D01*
D02*
G37*
G36*
X7228897D02*
X7202503D01*
X7177009Y5330908D01*
X7154152Y5317711D01*
X7135488Y5299048D01*
X7122292Y5276191D01*
X7115460Y5250697D01*
Y5224303D01*
X7122292Y5198809D01*
X7135488Y5175951D01*
X7154152Y5157288D01*
X7177009Y5144091D01*
X7202503Y5137260D01*
X7228897D01*
X7254391Y5144091D01*
X7277249Y5157288D01*
X7295912Y5175951D01*
X7309109Y5198809D01*
X7315940Y5224303D01*
Y5250697D01*
X7309109Y5276191D01*
X7295912Y5299048D01*
X7277249Y5317711D01*
X7254391Y5330908D01*
X7228897Y5337740D01*
D02*
G37*
G36*
X6720897D02*
X6694503D01*
X6669009Y5330908D01*
X6646152Y5317711D01*
X6627488Y5299048D01*
X6614292Y5276191D01*
X6607460Y5250697D01*
Y5224303D01*
X6614292Y5198809D01*
X6627488Y5175951D01*
X6646152Y5157288D01*
X6669009Y5144091D01*
X6694503Y5137260D01*
X6720897D01*
X6746391Y5144091D01*
X6769249Y5157288D01*
X6787912Y5175951D01*
X6801109Y5198809D01*
X6807940Y5224303D01*
Y5250697D01*
X6801109Y5276191D01*
X6787912Y5299048D01*
X6769249Y5317711D01*
X6746391Y5330908D01*
X6720897Y5337740D01*
D02*
G37*
G36*
X6466897D02*
X6440503D01*
X6415009Y5330908D01*
X6392152Y5317711D01*
X6373488Y5299048D01*
X6360292Y5276191D01*
X6353460Y5250697D01*
Y5224303D01*
X6360292Y5198809D01*
X6373488Y5175951D01*
X6392152Y5157288D01*
X6415009Y5144091D01*
X6440503Y5137260D01*
X6466897D01*
X6492391Y5144091D01*
X6515249Y5157288D01*
X6533912Y5175951D01*
X6547109Y5198809D01*
X6553940Y5224303D01*
Y5250697D01*
X6547109Y5276191D01*
X6533912Y5299048D01*
X6515249Y5317711D01*
X6492391Y5330908D01*
X6466897Y5337740D01*
D02*
G37*
G36*
X6212897D02*
X6186503D01*
X6161009Y5330908D01*
X6138152Y5317711D01*
X6119488Y5299048D01*
X6106292Y5276191D01*
X6099460Y5250697D01*
Y5224303D01*
X6101022Y5218474D01*
X5980174Y5097626D01*
X5967965Y5079354D01*
X5963678Y5057800D01*
X5963678Y5057799D01*
Y4425632D01*
X5948509Y4413992D01*
X5932441Y4393052D01*
X5922341Y4368668D01*
X5918896Y4342500D01*
Y4317500D01*
X5922341Y4291332D01*
X5932441Y4266948D01*
X5948509Y4246008D01*
X5969448Y4229941D01*
X5993833Y4219840D01*
X6020000Y4216395D01*
X6046168Y4219840D01*
X6070553Y4229941D01*
X6091492Y4246008D01*
X6107560Y4266948D01*
X6117660Y4291332D01*
X6121105Y4317500D01*
Y4342500D01*
X6117660Y4368668D01*
X6107560Y4393052D01*
X6091492Y4413992D01*
X6076322Y4425632D01*
Y5034470D01*
X6180674Y5138822D01*
X6186503Y5137260D01*
X6212897D01*
X6238391Y5144091D01*
X6261249Y5157288D01*
X6279912Y5175951D01*
X6293109Y5198809D01*
X6299940Y5224303D01*
Y5250697D01*
X6293109Y5276191D01*
X6279912Y5299048D01*
X6261249Y5317711D01*
X6238391Y5330908D01*
X6212897Y5337740D01*
D02*
G37*
G36*
X5958897D02*
X5932503D01*
X5907009Y5330908D01*
X5884152Y5317711D01*
X5865488Y5299048D01*
X5852292Y5276191D01*
X5845460Y5250697D01*
Y5224303D01*
X5847022Y5218474D01*
X5730174Y5101626D01*
X5717965Y5083354D01*
X5713678Y5061800D01*
X5713678Y5061799D01*
Y4425632D01*
X5698509Y4413992D01*
X5682441Y4393052D01*
X5672341Y4368668D01*
X5668896Y4342500D01*
Y4317500D01*
X5672341Y4291332D01*
X5682441Y4266948D01*
X5698509Y4246008D01*
X5719448Y4229941D01*
X5743833Y4219840D01*
X5770000Y4216395D01*
X5796168Y4219840D01*
X5820553Y4229941D01*
X5841492Y4246008D01*
X5857560Y4266948D01*
X5867660Y4291332D01*
X5871105Y4317500D01*
Y4342500D01*
X5867660Y4368668D01*
X5857560Y4393052D01*
X5841492Y4413992D01*
X5826322Y4425632D01*
Y5038470D01*
X5926674Y5138822D01*
X5932503Y5137260D01*
X5958897D01*
X5984391Y5144091D01*
X6007249Y5157288D01*
X6025912Y5175951D01*
X6039109Y5198809D01*
X6045940Y5224303D01*
Y5250697D01*
X6039109Y5276191D01*
X6025912Y5299048D01*
X6007249Y5317711D01*
X5984391Y5330908D01*
X5958897Y5337740D01*
D02*
G37*
G36*
X5704897D02*
X5678503D01*
X5653009Y5330908D01*
X5630152Y5317711D01*
X5611488Y5299048D01*
X5598292Y5276191D01*
X5591460Y5250697D01*
Y5224303D01*
X5593022Y5218474D01*
X5480174Y5105626D01*
X5467965Y5087354D01*
X5463678Y5065800D01*
X5463678Y5065799D01*
Y4425632D01*
X5448509Y4413992D01*
X5432441Y4393052D01*
X5422341Y4368668D01*
X5418896Y4342500D01*
Y4317500D01*
X5422341Y4291332D01*
X5432441Y4266948D01*
X5448509Y4246008D01*
X5469448Y4229941D01*
X5493833Y4219840D01*
X5520000Y4216395D01*
X5546168Y4219840D01*
X5570553Y4229941D01*
X5591492Y4246008D01*
X5607560Y4266948D01*
X5617660Y4291332D01*
X5621105Y4317500D01*
Y4342500D01*
X5617660Y4368668D01*
X5607560Y4393052D01*
X5591492Y4413992D01*
X5576322Y4425632D01*
Y5042470D01*
X5672674Y5138822D01*
X5678503Y5137260D01*
X5704897D01*
X5730391Y5144091D01*
X5753249Y5157288D01*
X5771912Y5175951D01*
X5785109Y5198809D01*
X5791940Y5224303D01*
Y5250697D01*
X5785109Y5276191D01*
X5771912Y5299048D01*
X5753249Y5317711D01*
X5730391Y5330908D01*
X5704897Y5337740D01*
D02*
G37*
G36*
X5450897D02*
X5424503D01*
X5399009Y5330908D01*
X5376152Y5317711D01*
X5357488Y5299048D01*
X5344292Y5276191D01*
X5337460Y5250697D01*
Y5224303D01*
X5339022Y5218474D01*
X5230174Y5109626D01*
X5217965Y5091354D01*
X5213678Y5069800D01*
X5213678Y5069799D01*
Y4425632D01*
X5198509Y4413992D01*
X5182441Y4393052D01*
X5172341Y4368668D01*
X5168896Y4342500D01*
Y4317500D01*
X5172341Y4291332D01*
X5182441Y4266948D01*
X5198509Y4246008D01*
X5219448Y4229941D01*
X5243833Y4219840D01*
X5270000Y4216395D01*
X5296168Y4219840D01*
X5320553Y4229941D01*
X5341492Y4246008D01*
X5357560Y4266948D01*
X5367660Y4291332D01*
X5371105Y4317500D01*
Y4342500D01*
X5367660Y4368668D01*
X5357560Y4393052D01*
X5341492Y4413992D01*
X5326323Y4425632D01*
Y5046470D01*
X5418674Y5138822D01*
X5424503Y5137260D01*
X5450897D01*
X5476391Y5144091D01*
X5499249Y5157288D01*
X5517912Y5175951D01*
X5531109Y5198809D01*
X5537940Y5224303D01*
Y5250697D01*
X5531109Y5276191D01*
X5517912Y5299048D01*
X5499249Y5317711D01*
X5476391Y5330908D01*
X5450897Y5337740D01*
D02*
G37*
G36*
X5196897D02*
X5170503D01*
X5145009Y5330908D01*
X5122152Y5317711D01*
X5103488Y5299048D01*
X5090292Y5276191D01*
X5083460Y5250697D01*
Y5224303D01*
X5086066Y5214578D01*
X4980174Y5108686D01*
X4967965Y5090413D01*
X4963678Y5068860D01*
X4963678Y5068859D01*
Y4425632D01*
X4948509Y4413992D01*
X4932441Y4393052D01*
X4922341Y4368668D01*
X4918896Y4342500D01*
Y4317500D01*
X4922341Y4291332D01*
X4932441Y4266948D01*
X4948509Y4246008D01*
X4969448Y4229941D01*
X4993833Y4219840D01*
X5020000Y4216395D01*
X5046168Y4219840D01*
X5070553Y4229941D01*
X5091492Y4246008D01*
X5107560Y4266948D01*
X5117660Y4291332D01*
X5121105Y4317500D01*
Y4342500D01*
X5117660Y4368668D01*
X5107560Y4393052D01*
X5091492Y4413992D01*
X5076322Y4425632D01*
Y5045530D01*
X5168570Y5137778D01*
X5170503Y5137260D01*
X5196897D01*
X5222391Y5144091D01*
X5245249Y5157288D01*
X5263912Y5175951D01*
X5277109Y5198809D01*
X5283940Y5224303D01*
Y5250697D01*
X5277109Y5276191D01*
X5263912Y5299048D01*
X5245249Y5317711D01*
X5222391Y5330908D01*
X5196897Y5337740D01*
D02*
G37*
G36*
X3012497D02*
X2986103D01*
X2960609Y5330908D01*
X2937752Y5317711D01*
X2919088Y5299048D01*
X2905892Y5276191D01*
X2899060Y5250697D01*
Y5224303D01*
X2905892Y5198809D01*
X2919088Y5175951D01*
X2937752Y5157288D01*
X2960609Y5144091D01*
X2986103Y5137260D01*
X3012497D01*
X3037991Y5144091D01*
X3060849Y5157288D01*
X3079512Y5175951D01*
X3092709Y5198809D01*
X3099540Y5224303D01*
Y5250697D01*
X3092709Y5276191D01*
X3079512Y5299048D01*
X3060849Y5317711D01*
X3037991Y5330908D01*
X3012497Y5337740D01*
D02*
G37*
G36*
X2758497D02*
X2732103D01*
X2706609Y5330908D01*
X2683752Y5317711D01*
X2665088Y5299048D01*
X2651892Y5276191D01*
X2645060Y5250697D01*
Y5224303D01*
X2651892Y5198809D01*
X2665088Y5175951D01*
X2683752Y5157288D01*
X2706609Y5144091D01*
X2732103Y5137260D01*
X2758497D01*
X2783991Y5144091D01*
X2806849Y5157288D01*
X2825512Y5175951D01*
X2838709Y5198809D01*
X2845540Y5224303D01*
Y5250697D01*
X2838709Y5276191D01*
X2825512Y5299048D01*
X2806849Y5317711D01*
X2783991Y5330908D01*
X2758497Y5337740D01*
D02*
G37*
G36*
X9395899Y5452740D02*
X9353501D01*
X9311917Y5444468D01*
X9272746Y5428243D01*
X9237493Y5404687D01*
X9207512Y5374707D01*
X9183957Y5339454D01*
X9167732Y5300283D01*
X9159460Y5258699D01*
Y5216300D01*
X9167732Y5174717D01*
X9183957Y5135545D01*
X9207512Y5100292D01*
X9237493Y5070312D01*
X9272746Y5046757D01*
X9311917Y5030531D01*
X9353501Y5022260D01*
X9395899D01*
X9437483Y5030531D01*
X9476654Y5046757D01*
X9511908Y5070312D01*
X9541888Y5100292D01*
X9565443Y5135545D01*
X9581668Y5174717D01*
X9589940Y5216300D01*
Y5258699D01*
X9581668Y5300283D01*
X9565443Y5339454D01*
X9541888Y5374707D01*
X9511908Y5404687D01*
X9476654Y5428243D01*
X9437483Y5444468D01*
X9395899Y5452740D01*
D02*
G37*
G36*
X1902899D02*
X1860501D01*
X1818917Y5444468D01*
X1779746Y5428243D01*
X1744493Y5404687D01*
X1714512Y5374707D01*
X1690957Y5339454D01*
X1674732Y5300283D01*
X1666460Y5258699D01*
Y5216300D01*
X1674732Y5174717D01*
X1690957Y5135545D01*
X1714512Y5100292D01*
X1744493Y5070312D01*
X1779746Y5046757D01*
X1818917Y5030531D01*
X1860501Y5022260D01*
X1902899D01*
X1944483Y5030531D01*
X1983654Y5046757D01*
X2018908Y5070312D01*
X2048888Y5100292D01*
X2072443Y5135545D01*
X2088668Y5174717D01*
X2096940Y5216300D01*
Y5258699D01*
X2088668Y5300283D01*
X2072443Y5339454D01*
X2048888Y5374707D01*
X2018908Y5404687D01*
X1983654Y5428243D01*
X1944483Y5444468D01*
X1902899Y5452740D01*
D02*
G37*
G36*
X10022897Y5083740D02*
X9996503D01*
X9971009Y5076908D01*
X9948152Y5063711D01*
X9929488Y5045048D01*
X9916292Y5022191D01*
X9909460Y4996697D01*
Y4970303D01*
X9916292Y4944809D01*
X9929488Y4921951D01*
X9948152Y4903288D01*
X9971009Y4890091D01*
X9996503Y4883260D01*
X10022897D01*
X10048391Y4890091D01*
X10071249Y4903288D01*
X10089912Y4921951D01*
X10103109Y4944809D01*
X10109940Y4970303D01*
Y4996697D01*
X10103109Y5022191D01*
X10089912Y5045048D01*
X10071249Y5063711D01*
X10048391Y5076908D01*
X10022897Y5083740D01*
D02*
G37*
G36*
X9768897D02*
X9742503D01*
X9717009Y5076908D01*
X9694152Y5063711D01*
X9675488Y5045048D01*
X9662292Y5022191D01*
X9655460Y4996697D01*
Y4970303D01*
X9657022Y4964474D01*
X9218871Y4526322D01*
X9085632D01*
X9073992Y4541492D01*
X9053053Y4557559D01*
X9028668Y4567660D01*
X9002500Y4571105D01*
X8977500D01*
X8951332Y4567660D01*
X8926948Y4557559D01*
X8906008Y4541492D01*
X8889941Y4520552D01*
X8879840Y4496168D01*
X8876395Y4470000D01*
X8879840Y4443832D01*
X8889941Y4419448D01*
X8906008Y4398508D01*
X8926948Y4382441D01*
X8951332Y4372340D01*
X8977500Y4368895D01*
X9002500D01*
X9028668Y4372340D01*
X9053053Y4382441D01*
X9073992Y4398508D01*
X9085632Y4413678D01*
X9242199D01*
X9242200Y4413678D01*
X9263754Y4417965D01*
X9282026Y4430174D01*
X9736674Y4884822D01*
X9742503Y4883260D01*
X9768897D01*
X9794391Y4890091D01*
X9817249Y4903288D01*
X9835912Y4921951D01*
X9849109Y4944809D01*
X9855940Y4970303D01*
Y4996697D01*
X9849109Y5022191D01*
X9835912Y5045048D01*
X9817249Y5063711D01*
X9794391Y5076908D01*
X9768897Y5083740D01*
D02*
G37*
G36*
X10022897Y4829740D02*
X9996503D01*
X9971009Y4822908D01*
X9948152Y4809711D01*
X9929488Y4791048D01*
X9916292Y4768191D01*
X9909460Y4742697D01*
Y4716303D01*
X9916292Y4690809D01*
X9929488Y4667951D01*
X9948152Y4649288D01*
X9971009Y4636091D01*
X9996503Y4629260D01*
X10022897D01*
X10048391Y4636091D01*
X10071249Y4649288D01*
X10089912Y4667951D01*
X10103109Y4690809D01*
X10109940Y4716303D01*
Y4742697D01*
X10103109Y4768191D01*
X10089912Y4791048D01*
X10071249Y4809711D01*
X10048391Y4822908D01*
X10022897Y4829740D01*
D02*
G37*
G36*
X9768897D02*
X9742503D01*
X9717009Y4822908D01*
X9694152Y4809711D01*
X9675488Y4791048D01*
X9662292Y4768191D01*
X9655460Y4742697D01*
Y4716303D01*
X9657022Y4710474D01*
X9222871Y4276322D01*
X9085632D01*
X9073992Y4291492D01*
X9053053Y4307559D01*
X9028668Y4317660D01*
X9002500Y4321105D01*
X8977500D01*
X8951332Y4317660D01*
X8926948Y4307559D01*
X8906008Y4291492D01*
X8889941Y4270552D01*
X8879840Y4246168D01*
X8876395Y4220000D01*
X8879840Y4193832D01*
X8889941Y4169448D01*
X8906008Y4148508D01*
X8926948Y4132441D01*
X8951332Y4122340D01*
X8977500Y4118895D01*
X9002500D01*
X9028668Y4122340D01*
X9053053Y4132441D01*
X9073992Y4148508D01*
X9085632Y4163678D01*
X9246199D01*
X9246200Y4163677D01*
X9267754Y4167965D01*
X9286026Y4180174D01*
X9736674Y4630822D01*
X9742503Y4629260D01*
X9768897D01*
X9794391Y4636091D01*
X9817249Y4649288D01*
X9835912Y4667951D01*
X9849109Y4690809D01*
X9855940Y4716303D01*
Y4742697D01*
X9849109Y4768191D01*
X9835912Y4791048D01*
X9817249Y4809711D01*
X9794391Y4822908D01*
X9768897Y4829740D01*
D02*
G37*
G36*
X9074750Y4820788D02*
X8905250D01*
X8894329Y4818616D01*
X8885070Y4812430D01*
X8878884Y4803171D01*
X8876712Y4792250D01*
Y4647750D01*
X8878884Y4636829D01*
X8885070Y4627570D01*
X8894329Y4621384D01*
X8905250Y4619212D01*
X9074750D01*
X9085671Y4621384D01*
X9094930Y4627570D01*
X9101116Y4636829D01*
X9103288Y4647750D01*
Y4792250D01*
X9101116Y4803171D01*
X9094930Y4812430D01*
X9085671Y4818616D01*
X9074750Y4820788D01*
D02*
G37*
G36*
X10022897Y4575740D02*
X9996503D01*
X9971009Y4568908D01*
X9948152Y4555711D01*
X9929488Y4537048D01*
X9916292Y4514191D01*
X9909460Y4488697D01*
Y4462303D01*
X9916292Y4436809D01*
X9929488Y4413951D01*
X9948152Y4395288D01*
X9971009Y4382091D01*
X9996503Y4375260D01*
X10022897D01*
X10048391Y4382091D01*
X10071249Y4395288D01*
X10089912Y4413951D01*
X10103109Y4436809D01*
X10109940Y4462303D01*
Y4488697D01*
X10103109Y4514191D01*
X10089912Y4537048D01*
X10071249Y4555711D01*
X10048391Y4568908D01*
X10022897Y4575740D01*
D02*
G37*
G36*
X9768897D02*
X9742503D01*
X9717009Y4568908D01*
X9694152Y4555711D01*
X9675488Y4537048D01*
X9662292Y4514191D01*
X9655460Y4488697D01*
Y4462303D01*
X9657022Y4456474D01*
X9226871Y4026322D01*
X9085632D01*
X9073992Y4041492D01*
X9053053Y4057559D01*
X9028668Y4067660D01*
X9002500Y4071105D01*
X8977500D01*
X8951332Y4067660D01*
X8926948Y4057559D01*
X8906008Y4041492D01*
X8889941Y4020552D01*
X8879840Y3996168D01*
X8876395Y3970000D01*
X8879840Y3943832D01*
X8889941Y3919448D01*
X8906008Y3898508D01*
X8926948Y3882441D01*
X8951332Y3872340D01*
X8977500Y3868895D01*
X9002500D01*
X9028668Y3872340D01*
X9053053Y3882441D01*
X9073992Y3898508D01*
X9085632Y3913678D01*
X9250199D01*
X9250200Y3913677D01*
X9271754Y3917965D01*
X9290026Y3930174D01*
X9736674Y4376822D01*
X9742503Y4375260D01*
X9768897D01*
X9794391Y4382091D01*
X9817249Y4395288D01*
X9835912Y4413951D01*
X9849109Y4436809D01*
X9855940Y4462303D01*
Y4488697D01*
X9849109Y4514191D01*
X9835912Y4537048D01*
X9817249Y4555711D01*
X9794391Y4568908D01*
X9768897Y4575740D01*
D02*
G37*
G36*
X2532700Y4452181D02*
Y4342700D01*
X2631326D01*
X2627559Y4371320D01*
X2616434Y4398176D01*
X2598739Y4421238D01*
X2575677Y4438934D01*
X2548820Y4450058D01*
X2532700Y4452181D01*
D02*
G37*
G36*
X2507300D02*
X2491180Y4450058D01*
X2464324Y4438934D01*
X2441262Y4421238D01*
X2423566Y4398176D01*
X2412442Y4371320D01*
X2408674Y4342700D01*
X2507300D01*
Y4452181D01*
D02*
G37*
G36*
X6342250Y4443288D02*
X6197751D01*
X6186829Y4441116D01*
X6177571Y4434930D01*
X6171385Y4425671D01*
X6169212Y4414750D01*
Y4245250D01*
X6171385Y4234329D01*
X6177571Y4225070D01*
X6186829Y4218884D01*
X6197751Y4216712D01*
X6342250D01*
X6353171Y4218884D01*
X6362430Y4225070D01*
X6368616Y4234329D01*
X6370789Y4245250D01*
Y4414750D01*
X6368616Y4425671D01*
X6362430Y4434930D01*
X6353171Y4441116D01*
X6342250Y4443288D01*
D02*
G37*
G36*
X4942897Y5337740D02*
X4916503D01*
X4891009Y5330908D01*
X4868152Y5317711D01*
X4849488Y5299048D01*
X4836292Y5276191D01*
X4829460Y5250697D01*
Y5224303D01*
X4833757Y5208268D01*
X4730174Y5104686D01*
X4717965Y5086413D01*
X4713678Y5064860D01*
X4713678Y5064859D01*
Y4425632D01*
X4698509Y4413992D01*
X4682441Y4393052D01*
X4672341Y4368668D01*
X4668896Y4342500D01*
Y4317500D01*
X4672341Y4291332D01*
X4682441Y4266948D01*
X4698509Y4246008D01*
X4719448Y4229941D01*
X4743833Y4219840D01*
X4770000Y4216395D01*
X4796168Y4219840D01*
X4820553Y4229941D01*
X4841492Y4246008D01*
X4857559Y4266948D01*
X4867660Y4291332D01*
X4871105Y4317500D01*
Y4342500D01*
X4867660Y4368668D01*
X4857559Y4393052D01*
X4841492Y4413992D01*
X4826322Y4425632D01*
Y5041530D01*
X4922052Y5137260D01*
X4942897D01*
X4968391Y5144091D01*
X4991249Y5157288D01*
X5009912Y5175951D01*
X5023109Y5198809D01*
X5029940Y5224303D01*
Y5250697D01*
X5023109Y5276191D01*
X5009912Y5299048D01*
X4991249Y5317711D01*
X4968391Y5330908D01*
X4942897Y5337740D01*
D02*
G37*
G36*
X4536497D02*
X4510103D01*
X4484609Y5330908D01*
X4461752Y5317711D01*
X4443088Y5299048D01*
X4429892Y5276191D01*
X4423060Y5250697D01*
Y5224303D01*
X4429892Y5198809D01*
X4443088Y5175951D01*
X4461752Y5157288D01*
X4465328Y5155223D01*
Y4426898D01*
X4448509Y4413992D01*
X4432441Y4393052D01*
X4422341Y4368668D01*
X4418896Y4342500D01*
Y4317500D01*
X4422341Y4291332D01*
X4432441Y4266948D01*
X4448509Y4246008D01*
X4469448Y4229941D01*
X4493833Y4219840D01*
X4520000Y4216395D01*
X4546168Y4219840D01*
X4570553Y4229941D01*
X4591492Y4246008D01*
X4607559Y4266948D01*
X4617660Y4291332D01*
X4621105Y4317500D01*
Y4342500D01*
X4617660Y4368668D01*
X4607559Y4393052D01*
X4591492Y4413992D01*
X4577972Y4424366D01*
Y5153318D01*
X4584849Y5157288D01*
X4603512Y5175951D01*
X4616709Y5198809D01*
X4623540Y5224303D01*
Y5250697D01*
X4616709Y5276191D01*
X4603512Y5299048D01*
X4584849Y5317711D01*
X4561991Y5330908D01*
X4536497Y5337740D01*
D02*
G37*
G36*
X4282497D02*
X4256103D01*
X4230609Y5330908D01*
X4207752Y5317711D01*
X4189088Y5299048D01*
X4175892Y5276191D01*
X4169060Y5250697D01*
Y5224303D01*
X4175892Y5198809D01*
X4189088Y5175951D01*
X4207752Y5157288D01*
X4213328Y5154069D01*
Y4425363D01*
X4198508Y4413992D01*
X4182441Y4393052D01*
X4172341Y4368668D01*
X4168896Y4342500D01*
Y4317500D01*
X4172341Y4291332D01*
X4182441Y4266948D01*
X4198508Y4246008D01*
X4219448Y4229941D01*
X4243833Y4219840D01*
X4270000Y4216395D01*
X4296168Y4219840D01*
X4320553Y4229941D01*
X4341492Y4246008D01*
X4357559Y4266948D01*
X4367660Y4291332D01*
X4371105Y4317500D01*
Y4342500D01*
X4367660Y4368668D01*
X4357559Y4393052D01*
X4341492Y4413992D01*
X4325972Y4425901D01*
Y5154473D01*
X4330849Y5157288D01*
X4349512Y5175951D01*
X4362709Y5198809D01*
X4369540Y5224303D01*
Y5250697D01*
X4362709Y5276191D01*
X4349512Y5299048D01*
X4330849Y5317711D01*
X4307991Y5330908D01*
X4282497Y5337740D01*
D02*
G37*
G36*
X4028497D02*
X4002103D01*
X3976609Y5330908D01*
X3953752Y5317711D01*
X3935088Y5299048D01*
X3921892Y5276191D01*
X3915060Y5250697D01*
Y5224303D01*
X3921892Y5198809D01*
X3935088Y5175951D01*
X3953752Y5157288D01*
X3961328Y5152914D01*
Y4423829D01*
X3948508Y4413992D01*
X3932441Y4393052D01*
X3922341Y4368668D01*
X3918896Y4342500D01*
Y4317500D01*
X3922341Y4291332D01*
X3932441Y4266948D01*
X3948508Y4246008D01*
X3969448Y4229941D01*
X3993832Y4219840D01*
X4020000Y4216395D01*
X4046168Y4219840D01*
X4070553Y4229941D01*
X4091492Y4246008D01*
X4107559Y4266948D01*
X4117660Y4291332D01*
X4121105Y4317500D01*
Y4342500D01*
X4117660Y4368668D01*
X4107559Y4393052D01*
X4091492Y4413992D01*
X4073972Y4427435D01*
Y5155627D01*
X4076849Y5157288D01*
X4095512Y5175951D01*
X4108709Y5198809D01*
X4115540Y5224303D01*
Y5250697D01*
X4108709Y5276191D01*
X4095512Y5299048D01*
X4076849Y5317711D01*
X4053991Y5330908D01*
X4028497Y5337740D01*
D02*
G37*
G36*
X3774497D02*
X3748103D01*
X3722609Y5330908D01*
X3699752Y5317711D01*
X3681088Y5299048D01*
X3667892Y5276191D01*
X3661060Y5250697D01*
Y5224303D01*
X3667892Y5198809D01*
X3681088Y5175951D01*
X3699752Y5157288D01*
X3709328Y5151759D01*
Y4422294D01*
X3698508Y4413992D01*
X3682441Y4393052D01*
X3672341Y4368668D01*
X3668896Y4342500D01*
Y4317500D01*
X3672341Y4291332D01*
X3682441Y4266948D01*
X3698508Y4246008D01*
X3719448Y4229941D01*
X3743832Y4219840D01*
X3770000Y4216395D01*
X3796168Y4219840D01*
X3820553Y4229941D01*
X3841492Y4246008D01*
X3857559Y4266948D01*
X3867660Y4291332D01*
X3871105Y4317500D01*
Y4342500D01*
X3867660Y4368668D01*
X3857559Y4393052D01*
X3841492Y4413992D01*
X3821972Y4428970D01*
Y5156782D01*
X3822849Y5157288D01*
X3841512Y5175951D01*
X3854709Y5198809D01*
X3861540Y5224303D01*
Y5250697D01*
X3854709Y5276191D01*
X3841512Y5299048D01*
X3822849Y5317711D01*
X3799991Y5330908D01*
X3774497Y5337740D01*
D02*
G37*
G36*
X3520497D02*
X3494103D01*
X3468609Y5330908D01*
X3445752Y5317711D01*
X3427088Y5299048D01*
X3413892Y5276191D01*
X3407060Y5250697D01*
Y5224303D01*
X3413892Y5198809D01*
X3427088Y5175951D01*
X3445752Y5157288D01*
X3457328Y5150605D01*
Y4420759D01*
X3448508Y4413992D01*
X3432441Y4393052D01*
X3422341Y4368668D01*
X3418896Y4342500D01*
Y4317500D01*
X3422341Y4291332D01*
X3432441Y4266948D01*
X3448508Y4246008D01*
X3469448Y4229941D01*
X3493832Y4219840D01*
X3520000Y4216395D01*
X3546168Y4219840D01*
X3570553Y4229941D01*
X3591492Y4246008D01*
X3607559Y4266948D01*
X3617660Y4291332D01*
X3621105Y4317500D01*
Y4342500D01*
X3617660Y4368668D01*
X3607559Y4393052D01*
X3591492Y4413992D01*
X3570553Y4430059D01*
X3569972Y4430299D01*
Y5158412D01*
X3587512Y5175951D01*
X3600709Y5198809D01*
X3607540Y5224303D01*
Y5250697D01*
X3600709Y5276191D01*
X3587512Y5299048D01*
X3568849Y5317711D01*
X3545991Y5330908D01*
X3520497Y5337740D01*
D02*
G37*
G36*
X3266497D02*
X3240103D01*
X3214609Y5330908D01*
X3191752Y5317711D01*
X3173088Y5299048D01*
X3159892Y5276191D01*
X3153060Y5250697D01*
Y5224303D01*
X3159892Y5198809D01*
X3173088Y5175951D01*
X3191752Y5157288D01*
X3205328Y5149450D01*
Y4419225D01*
X3198508Y4413992D01*
X3182441Y4393052D01*
X3172341Y4368668D01*
X3168896Y4342500D01*
Y4317500D01*
X3172341Y4291332D01*
X3182441Y4266948D01*
X3198508Y4246008D01*
X3219448Y4229941D01*
X3243832Y4219840D01*
X3270000Y4216395D01*
X3296168Y4219840D01*
X3320553Y4229941D01*
X3341492Y4246008D01*
X3357559Y4266948D01*
X3367660Y4291332D01*
X3371105Y4317500D01*
Y4342500D01*
X3367660Y4368668D01*
X3357559Y4393052D01*
X3341492Y4413992D01*
X3320553Y4430059D01*
X3317972Y4431128D01*
Y5160412D01*
X3333512Y5175951D01*
X3346709Y5198809D01*
X3353540Y5224303D01*
Y5250697D01*
X3346709Y5276191D01*
X3333512Y5299048D01*
X3314849Y5317711D01*
X3291991Y5330908D01*
X3266497Y5337740D01*
D02*
G37*
G36*
X2504497D02*
X2478103D01*
X2452609Y5330908D01*
X2429752Y5317711D01*
X2411088Y5299048D01*
X2397892Y5276191D01*
X2391060Y5250697D01*
Y5224303D01*
X2397892Y5198809D01*
X2411088Y5175951D01*
X2429752Y5157288D01*
X2452609Y5144091D01*
X2478103Y5137260D01*
X2504497D01*
X2510326Y5138822D01*
X2963678Y4685470D01*
Y4425632D01*
X2948508Y4413992D01*
X2932441Y4393052D01*
X2922341Y4368668D01*
X2918896Y4342500D01*
Y4317500D01*
X2922341Y4291332D01*
X2932441Y4266948D01*
X2948508Y4246008D01*
X2969448Y4229941D01*
X2993832Y4219840D01*
X3020000Y4216395D01*
X3046168Y4219840D01*
X3070553Y4229941D01*
X3091492Y4246008D01*
X3107559Y4266948D01*
X3117660Y4291332D01*
X3121105Y4317500D01*
Y4342500D01*
X3117660Y4368668D01*
X3107559Y4393052D01*
X3091492Y4413992D01*
X3076322Y4425632D01*
Y4708799D01*
X3076323Y4708800D01*
X3072035Y4730354D01*
X3059826Y4748626D01*
X3059825Y4748626D01*
X2589978Y5218474D01*
X2591540Y5224303D01*
Y5250697D01*
X2584709Y5276191D01*
X2571512Y5299048D01*
X2552849Y5317711D01*
X2529991Y5330908D01*
X2504497Y5337740D01*
D02*
G37*
G36*
X2250497D02*
X2224103D01*
X2198609Y5330908D01*
X2175752Y5317711D01*
X2157088Y5299048D01*
X2143892Y5276191D01*
X2137060Y5250697D01*
Y5224303D01*
X2143892Y5198809D01*
X2157088Y5175951D01*
X2175752Y5157288D01*
X2198609Y5144091D01*
X2224103Y5137260D01*
X2250497D01*
X2256326Y5138822D01*
X2713678Y4681470D01*
Y4425632D01*
X2698508Y4413992D01*
X2682441Y4393052D01*
X2672341Y4368668D01*
X2668896Y4342500D01*
Y4317500D01*
X2672341Y4291332D01*
X2682441Y4266948D01*
X2698508Y4246008D01*
X2719448Y4229941D01*
X2743832Y4219840D01*
X2770000Y4216395D01*
X2796168Y4219840D01*
X2820553Y4229941D01*
X2841492Y4246008D01*
X2857559Y4266948D01*
X2867660Y4291332D01*
X2871105Y4317500D01*
Y4342500D01*
X2867660Y4368668D01*
X2857559Y4393052D01*
X2841492Y4413992D01*
X2826322Y4425632D01*
Y4704799D01*
X2826323Y4704800D01*
X2822035Y4726354D01*
X2809826Y4744626D01*
X2335978Y5218474D01*
X2337540Y5224303D01*
Y5250697D01*
X2330709Y5276191D01*
X2317512Y5299048D01*
X2298849Y5317711D01*
X2275991Y5330908D01*
X2250497Y5337740D01*
D02*
G37*
G36*
X2631326Y4317300D02*
X2532700D01*
Y4207819D01*
X2548820Y4209942D01*
X2575677Y4221066D01*
X2598739Y4238762D01*
X2616434Y4261824D01*
X2627559Y4288680D01*
X2631326Y4317300D01*
D02*
G37*
G36*
X2507300D02*
X2408674D01*
X2412442Y4288680D01*
X2423566Y4261824D01*
X2441262Y4238762D01*
X2464324Y4221066D01*
X2491180Y4209942D01*
X2507300Y4207819D01*
Y4317300D01*
D02*
G37*
G36*
X10022897Y4321740D02*
X9996503D01*
X9971009Y4314908D01*
X9948152Y4301711D01*
X9929488Y4283048D01*
X9916292Y4260191D01*
X9909460Y4234697D01*
Y4208303D01*
X9916292Y4182809D01*
X9929488Y4159951D01*
X9948152Y4141288D01*
X9971009Y4128091D01*
X9996503Y4121260D01*
X10022897D01*
X10048391Y4128091D01*
X10071249Y4141288D01*
X10089912Y4159951D01*
X10103109Y4182809D01*
X10109940Y4208303D01*
Y4234697D01*
X10103109Y4260191D01*
X10089912Y4283048D01*
X10071249Y4301711D01*
X10048391Y4314908D01*
X10022897Y4321740D01*
D02*
G37*
G36*
X9768897D02*
X9742503D01*
X9717009Y4314908D01*
X9694152Y4301711D01*
X9675488Y4283048D01*
X9662292Y4260191D01*
X9655460Y4234697D01*
Y4208303D01*
X9657022Y4202474D01*
X9230871Y3776322D01*
X9085632D01*
X9073992Y3791492D01*
X9053053Y3807559D01*
X9028668Y3817660D01*
X9002500Y3821105D01*
X8977500D01*
X8951332Y3817660D01*
X8926948Y3807559D01*
X8906008Y3791492D01*
X8889941Y3770552D01*
X8879840Y3746168D01*
X8876395Y3720000D01*
X8879840Y3693832D01*
X8889941Y3669448D01*
X8906008Y3648508D01*
X8926948Y3632441D01*
X8951332Y3622340D01*
X8977500Y3618895D01*
X9002500D01*
X9028668Y3622340D01*
X9053053Y3632441D01*
X9073992Y3648508D01*
X9085632Y3663678D01*
X9254199D01*
X9254200Y3663677D01*
X9275754Y3667965D01*
X9294026Y3680174D01*
X9736674Y4122822D01*
X9742503Y4121260D01*
X9768897D01*
X9794391Y4128091D01*
X9817249Y4141288D01*
X9835912Y4159951D01*
X9849109Y4182809D01*
X9855940Y4208303D01*
Y4234697D01*
X9849109Y4260191D01*
X9835912Y4283048D01*
X9817249Y4301711D01*
X9794391Y4314908D01*
X9768897Y4321740D01*
D02*
G37*
G36*
X10022897Y4067740D02*
X9996503D01*
X9971009Y4060908D01*
X9948152Y4047711D01*
X9929488Y4029048D01*
X9916292Y4006191D01*
X9909460Y3980697D01*
Y3954303D01*
X9916292Y3928809D01*
X9929488Y3905951D01*
X9948152Y3887288D01*
X9971009Y3874091D01*
X9996503Y3867260D01*
X10022897D01*
X10048391Y3874091D01*
X10071249Y3887288D01*
X10089912Y3905951D01*
X10103109Y3928809D01*
X10109940Y3954303D01*
Y3980697D01*
X10103109Y4006191D01*
X10089912Y4029048D01*
X10071249Y4047711D01*
X10048391Y4060908D01*
X10022897Y4067740D01*
D02*
G37*
G36*
X9768897D02*
X9742503D01*
X9717009Y4060908D01*
X9694152Y4047711D01*
X9675488Y4029048D01*
X9662292Y4006191D01*
X9655460Y3980697D01*
Y3954303D01*
X9657022Y3948474D01*
X9234870Y3526322D01*
X9085632D01*
X9073992Y3541492D01*
X9053053Y3557559D01*
X9028668Y3567660D01*
X9002500Y3571105D01*
X8977500D01*
X8951332Y3567660D01*
X8926948Y3557559D01*
X8906008Y3541492D01*
X8889941Y3520552D01*
X8879840Y3496168D01*
X8876395Y3470000D01*
X8879840Y3443832D01*
X8889941Y3419448D01*
X8906008Y3398508D01*
X8926948Y3382441D01*
X8951332Y3372340D01*
X8977500Y3368895D01*
X9002500D01*
X9028668Y3372340D01*
X9053053Y3382441D01*
X9073992Y3398508D01*
X9085632Y3413677D01*
X9258199D01*
X9258200Y3413677D01*
X9279754Y3417965D01*
X9298026Y3430174D01*
X9736674Y3868822D01*
X9742503Y3867260D01*
X9768897D01*
X9794391Y3874091D01*
X9817249Y3887288D01*
X9835912Y3905951D01*
X9849109Y3928809D01*
X9855940Y3954303D01*
Y3980697D01*
X9849109Y4006191D01*
X9835912Y4029048D01*
X9817249Y4047711D01*
X9794391Y4060908D01*
X9768897Y4067740D01*
D02*
G37*
G36*
X8125950Y3882488D02*
X7956450D01*
X7945529Y3880315D01*
X7936270Y3874129D01*
X7930084Y3864871D01*
X7927912Y3853949D01*
Y3709450D01*
X7930084Y3698529D01*
X7936270Y3689270D01*
X7945529Y3683084D01*
X7956450Y3680911D01*
X8125950D01*
X8136871Y3683084D01*
X8146130Y3689270D01*
X8152316Y3698529D01*
X8154488Y3709450D01*
Y3853949D01*
X8152316Y3864871D01*
X8146130Y3874129D01*
X8136871Y3880315D01*
X8125950Y3882488D01*
D02*
G37*
G36*
X10022897Y3813740D02*
X9996503D01*
X9971009Y3806908D01*
X9948152Y3793711D01*
X9929488Y3775048D01*
X9916292Y3752191D01*
X9909460Y3726697D01*
Y3700303D01*
X9916292Y3674809D01*
X9929488Y3651951D01*
X9948152Y3633288D01*
X9971009Y3620091D01*
X9996503Y3613260D01*
X10022897D01*
X10048391Y3620091D01*
X10071249Y3633288D01*
X10089912Y3651951D01*
X10103109Y3674809D01*
X10109940Y3700303D01*
Y3726697D01*
X10103109Y3752191D01*
X10089912Y3775048D01*
X10071249Y3793711D01*
X10048391Y3806908D01*
X10022897Y3813740D01*
D02*
G37*
G36*
X9768897D02*
X9742503D01*
X9717009Y3806908D01*
X9694152Y3793711D01*
X9675488Y3775048D01*
X9662292Y3752191D01*
X9655460Y3726697D01*
Y3700303D01*
X9657022Y3694474D01*
X9238871Y3276322D01*
X9085632D01*
X9073992Y3291492D01*
X9053053Y3307559D01*
X9028668Y3317660D01*
X9002500Y3321105D01*
X8977500D01*
X8951332Y3317660D01*
X8926948Y3307559D01*
X8906008Y3291492D01*
X8889941Y3270552D01*
X8879840Y3246168D01*
X8876395Y3220000D01*
X8879840Y3193832D01*
X8889941Y3169448D01*
X8906008Y3148508D01*
X8926948Y3132441D01*
X8951332Y3122340D01*
X8977500Y3118895D01*
X9002500D01*
X9028668Y3122340D01*
X9053053Y3132441D01*
X9073992Y3148508D01*
X9085632Y3163678D01*
X9262199D01*
X9262200Y3163677D01*
X9283754Y3167965D01*
X9302026Y3180174D01*
X9736674Y3614822D01*
X9742503Y3613260D01*
X9768897D01*
X9794391Y3620091D01*
X9817249Y3633288D01*
X9835912Y3651951D01*
X9849109Y3674809D01*
X9855940Y3700303D01*
Y3726697D01*
X9849109Y3752191D01*
X9835912Y3775048D01*
X9817249Y3793711D01*
X9794391Y3806908D01*
X9768897Y3813740D01*
D02*
G37*
G36*
X10022897Y3559740D02*
X9996503D01*
X9971009Y3552908D01*
X9948152Y3539711D01*
X9929488Y3521048D01*
X9916292Y3498191D01*
X9909460Y3472697D01*
Y3446303D01*
X9916292Y3420809D01*
X9929488Y3397951D01*
X9948152Y3379288D01*
X9971009Y3366091D01*
X9996503Y3359260D01*
X10022897D01*
X10048391Y3366091D01*
X10071249Y3379288D01*
X10089912Y3397951D01*
X10103109Y3420809D01*
X10109940Y3446303D01*
Y3472697D01*
X10103109Y3498191D01*
X10089912Y3521048D01*
X10071249Y3539711D01*
X10048391Y3552908D01*
X10022897Y3559740D01*
D02*
G37*
G36*
X8053700Y3632804D02*
X8028700D01*
X8002532Y3629359D01*
X7978148Y3619259D01*
X7957208Y3603191D01*
X7941141Y3582252D01*
X7931040Y3557867D01*
X7927595Y3531700D01*
X7931040Y3505532D01*
X7941141Y3481147D01*
X7957208Y3460208D01*
X7978148Y3444140D01*
X8002532Y3434040D01*
X8028700Y3430595D01*
X8053700D01*
X8079868Y3434040D01*
X8104253Y3444140D01*
X8125192Y3460208D01*
X8136832Y3475377D01*
X8265371D01*
X8501898Y3238850D01*
Y3176809D01*
X8501898Y3176808D01*
X8504142Y3165524D01*
X8492438Y3159268D01*
X8330180Y3321526D01*
X8311908Y3333735D01*
X8290354Y3338022D01*
X8290353Y3338022D01*
X8136832D01*
X8125192Y3353191D01*
X8104253Y3369259D01*
X8079868Y3379359D01*
X8053700Y3382804D01*
X8028700D01*
X8002532Y3379359D01*
X7978148Y3369259D01*
X7957208Y3353191D01*
X7941141Y3332252D01*
X7931040Y3307867D01*
X7927595Y3281700D01*
X7931040Y3255532D01*
X7941141Y3231147D01*
X7957208Y3210208D01*
X7978148Y3194140D01*
X8002532Y3184040D01*
X8028700Y3180595D01*
X8053700D01*
X8079868Y3184040D01*
X8104253Y3194140D01*
X8125192Y3210208D01*
X8136832Y3225378D01*
X8267025D01*
X8394920Y3097482D01*
X8388664Y3085777D01*
X8377381Y3088022D01*
X8377379Y3088022D01*
X8136832D01*
X8125192Y3103191D01*
X8104253Y3119259D01*
X8079868Y3129359D01*
X8053700Y3132804D01*
X8028700D01*
X8002532Y3129359D01*
X7978148Y3119259D01*
X7957208Y3103191D01*
X7941141Y3082252D01*
X7931040Y3057867D01*
X7927595Y3031700D01*
X7931040Y3005532D01*
X7941141Y2981147D01*
X7957208Y2960208D01*
X7978148Y2944140D01*
X8002532Y2934040D01*
X8028700Y2930595D01*
X8053700D01*
X8079868Y2934040D01*
X8104253Y2944140D01*
X8125192Y2960208D01*
X8136832Y2975377D01*
X8354051D01*
X8481946Y2847482D01*
X8475690Y2835777D01*
X8464406Y2838022D01*
X8464405Y2838022D01*
X8136832D01*
X8125192Y2853191D01*
X8104253Y2869259D01*
X8079868Y2879359D01*
X8053700Y2882804D01*
X8028700D01*
X8002532Y2879359D01*
X7978148Y2869259D01*
X7957208Y2853191D01*
X7941141Y2832252D01*
X7931040Y2807867D01*
X7927595Y2781700D01*
X7931040Y2755532D01*
X7941141Y2731147D01*
X7957208Y2710208D01*
X7978148Y2694140D01*
X8002532Y2684040D01*
X8028700Y2680595D01*
X8053700D01*
X8079868Y2684040D01*
X8104253Y2694140D01*
X8125192Y2710208D01*
X8136832Y2725377D01*
X8441077D01*
X8568972Y2597482D01*
X8562716Y2585777D01*
X8551432Y2588022D01*
X8551431Y2588022D01*
X8136832D01*
X8125192Y2603191D01*
X8104253Y2619259D01*
X8079868Y2629359D01*
X8053700Y2632804D01*
X8028700D01*
X8002532Y2629359D01*
X7978148Y2619259D01*
X7957208Y2603191D01*
X7941141Y2582252D01*
X7931040Y2557867D01*
X7927595Y2531700D01*
X7931040Y2505532D01*
X7941141Y2481147D01*
X7957208Y2460208D01*
X7978148Y2444140D01*
X8002532Y2434040D01*
X8028700Y2430595D01*
X8053700D01*
X8079868Y2434040D01*
X8104253Y2444140D01*
X8125192Y2460208D01*
X8136832Y2475377D01*
X8528103D01*
X8576526Y2426955D01*
X8576526Y2426954D01*
X8655999Y2347481D01*
X8649743Y2335777D01*
X8638459Y2338022D01*
X8638457Y2338021D01*
X8136832D01*
X8125192Y2353191D01*
X8104253Y2369259D01*
X8079868Y2379359D01*
X8053700Y2382804D01*
X8028700D01*
X8002532Y2379359D01*
X7978148Y2369259D01*
X7957208Y2353191D01*
X7941141Y2332252D01*
X7931040Y2307867D01*
X7927595Y2281700D01*
X7931040Y2255532D01*
X7941141Y2231147D01*
X7957208Y2210208D01*
X7978148Y2194140D01*
X8002532Y2184040D01*
X8028700Y2180595D01*
X8053700D01*
X8079868Y2184040D01*
X8104253Y2194140D01*
X8125192Y2210208D01*
X8136832Y2225377D01*
X8615129D01*
X8690832Y2149675D01*
X8690832Y2149674D01*
X8709105Y2137465D01*
X8730658Y2133178D01*
X9672471D01*
X9675488Y2127951D01*
X9694152Y2109288D01*
X9717009Y2096091D01*
X9742503Y2089260D01*
X9768897D01*
X9794391Y2096091D01*
X9817249Y2109288D01*
X9835912Y2127951D01*
X9849109Y2150809D01*
X9855940Y2176303D01*
Y2202697D01*
X9849109Y2228191D01*
X9835912Y2251048D01*
X9817249Y2269711D01*
X9794391Y2282908D01*
X9768897Y2289740D01*
X9742503D01*
X9717009Y2282908D01*
X9694152Y2269711D01*
X9675488Y2251048D01*
X9672471Y2245822D01*
X8753988D01*
X8706793Y2293017D01*
X8713049Y2304722D01*
X8724333Y2302477D01*
X9255666D01*
X9255668Y2302477D01*
X9277221Y2306764D01*
X9295493Y2318974D01*
X9353337Y2376818D01*
X9680622D01*
X9694152Y2363288D01*
X9717009Y2350091D01*
X9742503Y2343260D01*
X9768897D01*
X9794391Y2350091D01*
X9817249Y2363288D01*
X9835912Y2381951D01*
X9849109Y2404809D01*
X9855940Y2430303D01*
Y2456697D01*
X9849109Y2482191D01*
X9835912Y2505048D01*
X9817249Y2523711D01*
X9794391Y2536908D01*
X9768897Y2543740D01*
X9742503D01*
X9717009Y2536908D01*
X9694152Y2523711D01*
X9675488Y2505048D01*
X9666490Y2489462D01*
X9621751D01*
X9617898Y2502162D01*
X9627464Y2508554D01*
X9721735Y2602825D01*
X9742503Y2597260D01*
X9768897D01*
X9794391Y2604091D01*
X9817249Y2617288D01*
X9835912Y2635951D01*
X9849109Y2658809D01*
X9855940Y2684303D01*
Y2710697D01*
X9849109Y2736191D01*
X9835912Y2759048D01*
X9817249Y2777711D01*
X9794391Y2790908D01*
X9768897Y2797740D01*
X9742503D01*
X9717009Y2790908D01*
X9694152Y2777711D01*
X9675488Y2759048D01*
X9662292Y2736191D01*
X9655460Y2710697D01*
Y2695854D01*
X9564309Y2604702D01*
X9501932D01*
X9498080Y2617402D01*
X9507646Y2623794D01*
X9736674Y2852822D01*
X9742503Y2851260D01*
X9768897D01*
X9794391Y2858091D01*
X9817249Y2871288D01*
X9835912Y2889951D01*
X9849109Y2912809D01*
X9855940Y2938303D01*
Y2964697D01*
X9849109Y2990191D01*
X9835912Y3013048D01*
X9817249Y3031711D01*
X9794391Y3044908D01*
X9768897Y3051740D01*
X9742503D01*
X9717009Y3044908D01*
X9694152Y3031711D01*
X9675488Y3013048D01*
X9662292Y2990191D01*
X9655460Y2964697D01*
Y2938303D01*
X9657022Y2932474D01*
X9444491Y2719942D01*
X9363173D01*
X9359320Y2732642D01*
X9368886Y2739034D01*
X9736674Y3106822D01*
X9742503Y3105260D01*
X9768897D01*
X9794391Y3112091D01*
X9817249Y3125288D01*
X9835912Y3143951D01*
X9849109Y3166809D01*
X9855940Y3192303D01*
Y3218697D01*
X9849109Y3244191D01*
X9835912Y3267048D01*
X9817249Y3285711D01*
X9794391Y3298908D01*
X9768897Y3305740D01*
X9742503D01*
X9717009Y3298908D01*
X9694152Y3285711D01*
X9675488Y3267048D01*
X9662292Y3244191D01*
X9655460Y3218697D01*
Y3192303D01*
X9657022Y3186474D01*
X9305731Y2835182D01*
X9224413D01*
X9220560Y2847882D01*
X9230126Y2854274D01*
X9736674Y3360822D01*
X9742503Y3359260D01*
X9768897D01*
X9794391Y3366091D01*
X9817249Y3379288D01*
X9835912Y3397951D01*
X9849109Y3420809D01*
X9855940Y3446303D01*
Y3472697D01*
X9849109Y3498191D01*
X9835912Y3521048D01*
X9817249Y3539711D01*
X9794391Y3552908D01*
X9768897Y3559740D01*
X9742503D01*
X9717009Y3552908D01*
X9694152Y3539711D01*
X9675488Y3521048D01*
X9662292Y3498191D01*
X9655460Y3472697D01*
Y3446303D01*
X9657022Y3440474D01*
X9166971Y2950422D01*
X9139073D01*
X9139072Y2950423D01*
X9123682Y2947361D01*
X9112513Y2956283D01*
X9112145Y2957030D01*
X9112181Y2957300D01*
X8990000D01*
Y2970000D01*
X8977300D01*
Y3081326D01*
X8948680Y3077558D01*
X8921824Y3066434D01*
X8898762Y3048738D01*
X8881066Y3025676D01*
X8869942Y2998820D01*
X8866147Y2970000D01*
X8866824Y2964864D01*
X8855433Y2959247D01*
X8614542Y3200138D01*
Y3262178D01*
X8614543Y3262180D01*
X8610255Y3283733D01*
X8598046Y3302006D01*
X8598045Y3302006D01*
X8328526Y3571525D01*
X8310254Y3583735D01*
X8288700Y3588022D01*
X8288699Y3588022D01*
X8136832D01*
X8125192Y3603191D01*
X8104253Y3619259D01*
X8079868Y3629359D01*
X8053700Y3632804D01*
D02*
G37*
G36*
X10022897Y3305740D02*
X9996503D01*
X9971009Y3298908D01*
X9948152Y3285711D01*
X9929488Y3267048D01*
X9916292Y3244191D01*
X9909460Y3218697D01*
Y3192303D01*
X9916292Y3166809D01*
X9929488Y3143951D01*
X9948152Y3125288D01*
X9971009Y3112091D01*
X9996503Y3105260D01*
X10022897D01*
X10048391Y3112091D01*
X10071249Y3125288D01*
X10089912Y3143951D01*
X10103109Y3166809D01*
X10109940Y3192303D01*
Y3218697D01*
X10103109Y3244191D01*
X10089912Y3267048D01*
X10071249Y3285711D01*
X10048391Y3298908D01*
X10022897Y3305740D01*
D02*
G37*
G36*
X9002700Y3081326D02*
Y2982700D01*
X9112181D01*
X9110058Y2998820D01*
X9098934Y3025676D01*
X9081238Y3048738D01*
X9058176Y3066434D01*
X9031320Y3077558D01*
X9002700Y3081326D01*
D02*
G37*
G36*
X10632700Y3031326D02*
Y2932700D01*
X10742181D01*
X10740059Y2948820D01*
X10728934Y2975676D01*
X10711238Y2998738D01*
X10688176Y3016434D01*
X10661320Y3027558D01*
X10632700Y3031326D01*
D02*
G37*
G36*
X10607300D02*
X10578680Y3027558D01*
X10551824Y3016434D01*
X10528762Y2998738D01*
X10511066Y2975676D01*
X10499942Y2948820D01*
X10497819Y2932700D01*
X10607300D01*
Y3031326D01*
D02*
G37*
G36*
X10742181Y2907300D02*
X10632700D01*
Y2808674D01*
X10661320Y2812442D01*
X10688176Y2823566D01*
X10711238Y2841262D01*
X10728934Y2864324D01*
X10740059Y2891180D01*
X10742181Y2907300D01*
D02*
G37*
G36*
X10022897Y3051740D02*
X9996503D01*
X9971009Y3044908D01*
X9948152Y3031711D01*
X9929488Y3013048D01*
X9916292Y2990191D01*
X9909460Y2964697D01*
Y2938303D01*
X9916292Y2912809D01*
X9929488Y2889951D01*
X9948152Y2871288D01*
X9971009Y2858091D01*
X9996503Y2851260D01*
X10022897D01*
X10048391Y2858091D01*
X10071249Y2871288D01*
X10089912Y2889951D01*
X10092929Y2895178D01*
X10302671D01*
X10508891Y2688957D01*
X10506395Y2670000D01*
X10509840Y2643832D01*
X10519941Y2619448D01*
X10536008Y2598508D01*
X10556948Y2582441D01*
X10581332Y2572340D01*
X10607500Y2568895D01*
X10632500D01*
X10658668Y2572340D01*
X10683053Y2582441D01*
X10703992Y2598508D01*
X10720059Y2619448D01*
X10730160Y2643832D01*
X10733605Y2670000D01*
X10730160Y2696168D01*
X10720059Y2720552D01*
X10703992Y2741492D01*
X10683053Y2757559D01*
X10658668Y2767660D01*
X10632500Y2771105D01*
X10607500D01*
X10588543Y2768609D01*
X10542240Y2814912D01*
X10550632Y2824481D01*
X10551824Y2823566D01*
X10578680Y2812442D01*
X10607300Y2808674D01*
Y2907300D01*
X10497819D01*
X10499942Y2891180D01*
X10511066Y2864324D01*
X10511980Y2863132D01*
X10502411Y2854740D01*
X10365826Y2991326D01*
X10347554Y3003535D01*
X10326000Y3007822D01*
X10325999Y3007822D01*
X10092929D01*
X10089912Y3013048D01*
X10071249Y3031711D01*
X10048391Y3044908D01*
X10022897Y3051740D01*
D02*
G37*
G36*
X7148050Y2837088D02*
X6978550D01*
X6967629Y2834916D01*
X6958370Y2828729D01*
X6952184Y2819471D01*
X6950012Y2808550D01*
Y2664050D01*
X6952184Y2653129D01*
X6958370Y2643870D01*
X6967629Y2637684D01*
X6978550Y2635512D01*
X7148050D01*
X7158971Y2637684D01*
X7168230Y2643870D01*
X7174416Y2653129D01*
X7176588Y2664050D01*
Y2808550D01*
X7174416Y2819471D01*
X7168230Y2828729D01*
X7158971Y2834916D01*
X7148050Y2837088D01*
D02*
G37*
G36*
X10022897Y2797740D02*
X9996503D01*
X9971009Y2790908D01*
X9948152Y2777711D01*
X9929488Y2759048D01*
X9916292Y2736191D01*
X9909460Y2710697D01*
Y2684303D01*
X9916292Y2658809D01*
X9929488Y2635951D01*
X9948152Y2617288D01*
X9971009Y2604091D01*
X9996503Y2597260D01*
X10022897D01*
X10048391Y2604091D01*
X10071249Y2617288D01*
X10089912Y2635951D01*
X10092929Y2641178D01*
X10306671D01*
X10508891Y2438957D01*
X10506395Y2420000D01*
X10509840Y2393832D01*
X10519941Y2369448D01*
X10536008Y2348508D01*
X10556948Y2332441D01*
X10581332Y2322340D01*
X10607500Y2318895D01*
X10632500D01*
X10658668Y2322340D01*
X10683053Y2332441D01*
X10703992Y2348508D01*
X10720059Y2369448D01*
X10730160Y2393832D01*
X10733605Y2420000D01*
X10730160Y2446168D01*
X10720059Y2470552D01*
X10703992Y2491492D01*
X10683053Y2507559D01*
X10658668Y2517660D01*
X10632500Y2521105D01*
X10607500D01*
X10588543Y2518609D01*
X10369826Y2737326D01*
X10351554Y2749535D01*
X10330000Y2753822D01*
X10329999Y2753822D01*
X10092929D01*
X10089912Y2759048D01*
X10071249Y2777711D01*
X10048391Y2790908D01*
X10022897Y2797740D01*
D02*
G37*
G36*
X7075800Y2587405D02*
X7050800D01*
X7024632Y2583960D01*
X7000248Y2573859D01*
X6979308Y2557792D01*
X6963241Y2536852D01*
X6953140Y2512468D01*
X6949695Y2486300D01*
X6953140Y2460132D01*
X6963241Y2435747D01*
X6979308Y2414808D01*
X7000248Y2398741D01*
X7024632Y2388640D01*
X7050800Y2385195D01*
X7075800D01*
X7101968Y2388640D01*
X7126353Y2398741D01*
X7147292Y2414808D01*
X7158932Y2429978D01*
X7338298D01*
X7466194Y2302082D01*
X7459938Y2290378D01*
X7448654Y2292622D01*
X7448653Y2292622D01*
X7158932D01*
X7147292Y2307792D01*
X7126353Y2323859D01*
X7101968Y2333960D01*
X7075800Y2337405D01*
X7050800D01*
X7024632Y2333960D01*
X7000248Y2323859D01*
X6979308Y2307792D01*
X6963241Y2286852D01*
X6953140Y2262468D01*
X6949695Y2236300D01*
X6953140Y2210132D01*
X6963241Y2185747D01*
X6979308Y2164808D01*
X7000248Y2148741D01*
X7024632Y2138640D01*
X7050800Y2135195D01*
X7075800D01*
X7101968Y2138640D01*
X7126353Y2148741D01*
X7147292Y2164808D01*
X7158932Y2179978D01*
X7425324D01*
X7963627Y1641675D01*
X7963628Y1641674D01*
X7981900Y1629465D01*
X8003454Y1625177D01*
X8003455Y1625178D01*
X9672471D01*
X9675488Y1619951D01*
X9694152Y1601288D01*
X9717009Y1588091D01*
X9742503Y1581260D01*
X9768897D01*
X9794391Y1588091D01*
X9817249Y1601288D01*
X9835912Y1619951D01*
X9849109Y1642809D01*
X9855940Y1668303D01*
Y1694697D01*
X9849109Y1720191D01*
X9835912Y1743048D01*
X9817249Y1761711D01*
X9794391Y1774908D01*
X9768897Y1781740D01*
X9742503D01*
X9717009Y1774908D01*
X9694152Y1761711D01*
X9675488Y1743048D01*
X9672471Y1737822D01*
X8026783D01*
X7948928Y1815677D01*
X7955184Y1827382D01*
X7966468Y1825137D01*
X9682716D01*
X9682718Y1825137D01*
X9704271Y1829424D01*
X9721449Y1840902D01*
X9742503Y1835260D01*
X9768897D01*
X9794391Y1842091D01*
X9817249Y1855288D01*
X9835912Y1873951D01*
X9849109Y1896809D01*
X9855940Y1922303D01*
Y1948697D01*
X9849109Y1974191D01*
X9835912Y1997048D01*
X9817249Y2015711D01*
X9794391Y2028908D01*
X9768897Y2035740D01*
X9742503D01*
X9717009Y2028908D01*
X9694152Y2015711D01*
X9675488Y1997048D01*
X9662292Y1974191D01*
X9655460Y1948697D01*
Y1937781D01*
X8132411D01*
X8128328Y1949808D01*
X8132438Y1952961D01*
X8150134Y1976023D01*
X8161259Y2002879D01*
X8163381Y2019000D01*
X8041200D01*
Y2031700D01*
X8028500D01*
Y2143026D01*
X7999880Y2139258D01*
X7973024Y2128134D01*
X7949962Y2110438D01*
X7932266Y2087376D01*
X7921142Y2060520D01*
X7917347Y2031700D01*
X7918024Y2026563D01*
X7906633Y2020946D01*
X7401454Y2526126D01*
X7383181Y2538335D01*
X7361628Y2542623D01*
X7361626Y2542622D01*
X7158932D01*
X7147292Y2557792D01*
X7126353Y2573859D01*
X7101968Y2583960D01*
X7075800Y2587405D01*
D02*
G37*
G36*
X10022897Y2543740D02*
X9996503D01*
X9971009Y2536908D01*
X9948152Y2523711D01*
X9929488Y2505048D01*
X9916292Y2482191D01*
X9909460Y2456697D01*
Y2430303D01*
X9916292Y2404809D01*
X9929488Y2381951D01*
X9948152Y2363288D01*
X9971009Y2350091D01*
X9996503Y2343260D01*
X10022897D01*
X10048391Y2350091D01*
X10071249Y2363288D01*
X10089912Y2381951D01*
X10092929Y2387178D01*
X10310671D01*
X10508891Y2188957D01*
X10506395Y2170000D01*
X10509840Y2143832D01*
X10519941Y2119448D01*
X10536008Y2098508D01*
X10556948Y2082441D01*
X10581332Y2072340D01*
X10607500Y2068895D01*
X10632500D01*
X10658668Y2072340D01*
X10683053Y2082441D01*
X10703992Y2098508D01*
X10720059Y2119448D01*
X10730160Y2143832D01*
X10733605Y2170000D01*
X10730160Y2196168D01*
X10720059Y2220552D01*
X10703992Y2241492D01*
X10683053Y2257559D01*
X10658668Y2267660D01*
X10632500Y2271105D01*
X10607500D01*
X10588543Y2268609D01*
X10373826Y2483326D01*
X10355554Y2495535D01*
X10334000Y2499822D01*
X10333999Y2499822D01*
X10092929D01*
X10089912Y2505048D01*
X10071249Y2523711D01*
X10048391Y2536908D01*
X10022897Y2543740D01*
D02*
G37*
G36*
X8053900Y2143026D02*
Y2044400D01*
X8163381D01*
X8161259Y2060520D01*
X8150134Y2087376D01*
X8132438Y2110438D01*
X8109376Y2128134D01*
X8082520Y2139258D01*
X8053900Y2143026D01*
D02*
G37*
G36*
X10022897Y2289740D02*
X9996503D01*
X9971009Y2282908D01*
X9948152Y2269711D01*
X9929488Y2251048D01*
X9916292Y2228191D01*
X9909460Y2202697D01*
Y2176303D01*
X9916292Y2150809D01*
X9929488Y2127951D01*
X9948152Y2109288D01*
X9971009Y2096091D01*
X9996503Y2089260D01*
X10022897D01*
X10048391Y2096091D01*
X10071249Y2109288D01*
X10089912Y2127951D01*
X10092929Y2133178D01*
X10314671D01*
X10508891Y1938957D01*
X10506395Y1920000D01*
X10509840Y1893832D01*
X10519941Y1869448D01*
X10536008Y1848508D01*
X10556948Y1832441D01*
X10581332Y1822340D01*
X10607500Y1818895D01*
X10632500D01*
X10658668Y1822340D01*
X10683053Y1832441D01*
X10703992Y1848508D01*
X10720059Y1869448D01*
X10730160Y1893832D01*
X10733605Y1920000D01*
X10730160Y1946168D01*
X10720059Y1970552D01*
X10703992Y1991492D01*
X10683053Y2007559D01*
X10658668Y2017660D01*
X10632500Y2021105D01*
X10607500D01*
X10588543Y2018609D01*
X10377826Y2229326D01*
X10359554Y2241535D01*
X10338000Y2245822D01*
X10337999Y2245822D01*
X10092929D01*
X10089912Y2251048D01*
X10071249Y2269711D01*
X10048391Y2282908D01*
X10022897Y2289740D01*
D02*
G37*
G36*
Y2035740D02*
X9996503D01*
X9971009Y2028908D01*
X9948152Y2015711D01*
X9929488Y1997048D01*
X9916292Y1974191D01*
X9909460Y1948697D01*
Y1922303D01*
X9916292Y1896809D01*
X9929488Y1873951D01*
X9948152Y1855288D01*
X9971009Y1842091D01*
X9996503Y1835260D01*
X10022897D01*
X10048391Y1842091D01*
X10071249Y1855288D01*
X10089912Y1873951D01*
X10092929Y1879178D01*
X10318670D01*
X10508891Y1688957D01*
X10506395Y1670000D01*
X10509840Y1643832D01*
X10519941Y1619448D01*
X10536008Y1598508D01*
X10556948Y1582441D01*
X10581332Y1572340D01*
X10607500Y1568895D01*
X10632500D01*
X10658668Y1572340D01*
X10683053Y1582441D01*
X10703992Y1598508D01*
X10720059Y1619448D01*
X10730160Y1643832D01*
X10733605Y1670000D01*
X10730160Y1696168D01*
X10720059Y1720552D01*
X10703992Y1741492D01*
X10683053Y1757559D01*
X10658668Y1767660D01*
X10632500Y1771105D01*
X10607500D01*
X10588543Y1768609D01*
X10381826Y1975326D01*
X10363554Y1987535D01*
X10342000Y1991822D01*
X10341999Y1991822D01*
X10092929D01*
X10089912Y1997048D01*
X10071249Y2015711D01*
X10048391Y2028908D01*
X10022897Y2035740D01*
D02*
G37*
G36*
X7075800Y2087405D02*
X7050800D01*
X7024632Y2083960D01*
X7000248Y2073859D01*
X6979308Y2057792D01*
X6963241Y2036852D01*
X6953140Y2012468D01*
X6949695Y1986300D01*
X6953140Y1960132D01*
X6963241Y1935747D01*
X6979308Y1914808D01*
X7000248Y1898741D01*
X7024632Y1888640D01*
X7050800Y1885195D01*
X7075800D01*
X7094757Y1887691D01*
X7594774Y1387675D01*
X7594774Y1387674D01*
X7613046Y1375465D01*
X7634600Y1371177D01*
X7634601Y1371178D01*
X9672471D01*
X9675488Y1365951D01*
X9694152Y1347288D01*
X9717009Y1334091D01*
X9742503Y1327260D01*
X9768897D01*
X9794391Y1334091D01*
X9817249Y1347288D01*
X9835912Y1365951D01*
X9849109Y1388809D01*
X9855940Y1414303D01*
Y1440697D01*
X9849109Y1466191D01*
X9835912Y1489048D01*
X9817249Y1507711D01*
X9794391Y1520908D01*
X9768897Y1527740D01*
X9742503D01*
X9717009Y1520908D01*
X9694152Y1507711D01*
X9675488Y1489048D01*
X9672471Y1483822D01*
X7657930D01*
X7174409Y1967343D01*
X7176905Y1986300D01*
X7173460Y2012468D01*
X7163359Y2036852D01*
X7147292Y2057792D01*
X7126353Y2073859D01*
X7101968Y2083960D01*
X7075800Y2087405D01*
D02*
G37*
G36*
X10022897Y1781740D02*
X9996503D01*
X9971009Y1774908D01*
X9948152Y1761711D01*
X9929488Y1743048D01*
X9916292Y1720191D01*
X9909460Y1694697D01*
Y1668303D01*
X9916292Y1642809D01*
X9929488Y1619951D01*
X9948152Y1601288D01*
X9971009Y1588091D01*
X9996503Y1581260D01*
X10022897D01*
X10048391Y1588091D01*
X10071249Y1601288D01*
X10089912Y1619951D01*
X10092929Y1625178D01*
X10322670D01*
X10508891Y1438957D01*
X10506395Y1420000D01*
X10509840Y1393832D01*
X10519941Y1369448D01*
X10536008Y1348508D01*
X10556948Y1332441D01*
X10581332Y1322340D01*
X10607500Y1318895D01*
X10632500D01*
X10658668Y1322340D01*
X10683053Y1332441D01*
X10703992Y1348508D01*
X10720059Y1369448D01*
X10730160Y1393832D01*
X10733605Y1420000D01*
X10730160Y1446168D01*
X10720059Y1470552D01*
X10703992Y1491492D01*
X10683053Y1507559D01*
X10658668Y1517660D01*
X10632500Y1521105D01*
X10607500D01*
X10588543Y1518609D01*
X10385826Y1721326D01*
X10367554Y1733535D01*
X10346000Y1737822D01*
X10345999Y1737822D01*
X10092929D01*
X10089912Y1743048D01*
X10071249Y1761711D01*
X10048391Y1774908D01*
X10022897Y1781740D01*
D02*
G37*
G36*
X7075800Y1837405D02*
X7050800D01*
X7024632Y1833960D01*
X7000248Y1823859D01*
X6979308Y1807792D01*
X6963241Y1786852D01*
X6953140Y1762468D01*
X6949695Y1736300D01*
X6953140Y1710132D01*
X6963241Y1685747D01*
X6979308Y1664808D01*
X7000248Y1648741D01*
X7024632Y1638640D01*
X7050800Y1635195D01*
X7075800D01*
X7094757Y1637691D01*
X7598774Y1133675D01*
X7598774Y1133674D01*
X7617046Y1121465D01*
X7638600Y1117177D01*
X7638601Y1117178D01*
X9672471D01*
X9675488Y1111951D01*
X9694152Y1093288D01*
X9717009Y1080091D01*
X9742503Y1073260D01*
X9768897D01*
X9794391Y1080091D01*
X9817249Y1093288D01*
X9835912Y1111951D01*
X9849109Y1134809D01*
X9855940Y1160303D01*
Y1186697D01*
X9849109Y1212191D01*
X9835912Y1235048D01*
X9817249Y1253711D01*
X9794391Y1266908D01*
X9768897Y1273740D01*
X9742503D01*
X9717009Y1266908D01*
X9694152Y1253711D01*
X9675488Y1235048D01*
X9672471Y1229822D01*
X7661930D01*
X7174409Y1717343D01*
X7176905Y1736300D01*
X7173460Y1762468D01*
X7163359Y1786852D01*
X7147292Y1807792D01*
X7126353Y1823859D01*
X7101968Y1833960D01*
X7075800Y1837405D01*
D02*
G37*
G36*
X10704750Y1270788D02*
X10535250D01*
X10524329Y1268616D01*
X10515070Y1262430D01*
X10508884Y1253171D01*
X10506712Y1242250D01*
Y1097750D01*
X10508884Y1086829D01*
X10515070Y1077570D01*
X10524329Y1071384D01*
X10535250Y1069212D01*
X10704750D01*
X10715671Y1071384D01*
X10724930Y1077570D01*
X10731116Y1086829D01*
X10733288Y1097750D01*
Y1242250D01*
X10731116Y1253171D01*
X10724930Y1262430D01*
X10715671Y1268616D01*
X10704750Y1270788D01*
D02*
G37*
G36*
X7050600Y1097626D02*
X7021980Y1093858D01*
X6995124Y1082734D01*
X6972062Y1065038D01*
X6954366Y1041976D01*
X6943242Y1015120D01*
X6941119Y999000D01*
X7050600D01*
Y1097626D01*
D02*
G37*
G36*
X7185481Y973600D02*
X7076000D01*
Y874974D01*
X7104620Y878741D01*
X7131476Y889866D01*
X7154538Y907562D01*
X7172234Y930623D01*
X7183359Y957480D01*
X7185481Y973600D01*
D02*
G37*
G36*
X7050600D02*
X6941119D01*
X6943242Y957480D01*
X6954366Y930623D01*
X6972062Y907562D01*
X6995124Y889866D01*
X7021980Y878741D01*
X7050600Y874974D01*
Y973600D01*
D02*
G37*
G36*
X7075800Y1587404D02*
X7050800D01*
X7024632Y1583959D01*
X7000248Y1573859D01*
X6979308Y1557792D01*
X6963241Y1536852D01*
X6953140Y1512468D01*
X6949695Y1486300D01*
X6953140Y1460132D01*
X6963241Y1435747D01*
X6979308Y1414808D01*
X7000248Y1398741D01*
X7024632Y1388640D01*
X7050800Y1385195D01*
X7075800D01*
X7094757Y1387691D01*
X7740373Y742075D01*
X7735513Y730342D01*
X7661410D01*
X7174409Y1217343D01*
X7176905Y1236300D01*
X7173460Y1262468D01*
X7163359Y1286852D01*
X7147292Y1307792D01*
X7126353Y1323859D01*
X7101968Y1333959D01*
X7075800Y1337404D01*
X7050800D01*
X7024632Y1333959D01*
X7000248Y1323859D01*
X6979308Y1307792D01*
X6963241Y1286852D01*
X6953140Y1262468D01*
X6949695Y1236300D01*
X6953140Y1210132D01*
X6963241Y1185747D01*
X6979308Y1164808D01*
X7000248Y1148741D01*
X7024632Y1138640D01*
X7050800Y1135195D01*
X7075800D01*
X7094757Y1137691D01*
X7141059Y1091389D01*
X7132668Y1081820D01*
X7131476Y1082734D01*
X7104620Y1093858D01*
X7076000Y1097626D01*
Y999000D01*
X7185481D01*
X7183359Y1015120D01*
X7172234Y1041976D01*
X7171320Y1043167D01*
X7180889Y1051559D01*
X7598254Y634194D01*
X7616527Y621985D01*
X7638080Y617697D01*
X7638081Y617698D01*
X9912507D01*
X9914985Y605241D01*
X9907746Y602243D01*
X9872493Y578687D01*
X9842512Y548707D01*
X9818957Y513454D01*
X9802732Y474283D01*
X9794460Y432699D01*
Y390300D01*
X9802732Y348717D01*
X9818957Y309545D01*
X9842512Y274292D01*
X9872493Y244312D01*
X9907746Y220757D01*
X9946917Y204531D01*
X9988501Y196260D01*
X10030899D01*
X10072483Y204531D01*
X10111654Y220757D01*
X10146908Y244312D01*
X10176888Y274292D01*
X10200443Y309545D01*
X10216668Y348717D01*
X10224940Y390300D01*
Y432699D01*
X10216668Y474283D01*
X10200443Y513454D01*
X10176888Y548707D01*
X10146908Y578687D01*
X10111655Y602243D01*
X10110558Y616444D01*
X10111381Y617697D01*
X10132935Y621985D01*
X10151207Y634194D01*
X10295005Y777993D01*
X10295006Y777993D01*
X10307215Y796265D01*
X10311502Y817819D01*
Y1182018D01*
X10311503Y1182020D01*
X10307215Y1203573D01*
X10295006Y1221846D01*
X10295005Y1221846D01*
X10108378Y1408474D01*
X10109940Y1414303D01*
Y1440697D01*
X10103109Y1466191D01*
X10089912Y1489048D01*
X10071249Y1507711D01*
X10048391Y1520908D01*
X10022897Y1527740D01*
X9996503D01*
X9971009Y1520908D01*
X9948152Y1507711D01*
X9929488Y1489048D01*
X9916292Y1466191D01*
X9909460Y1440697D01*
Y1414303D01*
X9916292Y1388809D01*
X9929488Y1365951D01*
X9948152Y1347288D01*
X9971009Y1334091D01*
X9996503Y1327260D01*
X10022897D01*
X10028726Y1328822D01*
X10198858Y1158690D01*
Y1061645D01*
X10187125Y1056785D01*
X10104375Y1139535D01*
X10109940Y1160303D01*
Y1186697D01*
X10103109Y1212191D01*
X10089912Y1235048D01*
X10071249Y1253711D01*
X10048391Y1266908D01*
X10022897Y1273740D01*
X9996503D01*
X9971009Y1266908D01*
X9948152Y1253711D01*
X9929488Y1235048D01*
X9916292Y1212191D01*
X9909460Y1186697D01*
Y1160303D01*
X9916292Y1134809D01*
X9929488Y1111951D01*
X9948152Y1093288D01*
X9971009Y1080091D01*
X9996503Y1073260D01*
X10011346D01*
X10068839Y1015768D01*
X10061041Y1005605D01*
X10048391Y1012908D01*
X10022897Y1019740D01*
X9996503D01*
X9971009Y1012908D01*
X9948152Y999711D01*
X9929488Y981048D01*
X9916292Y958191D01*
X9909460Y932697D01*
Y906303D01*
X9916292Y880809D01*
X9929488Y857951D01*
X9948152Y839288D01*
X9949894Y838282D01*
X9946491Y825582D01*
X9818909D01*
X9815506Y838282D01*
X9817249Y839288D01*
X9835912Y857951D01*
X9849109Y880809D01*
X9855940Y906303D01*
Y932697D01*
X9849109Y958191D01*
X9835912Y981048D01*
X9817249Y999711D01*
X9794391Y1012908D01*
X9768897Y1019740D01*
X9742503D01*
X9717009Y1012908D01*
X9694152Y999711D01*
X9675488Y981048D01*
X9662292Y958191D01*
X9655460Y932697D01*
Y906303D01*
X9662292Y880809D01*
X9675488Y857951D01*
X9694152Y839288D01*
X9695894Y838282D01*
X9692491Y825582D01*
X7816169D01*
X7174409Y1467343D01*
X7176905Y1486300D01*
X7173460Y1512468D01*
X7163359Y1536852D01*
X7147292Y1557792D01*
X7126353Y1573859D01*
X7101968Y1583959D01*
X7075800Y1587404D01*
D02*
G37*
G36*
X3928234Y521900D02*
X3926400D01*
Y424200D01*
X4024100D01*
Y426034D01*
X4016576Y454113D01*
X4002042Y479287D01*
X3981487Y499842D01*
X3956313Y514376D01*
X3928234Y521900D01*
D02*
G37*
G36*
X3901000D02*
X3899166D01*
X3871087Y514376D01*
X3845913Y499842D01*
X3825358Y479287D01*
X3810824Y454113D01*
X3803300Y426034D01*
Y424200D01*
X3901000D01*
Y521900D01*
D02*
G37*
G36*
X3420234D02*
X3418400D01*
Y424200D01*
X3516100D01*
Y426034D01*
X3508576Y454113D01*
X3494042Y479287D01*
X3473487Y499842D01*
X3448313Y514376D01*
X3420234Y521900D01*
D02*
G37*
G36*
X3393000D02*
X3391166D01*
X3363087Y514376D01*
X3337913Y499842D01*
X3317358Y479287D01*
X3302824Y454113D01*
X3295300Y426034D01*
Y424200D01*
X3393000D01*
Y521900D01*
D02*
G37*
G36*
X9514897Y511740D02*
X9488503D01*
X9463009Y504908D01*
X9440152Y491711D01*
X9421488Y473048D01*
X9408292Y450191D01*
X9401460Y424697D01*
Y398303D01*
X9408292Y372809D01*
X9421488Y349951D01*
X9440152Y331288D01*
X9463009Y318091D01*
X9488503Y311260D01*
X9514897D01*
X9540391Y318091D01*
X9563249Y331288D01*
X9581912Y349951D01*
X9595109Y372809D01*
X9601940Y398303D01*
Y424697D01*
X9595109Y450191D01*
X9581912Y473048D01*
X9563249Y491711D01*
X9540391Y504908D01*
X9514897Y511740D01*
D02*
G37*
G36*
X9260897D02*
X9234503D01*
X9209009Y504908D01*
X9186152Y491711D01*
X9167488Y473048D01*
X9154292Y450191D01*
X9147460Y424697D01*
Y398303D01*
X9154292Y372809D01*
X9167488Y349951D01*
X9186152Y331288D01*
X9209009Y318091D01*
X9234503Y311260D01*
X9260897D01*
X9286391Y318091D01*
X9309249Y331288D01*
X9327912Y349951D01*
X9341109Y372809D01*
X9347940Y398303D01*
Y424697D01*
X9341109Y450191D01*
X9327912Y473048D01*
X9309249Y491711D01*
X9286391Y504908D01*
X9260897Y511740D01*
D02*
G37*
G36*
X9006897D02*
X8980503D01*
X8955009Y504908D01*
X8932152Y491711D01*
X8913488Y473048D01*
X8900292Y450191D01*
X8893460Y424697D01*
Y398303D01*
X8900292Y372809D01*
X8913488Y349951D01*
X8932152Y331288D01*
X8955009Y318091D01*
X8980503Y311260D01*
X9006897D01*
X9032391Y318091D01*
X9055249Y331288D01*
X9073912Y349951D01*
X9087109Y372809D01*
X9093940Y398303D01*
Y424697D01*
X9087109Y450191D01*
X9073912Y473048D01*
X9055249Y491711D01*
X9032391Y504908D01*
X9006897Y511740D01*
D02*
G37*
G36*
X8752897D02*
X8726503D01*
X8701009Y504908D01*
X8678152Y491711D01*
X8659488Y473048D01*
X8646292Y450191D01*
X8639460Y424697D01*
Y398303D01*
X8646292Y372809D01*
X8659488Y349951D01*
X8678152Y331288D01*
X8701009Y318091D01*
X8726503Y311260D01*
X8752897D01*
X8778391Y318091D01*
X8801249Y331288D01*
X8819912Y349951D01*
X8833109Y372809D01*
X8839940Y398303D01*
Y424697D01*
X8833109Y450191D01*
X8819912Y473048D01*
X8801249Y491711D01*
X8778391Y504908D01*
X8752897Y511740D01*
D02*
G37*
G36*
X8498897D02*
X8472503D01*
X8447009Y504908D01*
X8424152Y491711D01*
X8405488Y473048D01*
X8392292Y450191D01*
X8385460Y424697D01*
Y398303D01*
X8392292Y372809D01*
X8405488Y349951D01*
X8424152Y331288D01*
X8447009Y318091D01*
X8472503Y311260D01*
X8498897D01*
X8524391Y318091D01*
X8547249Y331288D01*
X8565912Y349951D01*
X8579109Y372809D01*
X8585940Y398303D01*
Y424697D01*
X8579109Y450191D01*
X8565912Y473048D01*
X8547249Y491711D01*
X8524391Y504908D01*
X8498897Y511740D01*
D02*
G37*
G36*
X8244897D02*
X8218503D01*
X8193009Y504908D01*
X8170152Y491711D01*
X8151488Y473048D01*
X8138292Y450191D01*
X8131460Y424697D01*
Y398303D01*
X8138292Y372809D01*
X8151488Y349951D01*
X8170152Y331288D01*
X8193009Y318091D01*
X8218503Y311260D01*
X8244897D01*
X8270391Y318091D01*
X8293249Y331288D01*
X8311912Y349951D01*
X8325109Y372809D01*
X8331940Y398303D01*
Y424697D01*
X8325109Y450191D01*
X8311912Y473048D01*
X8293249Y491711D01*
X8270391Y504908D01*
X8244897Y511740D01*
D02*
G37*
G36*
X7990897D02*
X7964503D01*
X7939009Y504908D01*
X7916152Y491711D01*
X7897488Y473048D01*
X7884292Y450191D01*
X7877460Y424697D01*
Y398303D01*
X7884292Y372809D01*
X7897488Y349951D01*
X7916152Y331288D01*
X7939009Y318091D01*
X7964503Y311260D01*
X7990897D01*
X8016391Y318091D01*
X8039249Y331288D01*
X8057912Y349951D01*
X8071109Y372809D01*
X8077940Y398303D01*
Y424697D01*
X8071109Y450191D01*
X8057912Y473048D01*
X8039249Y491711D01*
X8016391Y504908D01*
X7990897Y511740D01*
D02*
G37*
G36*
X7736897D02*
X7710503D01*
X7685009Y504908D01*
X7662152Y491711D01*
X7643488Y473048D01*
X7630292Y450191D01*
X7623460Y424697D01*
Y398303D01*
X7630292Y372809D01*
X7643488Y349951D01*
X7662152Y331288D01*
X7685009Y318091D01*
X7710503Y311260D01*
X7736897D01*
X7762391Y318091D01*
X7785249Y331288D01*
X7803912Y349951D01*
X7817109Y372809D01*
X7823940Y398303D01*
Y424697D01*
X7817109Y450191D01*
X7803912Y473048D01*
X7785249Y491711D01*
X7762391Y504908D01*
X7736897Y511740D01*
D02*
G37*
G36*
X7228897D02*
X7202503D01*
X7177009Y504908D01*
X7154152Y491711D01*
X7135488Y473048D01*
X7122292Y450191D01*
X7115460Y424697D01*
Y398303D01*
X7122292Y372809D01*
X7135488Y349951D01*
X7154152Y331288D01*
X7177009Y318091D01*
X7202503Y311260D01*
X7228897D01*
X7254391Y318091D01*
X7277249Y331288D01*
X7295912Y349951D01*
X7309109Y372809D01*
X7315940Y398303D01*
Y424697D01*
X7309109Y450191D01*
X7295912Y473048D01*
X7277249Y491711D01*
X7254391Y504908D01*
X7228897Y511740D01*
D02*
G37*
G36*
X6974897D02*
X6948503D01*
X6923009Y504908D01*
X6900152Y491711D01*
X6881488Y473048D01*
X6868292Y450191D01*
X6861460Y424697D01*
Y398303D01*
X6868292Y372809D01*
X6881488Y349951D01*
X6900152Y331288D01*
X6923009Y318091D01*
X6948503Y311260D01*
X6974897D01*
X7000391Y318091D01*
X7023249Y331288D01*
X7041912Y349951D01*
X7055109Y372809D01*
X7061940Y398303D01*
Y424697D01*
X7055109Y450191D01*
X7041912Y473048D01*
X7023249Y491711D01*
X7000391Y504908D01*
X6974897Y511740D01*
D02*
G37*
G36*
X6720897D02*
X6694503D01*
X6669009Y504908D01*
X6646152Y491711D01*
X6627488Y473048D01*
X6614292Y450191D01*
X6607460Y424697D01*
Y398303D01*
X6614292Y372809D01*
X6627488Y349951D01*
X6646152Y331288D01*
X6669009Y318091D01*
X6694503Y311260D01*
X6720897D01*
X6746391Y318091D01*
X6769249Y331288D01*
X6787912Y349951D01*
X6801109Y372809D01*
X6807940Y398303D01*
Y424697D01*
X6801109Y450191D01*
X6787912Y473048D01*
X6769249Y491711D01*
X6746391Y504908D01*
X6720897Y511740D01*
D02*
G37*
G36*
X6466897D02*
X6440503D01*
X6415009Y504908D01*
X6392152Y491711D01*
X6373488Y473048D01*
X6360292Y450191D01*
X6353460Y424697D01*
Y398303D01*
X6360292Y372809D01*
X6373488Y349951D01*
X6392152Y331288D01*
X6415009Y318091D01*
X6440503Y311260D01*
X6466897D01*
X6492391Y318091D01*
X6515249Y331288D01*
X6533912Y349951D01*
X6547109Y372809D01*
X6553940Y398303D01*
Y424697D01*
X6547109Y450191D01*
X6533912Y473048D01*
X6515249Y491711D01*
X6492391Y504908D01*
X6466897Y511740D01*
D02*
G37*
G36*
X6212897D02*
X6186503D01*
X6161009Y504908D01*
X6138152Y491711D01*
X6119488Y473048D01*
X6106292Y450191D01*
X6099460Y424697D01*
Y398303D01*
X6106292Y372809D01*
X6119488Y349951D01*
X6138152Y331288D01*
X6161009Y318091D01*
X6186503Y311260D01*
X6212897D01*
X6238391Y318091D01*
X6261249Y331288D01*
X6279912Y349951D01*
X6293109Y372809D01*
X6299940Y398303D01*
Y424697D01*
X6293109Y450191D01*
X6279912Y473048D01*
X6261249Y491711D01*
X6238391Y504908D01*
X6212897Y511740D01*
D02*
G37*
G36*
X5958897D02*
X5932503D01*
X5907009Y504908D01*
X5884152Y491711D01*
X5865488Y473048D01*
X5852292Y450191D01*
X5845460Y424697D01*
Y398303D01*
X5852292Y372809D01*
X5865488Y349951D01*
X5884152Y331288D01*
X5907009Y318091D01*
X5932503Y311260D01*
X5958897D01*
X5984391Y318091D01*
X6007249Y331288D01*
X6025912Y349951D01*
X6039109Y372809D01*
X6045940Y398303D01*
Y424697D01*
X6039109Y450191D01*
X6025912Y473048D01*
X6007249Y491711D01*
X5984391Y504908D01*
X5958897Y511740D01*
D02*
G37*
G36*
X5704897D02*
X5678503D01*
X5653009Y504908D01*
X5630152Y491711D01*
X5611488Y473048D01*
X5598292Y450191D01*
X5591460Y424697D01*
Y398303D01*
X5598292Y372809D01*
X5611488Y349951D01*
X5630152Y331288D01*
X5653009Y318091D01*
X5678503Y311260D01*
X5704897D01*
X5730391Y318091D01*
X5753249Y331288D01*
X5771912Y349951D01*
X5785109Y372809D01*
X5791940Y398303D01*
Y424697D01*
X5785109Y450191D01*
X5771912Y473048D01*
X5753249Y491711D01*
X5730391Y504908D01*
X5704897Y511740D01*
D02*
G37*
G36*
X5450897D02*
X5424503D01*
X5399009Y504908D01*
X5376152Y491711D01*
X5357488Y473048D01*
X5344292Y450191D01*
X5337460Y424697D01*
Y398303D01*
X5344292Y372809D01*
X5357488Y349951D01*
X5376152Y331288D01*
X5399009Y318091D01*
X5424503Y311260D01*
X5450897D01*
X5476391Y318091D01*
X5499249Y331288D01*
X5517912Y349951D01*
X5531109Y372809D01*
X5537940Y398303D01*
Y424697D01*
X5531109Y450191D01*
X5517912Y473048D01*
X5499249Y491711D01*
X5476391Y504908D01*
X5450897Y511740D01*
D02*
G37*
G36*
X4942897D02*
X4916503D01*
X4891009Y504908D01*
X4868152Y491711D01*
X4849488Y473048D01*
X4836292Y450191D01*
X4829460Y424697D01*
Y398303D01*
X4836292Y372809D01*
X4849488Y349951D01*
X4868152Y331288D01*
X4891009Y318091D01*
X4916503Y311260D01*
X4942897D01*
X4968391Y318091D01*
X4991249Y331288D01*
X5009912Y349951D01*
X5023109Y372809D01*
X5029940Y398303D01*
Y424697D01*
X5023109Y450191D01*
X5009912Y473048D01*
X4991249Y491711D01*
X4968391Y504908D01*
X4942897Y511740D01*
D02*
G37*
G36*
X4688897D02*
X4662503D01*
X4637009Y504908D01*
X4614152Y491711D01*
X4595488Y473048D01*
X4582292Y450191D01*
X4575460Y424697D01*
Y398303D01*
X4582292Y372809D01*
X4595488Y349951D01*
X4614152Y331288D01*
X4637009Y318091D01*
X4662503Y311260D01*
X4688897D01*
X4714391Y318091D01*
X4737249Y331288D01*
X4755912Y349951D01*
X4769109Y372809D01*
X4775940Y398303D01*
Y424697D01*
X4769109Y450191D01*
X4755912Y473048D01*
X4737249Y491711D01*
X4714391Y504908D01*
X4688897Y511740D01*
D02*
G37*
G36*
X4434897D02*
X4408503D01*
X4383009Y504908D01*
X4360152Y491711D01*
X4341488Y473048D01*
X4328292Y450191D01*
X4321460Y424697D01*
Y398303D01*
X4328292Y372809D01*
X4341488Y349951D01*
X4360152Y331288D01*
X4383009Y318091D01*
X4408503Y311260D01*
X4434897D01*
X4460391Y318091D01*
X4483249Y331288D01*
X4501912Y349951D01*
X4515109Y372809D01*
X4521940Y398303D01*
Y424697D01*
X4515109Y450191D01*
X4501912Y473048D01*
X4483249Y491711D01*
X4460391Y504908D01*
X4434897Y511740D01*
D02*
G37*
G36*
X4180897D02*
X4154503D01*
X4129009Y504908D01*
X4106152Y491711D01*
X4087488Y473048D01*
X4074292Y450191D01*
X4067460Y424697D01*
Y398303D01*
X4074292Y372809D01*
X4087488Y349951D01*
X4106152Y331288D01*
X4129009Y318091D01*
X4154503Y311260D01*
X4180897D01*
X4206391Y318091D01*
X4229249Y331288D01*
X4247912Y349951D01*
X4261109Y372809D01*
X4267940Y398303D01*
Y424697D01*
X4261109Y450191D01*
X4247912Y473048D01*
X4229249Y491711D01*
X4206391Y504908D01*
X4180897Y511740D01*
D02*
G37*
G36*
X3672897D02*
X3646503D01*
X3621009Y504908D01*
X3598152Y491711D01*
X3579488Y473048D01*
X3566292Y450191D01*
X3559460Y424697D01*
Y398303D01*
X3566292Y372809D01*
X3579488Y349951D01*
X3598152Y331288D01*
X3621009Y318091D01*
X3646503Y311260D01*
X3672897D01*
X3698391Y318091D01*
X3721249Y331288D01*
X3739912Y349951D01*
X3753109Y372809D01*
X3759940Y398303D01*
Y424697D01*
X3753109Y450191D01*
X3739912Y473048D01*
X3721249Y491711D01*
X3698391Y504908D01*
X3672897Y511740D01*
D02*
G37*
G36*
X3164897D02*
X3138503D01*
X3113009Y504908D01*
X3090152Y491711D01*
X3071488Y473048D01*
X3058292Y450191D01*
X3051460Y424697D01*
Y398303D01*
X3058292Y372809D01*
X3071488Y349951D01*
X3090152Y331288D01*
X3113009Y318091D01*
X3138503Y311260D01*
X3164897D01*
X3190391Y318091D01*
X3213249Y331288D01*
X3231912Y349951D01*
X3245109Y372809D01*
X3251940Y398303D01*
Y424697D01*
X3245109Y450191D01*
X3231912Y473048D01*
X3213249Y491711D01*
X3190391Y504908D01*
X3164897Y511740D01*
D02*
G37*
G36*
X4024100Y398800D02*
X3926400D01*
Y301100D01*
X3928234D01*
X3956313Y308623D01*
X3981487Y323158D01*
X4002042Y343713D01*
X4016576Y368887D01*
X4024100Y396965D01*
Y398800D01*
D02*
G37*
G36*
X3901000D02*
X3803300D01*
Y396965D01*
X3810824Y368887D01*
X3825358Y343713D01*
X3845913Y323158D01*
X3871087Y308623D01*
X3899166Y301100D01*
X3901000D01*
Y398800D01*
D02*
G37*
G36*
X3516100D02*
X3418400D01*
Y301100D01*
X3420234D01*
X3448313Y308623D01*
X3473487Y323158D01*
X3494042Y343713D01*
X3508576Y368887D01*
X3516100Y396965D01*
Y398800D01*
D02*
G37*
G36*
X3393000D02*
X3295300D01*
Y396965D01*
X3302824Y368887D01*
X3317358Y343713D01*
X3337913Y323158D01*
X3363087Y308623D01*
X3391166Y301100D01*
X3393000D01*
Y398800D01*
D02*
G37*
G36*
X1775899Y626740D02*
X1733501D01*
X1691917Y618468D01*
X1652746Y602243D01*
X1617493Y578687D01*
X1587512Y548707D01*
X1563957Y513454D01*
X1547732Y474283D01*
X1539460Y432699D01*
Y390300D01*
X1547732Y348717D01*
X1563957Y309545D01*
X1587512Y274292D01*
X1617493Y244312D01*
X1652746Y220757D01*
X1691917Y204531D01*
X1733501Y196260D01*
X1775899D01*
X1817483Y204531D01*
X1856654Y220757D01*
X1891908Y244312D01*
X1921888Y274292D01*
X1945443Y309545D01*
X1961668Y348717D01*
X1969940Y390300D01*
Y432699D01*
X1961668Y474283D01*
X1945443Y513454D01*
X1921888Y548707D01*
X1891908Y578687D01*
X1856654Y602243D01*
X1817483Y618468D01*
X1775899Y626740D01*
D02*
G37*
%LPD*%
D10*
X10009700Y1427500D02*
X10255180Y1182020D01*
Y817819D02*
Y1182020D01*
X10111381Y674020D02*
X10255180Y817819D01*
X7638080Y674020D02*
X10111381D01*
X7075800Y1236300D02*
X7638080Y674020D01*
X7063300Y1236300D02*
X7075800D01*
Y1986300D02*
X7634600Y1427500D01*
X10009700Y1154558D02*
X10159940Y1004318D01*
X7075800Y1736300D02*
X7638600Y1173500D01*
X9755700D01*
X10159940Y857269D02*
Y1004318D01*
X7792840Y769260D02*
X10071931D01*
X10159940Y857269D01*
X7634600Y1427500D02*
X9755700D01*
X10009700Y1154558D02*
Y1173500D01*
X7063300Y1486300D02*
X7075800D01*
X7792840Y769260D01*
X8003454Y1681500D02*
X9755700D01*
X7448654Y2236300D02*
X8003454Y1681500D01*
X7361628Y2486300D02*
X7966468Y1881459D01*
X9682718D01*
X9736758Y1935500D02*
X9755700D01*
X9682718Y1881459D02*
X9736758Y1935500D01*
X7063300Y1736300D02*
X7075800D01*
X7063300Y1986300D02*
X7075800D01*
X8772067Y2474040D02*
X9207934D01*
X8290354Y3281700D02*
X8867534Y2704520D01*
X8616352Y2466780D02*
X8724333Y2358799D01*
X9160200Y2589280D02*
X9234540Y2663620D01*
X8464406Y2781700D02*
X8772067Y2474040D01*
X8915268Y2819760D02*
X9064732D01*
X9467820Y2663620D02*
X9755700Y2951500D01*
X8724333Y2358799D02*
X9255668D01*
X9186806Y2778860D02*
X9329060D01*
X8867534Y2704520D02*
X9112466D01*
X9330008Y2433140D02*
X9745340D01*
X9190300Y2894100D02*
X9755700Y3459500D01*
X8730658Y2189500D02*
X9755700D01*
X8638459Y2281699D02*
X8730658Y2189500D01*
X8041200Y2281699D02*
X8638459D01*
X9112466Y2704520D02*
X9186806Y2778860D01*
X8819800Y2589280D02*
X9160200D01*
X9329060Y2778860D02*
X9755700Y3205500D01*
X9282274Y2548380D02*
X9587638D01*
X9234540Y2663620D02*
X9467820D01*
X9207934Y2474040D02*
X9282274Y2548380D01*
X9139072Y2894100D02*
X9190300D01*
X8377381Y3031700D02*
X8819800Y2589280D01*
X9745340Y2433140D02*
X9755700Y2443500D01*
X9255668Y2358799D02*
X9330008Y2433140D01*
X8558220Y3176808D02*
X8915268Y2819760D01*
X9064732D02*
X9139072Y2894100D01*
X9587638Y2548380D02*
X9736758Y2697500D01*
X7063300Y2486300D02*
X7361628D01*
X8551432Y2531700D02*
X8616352Y2466780D01*
X9736758Y2697500D02*
X9755700D01*
X7063300Y2236300D02*
X7448654D01*
X8041200Y2531700D02*
X8551432D01*
X8041200Y2781700D02*
X8464406D01*
X9262200Y3220000D02*
X9755700Y3713500D01*
X8990000Y3220000D02*
X9262200D01*
X8558220Y3176808D02*
Y3262180D01*
X8041200Y3031700D02*
X8377381D01*
X8288700Y3531700D02*
X8558220Y3262180D01*
X8041200Y3281700D02*
X8290354D01*
X8041200Y3531700D02*
X8288700D01*
X10346000Y1681500D02*
X10607500Y1420000D01*
X10009700Y1681500D02*
X10346000D01*
X10607500Y1420000D02*
X10620000D01*
X10009700Y1935500D02*
X10342000D01*
X10607500Y1670000D01*
X10620000D01*
X10338000Y2189500D02*
X10607500Y1920000D01*
X10009700Y2189500D02*
X10338000D01*
X10607500Y1920000D02*
X10620000D01*
X10009700Y2443500D02*
X10334000D01*
X10607500Y2170000D01*
X10620000D01*
X10009700Y2697500D02*
X10330000D01*
X10607500Y2420000D01*
X10620000D01*
X10326000Y2951500D02*
X10607500Y2670000D01*
X10620000D01*
X10009700Y2951500D02*
X10326000D01*
X9258200Y3470000D02*
X9755700Y3967500D01*
X8990000Y3470000D02*
X9258200D01*
X9254200Y3720000D02*
X9755700Y4221500D01*
X8990000Y3720000D02*
X9254200D01*
X8990000Y3970000D02*
X9250200D01*
X9755700Y4475500D01*
X8990000Y4220000D02*
X9246200D01*
X9755700Y4729500D01*
X8990000Y4470000D02*
X9242200D01*
X9755700Y4983500D01*
X6020000Y5057800D02*
X6199700Y5237500D01*
X6020000Y4330000D02*
Y5057800D01*
X5770000Y5061800D02*
X5945700Y5237500D01*
X5770000Y4330000D02*
Y5061800D01*
X5520000Y5065800D02*
X5691700Y5237500D01*
X5520000Y4330000D02*
Y5065800D01*
X5270000Y4330000D02*
Y5069800D01*
X5437700Y5237500D01*
X5020000Y4330000D02*
Y5068860D01*
X5183700Y5232560D01*
Y5237500D01*
X4770000Y5064860D02*
X4929700Y5224560D01*
Y5237500D01*
X4770000Y4330000D02*
Y5064860D01*
X4521650Y5235850D02*
X4523300Y5237500D01*
X4521650Y4331650D02*
Y5235850D01*
X4520000Y4330000D02*
X4521650Y4331650D01*
X4269650Y4330350D02*
Y5237150D01*
Y4330350D02*
X4270000Y4330000D01*
X4269300Y5237500D02*
X4269650Y5237150D01*
X4015300Y5237500D02*
X4017650Y5235150D01*
Y4332350D02*
X4020000Y4330000D01*
X4017650Y4332350D02*
Y5235150D01*
X3765650Y4334350D02*
X3770000Y4330000D01*
X3765650Y4334350D02*
Y5233150D01*
X3761300Y5237500D02*
X3765650Y5233150D01*
X3513650Y4336350D02*
Y5231150D01*
X3507300Y5237500D02*
X3513650Y5231150D01*
Y4336350D02*
X3520000Y4330000D01*
X3253300Y5237500D02*
X3261650Y5229150D01*
Y4338350D02*
X3270000Y4330000D01*
X3261650Y4338350D02*
Y5229150D01*
X2491300Y5237500D02*
X3020000Y4708800D01*
Y4330000D02*
Y4708800D01*
X2237300Y5237500D02*
X2770000Y4704800D01*
Y4330000D02*
Y4704800D01*
D11*
X3151700Y411500D02*
D03*
X3659700D02*
D03*
X3913700D02*
D03*
X4167700D02*
D03*
X4421700D02*
D03*
X4675700D02*
D03*
X4929700D02*
D03*
X5437700D02*
D03*
X5691700D02*
D03*
X5945700D02*
D03*
X6199700D02*
D03*
X6453700D02*
D03*
X6707700D02*
D03*
X6961700D02*
D03*
X7215700D02*
D03*
X8485700D02*
D03*
X3405700D02*
D03*
X7723700D02*
D03*
X7977700D02*
D03*
X8231700D02*
D03*
X8739700D02*
D03*
X8993700D02*
D03*
X9247700D02*
D03*
X9501700D02*
D03*
X9755700Y5237500D02*
D03*
X10009700D02*
D03*
X9755700Y4983500D02*
D03*
X10009700D02*
D03*
X9755700Y4729500D02*
D03*
X10009700D02*
D03*
X9755700Y4475500D02*
D03*
X10009700D02*
D03*
X9755700Y4221500D02*
D03*
X10009700D02*
D03*
X9755700Y3967500D02*
D03*
X10009700D02*
D03*
X9755700Y3713500D02*
D03*
X10009700D02*
D03*
X9755700Y3459500D02*
D03*
X10009700D02*
D03*
X9755700Y3205500D02*
D03*
X10009700D02*
D03*
X9755700Y2951500D02*
D03*
X10009700D02*
D03*
X9755700Y2697500D02*
D03*
X10009700D02*
D03*
X9755700Y2443500D02*
D03*
X10009700D02*
D03*
X9755700Y2189500D02*
D03*
X10009700D02*
D03*
X9755700Y1935500D02*
D03*
X10009700D02*
D03*
X9755700Y1681500D02*
D03*
X10009700D02*
D03*
X9755700Y1427500D02*
D03*
X10009700D02*
D03*
X9755700Y1173500D02*
D03*
Y919500D02*
D03*
X10009700D02*
D03*
X8993700Y5237500D02*
D03*
X8739700D02*
D03*
X8485700D02*
D03*
X8231700D02*
D03*
X7977700D02*
D03*
X7723700D02*
D03*
X7469700D02*
D03*
X7215700D02*
D03*
X6707700D02*
D03*
X6453700D02*
D03*
X6199700D02*
D03*
X5945700D02*
D03*
X5691700D02*
D03*
X5437700D02*
D03*
X5183700D02*
D03*
X4929700D02*
D03*
X4523300D02*
D03*
X4269300D02*
D03*
X4015300D02*
D03*
X3761300D02*
D03*
X3507300D02*
D03*
X3253300D02*
D03*
X2999300D02*
D03*
X2745300D02*
D03*
X2491300D02*
D03*
X2237300D02*
D03*
X10009700Y1173500D02*
D03*
D12*
Y411500D02*
D03*
X9374700Y5237500D02*
D03*
X1881700D02*
D03*
X1754700Y411500D02*
D03*
D13*
X10620000Y2920000D02*
D03*
Y2670000D02*
D03*
Y2420000D02*
D03*
Y2170000D02*
D03*
Y1920000D02*
D03*
Y1670000D02*
D03*
Y1420000D02*
D03*
X7063300Y986300D02*
D03*
Y1236300D02*
D03*
Y1486300D02*
D03*
Y1736300D02*
D03*
Y1986300D02*
D03*
Y2236300D02*
D03*
Y2486300D02*
D03*
X8041200Y2031700D02*
D03*
Y2281700D02*
D03*
Y2531700D02*
D03*
Y2781700D02*
D03*
Y3031700D02*
D03*
Y3281700D02*
D03*
Y3531700D02*
D03*
X8990000Y2970000D02*
D03*
Y3220000D02*
D03*
Y3470000D02*
D03*
Y3720000D02*
D03*
Y3970000D02*
D03*
Y4220000D02*
D03*
Y4470000D02*
D03*
D14*
X10620000Y1170000D02*
D03*
X7063300Y2736300D02*
D03*
X8041200Y3781700D02*
D03*
X8990000Y4720000D02*
D03*
D15*
X6270000Y4330000D02*
D03*
D16*
X6020000D02*
D03*
X5770000D02*
D03*
X5520000D02*
D03*
X5270000D02*
D03*
X5020000D02*
D03*
X4770000D02*
D03*
X4520000D02*
D03*
X4270000D02*
D03*
X4020000D02*
D03*
X3770000D02*
D03*
X3520000D02*
D03*
X3270000D02*
D03*
X3020000D02*
D03*
X2770000D02*
D03*
X2520000D02*
D03*
%TF.MD5,eade03f3ab9769bf921914ece6f303fc*%
M02*
