%TF.GenerationSoftware,Altium Limited,Altium Designer,21.3.2 (30)*%
G04 Layer_Color=2752767*
%FSLAX45Y45*%
%MOMM*%
%TF.SameCoordinates,699C74A5-B4CE-432A-A201-728FBB0A9CBA*%
%TF.FilePolarity,Positive*%
%TF.FileFunction,Drawing*%
%TF.Part,Single*%
G01*
G75*
%TA.AperFunction,NonConductor*%
%ADD31C,0.12700*%
%ADD32C,0.16933*%
D31*
X3100900Y360700D02*
Y462300D01*
X3202500D01*
Y360700D01*
X3100900D01*
X3608900D02*
Y462300D01*
X3710500D01*
Y360700D01*
X3608900D01*
X3862900D02*
Y462300D01*
X3964500D01*
Y360700D01*
X3862900D01*
X4116900D02*
Y462300D01*
X4218500D01*
Y360700D01*
X4116900D01*
X4370900D02*
Y462300D01*
X4472500D01*
Y360700D01*
X4370900D01*
X4624900D02*
Y462300D01*
X4726500D01*
Y360700D01*
X4624900D01*
X4878900D02*
Y462300D01*
X4980500D01*
Y360700D01*
X4878900D01*
X5386900D02*
Y462300D01*
X5488500D01*
Y360700D01*
X5386900D01*
X5640900D02*
Y462300D01*
X5742500D01*
Y360700D01*
X5640900D01*
X5894900D02*
Y462300D01*
X5996500D01*
Y360700D01*
X5894900D01*
X6148900D02*
Y462300D01*
X6250500D01*
Y360700D01*
X6148900D01*
X6402900D02*
Y462300D01*
X6504500D01*
Y360700D01*
X6402900D01*
X6656900D02*
Y462300D01*
X6758500D01*
Y360700D01*
X6656900D01*
X6910900D02*
Y462300D01*
X7012500D01*
Y360700D01*
X6910900D01*
X7164900D02*
Y462300D01*
X7266500D01*
Y360700D01*
X7164900D01*
X8434900D02*
Y462300D01*
X8536500D01*
Y360700D01*
X8434900D01*
X3354900D02*
Y462300D01*
X3456500D01*
Y360700D01*
X3354900D01*
X7672900D02*
Y462300D01*
X7774500D01*
Y360700D01*
X7672900D01*
X7926900D02*
Y462300D01*
X8028500D01*
Y360700D01*
X7926900D01*
X8180900D02*
Y462300D01*
X8282500D01*
Y360700D01*
X8180900D01*
X8688900D02*
Y462300D01*
X8790500D01*
Y360700D01*
X8688900D01*
X8942900D02*
Y462300D01*
X9044500D01*
Y360700D01*
X8942900D01*
X9196900D02*
Y462300D01*
X9298500D01*
Y360700D01*
X9196900D01*
X9450900D02*
Y462300D01*
X9552500D01*
Y360700D01*
X9450900D01*
X9704900Y5186700D02*
Y5288300D01*
X9806500D01*
Y5186700D01*
X9704900D01*
X9958900D02*
Y5288300D01*
X10060500D01*
Y5186700D01*
X9958900D01*
X9704900Y4932700D02*
Y5034300D01*
X9806500D01*
Y4932700D01*
X9704900D01*
X9958900D02*
Y5034300D01*
X10060500D01*
Y4932700D01*
X9958900D01*
X9704900Y4678700D02*
Y4780300D01*
X9806500D01*
Y4678700D01*
X9704900D01*
X9958900D02*
Y4780300D01*
X10060500D01*
Y4678700D01*
X9958900D01*
X9704900Y4424700D02*
Y4526300D01*
X9806500D01*
Y4424700D01*
X9704900D01*
X9958900D02*
Y4526300D01*
X10060500D01*
Y4424700D01*
X9958900D01*
X9704900Y4170700D02*
Y4272300D01*
X9806500D01*
Y4170700D01*
X9704900D01*
X9958900D02*
Y4272300D01*
X10060500D01*
Y4170700D01*
X9958900D01*
X9704900Y3916700D02*
Y4018300D01*
X9806500D01*
Y3916700D01*
X9704900D01*
X9958900D02*
Y4018300D01*
X10060500D01*
Y3916700D01*
X9958900D01*
X9704900Y3662700D02*
Y3764300D01*
X9806500D01*
Y3662700D01*
X9704900D01*
X9958900D02*
Y3764300D01*
X10060500D01*
Y3662700D01*
X9958900D01*
X9704900Y3408700D02*
Y3510300D01*
X9806500D01*
Y3408700D01*
X9704900D01*
X9958900D02*
Y3510300D01*
X10060500D01*
Y3408700D01*
X9958900D01*
X9704900Y3154700D02*
Y3256300D01*
X9806500D01*
Y3154700D01*
X9704900D01*
X9958900D02*
Y3256300D01*
X10060500D01*
Y3154700D01*
X9958900D01*
X9704900Y2900700D02*
Y3002300D01*
X9806500D01*
Y2900700D01*
X9704900D01*
X9958900D02*
Y3002300D01*
X10060500D01*
Y2900700D01*
X9958900D01*
X9704900Y2646700D02*
Y2748300D01*
X9806500D01*
Y2646700D01*
X9704900D01*
X9958900D02*
Y2748300D01*
X10060500D01*
Y2646700D01*
X9958900D01*
X9704900Y2392700D02*
Y2494300D01*
X9806500D01*
Y2392700D01*
X9704900D01*
X9958900D02*
Y2494300D01*
X10060500D01*
Y2392700D01*
X9958900D01*
X9704900Y2138700D02*
Y2240300D01*
X9806500D01*
Y2138700D01*
X9704900D01*
X9958900D02*
Y2240300D01*
X10060500D01*
Y2138700D01*
X9958900D01*
X9704900Y1884700D02*
Y1986300D01*
X9806500D01*
Y1884700D01*
X9704900D01*
X9958900D02*
Y1986300D01*
X10060500D01*
Y1884700D01*
X9958900D01*
X9704900Y1630700D02*
Y1732300D01*
X9806500D01*
Y1630700D01*
X9704900D01*
X9958900D02*
Y1732300D01*
X10060500D01*
Y1630700D01*
X9958900D01*
X9704900Y1376700D02*
Y1478300D01*
X9806500D01*
Y1376700D01*
X9704900D01*
X9958900D02*
Y1478300D01*
X10060500D01*
Y1376700D01*
X9958900D01*
X9704900Y1122700D02*
Y1224300D01*
X9806500D01*
Y1122700D01*
X9704900D01*
Y868700D02*
Y970300D01*
X9806500D01*
Y868700D01*
X9704900D01*
X9958900D02*
Y970300D01*
X10060500D01*
Y868700D01*
X9958900D01*
X8942900Y5186700D02*
Y5288300D01*
X9044500D01*
Y5186700D01*
X8942900D01*
X8688900D02*
Y5288300D01*
X8790500D01*
Y5186700D01*
X8688900D01*
X8434900D02*
Y5288300D01*
X8536500D01*
Y5186700D01*
X8434900D01*
X8180900D02*
Y5288300D01*
X8282500D01*
Y5186700D01*
X8180900D01*
X7926900D02*
Y5288300D01*
X8028500D01*
Y5186700D01*
X7926900D01*
X7672900D02*
Y5288300D01*
X7774500D01*
Y5186700D01*
X7672900D01*
X7418900D02*
Y5288300D01*
X7520500D01*
Y5186700D01*
X7418900D01*
X7164900D02*
Y5288300D01*
X7266500D01*
Y5186700D01*
X7164900D01*
X6656900D02*
Y5288300D01*
X6758500D01*
Y5186700D01*
X6656900D01*
X6402900D02*
Y5288300D01*
X6504500D01*
Y5186700D01*
X6402900D01*
X6148900D02*
Y5288300D01*
X6250500D01*
Y5186700D01*
X6148900D01*
X5894900D02*
Y5288300D01*
X5996500D01*
Y5186700D01*
X5894900D01*
X5640900D02*
Y5288300D01*
X5742500D01*
Y5186700D01*
X5640900D01*
X5386900D02*
Y5288300D01*
X5488500D01*
Y5186700D01*
X5386900D01*
X5132900D02*
Y5288300D01*
X5234500D01*
Y5186700D01*
X5132900D01*
X4878900D02*
Y5288300D01*
X4980500D01*
Y5186700D01*
X4878900D01*
X4472500D02*
Y5288300D01*
X4574100D01*
Y5186700D01*
X4472500D01*
X4218500D02*
Y5288300D01*
X4320100D01*
Y5186700D01*
X4218500D01*
X3964500D02*
Y5288300D01*
X4066100D01*
Y5186700D01*
X3964500D01*
X3710500D02*
Y5288300D01*
X3812100D01*
Y5186700D01*
X3710500D01*
X3456500D02*
Y5288300D01*
X3558100D01*
Y5186700D01*
X3456500D01*
X3202500D02*
Y5288300D01*
X3304100D01*
Y5186700D01*
X3202500D01*
X2948500D02*
Y5288300D01*
X3050100D01*
Y5186700D01*
X2948500D01*
X2694500D02*
Y5288300D01*
X2796100D01*
Y5186700D01*
X2694500D01*
X2440500D02*
Y5288300D01*
X2542100D01*
Y5186700D01*
X2440500D01*
X2186500D02*
Y5288300D01*
X2288100D01*
Y5186700D01*
X2186500D01*
X9958900Y1122700D02*
Y1224300D01*
X10060500D01*
Y1122700D01*
X9958900D01*
X10569200Y2869200D02*
Y2970800D01*
X10670800D01*
Y2869200D01*
X10569200D01*
Y2619200D02*
Y2720800D01*
X10670800D01*
Y2619200D01*
X10569200D01*
Y2369200D02*
Y2470800D01*
X10670800D01*
Y2369200D01*
X10569200D01*
Y2119200D02*
Y2220800D01*
X10670800D01*
Y2119200D01*
X10569200D01*
Y1869200D02*
Y1970800D01*
X10670800D01*
Y1869200D01*
X10569200D01*
Y1619200D02*
Y1720800D01*
X10670800D01*
Y1619200D01*
X10569200D01*
Y1369200D02*
Y1470800D01*
X10670800D01*
Y1369200D01*
X10569200D01*
Y1119200D02*
Y1220800D01*
X10670800D01*
Y1119200D01*
X10569200D01*
X7012500Y935500D02*
Y1037100D01*
X7114100D01*
Y935500D01*
X7012500D01*
Y1185500D02*
Y1287100D01*
X7114100D01*
Y1185500D01*
X7012500D01*
Y1435500D02*
Y1537100D01*
X7114100D01*
Y1435500D01*
X7012500D01*
Y1685500D02*
Y1787100D01*
X7114100D01*
Y1685500D01*
X7012500D01*
Y1935500D02*
Y2037100D01*
X7114100D01*
Y1935500D01*
X7012500D01*
Y2185500D02*
Y2287100D01*
X7114100D01*
Y2185500D01*
X7012500D01*
Y2435500D02*
Y2537100D01*
X7114100D01*
Y2435500D01*
X7012500D01*
Y2685500D02*
Y2787100D01*
X7114100D01*
Y2685500D01*
X7012500D01*
X7990400Y1980900D02*
Y2082500D01*
X8092000D01*
Y1980900D01*
X7990400D01*
Y2230900D02*
Y2332500D01*
X8092000D01*
Y2230900D01*
X7990400D01*
Y2480900D02*
Y2582500D01*
X8092000D01*
Y2480900D01*
X7990400D01*
Y2730900D02*
Y2832500D01*
X8092000D01*
Y2730900D01*
X7990400D01*
Y2980900D02*
Y3082500D01*
X8092000D01*
Y2980900D01*
X7990400D01*
Y3230900D02*
Y3332500D01*
X8092000D01*
Y3230900D01*
X7990400D01*
Y3480900D02*
Y3582500D01*
X8092000D01*
Y3480900D01*
X7990400D01*
Y3730900D02*
Y3832500D01*
X8092000D01*
Y3730900D01*
X7990400D01*
X6219200Y4279200D02*
Y4380800D01*
X6320800D01*
Y4279200D01*
X6219200D01*
X5969200D02*
Y4380800D01*
X6070800D01*
Y4279200D01*
X5969200D01*
X5719200D02*
Y4380800D01*
X5820800D01*
Y4279200D01*
X5719200D01*
X5469200D02*
Y4380800D01*
X5570800D01*
Y4279200D01*
X5469200D01*
X5219200D02*
Y4380800D01*
X5320800D01*
Y4279200D01*
X5219200D01*
X4969200D02*
Y4380800D01*
X5070800D01*
Y4279200D01*
X4969200D01*
X4719200D02*
Y4380800D01*
X4820800D01*
Y4279200D01*
X4719200D01*
X4469200D02*
Y4380800D01*
X4570800D01*
Y4279200D01*
X4469200D01*
X4219200D02*
Y4380800D01*
X4320800D01*
Y4279200D01*
X4219200D01*
X3969200D02*
Y4380800D01*
X4070800D01*
Y4279200D01*
X3969200D01*
X3719200D02*
Y4380800D01*
X3820800D01*
Y4279200D01*
X3719200D01*
X3469200D02*
Y4380800D01*
X3570800D01*
Y4279200D01*
X3469200D01*
X3219200D02*
Y4380800D01*
X3320800D01*
Y4279200D01*
X3219200D01*
X2969200D02*
Y4380800D01*
X3070800D01*
Y4279200D01*
X2969200D01*
X2719200D02*
Y4380800D01*
X2820800D01*
Y4279200D01*
X2719200D01*
X2469200D02*
Y4380800D01*
X2570800D01*
Y4279200D01*
X2469200D01*
X8939200Y2919200D02*
Y3020800D01*
X9040800D01*
Y2919200D01*
X8939200D01*
Y3169200D02*
Y3270800D01*
X9040800D01*
Y3169200D01*
X8939200D01*
Y3419200D02*
Y3520800D01*
X9040800D01*
Y3419200D01*
X8939200D01*
Y3669200D02*
Y3770800D01*
X9040800D01*
Y3669200D01*
X8939200D01*
Y3919200D02*
Y4020800D01*
X9040800D01*
Y3919200D01*
X8939200D01*
Y4169200D02*
Y4270800D01*
X9040800D01*
Y4169200D01*
X8939200D01*
Y4419200D02*
Y4520800D01*
X9040800D01*
Y4419200D01*
X8939200D01*
Y4669200D02*
Y4770800D01*
X9040800D01*
Y4669200D01*
X8939200D01*
D32*
X10060500Y411500D02*
G03*
X10060500Y411500I-50800J0D01*
G01*
X9425500Y5237500D02*
G03*
X9425500Y5237500I-50800J0D01*
G01*
X1932500D02*
G03*
X1932500Y5237500I-50800J0D01*
G01*
X1805500Y411500D02*
G03*
X1805500Y411500I-50800J0D01*
G01*
%TF.MD5,cda818d965778df36561d0b4a2c4fcbd*%
M02*
