%TF.GenerationSoftware,Altium Limited,Altium Designer,21.3.2 (30)*%
G04 Layer_Color=128*
%FSLAX45Y45*%
%MOMM*%
%TF.SameCoordinates,699C74A5-B4CE-432A-A201-728FBB0A9CBA*%
%TF.FilePolarity,Positive*%
%TF.FileFunction,Drillmap*%
%TF.Part,Single*%
G01*
G75*
%TA.AperFunction,NonConductor*%
%ADD31C,0.12700*%
D31*
X3104200Y411500D02*
X3199200D01*
X3151700Y364000D02*
Y459000D01*
X3612200Y411500D02*
X3707200D01*
X3659700Y364000D02*
Y459000D01*
X3866200Y411500D02*
X3961200D01*
X3913700Y364000D02*
Y459000D01*
X4120200Y411500D02*
X4215200D01*
X4167700Y364000D02*
Y459000D01*
X4374200Y411500D02*
X4469200D01*
X4421700Y364000D02*
Y459000D01*
X4628200Y411500D02*
X4723200D01*
X4675700Y364000D02*
Y459000D01*
X4882200Y411500D02*
X4977200D01*
X4929700Y364000D02*
Y459000D01*
X5390200Y411500D02*
X5485200D01*
X5437700Y364000D02*
Y459000D01*
X5644200Y411500D02*
X5739200D01*
X5691700Y364000D02*
Y459000D01*
X5898200Y411500D02*
X5993200D01*
X5945700Y364000D02*
Y459000D01*
X6152200Y411500D02*
X6247200D01*
X6199700Y364000D02*
Y459000D01*
X6406200Y411500D02*
X6501200D01*
X6453700Y364000D02*
Y459000D01*
X6660200Y411500D02*
X6755200D01*
X6707700Y364000D02*
Y459000D01*
X6914200Y411500D02*
X7009200D01*
X6961700Y364000D02*
Y459000D01*
X7168200Y411500D02*
X7263200D01*
X7215700Y364000D02*
Y459000D01*
X8438200Y411500D02*
X8533200D01*
X8485700Y364000D02*
Y459000D01*
X3358200Y411500D02*
X3453200D01*
X3405700Y364000D02*
Y459000D01*
X7676200Y411500D02*
X7771200D01*
X7723700Y364000D02*
Y459000D01*
X7930200Y411500D02*
X8025200D01*
X7977700Y364000D02*
Y459000D01*
X8184200Y411500D02*
X8279200D01*
X8231700Y364000D02*
Y459000D01*
X8692200Y411500D02*
X8787200D01*
X8739700Y364000D02*
Y459000D01*
X8946200Y411500D02*
X9041200D01*
X8993700Y364000D02*
Y459000D01*
X9200200Y411500D02*
X9295200D01*
X9247700Y364000D02*
Y459000D01*
X9454200Y411500D02*
X9549200D01*
X9501700Y364000D02*
Y459000D01*
X9708200Y5237500D02*
X9803200D01*
X9755700Y5190000D02*
Y5285000D01*
X9962200Y5237500D02*
X10057200D01*
X10009700Y5190000D02*
Y5285000D01*
X9708200Y4983500D02*
X9803200D01*
X9755700Y4936000D02*
Y5031000D01*
X9962200Y4983500D02*
X10057200D01*
X10009700Y4936000D02*
Y5031000D01*
X9708200Y4729500D02*
X9803200D01*
X9755700Y4682000D02*
Y4777000D01*
X9962200Y4729500D02*
X10057200D01*
X10009700Y4682000D02*
Y4777000D01*
X9708200Y4475500D02*
X9803200D01*
X9755700Y4428000D02*
Y4523000D01*
X9962200Y4475500D02*
X10057200D01*
X10009700Y4428000D02*
Y4523000D01*
X9708200Y4221500D02*
X9803200D01*
X9755700Y4174000D02*
Y4269000D01*
X9962200Y4221500D02*
X10057200D01*
X10009700Y4174000D02*
Y4269000D01*
X9708200Y3967500D02*
X9803200D01*
X9755700Y3920000D02*
Y4015000D01*
X9962200Y3967500D02*
X10057200D01*
X10009700Y3920000D02*
Y4015000D01*
X9708200Y3713500D02*
X9803200D01*
X9755700Y3666000D02*
Y3761000D01*
X9962200Y3713500D02*
X10057200D01*
X10009700Y3666000D02*
Y3761000D01*
X9708200Y3459500D02*
X9803200D01*
X9755700Y3412000D02*
Y3507000D01*
X9962200Y3459500D02*
X10057200D01*
X10009700Y3412000D02*
Y3507000D01*
X9708200Y3205500D02*
X9803200D01*
X9755700Y3158000D02*
Y3253000D01*
X9962200Y3205500D02*
X10057200D01*
X10009700Y3158000D02*
Y3253000D01*
X9708200Y2951500D02*
X9803200D01*
X9755700Y2904000D02*
Y2999000D01*
X9962200Y2951500D02*
X10057200D01*
X10009700Y2904000D02*
Y2999000D01*
X9708200Y2697500D02*
X9803200D01*
X9755700Y2650000D02*
Y2745000D01*
X9962200Y2697500D02*
X10057200D01*
X10009700Y2650000D02*
Y2745000D01*
X9708200Y2443500D02*
X9803200D01*
X9755700Y2396000D02*
Y2491000D01*
X9962200Y2443500D02*
X10057200D01*
X10009700Y2396000D02*
Y2491000D01*
X9708200Y2189500D02*
X9803200D01*
X9755700Y2142000D02*
Y2237000D01*
X9962200Y2189500D02*
X10057200D01*
X10009700Y2142000D02*
Y2237000D01*
X9708200Y1935500D02*
X9803200D01*
X9755700Y1888000D02*
Y1983000D01*
X9962200Y1935500D02*
X10057200D01*
X10009700Y1888000D02*
Y1983000D01*
X9708200Y1681500D02*
X9803200D01*
X9755700Y1634000D02*
Y1729000D01*
X9962200Y1681500D02*
X10057200D01*
X10009700Y1634000D02*
Y1729000D01*
X9708200Y1427500D02*
X9803200D01*
X9755700Y1380000D02*
Y1475000D01*
X9962200Y1427500D02*
X10057200D01*
X10009700Y1380000D02*
Y1475000D01*
X9708200Y1173500D02*
X9803200D01*
X9755700Y1126000D02*
Y1221000D01*
X9708200Y919500D02*
X9803200D01*
X9755700Y872000D02*
Y967000D01*
X9962200Y919500D02*
X10057200D01*
X10009700Y872000D02*
Y967000D01*
X8946200Y5237500D02*
X9041200D01*
X8993700Y5190000D02*
Y5285000D01*
X8692200Y5237500D02*
X8787200D01*
X8739700Y5190000D02*
Y5285000D01*
X8438200Y5237500D02*
X8533200D01*
X8485700Y5190000D02*
Y5285000D01*
X8184200Y5237500D02*
X8279200D01*
X8231700Y5190000D02*
Y5285000D01*
X7930200Y5237500D02*
X8025200D01*
X7977700Y5190000D02*
Y5285000D01*
X7676200Y5237500D02*
X7771200D01*
X7723700Y5190000D02*
Y5285000D01*
X7422200Y5237500D02*
X7517200D01*
X7469700Y5190000D02*
Y5285000D01*
X7168200Y5237500D02*
X7263200D01*
X7215700Y5190000D02*
Y5285000D01*
X6660200Y5237500D02*
X6755200D01*
X6707700Y5190000D02*
Y5285000D01*
X6406200Y5237500D02*
X6501200D01*
X6453700Y5190000D02*
Y5285000D01*
X6152200Y5237500D02*
X6247200D01*
X6199700Y5190000D02*
Y5285000D01*
X5898200Y5237500D02*
X5993200D01*
X5945700Y5190000D02*
Y5285000D01*
X5644200Y5237500D02*
X5739200D01*
X5691700Y5190000D02*
Y5285000D01*
X5390200Y5237500D02*
X5485200D01*
X5437700Y5190000D02*
Y5285000D01*
X5136200Y5237500D02*
X5231200D01*
X5183700Y5190000D02*
Y5285000D01*
X4882200Y5237500D02*
X4977200D01*
X4929700Y5190000D02*
Y5285000D01*
X4475800Y5237500D02*
X4570800D01*
X4523300Y5190000D02*
Y5285000D01*
X4221800Y5237500D02*
X4316800D01*
X4269300Y5190000D02*
Y5285000D01*
X3967800Y5237500D02*
X4062800D01*
X4015300Y5190000D02*
Y5285000D01*
X3713800Y5237500D02*
X3808800D01*
X3761300Y5190000D02*
Y5285000D01*
X3459800Y5237500D02*
X3554800D01*
X3507300Y5190000D02*
Y5285000D01*
X3205800Y5237500D02*
X3300800D01*
X3253300Y5190000D02*
Y5285000D01*
X2951800Y5237500D02*
X3046800D01*
X2999300Y5190000D02*
Y5285000D01*
X2697800Y5237500D02*
X2792800D01*
X2745300Y5190000D02*
Y5285000D01*
X2443800Y5237500D02*
X2538800D01*
X2491300Y5190000D02*
Y5285000D01*
X2189800Y5237500D02*
X2284800D01*
X2237300Y5190000D02*
Y5285000D01*
X9834700Y411500D02*
X10184700D01*
X10009700Y236500D02*
Y586500D01*
X9962200Y1173500D02*
X10057200D01*
X10009700Y1126000D02*
Y1221000D01*
X9199700Y5237500D02*
X9549700D01*
X9374700Y5062500D02*
Y5412500D01*
X1706700Y5237500D02*
X2056700D01*
X1881700Y5062500D02*
Y5412500D01*
X1579700Y411500D02*
X1929700D01*
X1754700Y236500D02*
Y586500D01*
X10572500Y2920000D02*
X10667500D01*
X10620000Y2872500D02*
Y2967500D01*
X10572500Y2670000D02*
X10667500D01*
X10620000Y2622500D02*
Y2717500D01*
X10572500Y2420000D02*
X10667500D01*
X10620000Y2372500D02*
Y2467500D01*
X10572500Y2170000D02*
X10667500D01*
X10620000Y2122500D02*
Y2217500D01*
X10572500Y1920000D02*
X10667500D01*
X10620000Y1872500D02*
Y1967500D01*
X10572500Y1670000D02*
X10667500D01*
X10620000Y1622500D02*
Y1717500D01*
X10572500Y1420000D02*
X10667500D01*
X10620000Y1372500D02*
Y1467500D01*
X10572500Y1170000D02*
X10667500D01*
X10620000Y1122500D02*
Y1217500D01*
X7015800Y986300D02*
X7110800D01*
X7063300Y938800D02*
Y1033800D01*
X7015800Y1236300D02*
X7110800D01*
X7063300Y1188800D02*
Y1283800D01*
X7015800Y1486300D02*
X7110800D01*
X7063300Y1438800D02*
Y1533800D01*
X7015800Y1736300D02*
X7110800D01*
X7063300Y1688800D02*
Y1783800D01*
X7015800Y1986300D02*
X7110800D01*
X7063300Y1938800D02*
Y2033800D01*
X7015800Y2236300D02*
X7110800D01*
X7063300Y2188800D02*
Y2283800D01*
X7015800Y2486300D02*
X7110800D01*
X7063300Y2438800D02*
Y2533800D01*
X7015800Y2736300D02*
X7110800D01*
X7063300Y2688800D02*
Y2783800D01*
X7993700Y2031700D02*
X8088700D01*
X8041200Y1984199D02*
Y2079200D01*
X7993700Y2281700D02*
X8088700D01*
X8041200Y2234199D02*
Y2329200D01*
X7993700Y2531700D02*
X8088700D01*
X8041200Y2484200D02*
Y2579200D01*
X7993700Y2781700D02*
X8088700D01*
X8041200Y2734200D02*
Y2829200D01*
X7993700Y3031700D02*
X8088700D01*
X8041200Y2984200D02*
Y3079200D01*
X7993700Y3281700D02*
X8088700D01*
X8041200Y3234200D02*
Y3329200D01*
X7993700Y3531700D02*
X8088700D01*
X8041200Y3484200D02*
Y3579200D01*
X7993700Y3781700D02*
X8088700D01*
X8041200Y3734200D02*
Y3829200D01*
X6222500Y4330000D02*
X6317500D01*
X6270000Y4282500D02*
Y4377500D01*
X5972500Y4330000D02*
X6067500D01*
X6020000Y4282500D02*
Y4377500D01*
X5722500Y4330000D02*
X5817500D01*
X5770000Y4282500D02*
Y4377500D01*
X5472500Y4330000D02*
X5567500D01*
X5520000Y4282500D02*
Y4377500D01*
X5222500Y4330000D02*
X5317500D01*
X5270000Y4282500D02*
Y4377500D01*
X4972500Y4330000D02*
X5067500D01*
X5020000Y4282500D02*
Y4377500D01*
X4722500Y4330000D02*
X4817500D01*
X4770000Y4282500D02*
Y4377500D01*
X4472500Y4330000D02*
X4567500D01*
X4520000Y4282500D02*
Y4377500D01*
X4222500Y4330000D02*
X4317500D01*
X4270000Y4282500D02*
Y4377500D01*
X3972500Y4330000D02*
X4067500D01*
X4020000Y4282500D02*
Y4377500D01*
X3722500Y4330000D02*
X3817500D01*
X3770000Y4282500D02*
Y4377500D01*
X3472500Y4330000D02*
X3567500D01*
X3520000Y4282500D02*
Y4377500D01*
X3222500Y4330000D02*
X3317500D01*
X3270000Y4282500D02*
Y4377500D01*
X2972500Y4330000D02*
X3067500D01*
X3020000Y4282500D02*
Y4377500D01*
X2722500Y4330000D02*
X2817500D01*
X2770000Y4282500D02*
Y4377500D01*
X2472500Y4330000D02*
X2567500D01*
X2520000Y4282500D02*
Y4377500D01*
X8942500Y2970000D02*
X9037500D01*
X8990000Y2922500D02*
Y3017500D01*
X8942500Y3220000D02*
X9037500D01*
X8990000Y3172500D02*
Y3267500D01*
X8942500Y3470000D02*
X9037500D01*
X8990000Y3422500D02*
Y3517500D01*
X8942500Y3720000D02*
X9037500D01*
X8990000Y3672500D02*
Y3767500D01*
X8942500Y3970000D02*
X9037500D01*
X8990000Y3922500D02*
Y4017500D01*
X8942500Y4220000D02*
X9037500D01*
X8990000Y4172500D02*
Y4267500D01*
X8942500Y4470000D02*
X9037500D01*
X8990000Y4422500D02*
Y4517500D01*
X8942500Y4720000D02*
X9037500D01*
X8990000Y4672500D02*
Y4767500D01*
%TF.MD5,3a7c5792f23415ff1be0224b9b145a30*%
M02*
