%TF.GenerationSoftware,Altium Limited,Altium Designer,21.3.2 (30)*%
G04 Layer_Color=8388736*
%FSLAX45Y45*%
%MOMM*%
%TF.SameCoordinates,699C74A5-B4CE-432A-A201-728FBB0A9CBA*%
%TF.FilePolarity,Negative*%
%TF.FileFunction,Soldermask,Top*%
%TF.Part,Single*%
G01*
G75*
%TA.AperFunction,ComponentPad*%
%ADD17C,1.90320*%
%ADD18C,4.20320*%
G04:AMPARAMS|DCode=19|XSize=1.9032mm|YSize=2.1532mm|CornerRadius=0.9516mm|HoleSize=0mm|Usage=FLASHONLY|Rotation=90.000|XOffset=0mm|YOffset=0mm|HoleType=Round|Shape=RoundedRectangle|*
%AMROUNDEDRECTD19*
21,1,1.90320,0.25000,0,0,90.0*
21,1,0.00000,2.15320,0,0,90.0*
1,1,1.90320,0.12500,0.00000*
1,1,1.90320,0.12500,0.00000*
1,1,1.90320,-0.12500,0.00000*
1,1,1.90320,-0.12500,0.00000*
%
%ADD19ROUNDEDRECTD19*%
G04:AMPARAMS|DCode=20|XSize=1.9032mm|YSize=2.1532mm|CornerRadius=0.2291mm|HoleSize=0mm|Usage=FLASHONLY|Rotation=90.000|XOffset=0mm|YOffset=0mm|HoleType=Round|Shape=RoundedRectangle|*
%AMROUNDEDRECTD20*
21,1,1.90320,1.69500,0,0,90.0*
21,1,1.44500,2.15320,0,0,90.0*
1,1,0.45820,0.84750,0.72250*
1,1,0.45820,0.84750,-0.72250*
1,1,0.45820,-0.84750,-0.72250*
1,1,0.45820,-0.84750,0.72250*
%
%ADD20ROUNDEDRECTD20*%
G04:AMPARAMS|DCode=21|XSize=1.9032mm|YSize=2.1532mm|CornerRadius=0.2291mm|HoleSize=0mm|Usage=FLASHONLY|Rotation=180.000|XOffset=0mm|YOffset=0mm|HoleType=Round|Shape=RoundedRectangle|*
%AMROUNDEDRECTD21*
21,1,1.90320,1.69500,0,0,180.0*
21,1,1.44500,2.15320,0,0,180.0*
1,1,0.45820,-0.72250,0.84750*
1,1,0.45820,0.72250,0.84750*
1,1,0.45820,0.72250,-0.84750*
1,1,0.45820,-0.72250,-0.84750*
%
%ADD21ROUNDEDRECTD21*%
G04:AMPARAMS|DCode=22|XSize=1.9032mm|YSize=2.1532mm|CornerRadius=0.9516mm|HoleSize=0mm|Usage=FLASHONLY|Rotation=180.000|XOffset=0mm|YOffset=0mm|HoleType=Round|Shape=RoundedRectangle|*
%AMROUNDEDRECTD22*
21,1,1.90320,0.25000,0,0,180.0*
21,1,0.00000,2.15320,0,0,180.0*
1,1,1.90320,0.00000,0.12500*
1,1,1.90320,0.00000,0.12500*
1,1,1.90320,0.00000,-0.12500*
1,1,1.90320,0.00000,-0.12500*
%
%ADD22ROUNDEDRECTD22*%
D17*
X3151700Y411500D02*
D03*
X3659700D02*
D03*
X3913700D02*
D03*
X4167700D02*
D03*
X4421700D02*
D03*
X4675700D02*
D03*
X4929700D02*
D03*
X5437700D02*
D03*
X5691700D02*
D03*
X5945700D02*
D03*
X6199700D02*
D03*
X6453700D02*
D03*
X6707700D02*
D03*
X6961700D02*
D03*
X7215700D02*
D03*
X8485700D02*
D03*
X3405700D02*
D03*
X7723700D02*
D03*
X7977700D02*
D03*
X8231700D02*
D03*
X8739700D02*
D03*
X8993700D02*
D03*
X9247700D02*
D03*
X9501700D02*
D03*
X9755700Y5237500D02*
D03*
X10009700D02*
D03*
X9755700Y4983500D02*
D03*
X10009700D02*
D03*
X9755700Y4729500D02*
D03*
X10009700D02*
D03*
X9755700Y4475500D02*
D03*
X10009700D02*
D03*
X9755700Y4221500D02*
D03*
X10009700D02*
D03*
X9755700Y3967500D02*
D03*
X10009700D02*
D03*
X9755700Y3713500D02*
D03*
X10009700D02*
D03*
X9755700Y3459500D02*
D03*
X10009700D02*
D03*
X9755700Y3205500D02*
D03*
X10009700D02*
D03*
X9755700Y2951500D02*
D03*
X10009700D02*
D03*
X9755700Y2697500D02*
D03*
X10009700D02*
D03*
X9755700Y2443500D02*
D03*
X10009700D02*
D03*
X9755700Y2189500D02*
D03*
X10009700D02*
D03*
X9755700Y1935500D02*
D03*
X10009700D02*
D03*
X9755700Y1681500D02*
D03*
X10009700D02*
D03*
X9755700Y1427500D02*
D03*
X10009700D02*
D03*
X9755700Y1173500D02*
D03*
Y919500D02*
D03*
X10009700D02*
D03*
X8993700Y5237500D02*
D03*
X8739700D02*
D03*
X8485700D02*
D03*
X8231700D02*
D03*
X7977700D02*
D03*
X7723700D02*
D03*
X7469700D02*
D03*
X7215700D02*
D03*
X6707700D02*
D03*
X6453700D02*
D03*
X6199700D02*
D03*
X5945700D02*
D03*
X5691700D02*
D03*
X5437700D02*
D03*
X5183700D02*
D03*
X4929700D02*
D03*
X4523300D02*
D03*
X4269300D02*
D03*
X4015300D02*
D03*
X3761300D02*
D03*
X3507300D02*
D03*
X3253300D02*
D03*
X2999300D02*
D03*
X2745300D02*
D03*
X2491300D02*
D03*
X2237300D02*
D03*
X10009700Y1173500D02*
D03*
D18*
Y411500D02*
D03*
X9374700Y5237500D02*
D03*
X1881700D02*
D03*
X1754700Y411500D02*
D03*
D19*
X10620000Y2920000D02*
D03*
Y2670000D02*
D03*
Y2420000D02*
D03*
Y2170000D02*
D03*
Y1920000D02*
D03*
Y1670000D02*
D03*
Y1420000D02*
D03*
X7063300Y986300D02*
D03*
Y1236300D02*
D03*
Y1486300D02*
D03*
Y1736300D02*
D03*
Y1986300D02*
D03*
Y2236300D02*
D03*
Y2486300D02*
D03*
X8041200Y2031700D02*
D03*
Y2281700D02*
D03*
Y2531700D02*
D03*
Y2781700D02*
D03*
Y3031700D02*
D03*
Y3281700D02*
D03*
Y3531700D02*
D03*
X8990000Y2970000D02*
D03*
Y3220000D02*
D03*
Y3470000D02*
D03*
Y3720000D02*
D03*
Y3970000D02*
D03*
Y4220000D02*
D03*
Y4470000D02*
D03*
D20*
X10620000Y1170000D02*
D03*
X7063300Y2736300D02*
D03*
X8041200Y3781700D02*
D03*
X8990000Y4720000D02*
D03*
D21*
X6270000Y4330000D02*
D03*
D22*
X6020000D02*
D03*
X5770000D02*
D03*
X5520000D02*
D03*
X5270000D02*
D03*
X5020000D02*
D03*
X4770000D02*
D03*
X4520000D02*
D03*
X4270000D02*
D03*
X4020000D02*
D03*
X3770000D02*
D03*
X3520000D02*
D03*
X3270000D02*
D03*
X3020000D02*
D03*
X2770000D02*
D03*
X2520000D02*
D03*
%TF.MD5,f2c084beb86c3efd4a5388ac49c0f844*%
M02*
