%TF.GenerationSoftware,Altium Limited,Altium Designer,21.3.2 (30)*%
G04 Layer_Color=0*
%FSLAX45Y45*%
%MOMM*%
%TF.SameCoordinates,29C89E41-5BB3-4AF8-996E-2FCDB6C4A0D1*%
%TF.FilePolarity,Positive*%
%TF.FileFunction,Plated,1,2,PTH,Drill*%
%TF.Part,Single*%
G01*
G75*
%TA.AperFunction,ComponentDrill*%
%ADD33C,4.00000*%
%ADD34C,0.95000*%
%ADD35C,0.80000*%
%ADD36C,1.10000*%
%TA.AperFunction,ViaDrill,NotFilled*%
%ADD37C,0.30000*%
D33*
X7800000Y1000000D02*
D03*
Y3100000D02*
D03*
X1100000D02*
D03*
Y1000000D02*
D03*
D34*
X2750000Y3300000D02*
D03*
X3000000D02*
D03*
X3250000D02*
D03*
X3500000D02*
D03*
X3750000D02*
D03*
X4000000D02*
D03*
X4250000D02*
D03*
X4500000D02*
D03*
X4750000D02*
D03*
X5000000D02*
D03*
X5250000D02*
D03*
X5500000D02*
D03*
X5750000D02*
D03*
X6000000D02*
D03*
X6250000D02*
D03*
X6500000D02*
D03*
D35*
X6234350Y2184350D02*
D03*
D36*
X5965649Y1915650D02*
D03*
D37*
X3700000Y3100000D02*
D03*
X1256537Y2262408D02*
D03*
X1325000Y2100000D02*
D03*
Y1900000D02*
D03*
X5165000Y2800000D02*
D03*
Y2550000D02*
D03*
X5168917Y2261751D02*
D03*
X6149703Y1788868D02*
D03*
X5822500Y2125000D02*
D03*
X5932632Y2219796D02*
D03*
X7040000Y1790000D02*
D03*
Y1450000D02*
D03*
X4000000Y1000000D02*
D03*
X4003552Y1505805D02*
D03*
X2897432Y1497907D02*
D03*
X4000000Y2700000D02*
D03*
Y2100000D02*
D03*
X2915000Y2119290D02*
D03*
Y2700000D02*
D03*
X2900000Y1000000D02*
D03*
%TF.MD5,5ef00f25b240e50aed5c7fac9d2bab5d*%
M02*
