%TF.GenerationSoftware,Altium Limited,Altium Designer,21.3.2 (30)*%
G04 Layer_Color=16711935*
%FSLAX45Y45*%
%MOMM*%
%TF.SameCoordinates,29C89E41-5BB3-4AF8-996E-2FCDB6C4A0D1*%
%TF.FilePolarity,Negative*%
%TF.FileFunction,Soldermask,Bot*%
%TF.Part,Single*%
G01*
G75*
%TA.AperFunction,SMDPad,CuDef*%
G04:AMPARAMS|DCode=22|XSize=1.4032mm|YSize=2.0032mm|CornerRadius=0.2276mm|HoleSize=0mm|Usage=FLASHONLY|Rotation=90.000|XOffset=0mm|YOffset=0mm|HoleType=Round|Shape=RoundedRectangle|*
%AMROUNDEDRECTD22*
21,1,1.40320,1.54800,0,0,90.0*
21,1,0.94800,2.00320,0,0,90.0*
1,1,0.45520,0.77400,0.47400*
1,1,0.45520,0.77400,-0.47400*
1,1,0.45520,-0.77400,-0.47400*
1,1,0.45520,-0.77400,0.47400*
%
%ADD22ROUNDEDRECTD22*%
G04:AMPARAMS|DCode=23|XSize=0.8032mm|YSize=1.7532mm|CornerRadius=0.1766mm|HoleSize=0mm|Usage=FLASHONLY|Rotation=90.000|XOffset=0mm|YOffset=0mm|HoleType=Round|Shape=RoundedRectangle|*
%AMROUNDEDRECTD23*
21,1,0.80320,1.40000,0,0,90.0*
21,1,0.45000,1.75320,0,0,90.0*
1,1,0.35320,0.70000,0.22500*
1,1,0.35320,0.70000,-0.22500*
1,1,0.35320,-0.70000,-0.22500*
1,1,0.35320,-0.70000,0.22500*
%
%ADD23ROUNDEDRECTD23*%
%TA.AperFunction,ComponentPad*%
%ADD24C,5.20320*%
G04:AMPARAMS|DCode=25|XSize=1.9032mm|YSize=2.1532mm|CornerRadius=0.9516mm|HoleSize=0mm|Usage=FLASHONLY|Rotation=180.000|XOffset=0mm|YOffset=0mm|HoleType=Round|Shape=RoundedRectangle|*
%AMROUNDEDRECTD25*
21,1,1.90320,0.25000,0,0,180.0*
21,1,0.00000,2.15320,0,0,180.0*
1,1,1.90320,0.00000,0.12500*
1,1,1.90320,0.00000,0.12500*
1,1,1.90320,0.00000,-0.12500*
1,1,1.90320,0.00000,-0.12500*
%
%ADD25ROUNDEDRECTD25*%
G04:AMPARAMS|DCode=26|XSize=1.9032mm|YSize=2.1532mm|CornerRadius=0.2291mm|HoleSize=0mm|Usage=FLASHONLY|Rotation=180.000|XOffset=0mm|YOffset=0mm|HoleType=Round|Shape=RoundedRectangle|*
%AMROUNDEDRECTD26*
21,1,1.90320,1.69500,0,0,180.0*
21,1,1.44500,2.15320,0,0,180.0*
1,1,0.45820,-0.72250,0.84750*
1,1,0.45820,0.72250,0.84750*
1,1,0.45820,0.72250,-0.84750*
1,1,0.45820,-0.72250,-0.84750*
%
%ADD26ROUNDEDRECTD26*%
%ADD27C,0.20320*%
D22*
X662500Y2330000D02*
D03*
Y1770000D02*
D03*
D23*
X1050000Y2200000D02*
D03*
Y2100000D02*
D03*
Y2000000D02*
D03*
Y1900000D02*
D03*
D24*
X7800000Y1000000D02*
D03*
Y3100000D02*
D03*
X1100000D02*
D03*
Y1000000D02*
D03*
D25*
X2750000Y3300000D02*
D03*
X3000000D02*
D03*
X3250000D02*
D03*
X3500000D02*
D03*
X3750000D02*
D03*
X4000000D02*
D03*
X4250000D02*
D03*
X4500000D02*
D03*
X4750000D02*
D03*
X5000000D02*
D03*
X5250000D02*
D03*
X5500000D02*
D03*
X5750000D02*
D03*
X6000000D02*
D03*
X6250000D02*
D03*
D26*
X6500000D02*
D03*
D27*
X6234350Y2184350D02*
D03*
X5965649Y1915650D02*
D03*
%TF.MD5,b4926ce06a7aed736328d0fad66027b1*%
M02*
