%TF.GenerationSoftware,Altium Limited,Altium Designer,21.3.2 (30)*%
G04 Layer_Color=65535*
%FSLAX45Y45*%
%MOMM*%
%TF.SameCoordinates,A53E8B12-5703-4EC1-9ACC-F1C4DEFA11C2*%
%TF.FilePolarity,Positive*%
%TF.FileFunction,Legend,Top*%
%TF.Part,Single*%
G01*
G75*
%TA.AperFunction,NonConductor*%
%ADD21C,0.25400*%
%ADD28C,0.20000*%
D21*
X8129781Y2632132D02*
Y2517868D01*
Y2575000D01*
X8205956D01*
Y2632132D01*
Y2517868D01*
X8320219D02*
X8244044D01*
X8320219Y2594044D01*
Y2613088D01*
X8301175Y2632132D01*
X8263088D01*
X8244044Y2613088D01*
X8129781Y1607132D02*
Y1492868D01*
Y1550000D01*
X8205956D01*
Y1607132D01*
Y1492868D01*
X8244044Y1588088D02*
X8263088Y1607132D01*
X8301175D01*
X8320219Y1588088D01*
Y1569044D01*
X8301175Y1550000D01*
X8282132D01*
X8301175D01*
X8320219Y1530956D01*
Y1511912D01*
X8301175Y1492868D01*
X8263088D01*
X8244044Y1511912D01*
X598825Y2682132D02*
Y2567869D01*
Y2625000D01*
X675000D01*
Y2682132D01*
Y2567869D01*
X713088D02*
X751176D01*
X732132D01*
Y2682132D01*
X713088Y2663088D01*
X579781Y1607132D02*
Y1492868D01*
Y1550000D01*
X655956D01*
Y1607132D01*
Y1492868D01*
X751175D02*
Y1607132D01*
X694044Y1550000D01*
X770219D01*
X4566160Y2873960D02*
Y2988223D01*
X4623291D01*
X4642335Y2969179D01*
Y2931091D01*
X4623291Y2912048D01*
X4566160D01*
X4604248D02*
X4642335Y2873960D01*
X4680423Y2893004D02*
X4699467Y2873960D01*
X4737554D01*
X4756598Y2893004D01*
Y2969179D01*
X4737554Y2988223D01*
X4699467D01*
X4680423Y2969179D01*
Y2950135D01*
X4699467Y2931091D01*
X4756598D01*
X4550920Y2274520D02*
Y2388783D01*
X4608051D01*
X4627095Y2369739D01*
Y2331651D01*
X4608051Y2312608D01*
X4550920D01*
X4589008D02*
X4627095Y2274520D01*
X4665183Y2369739D02*
X4684227Y2388783D01*
X4722314D01*
X4741358Y2369739D01*
Y2350695D01*
X4722314Y2331651D01*
X4741358Y2312608D01*
Y2293564D01*
X4722314Y2274520D01*
X4684227D01*
X4665183Y2293564D01*
Y2312608D01*
X4684227Y2331651D01*
X4665183Y2350695D01*
Y2369739D01*
X4684227Y2331651D02*
X4722314D01*
X4566160Y1672540D02*
Y1786803D01*
X4623291D01*
X4642335Y1767759D01*
Y1729671D01*
X4623291Y1710628D01*
X4566160D01*
X4604248D02*
X4642335Y1672540D01*
X4756598Y1786803D02*
X4718511Y1767759D01*
X4680423Y1729671D01*
Y1691584D01*
X4699467Y1672540D01*
X4737554D01*
X4756598Y1691584D01*
Y1710628D01*
X4737554Y1729671D01*
X4680423D01*
X3951480Y2988223D02*
Y2873960D01*
X4008611D01*
X4027655Y2893004D01*
Y2969179D01*
X4008611Y2988223D01*
X3951480D01*
X4065743Y2873960D02*
X4103831D01*
X4084787D01*
Y2988223D01*
X4065743Y2969179D01*
X4237138Y2873960D02*
X4160962D01*
X4237138Y2950135D01*
Y2969179D01*
X4218094Y2988223D01*
X4180006D01*
X4160962Y2969179D01*
X2864360Y2988223D02*
Y2873960D01*
X2921491D01*
X2940535Y2893004D01*
Y2969179D01*
X2921491Y2988223D01*
X2864360D01*
X2978623Y2873960D02*
X3016711D01*
X2997667D01*
Y2988223D01*
X2978623Y2969179D01*
X3073842Y2873960D02*
X3111930D01*
X3092886D01*
Y2988223D01*
X3073842Y2969179D01*
X1764540Y2988223D02*
Y2873960D01*
X1821671D01*
X1840715Y2893004D01*
Y2969179D01*
X1821671Y2988223D01*
X1764540D01*
X1878803Y2873960D02*
X1916891D01*
X1897847D01*
Y2988223D01*
X1878803Y2969179D01*
X1974022D02*
X1993066Y2988223D01*
X2031154D01*
X2050198Y2969179D01*
Y2893004D01*
X2031154Y2873960D01*
X1993066D01*
X1974022Y2893004D01*
Y2969179D01*
X3951480Y2388783D02*
Y2274520D01*
X4008611D01*
X4027655Y2293564D01*
Y2369739D01*
X4008611Y2388783D01*
X3951480D01*
X4065743Y2293564D02*
X4084787Y2274520D01*
X4122874D01*
X4141918Y2293564D01*
Y2369739D01*
X4122874Y2388783D01*
X4084787D01*
X4065743Y2369739D01*
Y2350695D01*
X4084787Y2331651D01*
X4141918D01*
X2864360Y2388783D02*
Y2274520D01*
X2921491D01*
X2940535Y2293564D01*
Y2369739D01*
X2921491Y2388783D01*
X2864360D01*
X2978623Y2369739D02*
X2997667Y2388783D01*
X3035754D01*
X3054798Y2369739D01*
Y2350695D01*
X3035754Y2331651D01*
X3054798Y2312608D01*
Y2293564D01*
X3035754Y2274520D01*
X2997667D01*
X2978623Y2293564D01*
Y2312608D01*
X2997667Y2331651D01*
X2978623Y2350695D01*
Y2369739D01*
X2997667Y2331651D02*
X3035754D01*
X1764540Y2388783D02*
Y2274520D01*
X1821671D01*
X1840715Y2293564D01*
Y2369739D01*
X1821671Y2388783D01*
X1764540D01*
X1878803D02*
X1954978D01*
Y2369739D01*
X1878803Y2293564D01*
Y2274520D01*
X1749300Y1786803D02*
Y1672540D01*
X1806431D01*
X1825475Y1691584D01*
Y1767759D01*
X1806431Y1786803D01*
X1749300D01*
X1939738D02*
X1901651Y1767759D01*
X1863563Y1729671D01*
Y1691584D01*
X1882607Y1672540D01*
X1920694D01*
X1939738Y1691584D01*
Y1710628D01*
X1920694Y1729671D01*
X1863563D01*
X3951480Y1786803D02*
Y1672540D01*
X4008611D01*
X4027655Y1691584D01*
Y1767759D01*
X4008611Y1786803D01*
X3951480D01*
X4141918D02*
X4065743D01*
Y1729671D01*
X4103831Y1748715D01*
X4122874D01*
X4141918Y1729671D01*
Y1691584D01*
X4122874Y1672540D01*
X4084787D01*
X4065743Y1691584D01*
X2851660Y1786803D02*
Y1672540D01*
X2908791D01*
X2927835Y1691584D01*
Y1767759D01*
X2908791Y1786803D01*
X2851660D01*
X3023054Y1672540D02*
Y1786803D01*
X2965923Y1729671D01*
X3042098D01*
X6856650Y2311338D02*
X6837606Y2330382D01*
X6799519D01*
X6780475Y2311338D01*
Y2292294D01*
X6799519Y2273250D01*
X6837606D01*
X6856650Y2254207D01*
Y2235163D01*
X6837606Y2216119D01*
X6799519D01*
X6780475Y2235163D01*
X6894738Y2216119D02*
X6932826D01*
X6913782D01*
Y2330382D01*
X6894738Y2311338D01*
X4549140Y1074420D02*
Y1188683D01*
X4606271D01*
X4625315Y1169639D01*
Y1131551D01*
X4606271Y1112508D01*
X4549140D01*
X4587228D02*
X4625315Y1074420D01*
X4663403Y1188683D02*
X4739579D01*
Y1169639D01*
X4663403Y1093464D01*
Y1074420D01*
X5487281Y2492869D02*
Y2607132D01*
X5544412D01*
X5563456Y2588088D01*
Y2550000D01*
X5544412Y2530956D01*
X5487281D01*
X5525368D02*
X5563456Y2492869D01*
X5677719Y2607132D02*
X5601544D01*
Y2550000D01*
X5639632Y2569044D01*
X5658675D01*
X5677719Y2550000D01*
Y2511912D01*
X5658675Y2492869D01*
X5620588D01*
X5601544Y2511912D01*
X5170114Y2000702D02*
Y2114966D01*
X5227246D01*
X5246290Y2095922D01*
Y2057834D01*
X5227246Y2038790D01*
X5170114D01*
X5208202D02*
X5246290Y2000702D01*
X5341509D02*
Y2114966D01*
X5284378Y2057834D01*
X5360553D01*
X5487281Y2742869D02*
Y2857132D01*
X5544412D01*
X5563456Y2838088D01*
Y2800000D01*
X5544412Y2780956D01*
X5487281D01*
X5525368D02*
X5563456Y2742869D01*
X5601544Y2838088D02*
X5620588Y2857132D01*
X5658675D01*
X5677719Y2838088D01*
Y2819044D01*
X5658675Y2800000D01*
X5639632D01*
X5658675D01*
X5677719Y2780956D01*
Y2761912D01*
X5658675Y2742869D01*
X5620588D01*
X5601544Y2761912D01*
X7294500Y1704781D02*
X7180236D01*
Y1761912D01*
X7199280Y1780956D01*
X7237368D01*
X7256412Y1761912D01*
Y1704781D01*
Y1742868D02*
X7294500Y1780956D01*
Y1895219D02*
Y1819044D01*
X7218324Y1895219D01*
X7199280D01*
X7180236Y1876175D01*
Y1838088D01*
X7199280Y1819044D01*
X7303480Y1364844D02*
X7189217D01*
Y1421976D01*
X7208260Y1441020D01*
X7246348D01*
X7265392Y1421976D01*
Y1364844D01*
Y1402932D02*
X7303480Y1441020D01*
Y1479108D02*
Y1517195D01*
Y1498151D01*
X7189217D01*
X7208260Y1479108D01*
X3949700Y1188683D02*
Y1074420D01*
X4006831D01*
X4025875Y1093464D01*
Y1169639D01*
X4006831Y1188683D01*
X3949700D01*
X4063963Y1169639D02*
X4083007Y1188683D01*
X4121095D01*
X4140139Y1169639D01*
Y1150595D01*
X4121095Y1131551D01*
X4102051D01*
X4121095D01*
X4140139Y1112508D01*
Y1093464D01*
X4121095Y1074420D01*
X4083007D01*
X4063963Y1093464D01*
X2849880Y1188683D02*
Y1074420D01*
X2907011D01*
X2926055Y1093464D01*
Y1169639D01*
X2907011Y1188683D01*
X2849880D01*
X3040319Y1074420D02*
X2964143D01*
X3040319Y1150595D01*
Y1169639D01*
X3021275Y1188683D01*
X2983187D01*
X2964143Y1169639D01*
X1750060Y1188683D02*
Y1074420D01*
X1807191D01*
X1826235Y1093464D01*
Y1169639D01*
X1807191Y1188683D01*
X1750060D01*
X1864323Y1074420D02*
X1902411D01*
X1883367D01*
Y1188683D01*
X1864323Y1169639D01*
D28*
X2895308Y767500D02*
G03*
X2895308Y767500I-10308J0D01*
G01*
X1795308D02*
G03*
X1795308Y767500I-10308J0D01*
G01*
X3995308D02*
G03*
X3995308Y767500I-10308J0D01*
G01*
Y2567500D02*
G03*
X3995308Y2567500I-10308J0D01*
G01*
X2910308D02*
G03*
X2910308Y2567500I-10308J0D01*
G01*
X1810308D02*
G03*
X1810308Y2567500I-10308J0D01*
G01*
X3995308Y1967500D02*
G03*
X3995308Y1967500I-10308J0D01*
G01*
X2910308D02*
G03*
X2910308Y1967500I-10308J0D01*
G01*
X1810308D02*
G03*
X1810308Y1967500I-10308J0D01*
G01*
X1795308Y1367500D02*
G03*
X1795308Y1367500I-10308J0D01*
G01*
X3995308D02*
G03*
X3995308Y1367500I-10308J0D01*
G01*
X2895308D02*
G03*
X2895308Y1367500I-10308J0D01*
G01*
X8300000Y1000000D02*
G03*
X8300000Y1000000I-500000J0D01*
G01*
Y3100000D02*
G03*
X8300000Y3100000I-500000J0D01*
G01*
X1600000D02*
G03*
X1600000Y3100000I-500000J0D01*
G01*
Y1000000D02*
G03*
X1600000Y1000000I-500000J0D01*
G01*
X5940294Y2566188D02*
G03*
X5940294Y2566188I-10000J0D01*
G01*
X2987500Y840000D02*
X2997500D01*
X2987500Y960000D02*
X2997500D01*
X1887499Y840000D02*
X1897499D01*
X1887499Y960000D02*
X1897499D01*
X4087500Y840000D02*
X4097500D01*
X4087500Y960000D02*
X4097500D01*
X4687499Y840000D02*
X4697499D01*
X4687499Y960000D02*
X4697499D01*
X4087500Y2760000D02*
X4097500D01*
X4087500Y2640000D02*
X4097500D01*
X3002500Y2760000D02*
X3012500D01*
X3002500Y2640000D02*
X3012500D01*
X1902500Y2760000D02*
X1912500D01*
X1902500Y2640000D02*
X1912500D01*
X4087500Y2160000D02*
X4097500D01*
X4087500Y2040000D02*
X4097500D01*
X3002500Y2160000D02*
X3012500D01*
X3002500Y2040000D02*
X3012500D01*
X1902500Y2160000D02*
X1912500D01*
X1902500Y2040000D02*
X1912500D01*
X1887500Y1560000D02*
X1897500D01*
X1887500Y1440000D02*
X1897500D01*
X4087500Y1560000D02*
X4097500D01*
X4087500Y1440000D02*
X4097500D01*
X2987500Y1560000D02*
X2997500D01*
X2987500Y1440000D02*
X2997500D01*
X6529567Y1949237D02*
Y2154298D01*
X5999237Y2479568D02*
X6204298D01*
X5993934Y1618665D02*
X6198995D01*
X5668665Y1943934D02*
Y2148995D01*
X4702500Y2760000D02*
X4712500D01*
X4702500Y2640000D02*
X4712500D01*
X5260334Y2197834D02*
X5270334D01*
X5260334Y2317834D02*
X5270334D01*
X5252500Y2490000D02*
X5262500D01*
X5252500Y2610000D02*
X5262500D01*
X5252500Y2740000D02*
X5262500D01*
X5252500Y2860000D02*
X5262500D01*
X6945000Y1510000D02*
X6955000D01*
X6945000Y1390000D02*
X6955000D01*
X6945000Y1860000D02*
X6955000D01*
X6945000Y1740000D02*
X6955000D01*
X4687500Y2160000D02*
X4697500D01*
X4687500Y2040000D02*
X4697500D01*
X4702500Y1560000D02*
X4712500D01*
X4702500Y1440000D02*
X4712500D01*
%TF.MD5,dfdaa143e2f80e42f6641d15b95e8039*%
M02*
