%TF.GenerationSoftware,Altium Limited,Altium Designer,21.3.2 (30)*%
G04 Layer_Physical_Order=2*
G04 Layer_Color=16711680*
%FSLAX45Y45*%
%MOMM*%
%TF.SameCoordinates,A53E8B12-5703-4EC1-9ACC-F1C4DEFA11C2*%
%TF.FilePolarity,Positive*%
%TF.FileFunction,Copper,L2,Bot,Signal*%
%TF.Part,Single*%
G01*
G75*
%TA.AperFunction,Conductor*%
%ADD13C,0.38100*%
%TA.AperFunction,ComponentPad*%
%ADD14C,5.00000*%
G04:AMPARAMS|DCode=15|XSize=1.7mm|YSize=1.95mm|CornerRadius=0.85mm|HoleSize=0mm|Usage=FLASHONLY|Rotation=180.000|XOffset=0mm|YOffset=0mm|HoleType=Round|Shape=RoundedRectangle|*
%AMROUNDEDRECTD15*
21,1,1.70000,0.25000,0,0,180.0*
21,1,0.00000,1.95000,0,0,180.0*
1,1,1.70000,0.00000,0.12500*
1,1,1.70000,0.00000,0.12500*
1,1,1.70000,0.00000,-0.12500*
1,1,1.70000,0.00000,-0.12500*
%
%ADD15ROUNDEDRECTD15*%
G04:AMPARAMS|DCode=16|XSize=1.7mm|YSize=1.95mm|CornerRadius=0.1275mm|HoleSize=0mm|Usage=FLASHONLY|Rotation=180.000|XOffset=0mm|YOffset=0mm|HoleType=Round|Shape=RoundedRectangle|*
%AMROUNDEDRECTD16*
21,1,1.70000,1.69500,0,0,180.0*
21,1,1.44500,1.95000,0,0,180.0*
1,1,0.25500,-0.72250,0.84750*
1,1,0.25500,0.72250,0.84750*
1,1,0.25500,0.72250,-0.84750*
1,1,0.25500,-0.72250,-0.84750*
%
%ADD16ROUNDEDRECTD16*%
%TA.AperFunction,ViaPad*%
%ADD17C,0.70000*%
%TA.AperFunction,SMDPad,CuDef*%
G04:AMPARAMS|DCode=18|XSize=1.2mm|YSize=1.8mm|CornerRadius=0.126mm|HoleSize=0mm|Usage=FLASHONLY|Rotation=90.000|XOffset=0mm|YOffset=0mm|HoleType=Round|Shape=RoundedRectangle|*
%AMROUNDEDRECTD18*
21,1,1.20000,1.54800,0,0,90.0*
21,1,0.94800,1.80000,0,0,90.0*
1,1,0.25200,0.77400,0.47400*
1,1,0.25200,0.77400,-0.47400*
1,1,0.25200,-0.77400,-0.47400*
1,1,0.25200,-0.77400,0.47400*
%
%ADD18ROUNDEDRECTD18*%
G04:AMPARAMS|DCode=19|XSize=0.6mm|YSize=1.55mm|CornerRadius=0.075mm|HoleSize=0mm|Usage=FLASHONLY|Rotation=90.000|XOffset=0mm|YOffset=0mm|HoleType=Round|Shape=RoundedRectangle|*
%AMROUNDEDRECTD19*
21,1,0.60000,1.40000,0,0,90.0*
21,1,0.45000,1.55000,0,0,90.0*
1,1,0.15000,0.70000,0.22500*
1,1,0.15000,0.70000,-0.22500*
1,1,0.15000,-0.70000,-0.22500*
1,1,0.15000,-0.70000,0.22500*
%
%ADD19ROUNDEDRECTD19*%
G36*
X7885721Y3677886D02*
X7941949Y3666702D01*
X7996816Y3650058D01*
X8049782Y3628119D01*
X8100344Y3601092D01*
X8148014Y3569241D01*
X8192331Y3532870D01*
X8232871Y3492330D01*
X8269242Y3448012D01*
X8301094Y3400342D01*
X8328119Y3349781D01*
X8350059Y3296814D01*
X8366701Y3241950D01*
X8377886Y3185721D01*
X8383505Y3128666D01*
Y3100000D01*
Y1000000D01*
Y971334D01*
X8377886Y914279D01*
X8366702Y858050D01*
X8350058Y803184D01*
X8328119Y750218D01*
X8301092Y699656D01*
X8269241Y651986D01*
X8232870Y607669D01*
X8192330Y567128D01*
X8148012Y530758D01*
X8100342Y498906D01*
X8049781Y471880D01*
X7996814Y449941D01*
X7941950Y433298D01*
X7885721Y422114D01*
X7828666Y416494D01*
X1071334D01*
X1014279Y422114D01*
X958050Y433298D01*
X903184Y449942D01*
X850218Y471881D01*
X799656Y498907D01*
X751986Y530759D01*
X707669Y567129D01*
X667128Y607670D01*
X630758Y651988D01*
X598906Y699658D01*
X571880Y750219D01*
X549941Y803186D01*
X533298Y858050D01*
X522114Y914279D01*
X516495Y971334D01*
Y1000000D01*
Y3100000D01*
Y3128666D01*
X522114Y3185721D01*
X533298Y3241949D01*
X549942Y3296816D01*
X571881Y3349782D01*
X598907Y3400344D01*
X630759Y3448014D01*
X667129Y3492331D01*
X707670Y3532871D01*
X751988Y3569242D01*
X799658Y3601094D01*
X850219Y3628119D01*
X903186Y3650059D01*
X958050Y3666701D01*
X1014279Y3677886D01*
X1071334Y3683505D01*
X7828666D01*
X7885721Y3677886D01*
D02*
G37*
%LPC*%
G36*
X2762700Y3422181D02*
Y3312700D01*
X2861326D01*
X2857558Y3341320D01*
X2846434Y3368176D01*
X2828738Y3391238D01*
X2805676Y3408934D01*
X2778820Y3420058D01*
X2762700Y3422181D01*
D02*
G37*
G36*
X2737300D02*
X2721179Y3420058D01*
X2694323Y3408934D01*
X2671261Y3391238D01*
X2653565Y3368176D01*
X2642441Y3341320D01*
X2638673Y3312700D01*
X2737300D01*
Y3422181D01*
D02*
G37*
G36*
X6572249Y3413288D02*
X6427750D01*
X6416829Y3411116D01*
X6407570Y3404930D01*
X6401384Y3395671D01*
X6399211Y3384750D01*
Y3215250D01*
X6401384Y3204329D01*
X6407570Y3195070D01*
X6416829Y3188884D01*
X6427750Y3186712D01*
X6572249D01*
X6583171Y3188884D01*
X6592429Y3195070D01*
X6598615Y3204329D01*
X6600788Y3215250D01*
Y3384750D01*
X6598615Y3395671D01*
X6592429Y3404930D01*
X6583171Y3411116D01*
X6572249Y3413288D01*
D02*
G37*
G36*
X6250000Y3413605D02*
X6223832Y3410160D01*
X6199447Y3400059D01*
X6178508Y3383992D01*
X6162441Y3363052D01*
X6152340Y3338668D01*
X6148895Y3312500D01*
Y3287500D01*
X6152340Y3261332D01*
X6162441Y3236948D01*
X6178508Y3216008D01*
X6199447Y3199941D01*
X6223832Y3189840D01*
X6250000Y3186395D01*
X6276168Y3189840D01*
X6300552Y3199941D01*
X6321492Y3216008D01*
X6337559Y3236948D01*
X6347659Y3261332D01*
X6351104Y3287500D01*
Y3312500D01*
X6347659Y3338668D01*
X6337559Y3363052D01*
X6321492Y3383992D01*
X6300552Y3400059D01*
X6276168Y3410160D01*
X6250000Y3413605D01*
D02*
G37*
G36*
X6000000D02*
X5973832Y3410160D01*
X5949447Y3400059D01*
X5928508Y3383992D01*
X5912441Y3363052D01*
X5902340Y3338668D01*
X5898895Y3312500D01*
Y3287500D01*
X5902340Y3261332D01*
X5912441Y3236948D01*
X5928508Y3216008D01*
X5949447Y3199941D01*
X5973832Y3189840D01*
X6000000Y3186395D01*
X6026168Y3189840D01*
X6050552Y3199941D01*
X6071492Y3216008D01*
X6087559Y3236948D01*
X6097659Y3261332D01*
X6101104Y3287500D01*
Y3312500D01*
X6097659Y3338668D01*
X6087559Y3363052D01*
X6071492Y3383992D01*
X6050552Y3400059D01*
X6026168Y3410160D01*
X6000000Y3413605D01*
D02*
G37*
G36*
X5000000D02*
X4973832Y3410160D01*
X4949447Y3400059D01*
X4928508Y3383992D01*
X4912441Y3363052D01*
X4902340Y3338668D01*
X4898895Y3312500D01*
Y3287500D01*
X4902340Y3261332D01*
X4912441Y3236948D01*
X4928508Y3216008D01*
X4949447Y3199941D01*
X4973832Y3189840D01*
X5000000Y3186395D01*
X5026167Y3189840D01*
X5050552Y3199941D01*
X5071492Y3216008D01*
X5087559Y3236948D01*
X5097659Y3261332D01*
X5101104Y3287500D01*
Y3312500D01*
X5097659Y3338668D01*
X5087559Y3363052D01*
X5071492Y3383992D01*
X5050552Y3400059D01*
X5026167Y3410160D01*
X5000000Y3413605D01*
D02*
G37*
G36*
X4750000D02*
X4723832Y3410160D01*
X4699447Y3400059D01*
X4678508Y3383992D01*
X4662441Y3363052D01*
X4652340Y3338668D01*
X4648895Y3312500D01*
Y3287500D01*
X4652340Y3261332D01*
X4662441Y3236948D01*
X4678508Y3216008D01*
X4699447Y3199941D01*
X4723832Y3189840D01*
X4750000Y3186395D01*
X4776167Y3189840D01*
X4800552Y3199941D01*
X4821491Y3216008D01*
X4837559Y3236948D01*
X4847659Y3261332D01*
X4851104Y3287500D01*
Y3312500D01*
X4847659Y3338668D01*
X4837559Y3363052D01*
X4821491Y3383992D01*
X4800552Y3400059D01*
X4776167Y3410160D01*
X4750000Y3413605D01*
D02*
G37*
G36*
X4500000D02*
X4473832Y3410160D01*
X4449447Y3400059D01*
X4428508Y3383992D01*
X4412441Y3363052D01*
X4402340Y3338668D01*
X4398895Y3312500D01*
Y3287500D01*
X4402340Y3261332D01*
X4412441Y3236948D01*
X4428508Y3216008D01*
X4449447Y3199941D01*
X4473832Y3189840D01*
X4500000Y3186395D01*
X4526167Y3189840D01*
X4550552Y3199941D01*
X4571491Y3216008D01*
X4587559Y3236948D01*
X4597659Y3261332D01*
X4601104Y3287500D01*
Y3312500D01*
X4597659Y3338668D01*
X4587559Y3363052D01*
X4571491Y3383992D01*
X4550552Y3400059D01*
X4526167Y3410160D01*
X4500000Y3413605D01*
D02*
G37*
G36*
X4250000D02*
X4223832Y3410160D01*
X4199447Y3400059D01*
X4178508Y3383992D01*
X4162440Y3363052D01*
X4152340Y3338668D01*
X4148895Y3312500D01*
Y3287500D01*
X4152340Y3261332D01*
X4162440Y3236948D01*
X4178508Y3216008D01*
X4199447Y3199941D01*
X4223832Y3189840D01*
X4250000Y3186395D01*
X4276167Y3189840D01*
X4300552Y3199941D01*
X4321491Y3216008D01*
X4337559Y3236948D01*
X4347659Y3261332D01*
X4351104Y3287500D01*
Y3312500D01*
X4347659Y3338668D01*
X4337559Y3363052D01*
X4321491Y3383992D01*
X4300552Y3400059D01*
X4276167Y3410160D01*
X4250000Y3413605D01*
D02*
G37*
G36*
X4000000D02*
X3973832Y3410160D01*
X3949447Y3400059D01*
X3928508Y3383992D01*
X3912440Y3363052D01*
X3902340Y3338668D01*
X3898895Y3312500D01*
Y3287500D01*
X3902340Y3261332D01*
X3912440Y3236948D01*
X3928508Y3216008D01*
X3949447Y3199941D01*
X3973832Y3189840D01*
X4000000Y3186395D01*
X4026167Y3189840D01*
X4050552Y3199941D01*
X4071491Y3216008D01*
X4087559Y3236948D01*
X4097659Y3261332D01*
X4101104Y3287500D01*
Y3312500D01*
X4097659Y3338668D01*
X4087559Y3363052D01*
X4071491Y3383992D01*
X4050552Y3400059D01*
X4026167Y3410160D01*
X4000000Y3413605D01*
D02*
G37*
G36*
X3750000D02*
X3723832Y3410160D01*
X3699447Y3400059D01*
X3678508Y3383992D01*
X3662440Y3363052D01*
X3652340Y3338668D01*
X3648895Y3312500D01*
Y3287500D01*
X3652340Y3261332D01*
X3658798Y3245742D01*
X3148018Y2734962D01*
X2951088D01*
X2943459Y2742591D01*
X2924993Y2750240D01*
X2905007D01*
X2886541Y2742591D01*
X2872409Y2728459D01*
X2864760Y2709993D01*
Y2690007D01*
X2872409Y2671541D01*
X2880038Y2663912D01*
Y2155378D01*
X2872409Y2147749D01*
X2864760Y2129284D01*
Y2109297D01*
X2870884Y2094513D01*
X2867699Y2089747D01*
X2865038Y2076367D01*
Y1536563D01*
X2854841Y1526365D01*
X2847192Y1507900D01*
Y1487913D01*
X2854841Y1469448D01*
X2862470Y1461819D01*
Y933520D01*
X2857409Y928458D01*
X2849760Y909993D01*
Y890006D01*
X2857409Y871541D01*
X2871541Y857408D01*
X2890006Y849760D01*
X2909993D01*
X2928458Y857408D01*
X2942591Y871541D01*
X2950240Y890006D01*
Y909993D01*
X2942591Y928458D01*
X2932394Y938656D01*
Y1461819D01*
X2940023Y1469448D01*
X2947672Y1487913D01*
Y1507900D01*
X2940023Y1526365D01*
X2934962Y1531427D01*
Y2061886D01*
X2939722Y2066646D01*
X2947300Y2077988D01*
X2947934Y2081174D01*
X2957591Y2090831D01*
X2965240Y2109297D01*
Y2129284D01*
X2957591Y2147749D01*
X2949962Y2155378D01*
Y2663912D01*
X2951088Y2665038D01*
X3162500D01*
X3175879Y2667700D01*
X3187221Y2675278D01*
X3647754Y3135811D01*
X3657409Y3128458D01*
X3649760Y3109993D01*
Y3090007D01*
X3657409Y3071541D01*
X3671541Y3057409D01*
X3690007Y3049760D01*
X3700796D01*
X3816539Y2934018D01*
Y2848499D01*
X3819200Y2835120D01*
X3826779Y2823777D01*
X3949760Y2700796D01*
Y2690007D01*
X3957409Y2671541D01*
X3965038Y2663912D01*
Y2136088D01*
X3957409Y2128459D01*
X3949760Y2109993D01*
Y2090006D01*
X3957409Y2071541D01*
X3965038Y2063912D01*
Y1538341D01*
X3960961Y1534264D01*
X3953312Y1515798D01*
Y1495812D01*
X3960961Y1477346D01*
X3968590Y1469717D01*
Y939640D01*
X3957409Y928458D01*
X3949760Y909993D01*
Y890006D01*
X3957409Y871541D01*
X3971541Y857408D01*
X3990006Y849760D01*
X4009993D01*
X4028459Y857408D01*
X4042591Y871541D01*
X4050240Y890006D01*
Y909993D01*
X4042591Y928458D01*
X4038514Y932535D01*
Y1469717D01*
X4046144Y1477346D01*
X4053792Y1495812D01*
Y1515798D01*
X4046144Y1534264D01*
X4034962Y1545445D01*
Y2063912D01*
X4042591Y2071541D01*
X4050240Y2090006D01*
Y2109993D01*
X4042591Y2128459D01*
X4034962Y2136088D01*
Y2663912D01*
X4042591Y2671541D01*
X4050240Y2690007D01*
Y2709993D01*
X4042591Y2728459D01*
X4028459Y2742591D01*
X4009993Y2750240D01*
X3999204D01*
X3886462Y2862981D01*
Y2948499D01*
X3883801Y2961879D01*
X3876222Y2973221D01*
X3876222Y2973222D01*
X3750240Y3099204D01*
Y3109993D01*
X3742591Y3128459D01*
X3728459Y3142591D01*
X3709993Y3150240D01*
X3690007D01*
X3671542Y3142591D01*
X3664189Y3152246D01*
X3708241Y3196298D01*
X3723832Y3189840D01*
X3750000Y3186395D01*
X3776167Y3189840D01*
X3800552Y3199941D01*
X3821491Y3216008D01*
X3837559Y3236948D01*
X3847659Y3261332D01*
X3851104Y3287500D01*
Y3312500D01*
X3847659Y3338668D01*
X3837559Y3363052D01*
X3821491Y3383992D01*
X3800552Y3400059D01*
X3776167Y3410160D01*
X3750000Y3413605D01*
D02*
G37*
G36*
X3500000D02*
X3473832Y3410160D01*
X3449447Y3400059D01*
X3428508Y3383992D01*
X3412440Y3363052D01*
X3402340Y3338668D01*
X3398895Y3312500D01*
Y3287500D01*
X3402340Y3261332D01*
X3412440Y3236948D01*
X3428508Y3216008D01*
X3449447Y3199941D01*
X3473832Y3189840D01*
X3500000Y3186395D01*
X3526167Y3189840D01*
X3550552Y3199941D01*
X3571491Y3216008D01*
X3587559Y3236948D01*
X3597659Y3261332D01*
X3601104Y3287500D01*
Y3312500D01*
X3597659Y3338668D01*
X3587559Y3363052D01*
X3571491Y3383992D01*
X3550552Y3400059D01*
X3526167Y3410160D01*
X3500000Y3413605D01*
D02*
G37*
G36*
X3250000D02*
X3223832Y3410160D01*
X3199447Y3400059D01*
X3178508Y3383992D01*
X3162440Y3363052D01*
X3152340Y3338668D01*
X3148895Y3312500D01*
Y3287500D01*
X3152340Y3261332D01*
X3158798Y3245742D01*
X1948018Y2034962D01*
X1151222D01*
X1145862Y2040661D01*
X1143720Y2053780D01*
X1150991Y2064663D01*
X1153545Y2077500D01*
Y2087300D01*
X1050000D01*
X946456D01*
Y2077500D01*
X949009Y2064663D01*
X956281Y2053780D01*
X959652Y2051527D01*
X960690Y2048211D01*
X961458Y2035680D01*
X958579Y2031373D01*
X956815Y2022500D01*
Y1977500D01*
X958579Y1968628D01*
X963606Y1961106D01*
X970216Y1956688D01*
X970957Y1950000D01*
X970216Y1943312D01*
X963606Y1938895D01*
X958579Y1931373D01*
X956815Y1922500D01*
Y1877500D01*
X958579Y1868627D01*
X963606Y1861105D01*
X971128Y1856079D01*
X980000Y1854315D01*
X1120000D01*
X1128873Y1856079D01*
X1136395Y1861105D01*
X1139023Y1865038D01*
X1288912D01*
X1296541Y1857409D01*
X1315007Y1849760D01*
X1334993D01*
X1353459Y1857409D01*
X1367591Y1871541D01*
X1375240Y1890007D01*
Y1909993D01*
X1367591Y1928459D01*
X1353459Y1942591D01*
X1334993Y1950240D01*
X1315007D01*
X1296541Y1942591D01*
X1288912Y1934962D01*
X1139023D01*
X1136395Y1938895D01*
X1129784Y1943312D01*
X1129044Y1950000D01*
X1129784Y1956688D01*
X1136395Y1961106D01*
X1139023Y1965038D01*
X1962500D01*
X1975879Y1967700D01*
X1987222Y1975278D01*
X3208241Y3196298D01*
X3223832Y3189840D01*
X3250000Y3186395D01*
X3276167Y3189840D01*
X3300552Y3199941D01*
X3321491Y3216008D01*
X3337559Y3236948D01*
X3347659Y3261332D01*
X3351104Y3287500D01*
Y3312500D01*
X3347659Y3338668D01*
X3337559Y3363052D01*
X3321491Y3383992D01*
X3300552Y3400059D01*
X3276167Y3410160D01*
X3250000Y3413605D01*
D02*
G37*
G36*
X3000000D02*
X2973832Y3410160D01*
X2949447Y3400059D01*
X2928508Y3383992D01*
X2912440Y3363052D01*
X2902340Y3338668D01*
X2898895Y3312500D01*
Y3287500D01*
X2902340Y3261332D01*
X2912440Y3236948D01*
X2912468Y3236912D01*
X1810518Y2134962D01*
X1361088D01*
X1353459Y2142591D01*
X1334993Y2150240D01*
X1315007D01*
X1296541Y2142591D01*
X1282409Y2128459D01*
X1274760Y2109993D01*
Y2090007D01*
X1282409Y2071541D01*
X1296541Y2057409D01*
X1315007Y2049760D01*
X1334993D01*
X1353459Y2057409D01*
X1361088Y2065038D01*
X1825000D01*
X1838379Y2067700D01*
X1849722Y2075278D01*
X2967080Y3192637D01*
X2973832Y3189840D01*
X3000000Y3186395D01*
X3026167Y3189840D01*
X3050552Y3199941D01*
X3071491Y3216008D01*
X3087559Y3236948D01*
X3097659Y3261332D01*
X3101104Y3287500D01*
Y3312500D01*
X3097659Y3338668D01*
X3087559Y3363052D01*
X3071491Y3383992D01*
X3050552Y3400059D01*
X3026167Y3410160D01*
X3000000Y3413605D01*
D02*
G37*
G36*
X2861326Y3287300D02*
X2762700D01*
Y3177819D01*
X2778820Y3179942D01*
X2805676Y3191066D01*
X2828738Y3208762D01*
X2846434Y3231824D01*
X2857558Y3258680D01*
X2861326Y3287300D01*
D02*
G37*
G36*
X2737300D02*
X2638673D01*
X2642441Y3258680D01*
X2653565Y3231824D01*
X2671261Y3208762D01*
X2694323Y3191066D01*
X2721179Y3179942D01*
X2737300Y3177819D01*
Y3287300D01*
D02*
G37*
G36*
X7800000Y3626367D02*
X7731295Y3621864D01*
X7663766Y3608431D01*
X7598568Y3586300D01*
X7536817Y3555847D01*
X7479568Y3517595D01*
X7427802Y3472198D01*
X7382405Y3420432D01*
X7344153Y3363184D01*
X7313700Y3301432D01*
X7291568Y3236234D01*
X7278136Y3168705D01*
X7273633Y3100000D01*
X7278136Y3031295D01*
X7291568Y2963766D01*
X7313700Y2898568D01*
X7344153Y2836816D01*
X7382405Y2779568D01*
X7427802Y2727802D01*
X7479568Y2682405D01*
X7536817Y2644153D01*
X7598568Y2613700D01*
X7663766Y2591568D01*
X7731295Y2578136D01*
X7800000Y2573633D01*
X7868705Y2578136D01*
X7936234Y2591568D01*
X8001432Y2613700D01*
X8063183Y2644153D01*
X8120432Y2682405D01*
X8172198Y2727802D01*
X8217595Y2779568D01*
X8255847Y2836816D01*
X8286300Y2898568D01*
X8308431Y2963766D01*
X8321864Y3031295D01*
X8326367Y3100000D01*
X8321864Y3168705D01*
X8308431Y3236234D01*
X8286300Y3301432D01*
X8255847Y3363184D01*
X8217595Y3420432D01*
X8172198Y3472198D01*
X8120432Y3517595D01*
X8063183Y3555847D01*
X8001432Y3586300D01*
X7936234Y3608431D01*
X7868705Y3621864D01*
X7800000Y3626367D01*
D02*
G37*
G36*
X1100000D02*
X1031295Y3621864D01*
X963766Y3608431D01*
X898568Y3586300D01*
X836817Y3555847D01*
X779568Y3517595D01*
X727802Y3472198D01*
X682405Y3420432D01*
X644153Y3363184D01*
X613700Y3301432D01*
X591569Y3236234D01*
X578136Y3168705D01*
X573633Y3100000D01*
X578136Y3031295D01*
X591569Y2963766D01*
X613700Y2898568D01*
X644153Y2836816D01*
X682405Y2779568D01*
X727802Y2727802D01*
X779568Y2682405D01*
X836816Y2644153D01*
X898568Y2613700D01*
X963766Y2591568D01*
X1031295Y2578136D01*
X1100000Y2573633D01*
X1168705Y2578136D01*
X1236234Y2591568D01*
X1301432Y2613700D01*
X1363183Y2644153D01*
X1420432Y2682405D01*
X1472198Y2727802D01*
X1517595Y2779568D01*
X1555847Y2836816D01*
X1586300Y2898568D01*
X1608432Y2963766D01*
X1621864Y3031295D01*
X1626367Y3100000D01*
X1621864Y3168705D01*
X1608432Y3236234D01*
X1586300Y3301432D01*
X1555847Y3363184D01*
X1517595Y3420432D01*
X1472198Y3472198D01*
X1420432Y3517595D01*
X1363183Y3555847D01*
X1301432Y3586300D01*
X1236234Y3608431D01*
X1168705Y3621864D01*
X1100000Y3626367D01*
D02*
G37*
G36*
X5165000Y2584962D02*
X5151621Y2582300D01*
X5140278Y2574722D01*
X5132699Y2563379D01*
X5130038Y2550000D01*
Y2548372D01*
X5132699Y2534993D01*
X5140278Y2523651D01*
X5141113Y2522815D01*
X5152456Y2515237D01*
X5165835Y2512575D01*
X5179214Y2515237D01*
X5190557Y2522815D01*
X5198135Y2534158D01*
X5200797Y2547537D01*
X5198135Y2560916D01*
X5197644Y2561652D01*
X5197300Y2563379D01*
X5189722Y2574722D01*
X5178379Y2582300D01*
X5165000Y2584962D01*
D02*
G37*
G36*
X739900Y2405785D02*
X585100D01*
X574238Y2403624D01*
X565029Y2397471D01*
X558876Y2388262D01*
X556715Y2377400D01*
Y2282600D01*
X558876Y2271737D01*
X565029Y2262529D01*
X574238Y2256375D01*
X585100Y2254215D01*
X739900D01*
X750763Y2256375D01*
X759971Y2262529D01*
X766124Y2271737D01*
X768285Y2282600D01*
Y2377400D01*
X766124Y2388262D01*
X759971Y2397471D01*
X750763Y2403624D01*
X739900Y2405785D01*
D02*
G37*
G36*
X1266531Y2312648D02*
X1246544D01*
X1228079Y2304999D01*
X1213946Y2290867D01*
X1206297Y2272401D01*
Y2267115D01*
X1174144Y2234962D01*
X1139023D01*
X1136395Y2238894D01*
X1128873Y2243921D01*
X1120000Y2245685D01*
X980000D01*
X971128Y2243921D01*
X963606Y2238894D01*
X958579Y2231372D01*
X956815Y2222500D01*
Y2177500D01*
X958579Y2168627D01*
X961458Y2164320D01*
X960690Y2151789D01*
X959652Y2148472D01*
X956281Y2146219D01*
X949009Y2135337D01*
X946456Y2122500D01*
Y2112700D01*
X1050000D01*
X1153545D01*
Y2122500D01*
X1150991Y2135337D01*
X1143720Y2146219D01*
X1145862Y2159339D01*
X1151222Y2165038D01*
X1188626D01*
X1202005Y2167699D01*
X1213347Y2175278D01*
X1250237Y2212168D01*
X1266531D01*
X1284996Y2219817D01*
X1299128Y2233949D01*
X1306777Y2252415D01*
Y2272401D01*
X1299128Y2290867D01*
X1284996Y2304999D01*
X1266531Y2312648D01*
D02*
G37*
G36*
X5750000Y3413605D02*
X5723832Y3410160D01*
X5699447Y3400059D01*
X5678508Y3383992D01*
X5662441Y3363052D01*
X5652340Y3338668D01*
X5648895Y3312500D01*
Y3287500D01*
X5652340Y3261332D01*
X5662441Y3236948D01*
X5678508Y3216008D01*
X5699447Y3199941D01*
X5715038Y3193483D01*
Y2400000D01*
X5717699Y2386621D01*
X5725278Y2375278D01*
X5765278Y2335278D01*
X5772595Y2330389D01*
X5882392Y2220592D01*
Y2209803D01*
X5890041Y2191337D01*
X5904173Y2177205D01*
X5922639Y2169556D01*
X5942625D01*
X5961091Y2177205D01*
X5975223Y2191337D01*
X5982872Y2209803D01*
Y2229789D01*
X5975223Y2248255D01*
X5961091Y2262387D01*
X5942625Y2270036D01*
X5931836D01*
X5817150Y2384722D01*
X5809832Y2389611D01*
X5784962Y2414482D01*
Y3193483D01*
X5800552Y3199941D01*
X5821492Y3216008D01*
X5837559Y3236948D01*
X5847659Y3261332D01*
X5851104Y3287500D01*
Y3312500D01*
X5847659Y3338668D01*
X5837559Y3363052D01*
X5821492Y3383992D01*
X5800552Y3400059D01*
X5776168Y3410160D01*
X5750000Y3413605D01*
D02*
G37*
G36*
X6245338Y2239590D02*
X6223362D01*
X6203059Y2231180D01*
X6187520Y2215641D01*
X6179110Y2195338D01*
Y2173362D01*
X6187520Y2153059D01*
X6203059Y2137520D01*
X6223362Y2129110D01*
X6245338D01*
X6265641Y2137520D01*
X6281180Y2153059D01*
X6289590Y2173362D01*
Y2195338D01*
X6281180Y2215641D01*
X6265641Y2231180D01*
X6257231Y2234664D01*
X6245338Y2239590D01*
D02*
G37*
G36*
X5500000Y3413605D02*
X5473832Y3410160D01*
X5449447Y3400059D01*
X5428508Y3383992D01*
X5412441Y3363052D01*
X5402340Y3338668D01*
X5398895Y3312500D01*
Y3287500D01*
X5402340Y3261332D01*
X5412441Y3236948D01*
X5428508Y3216008D01*
X5449447Y3199941D01*
X5465038Y3193483D01*
Y2447500D01*
X5467699Y2434121D01*
X5475278Y2422778D01*
X5772260Y2125796D01*
Y2115007D01*
X5779908Y2096541D01*
X5794041Y2082409D01*
X5812506Y2074760D01*
X5832493D01*
X5850958Y2082409D01*
X5865091Y2096541D01*
X5872740Y2115007D01*
Y2134993D01*
X5865091Y2153459D01*
X5850958Y2167591D01*
X5832493Y2175240D01*
X5821703D01*
X5534961Y2461982D01*
Y3193483D01*
X5550552Y3199941D01*
X5571492Y3216008D01*
X5587559Y3236948D01*
X5597659Y3261332D01*
X5601104Y3287500D01*
Y3312500D01*
X5597659Y3338668D01*
X5587559Y3363052D01*
X5571492Y3383992D01*
X5550552Y3400059D01*
X5526168Y3410160D01*
X5500000Y3413605D01*
D02*
G37*
G36*
X5974897Y1985890D02*
X5956402D01*
X5938538Y1981103D01*
X5922521Y1971856D01*
X5909444Y1958778D01*
X5900196Y1942761D01*
X5895410Y1924897D01*
Y1906403D01*
X5900196Y1888538D01*
X5909444Y1872521D01*
X5922521Y1859444D01*
X5938538Y1850197D01*
X5956402Y1845410D01*
X5974897D01*
X5992761Y1850197D01*
X6008778Y1859444D01*
X6021855Y1872521D01*
X6031102Y1888538D01*
X6035889Y1906402D01*
Y1924897D01*
X6031102Y1942761D01*
X6021855Y1958778D01*
X6008778Y1971856D01*
X5992761Y1981103D01*
X5974897Y1985890D01*
D02*
G37*
G36*
X5250000Y3413605D02*
X5223832Y3410160D01*
X5199447Y3400059D01*
X5178508Y3383992D01*
X5162441Y3363052D01*
X5152340Y3338668D01*
X5148895Y3312500D01*
Y3287500D01*
X5152340Y3261332D01*
X5162441Y3236948D01*
X5178508Y3216008D01*
X5199447Y3199941D01*
X5215038Y3193483D01*
Y2390000D01*
X5217699Y2376621D01*
X5225278Y2365278D01*
X5826409Y1764147D01*
X5826409Y1764147D01*
X5837752Y1756568D01*
X5851131Y1753906D01*
X5851133Y1753907D01*
X6113615D01*
X6121245Y1746277D01*
X6139710Y1738628D01*
X6159697D01*
X6178162Y1746277D01*
X6192295Y1760410D01*
X6199943Y1778875D01*
Y1798862D01*
X6192295Y1817327D01*
X6178162Y1831460D01*
X6159697Y1839108D01*
X6139710D01*
X6121245Y1831460D01*
X6113615Y1823830D01*
X5865613D01*
X5284961Y2404482D01*
Y3193483D01*
X5300552Y3199941D01*
X5321492Y3216008D01*
X5337559Y3236948D01*
X5347659Y3261332D01*
X5351104Y3287500D01*
Y3312500D01*
X5347659Y3338668D01*
X5337559Y3363052D01*
X5321492Y3383992D01*
X5300552Y3400059D01*
X5276168Y3410160D01*
X5250000Y3413605D01*
D02*
G37*
G36*
X739900Y1845785D02*
X585100D01*
X574238Y1843624D01*
X565029Y1837471D01*
X558876Y1828263D01*
X556715Y1817400D01*
Y1722600D01*
X558876Y1711737D01*
X565029Y1702529D01*
X574238Y1696376D01*
X585100Y1694215D01*
X739900D01*
X750763Y1696376D01*
X759971Y1702529D01*
X766124Y1711737D01*
X768285Y1722600D01*
Y1817400D01*
X766124Y1828263D01*
X759971Y1837471D01*
X750763Y1843624D01*
X739900Y1845785D01*
D02*
G37*
G36*
X7800000Y1526367D02*
X7731295Y1521864D01*
X7663766Y1508432D01*
X7598568Y1486300D01*
X7536817Y1455847D01*
X7479568Y1417595D01*
X7427802Y1372198D01*
X7382405Y1320432D01*
X7344153Y1263184D01*
X7313700Y1201432D01*
X7291568Y1136234D01*
X7278136Y1068705D01*
X7273633Y1000000D01*
X7278136Y931295D01*
X7291568Y863766D01*
X7313700Y798568D01*
X7344153Y736816D01*
X7382405Y679568D01*
X7427802Y627802D01*
X7479568Y582405D01*
X7536817Y544153D01*
X7598568Y513700D01*
X7663766Y491568D01*
X7731295Y478136D01*
X7800000Y473633D01*
X7868705Y478136D01*
X7936234Y491568D01*
X8001432Y513700D01*
X8063183Y544153D01*
X8120432Y582405D01*
X8172198Y627802D01*
X8217595Y679568D01*
X8255847Y736816D01*
X8286300Y798568D01*
X8308431Y863766D01*
X8321864Y931295D01*
X8326367Y1000000D01*
X8321864Y1068705D01*
X8308431Y1136234D01*
X8286300Y1201432D01*
X8255847Y1263184D01*
X8217595Y1320432D01*
X8172198Y1372198D01*
X8120432Y1417595D01*
X8063183Y1455847D01*
X8001432Y1486300D01*
X7936234Y1508432D01*
X7868705Y1521864D01*
X7800000Y1526367D01*
D02*
G37*
G36*
X1100000D02*
X1031295Y1521864D01*
X963766Y1508432D01*
X898568Y1486300D01*
X836817Y1455847D01*
X779568Y1417595D01*
X727802Y1372198D01*
X682405Y1320432D01*
X644153Y1263184D01*
X613700Y1201432D01*
X591569Y1136234D01*
X578136Y1068705D01*
X573633Y1000000D01*
X578136Y931295D01*
X591569Y863766D01*
X613700Y798568D01*
X644153Y736816D01*
X682405Y679568D01*
X727802Y627802D01*
X779568Y582405D01*
X836816Y544153D01*
X898568Y513700D01*
X963766Y491568D01*
X1031295Y478136D01*
X1100000Y473633D01*
X1168705Y478136D01*
X1236234Y491568D01*
X1301432Y513700D01*
X1363183Y544153D01*
X1420432Y582405D01*
X1472198Y627802D01*
X1517595Y679568D01*
X1555847Y736816D01*
X1586300Y798568D01*
X1608432Y863766D01*
X1621864Y931295D01*
X1626367Y1000000D01*
X1621864Y1068705D01*
X1608432Y1136234D01*
X1586300Y1201432D01*
X1555847Y1263184D01*
X1517595Y1320432D01*
X1472198Y1372198D01*
X1420432Y1417595D01*
X1363183Y1455847D01*
X1301432Y1486300D01*
X1236234Y1508432D01*
X1168705Y1521864D01*
X1100000Y1526367D01*
D02*
G37*
%LPD*%
D13*
X4003552Y903552D02*
Y1505805D01*
X4000000Y900000D02*
X4003552Y903552D01*
X2897432Y902568D02*
X2900000Y900000D01*
X3851501Y2848499D02*
Y2948499D01*
X3700000Y3100000D02*
X3851501Y2948499D01*
Y2848499D02*
X4000000Y2700000D01*
X1188626Y2200000D02*
X1251034Y2262408D01*
X1050000Y2200000D02*
X1188626D01*
X1251034Y2262408D02*
X1256537D01*
X1825000Y2100000D02*
X3000000Y3275000D01*
Y3300000D01*
X1325000Y2100000D02*
X1825000D01*
X1050000Y1900000D02*
X1325000D01*
X1050000Y2000000D02*
X1962500D01*
X3250000Y3287500D01*
Y3300000D01*
X2897432Y902568D02*
Y1497907D01*
X2900000Y1500475D01*
X4000000Y1509357D02*
X4003552Y1505805D01*
X2900000Y1500475D02*
Y2076367D01*
X4000000Y1509357D02*
Y2100000D01*
X2900000Y2076367D02*
X2915000Y2091368D01*
Y2119290D01*
Y2700000D01*
X4000000Y2100000D02*
Y2700000D01*
X2915000D02*
X3162500D01*
X3750000Y3287500D02*
Y3300000D01*
X3500000Y3258632D02*
Y3300000D01*
X5851131Y1788868D02*
X6149703D01*
X5165000Y2548372D02*
Y2550000D01*
X3162500Y2700000D02*
X3750000Y3287500D01*
X5250000Y2390000D02*
Y3300000D01*
Y2390000D02*
X5851131Y1788868D01*
X5500000Y2447500D02*
X5822500Y2125000D01*
X5500000Y2447500D02*
Y3300000D01*
X5790000Y2360000D02*
X5792428D01*
X5750000Y2400000D02*
X5790000Y2360000D01*
X5750000Y2400000D02*
Y3300000D01*
X5792428Y2360000D02*
X5932632Y2219796D01*
X5165000Y2548372D02*
X5165835Y2547537D01*
D14*
X7800000Y1000000D02*
D03*
Y3100000D02*
D03*
X1100000D02*
D03*
Y1000000D02*
D03*
D15*
X2750000Y3300000D02*
D03*
X3000000D02*
D03*
X3250000D02*
D03*
X3500000D02*
D03*
X3750000D02*
D03*
X4000000D02*
D03*
X4250000D02*
D03*
X4500000D02*
D03*
X4750000D02*
D03*
X5000000D02*
D03*
X5250000D02*
D03*
X5500000D02*
D03*
X5750000D02*
D03*
X6000000D02*
D03*
X6250000D02*
D03*
D16*
X6500000D02*
D03*
D17*
X2900000Y900000D02*
D03*
X4000000D02*
D03*
X3700000Y3100000D02*
D03*
X1256537Y2262408D02*
D03*
X1325000Y2100000D02*
D03*
Y1900000D02*
D03*
X5165000Y2800000D02*
D03*
Y2550000D02*
D03*
X5168917Y2261751D02*
D03*
X6149703Y1788868D02*
D03*
X5822500Y2125000D02*
D03*
X5932632Y2219796D02*
D03*
X7040000Y1790000D02*
D03*
Y1450000D02*
D03*
X4003552Y1505805D02*
D03*
X2897432Y1497907D02*
D03*
X4000000Y2700000D02*
D03*
Y2100000D02*
D03*
X2915000Y2119290D02*
D03*
Y2700000D02*
D03*
D18*
X662500Y2330000D02*
D03*
Y1770000D02*
D03*
D19*
X1050000Y2200000D02*
D03*
Y2100000D02*
D03*
Y2000000D02*
D03*
Y1900000D02*
D03*
%TF.MD5,84177121316ba3ecf2699581d25b4453*%
M02*
