%TF.GenerationSoftware,Altium Limited,Altium Designer,21.3.2 (30)*%
G04 Layer_Color=8388736*
%FSLAX45Y45*%
%MOMM*%
%TF.SameCoordinates,29C89E41-5BB3-4AF8-996E-2FCDB6C4A0D1*%
%TF.FilePolarity,Negative*%
%TF.FileFunction,Soldermask,Top*%
%TF.Part,Single*%
G01*
G75*
%TA.AperFunction,ComponentPad*%
%ADD24C,5.20320*%
G04:AMPARAMS|DCode=25|XSize=1.9032mm|YSize=2.1532mm|CornerRadius=0.9516mm|HoleSize=0mm|Usage=FLASHONLY|Rotation=180.000|XOffset=0mm|YOffset=0mm|HoleType=Round|Shape=RoundedRectangle|*
%AMROUNDEDRECTD25*
21,1,1.90320,0.25000,0,0,180.0*
21,1,0.00000,2.15320,0,0,180.0*
1,1,1.90320,0.00000,0.12500*
1,1,1.90320,0.00000,0.12500*
1,1,1.90320,0.00000,-0.12500*
1,1,1.90320,0.00000,-0.12500*
%
%ADD25ROUNDEDRECTD25*%
G04:AMPARAMS|DCode=26|XSize=1.9032mm|YSize=2.1532mm|CornerRadius=0.2291mm|HoleSize=0mm|Usage=FLASHONLY|Rotation=180.000|XOffset=0mm|YOffset=0mm|HoleType=Round|Shape=RoundedRectangle|*
%AMROUNDEDRECTD26*
21,1,1.90320,1.69500,0,0,180.0*
21,1,1.44500,2.15320,0,0,180.0*
1,1,0.45820,-0.72250,0.84750*
1,1,0.45820,0.72250,0.84750*
1,1,0.45820,0.72250,-0.84750*
1,1,0.45820,-0.72250,-0.84750*
%
%ADD26ROUNDEDRECTD26*%
%ADD27C,0.20320*%
%TA.AperFunction,SMDPad,CuDef*%
%ADD29R,1.15320X1.60320*%
G04:AMPARAMS|DCode=30|XSize=2.0032mm|YSize=2.2032mm|CornerRadius=0mm|HoleSize=0mm|Usage=FLASHONLY|Rotation=225.000|XOffset=0mm|YOffset=0mm|HoleType=Round|Shape=Rectangle|*
%AMROTATEDRECTD30*
4,1,4,-0.07071,1.48719,1.48719,-0.07071,0.07071,-1.48719,-1.48719,0.07071,-0.07071,1.48719,0.0*
%
%ADD30ROTATEDRECTD30*%

G04:AMPARAMS|DCode=31|XSize=1.2032mm|YSize=2.2032mm|CornerRadius=0mm|HoleSize=0mm|Usage=FLASHONLY|Rotation=225.000|XOffset=0mm|YOffset=0mm|HoleType=Round|Shape=Rectangle|*
%AMROTATEDRECTD31*
4,1,4,-0.35355,1.20435,1.20435,-0.35355,0.35355,-1.20435,-1.20435,0.35355,-0.35355,1.20435,0.0*
%
%ADD31ROTATEDRECTD31*%

D24*
X7800000Y1000000D02*
D03*
Y3100000D02*
D03*
X1100000D02*
D03*
Y1000000D02*
D03*
D25*
X2750000Y3300000D02*
D03*
X3000000D02*
D03*
X3250000D02*
D03*
X3500000D02*
D03*
X3750000D02*
D03*
X4000000D02*
D03*
X4250000D02*
D03*
X4500000D02*
D03*
X4750000D02*
D03*
X5000000D02*
D03*
X5250000D02*
D03*
X5500000D02*
D03*
X5750000D02*
D03*
X6000000D02*
D03*
X6250000D02*
D03*
D26*
X6500000D02*
D03*
D27*
X6234350Y2184350D02*
D03*
X5965649Y1915650D02*
D03*
D29*
X4000000Y2700000D02*
D03*
X4185000D02*
D03*
X2915000D02*
D03*
X3100000D02*
D03*
X1815000D02*
D03*
X2000000D02*
D03*
X4000000Y2100000D02*
D03*
X4185000D02*
D03*
X2915000D02*
D03*
X3100000D02*
D03*
X1815000D02*
D03*
X2000000D02*
D03*
X1800000Y1500000D02*
D03*
X1985000D02*
D03*
X4000000D02*
D03*
X4185000D02*
D03*
X2900000D02*
D03*
X3085000D02*
D03*
X4000000Y1000000D02*
D03*
X4185000D02*
D03*
X2900000D02*
D03*
X3085000D02*
D03*
X1799999D02*
D03*
X1984999D02*
D03*
X4800000Y2700000D02*
D03*
X4615000D02*
D03*
X4784999Y1000000D02*
D03*
X4600000D02*
D03*
X5357834Y2257834D02*
D03*
X5172834D02*
D03*
X5350000Y2550000D02*
D03*
X5165000D02*
D03*
X5350000Y2800000D02*
D03*
X5165000D02*
D03*
X7042500Y1450000D02*
D03*
X6857500D02*
D03*
X7042500Y1800000D02*
D03*
X6857500D02*
D03*
X4784999Y2100000D02*
D03*
X4600000D02*
D03*
X4800000Y1500000D02*
D03*
X4615000D02*
D03*
D30*
X6386378Y2336378D02*
D03*
X5813622Y1763622D02*
D03*
D31*
X6481837Y1866153D02*
D03*
X6381075Y1765390D02*
D03*
X6280312Y1664627D02*
D03*
X5916153Y2431838D02*
D03*
X5815389Y2331075D02*
D03*
X5714627Y2230312D02*
D03*
%TF.MD5,317432b5d0d8a7b8839905d2c0ae3c6f*%
M02*
