%TF.GenerationSoftware,Altium Limited,Altium Designer,21.3.2 (30)*%
G04 Layer_Color=2752767*
%FSLAX45Y45*%
%MOMM*%
%TF.SameCoordinates,29C89E41-5BB3-4AF8-996E-2FCDB6C4A0D1*%
%TF.FilePolarity,Positive*%
%TF.FileFunction,Drawing*%
%TF.Part,Single*%
G01*
G75*
%TA.AperFunction,NonConductor*%
%ADD39C,0.12700*%
%ADD40C,0.16933*%
D39*
X7749200Y949200D02*
Y1050800D01*
X7850800D01*
Y949200D01*
X7749200D01*
Y3049200D02*
Y3150800D01*
X7850800D01*
Y3049200D01*
X7749200D01*
X1049200D02*
Y3150800D01*
X1150800D01*
Y3049200D01*
X1049200D01*
Y949200D02*
Y1050800D01*
X1150800D01*
Y949200D01*
X1049200D01*
X6234350Y2133550D02*
X6183550Y2235150D01*
X6285150D01*
X6234350Y2133550D01*
X5965649Y1864850D02*
X5991049Y1890250D01*
X6016449D01*
X5991049Y1915650D01*
X6016449Y1941050D01*
X5991049D01*
X5965649Y1966450D01*
X5940249Y1941050D01*
X5914849D01*
X5940249Y1915650D01*
X5914849Y1890250D01*
X5940249D01*
X5965649Y1864850D01*
X3649200Y3049200D02*
X3674600Y3100000D01*
X3649200Y3150800D01*
X3700000Y3125400D01*
X3750800Y3150800D01*
X3725400Y3100000D01*
X3750800Y3049200D01*
X3700000Y3074600D01*
X3649200Y3049200D01*
X1205737Y2211608D02*
X1231137Y2262408D01*
X1205737Y2313208D01*
X1256537Y2287808D01*
X1307337Y2313208D01*
X1281937Y2262408D01*
X1307337Y2211608D01*
X1256537Y2237008D01*
X1205737Y2211608D01*
X1274200Y2049200D02*
X1299600Y2100000D01*
X1274200Y2150800D01*
X1325000Y2125400D01*
X1375800Y2150800D01*
X1350400Y2100000D01*
X1375800Y2049200D01*
X1325000Y2074600D01*
X1274200Y2049200D01*
Y1849200D02*
X1299600Y1900000D01*
X1274200Y1950800D01*
X1325000Y1925400D01*
X1375800Y1950800D01*
X1350400Y1900000D01*
X1375800Y1849200D01*
X1325000Y1874600D01*
X1274200Y1849200D01*
X5114200Y2749200D02*
X5139600Y2800000D01*
X5114200Y2850800D01*
X5165000Y2825400D01*
X5215800Y2850800D01*
X5190400Y2800000D01*
X5215800Y2749200D01*
X5165000Y2774600D01*
X5114200Y2749200D01*
Y2499200D02*
X5139600Y2550000D01*
X5114200Y2600800D01*
X5165000Y2575400D01*
X5215800Y2600800D01*
X5190400Y2550000D01*
X5215800Y2499200D01*
X5165000Y2524600D01*
X5114200Y2499200D01*
X5118117Y2210951D02*
X5143517Y2261751D01*
X5118117Y2312551D01*
X5168917Y2287151D01*
X5219717Y2312551D01*
X5194317Y2261751D01*
X5219717Y2210951D01*
X5168917Y2236351D01*
X5118117Y2210951D01*
X6098903Y1738068D02*
X6124303Y1788868D01*
X6098903Y1839668D01*
X6149703Y1814268D01*
X6200503Y1839668D01*
X6175103Y1788868D01*
X6200503Y1738068D01*
X6149703Y1763468D01*
X6098903Y1738068D01*
X5771700Y2074200D02*
X5797100Y2125000D01*
X5771700Y2175800D01*
X5822500Y2150400D01*
X5873300Y2175800D01*
X5847900Y2125000D01*
X5873300Y2074200D01*
X5822500Y2099600D01*
X5771700Y2074200D01*
X5881832Y2168996D02*
X5907232Y2219796D01*
X5881832Y2270596D01*
X5932632Y2245196D01*
X5983432Y2270596D01*
X5958032Y2219796D01*
X5983432Y2168996D01*
X5932632Y2194396D01*
X5881832Y2168996D01*
X6989200Y1739200D02*
X7014600Y1790000D01*
X6989200Y1840800D01*
X7040000Y1815400D01*
X7090800Y1840800D01*
X7065400Y1790000D01*
X7090800Y1739200D01*
X7040000Y1764600D01*
X6989200Y1739200D01*
Y1399200D02*
X7014600Y1450000D01*
X6989200Y1500800D01*
X7040000Y1475400D01*
X7090800Y1500800D01*
X7065400Y1450000D01*
X7090800Y1399200D01*
X7040000Y1424600D01*
X6989200Y1399200D01*
X3949200Y949200D02*
X3974600Y1000000D01*
X3949200Y1050800D01*
X4000000Y1025400D01*
X4050800Y1050800D01*
X4025400Y1000000D01*
X4050800Y949200D01*
X4000000Y974600D01*
X3949200Y949200D01*
X3952752Y1455005D02*
X3978152Y1505805D01*
X3952752Y1556605D01*
X4003552Y1531205D01*
X4054352Y1556605D01*
X4028952Y1505805D01*
X4054352Y1455005D01*
X4003552Y1480405D01*
X3952752Y1455005D01*
X2846632Y1447107D02*
X2872032Y1497907D01*
X2846632Y1548707D01*
X2897432Y1523307D01*
X2948232Y1548707D01*
X2922832Y1497907D01*
X2948232Y1447107D01*
X2897432Y1472507D01*
X2846632Y1447107D01*
X3949200Y2649200D02*
X3974600Y2700000D01*
X3949200Y2750800D01*
X4000000Y2725400D01*
X4050800Y2750800D01*
X4025400Y2700000D01*
X4050800Y2649200D01*
X4000000Y2674600D01*
X3949200Y2649200D01*
Y2049200D02*
X3974600Y2100000D01*
X3949200Y2150800D01*
X4000000Y2125400D01*
X4050800Y2150800D01*
X4025400Y2100000D01*
X4050800Y2049200D01*
X4000000Y2074600D01*
X3949200Y2049200D01*
X2864200Y2068490D02*
X2889600Y2119290D01*
X2864200Y2170090D01*
X2915000Y2144690D01*
X2965800Y2170090D01*
X2940400Y2119290D01*
X2965800Y2068490D01*
X2915000Y2093890D01*
X2864200Y2068490D01*
Y2649200D02*
X2889600Y2700000D01*
X2864200Y2750800D01*
X2915000Y2725400D01*
X2965800Y2750800D01*
X2940400Y2700000D01*
X2965800Y2649200D01*
X2915000Y2674600D01*
X2864200Y2649200D01*
X2849200Y949200D02*
X2874600Y1000000D01*
X2849200Y1050800D01*
X2900000Y1025400D01*
X2950800Y1050800D01*
X2925400Y1000000D01*
X2950800Y949200D01*
X2900000Y974600D01*
X2849200Y949200D01*
D40*
X2800800Y3300000D02*
G03*
X2800800Y3300000I-50800J0D01*
G01*
X3050800D02*
G03*
X3050800Y3300000I-50800J0D01*
G01*
X3300800D02*
G03*
X3300800Y3300000I-50800J0D01*
G01*
X3550800D02*
G03*
X3550800Y3300000I-50800J0D01*
G01*
X3800800D02*
G03*
X3800800Y3300000I-50800J0D01*
G01*
X4050800D02*
G03*
X4050800Y3300000I-50800J0D01*
G01*
X4300800D02*
G03*
X4300800Y3300000I-50800J0D01*
G01*
X4550800D02*
G03*
X4550800Y3300000I-50800J0D01*
G01*
X4800800D02*
G03*
X4800800Y3300000I-50800J0D01*
G01*
X5050800D02*
G03*
X5050800Y3300000I-50800J0D01*
G01*
X5300800D02*
G03*
X5300800Y3300000I-50800J0D01*
G01*
X5550800D02*
G03*
X5550800Y3300000I-50800J0D01*
G01*
X5800800D02*
G03*
X5800800Y3300000I-50800J0D01*
G01*
X6050800D02*
G03*
X6050800Y3300000I-50800J0D01*
G01*
X6300800D02*
G03*
X6300800Y3300000I-50800J0D01*
G01*
X6550800D02*
G03*
X6550800Y3300000I-50800J0D01*
G01*
%TF.MD5,c7d1ccff1ef91596b7a14d77cc7f3eae*%
M02*
