%TF.GenerationSoftware,Altium Limited,Altium Designer,21.3.2 (30)*%
G04 Layer_Color=128*
%FSLAX45Y45*%
%MOMM*%
%TF.SameCoordinates,29C89E41-5BB3-4AF8-996E-2FCDB6C4A0D1*%
%TF.FilePolarity,Positive*%
%TF.FileFunction,Drillmap*%
%TF.Part,Single*%
G01*
G75*
%TA.AperFunction,NonConductor*%
%ADD39C,0.12700*%
D39*
X7600000Y1000000D02*
X8000000D01*
X7800000Y800000D02*
Y1200000D01*
X7600000Y3100000D02*
X8000000D01*
X7800000Y2900000D02*
Y3300000D01*
X900000Y3100000D02*
X1300000D01*
X1100000Y2900000D02*
Y3300000D01*
X900000Y1000000D02*
X1300000D01*
X1100000Y800000D02*
Y1200000D01*
X2702500Y3300000D02*
X2797500D01*
X2750000Y3252500D02*
Y3347500D01*
X2952500Y3300000D02*
X3047500D01*
X3000000Y3252500D02*
Y3347500D01*
X3202500Y3300000D02*
X3297500D01*
X3250000Y3252500D02*
Y3347500D01*
X3452500Y3300000D02*
X3547500D01*
X3500000Y3252500D02*
Y3347500D01*
X3702500Y3300000D02*
X3797500D01*
X3750000Y3252500D02*
Y3347500D01*
X3952500Y3300000D02*
X4047500D01*
X4000000Y3252500D02*
Y3347500D01*
X4202500Y3300000D02*
X4297500D01*
X4250000Y3252500D02*
Y3347500D01*
X4452500Y3300000D02*
X4547500D01*
X4500000Y3252500D02*
Y3347500D01*
X4702500Y3300000D02*
X4797500D01*
X4750000Y3252500D02*
Y3347500D01*
X4952500Y3300000D02*
X5047500D01*
X5000000Y3252500D02*
Y3347500D01*
X5202500Y3300000D02*
X5297500D01*
X5250000Y3252500D02*
Y3347500D01*
X5452500Y3300000D02*
X5547500D01*
X5500000Y3252500D02*
Y3347500D01*
X5702500Y3300000D02*
X5797500D01*
X5750000Y3252500D02*
Y3347500D01*
X5952500Y3300000D02*
X6047500D01*
X6000000Y3252500D02*
Y3347500D01*
X6202500Y3300000D02*
X6297500D01*
X6250000Y3252500D02*
Y3347500D01*
X6452500Y3300000D02*
X6547500D01*
X6500000Y3252500D02*
Y3347500D01*
X6194350Y2184350D02*
X6274350D01*
X6234350Y2144350D02*
Y2224350D01*
X5910650Y1915650D02*
X6020649D01*
X5965649Y1860650D02*
Y1970650D01*
X3685000Y3100000D02*
X3715000D01*
X3700000Y3085000D02*
Y3115000D01*
X1241537Y2262408D02*
X1271537D01*
X1256537Y2247408D02*
Y2277408D01*
X1310000Y2100000D02*
X1340000D01*
X1325000Y2085000D02*
Y2115000D01*
X1310000Y1900000D02*
X1340000D01*
X1325000Y1885000D02*
Y1915000D01*
X5150000Y2800000D02*
X5180000D01*
X5165000Y2785000D02*
Y2815000D01*
X5150000Y2550000D02*
X5180000D01*
X5165000Y2535000D02*
Y2565000D01*
X5153917Y2261751D02*
X5183917D01*
X5168917Y2246751D02*
Y2276751D01*
X6134704Y1788868D02*
X6164703D01*
X6149703Y1773868D02*
Y1803868D01*
X5807500Y2125000D02*
X5837500D01*
X5822500Y2110000D02*
Y2140000D01*
X5917632Y2219796D02*
X5947632D01*
X5932632Y2204796D02*
Y2234796D01*
X7025000Y1790000D02*
X7055000D01*
X7040000Y1775000D02*
Y1805000D01*
X7025000Y1450000D02*
X7055000D01*
X7040000Y1435000D02*
Y1465000D01*
X3985000Y1000000D02*
X4015000D01*
X4000000Y985000D02*
Y1015000D01*
X3988552Y1505805D02*
X4018552D01*
X4003552Y1490805D02*
Y1520805D01*
X2882432Y1497907D02*
X2912432D01*
X2897432Y1482907D02*
Y1512907D01*
X3985000Y2700000D02*
X4015000D01*
X4000000Y2685000D02*
Y2715000D01*
X3985000Y2100000D02*
X4015000D01*
X4000000Y2085000D02*
Y2115000D01*
X2900000Y2119290D02*
X2930000D01*
X2915000Y2104290D02*
Y2134290D01*
X2900000Y2700000D02*
X2930000D01*
X2915000Y2685000D02*
Y2715000D01*
X2885000Y1000000D02*
X2915000D01*
X2900000Y985000D02*
Y1015000D01*
%TF.MD5,3df343a64b407c171a5f76b6a857937b*%
M02*
