%TF.GenerationSoftware,Altium Limited,Altium Designer,21.3.2 (30)*%
G04 Layer_Color=8421504*
%FSLAX45Y45*%
%MOMM*%
%TF.SameCoordinates,29C89E41-5BB3-4AF8-996E-2FCDB6C4A0D1*%
%TF.FilePolarity,Positive*%
%TF.FileFunction,Paste,Top*%
%TF.Part,Single*%
G01*
G75*
%TA.AperFunction,SMDPad,CuDef*%
%ADD10R,0.95000X1.40000*%
D10*
X4000000Y2700000D02*
D03*
X4185000D02*
D03*
X2915000D02*
D03*
X3100000D02*
D03*
X1815000D02*
D03*
X2000000D02*
D03*
X4000000Y2100000D02*
D03*
X4185000D02*
D03*
X2915000D02*
D03*
X3100000D02*
D03*
X1815000D02*
D03*
X2000000D02*
D03*
X1800000Y1500000D02*
D03*
X1985000D02*
D03*
X4000000D02*
D03*
X4185000D02*
D03*
X2900000D02*
D03*
X3085000D02*
D03*
X4000000Y1000000D02*
D03*
X4185000D02*
D03*
X2900000D02*
D03*
X3085000D02*
D03*
X1799999D02*
D03*
X1984999D02*
D03*
X4800000Y2700000D02*
D03*
X4615000D02*
D03*
X4784999Y1000000D02*
D03*
X4600000D02*
D03*
X5357834Y2257834D02*
D03*
X5172834D02*
D03*
X5350000Y2550000D02*
D03*
X5165000D02*
D03*
X5350000Y2800000D02*
D03*
X5165000D02*
D03*
X7042500Y1450000D02*
D03*
X6857500D02*
D03*
X7042500Y1800000D02*
D03*
X6857500D02*
D03*
X4784999Y2100000D02*
D03*
X4600000D02*
D03*
X4800000Y1500000D02*
D03*
X4615000D02*
D03*
%TF.MD5,d62a8c344800d23de2afd40991931d87*%
M02*
