%TF.GenerationSoftware,Altium Limited,Altium Designer,21.3.2 (30)*%
G04 Layer_Physical_Order=1*
G04 Layer_Color=255*
%FSLAX45Y45*%
%MOMM*%
%TF.SameCoordinates,A53E8B12-5703-4EC1-9ACC-F1C4DEFA11C2*%
%TF.FilePolarity,Positive*%
%TF.FileFunction,Copper,L1,Top,Signal*%
%TF.Part,Single*%
G01*
G75*
%TA.AperFunction,SMDPad,CuDef*%
%ADD10R,0.95000X1.40000*%
G04:AMPARAMS|DCode=11|XSize=1.8mm|YSize=2mm|CornerRadius=0mm|HoleSize=0mm|Usage=FLASHONLY|Rotation=225.000|XOffset=0mm|YOffset=0mm|HoleType=Round|Shape=Rectangle|*
%AMROTATEDRECTD11*
4,1,4,-0.07071,1.34350,1.34350,-0.07071,0.07071,-1.34350,-1.34350,0.07071,-0.07071,1.34350,0.0*
%
%ADD11ROTATEDRECTD11*%

G04:AMPARAMS|DCode=12|XSize=1mm|YSize=2mm|CornerRadius=0mm|HoleSize=0mm|Usage=FLASHONLY|Rotation=225.000|XOffset=0mm|YOffset=0mm|HoleType=Round|Shape=Rectangle|*
%AMROTATEDRECTD12*
4,1,4,-0.35355,1.06066,1.06066,-0.35355,0.35355,-1.06066,-1.06066,0.35355,-0.35355,1.06066,0.0*
%
%ADD12ROTATEDRECTD12*%

%TA.AperFunction,Conductor*%
%ADD13C,0.38100*%
%TA.AperFunction,ComponentPad*%
%ADD14C,5.00000*%
G04:AMPARAMS|DCode=15|XSize=1.7mm|YSize=1.95mm|CornerRadius=0.85mm|HoleSize=0mm|Usage=FLASHONLY|Rotation=180.000|XOffset=0mm|YOffset=0mm|HoleType=Round|Shape=RoundedRectangle|*
%AMROUNDEDRECTD15*
21,1,1.70000,0.25000,0,0,180.0*
21,1,0.00000,1.95000,0,0,180.0*
1,1,1.70000,0.00000,0.12500*
1,1,1.70000,0.00000,0.12500*
1,1,1.70000,0.00000,-0.12500*
1,1,1.70000,0.00000,-0.12500*
%
%ADD15ROUNDEDRECTD15*%
G04:AMPARAMS|DCode=16|XSize=1.7mm|YSize=1.95mm|CornerRadius=0.1275mm|HoleSize=0mm|Usage=FLASHONLY|Rotation=180.000|XOffset=0mm|YOffset=0mm|HoleType=Round|Shape=RoundedRectangle|*
%AMROUNDEDRECTD16*
21,1,1.70000,1.69500,0,0,180.0*
21,1,1.44500,1.95000,0,0,180.0*
1,1,0.25500,-0.72250,0.84750*
1,1,0.25500,0.72250,0.84750*
1,1,0.25500,0.72250,-0.84750*
1,1,0.25500,-0.72250,-0.84750*
%
%ADD16ROUNDEDRECTD16*%
%TA.AperFunction,ViaPad*%
%ADD17C,0.70000*%
G36*
X7885721Y3677886D02*
X7941949Y3666702D01*
X7996816Y3650058D01*
X8049782Y3628119D01*
X8100344Y3601092D01*
X8148014Y3569241D01*
X8192331Y3532870D01*
X8232871Y3492330D01*
X8269242Y3448012D01*
X8301094Y3400342D01*
X8328119Y3349781D01*
X8350059Y3296814D01*
X8366701Y3241950D01*
X8377886Y3185721D01*
X8383505Y3128666D01*
Y3100000D01*
Y1000000D01*
Y971334D01*
X8377886Y914279D01*
X8366702Y858050D01*
X8350058Y803184D01*
X8328119Y750218D01*
X8301092Y699656D01*
X8269241Y651986D01*
X8232870Y607669D01*
X8192330Y567128D01*
X8148012Y530758D01*
X8100342Y498906D01*
X8049781Y471880D01*
X7996814Y449941D01*
X7941950Y433298D01*
X7885721Y422114D01*
X7828666Y416494D01*
X1071334D01*
X1014279Y422114D01*
X958050Y433298D01*
X903184Y449942D01*
X850218Y471881D01*
X799656Y498907D01*
X751986Y530759D01*
X707669Y567129D01*
X667128Y607670D01*
X630758Y651988D01*
X598906Y699658D01*
X571880Y750219D01*
X549941Y803186D01*
X533298Y858050D01*
X522114Y914279D01*
X516495Y971334D01*
Y1000000D01*
Y3100000D01*
Y3128666D01*
X522114Y3185721D01*
X533298Y3241949D01*
X549942Y3296816D01*
X571881Y3349782D01*
X598907Y3400344D01*
X630759Y3448014D01*
X667129Y3492331D01*
X707670Y3532871D01*
X751988Y3569242D01*
X799658Y3601094D01*
X850219Y3628119D01*
X903186Y3650059D01*
X958050Y3666701D01*
X1014279Y3677886D01*
X1071334Y3683505D01*
X7828666D01*
X7885721Y3677886D01*
D02*
G37*
%LPC*%
G36*
X6572249Y3423647D02*
X6512700D01*
Y3312700D01*
X6611147D01*
Y3384750D01*
X6608186Y3399635D01*
X6599754Y3412255D01*
X6587135Y3420687D01*
X6572249Y3423647D01*
D02*
G37*
G36*
X6487300D02*
X6427750D01*
X6412864Y3420687D01*
X6400245Y3412255D01*
X6391813Y3399635D01*
X6388852Y3384750D01*
Y3312700D01*
X6487300D01*
Y3423647D01*
D02*
G37*
G36*
X5750000Y3413605D02*
X5723832Y3410160D01*
X5699447Y3400059D01*
X5678508Y3383992D01*
X5662441Y3363052D01*
X5652340Y3338668D01*
X5648895Y3312500D01*
Y3287500D01*
X5652340Y3261332D01*
X5662441Y3236948D01*
X5678508Y3216008D01*
X5699447Y3199941D01*
X5723832Y3189840D01*
X5750000Y3186395D01*
X5776168Y3189840D01*
X5800552Y3199941D01*
X5821492Y3216008D01*
X5837559Y3236948D01*
X5847659Y3261332D01*
X5851104Y3287500D01*
Y3312500D01*
X5847659Y3338668D01*
X5837559Y3363052D01*
X5821492Y3383992D01*
X5800552Y3400059D01*
X5776168Y3410160D01*
X5750000Y3413605D01*
D02*
G37*
G36*
X5500000D02*
X5473832Y3410160D01*
X5449447Y3400059D01*
X5428508Y3383992D01*
X5412441Y3363052D01*
X5402340Y3338668D01*
X5398895Y3312500D01*
Y3287500D01*
X5402340Y3261332D01*
X5412441Y3236948D01*
X5428508Y3216008D01*
X5449447Y3199941D01*
X5473832Y3189840D01*
X5500000Y3186395D01*
X5526168Y3189840D01*
X5550552Y3199941D01*
X5571492Y3216008D01*
X5587559Y3236948D01*
X5597659Y3261332D01*
X5601104Y3287500D01*
Y3312500D01*
X5597659Y3338668D01*
X5587559Y3363052D01*
X5571492Y3383992D01*
X5550552Y3400059D01*
X5526168Y3410160D01*
X5500000Y3413605D01*
D02*
G37*
G36*
X5250000D02*
X5223832Y3410160D01*
X5199447Y3400059D01*
X5178508Y3383992D01*
X5162441Y3363052D01*
X5152340Y3338668D01*
X5148895Y3312500D01*
Y3287500D01*
X5152340Y3261332D01*
X5162441Y3236948D01*
X5178508Y3216008D01*
X5199447Y3199941D01*
X5223832Y3189840D01*
X5250000Y3186395D01*
X5276168Y3189840D01*
X5300552Y3199941D01*
X5321492Y3216008D01*
X5337559Y3236948D01*
X5347659Y3261332D01*
X5351104Y3287500D01*
Y3312500D01*
X5347659Y3338668D01*
X5337559Y3363052D01*
X5321492Y3383992D01*
X5300552Y3400059D01*
X5276168Y3410160D01*
X5250000Y3413605D01*
D02*
G37*
G36*
X3750000D02*
X3723832Y3410160D01*
X3699447Y3400059D01*
X3678508Y3383992D01*
X3662440Y3363052D01*
X3652340Y3338668D01*
X3648895Y3312500D01*
Y3287500D01*
X3652340Y3261332D01*
X3662440Y3236948D01*
X3678508Y3216008D01*
X3699447Y3199941D01*
X3723832Y3189840D01*
X3750000Y3186395D01*
X3776167Y3189840D01*
X3800552Y3199941D01*
X3821491Y3216008D01*
X3837559Y3236948D01*
X3847659Y3261332D01*
X3851104Y3287500D01*
Y3312500D01*
X3847659Y3338668D01*
X3837559Y3363052D01*
X3821491Y3383992D01*
X3800552Y3400059D01*
X3776167Y3410160D01*
X3750000Y3413605D01*
D02*
G37*
G36*
X3250000D02*
X3223832Y3410160D01*
X3199447Y3400059D01*
X3178508Y3383992D01*
X3162440Y3363052D01*
X3152340Y3338668D01*
X3148895Y3312500D01*
Y3287500D01*
X3152340Y3261332D01*
X3162440Y3236948D01*
X3178508Y3216008D01*
X3199447Y3199941D01*
X3223832Y3189840D01*
X3250000Y3186395D01*
X3276167Y3189840D01*
X3300552Y3199941D01*
X3321491Y3216008D01*
X3337559Y3236948D01*
X3347659Y3261332D01*
X3351104Y3287500D01*
Y3312500D01*
X3347659Y3338668D01*
X3337559Y3363052D01*
X3321491Y3383992D01*
X3300552Y3400059D01*
X3276167Y3410160D01*
X3250000Y3413605D01*
D02*
G37*
G36*
X3000000D02*
X2973832Y3410160D01*
X2949447Y3400059D01*
X2928508Y3383992D01*
X2912440Y3363052D01*
X2902340Y3338668D01*
X2898895Y3312500D01*
Y3287500D01*
X2902340Y3261332D01*
X2912440Y3236948D01*
X2928508Y3216008D01*
X2949447Y3199941D01*
X2973832Y3189840D01*
X3000000Y3186395D01*
X3026167Y3189840D01*
X3050552Y3199941D01*
X3071491Y3216008D01*
X3087559Y3236948D01*
X3097659Y3261332D01*
X3101104Y3287500D01*
Y3312500D01*
X3097659Y3338668D01*
X3087559Y3363052D01*
X3071491Y3383992D01*
X3050552Y3400059D01*
X3026167Y3410160D01*
X3000000Y3413605D01*
D02*
G37*
G36*
X2750000D02*
X2723832Y3410160D01*
X2699447Y3400059D01*
X2678508Y3383992D01*
X2662440Y3363052D01*
X2652340Y3338668D01*
X2648895Y3312500D01*
Y3287500D01*
X2652340Y3261332D01*
X2662440Y3236948D01*
X2678508Y3216008D01*
X2699447Y3199941D01*
X2723832Y3189840D01*
X2750000Y3186395D01*
X2776167Y3189840D01*
X2800552Y3199941D01*
X2821491Y3216008D01*
X2837559Y3236948D01*
X2847659Y3261332D01*
X2851104Y3287500D01*
Y3312500D01*
X2847659Y3338668D01*
X2837559Y3363052D01*
X2821491Y3383992D01*
X2800552Y3400059D01*
X2776167Y3410160D01*
X2750000Y3413605D01*
D02*
G37*
G36*
X6611147Y3287300D02*
X6512700D01*
Y3176353D01*
X6572249D01*
X6587135Y3179313D01*
X6599754Y3187745D01*
X6608186Y3200365D01*
X6611147Y3215250D01*
Y3287300D01*
D02*
G37*
G36*
X6487300D02*
X6388852D01*
Y3215250D01*
X6391813Y3200365D01*
X6400245Y3187745D01*
X6412864Y3179313D01*
X6427750Y3176353D01*
X6487300D01*
Y3287300D01*
D02*
G37*
G36*
X5000000Y3413605D02*
X4973832Y3410160D01*
X4949447Y3400059D01*
X4928508Y3383992D01*
X4912441Y3363052D01*
X4902340Y3338668D01*
X4898895Y3312500D01*
Y3287500D01*
X4902340Y3261332D01*
X4912441Y3236948D01*
X4928508Y3216008D01*
X4949447Y3199941D01*
X4965038Y3193483D01*
Y3148037D01*
X4946560Y3140383D01*
X4841201Y3245742D01*
X4847659Y3261332D01*
X4851104Y3287500D01*
Y3312500D01*
X4847659Y3338668D01*
X4837559Y3363052D01*
X4821491Y3383992D01*
X4800552Y3400059D01*
X4776167Y3410160D01*
X4750000Y3413605D01*
X4723832Y3410160D01*
X4699447Y3400059D01*
X4678508Y3383992D01*
X4662441Y3363052D01*
X4652340Y3338668D01*
X4648895Y3312500D01*
Y3287500D01*
X4652340Y3261332D01*
X4662441Y3236948D01*
X4678508Y3216008D01*
X4699447Y3199941D01*
X4723832Y3189840D01*
X4750000Y3186395D01*
X4776167Y3189840D01*
X4791758Y3196298D01*
X4945038Y3043018D01*
Y2920190D01*
X4925038Y2911905D01*
X4591201Y3245742D01*
X4597659Y3261332D01*
X4601104Y3287500D01*
Y3312500D01*
X4597659Y3338668D01*
X4587559Y3363052D01*
X4571491Y3383992D01*
X4550552Y3400059D01*
X4526167Y3410160D01*
X4500000Y3413605D01*
X4473832Y3410160D01*
X4449447Y3400059D01*
X4428508Y3383992D01*
X4412441Y3363052D01*
X4402340Y3338668D01*
X4398895Y3312500D01*
Y3287500D01*
X4402340Y3261332D01*
X4412441Y3236948D01*
X4428508Y3216008D01*
X4449447Y3199941D01*
X4473832Y3189840D01*
X4500000Y3186395D01*
X4526167Y3189840D01*
X4541758Y3196298D01*
X4880436Y2857620D01*
Y2790801D01*
X4862740Y2785240D01*
X4860436Y2785240D01*
X4786703D01*
X4336446Y3235497D01*
X4337559Y3236948D01*
X4347659Y3261332D01*
X4351104Y3287500D01*
Y3312500D01*
X4347659Y3338668D01*
X4337559Y3363052D01*
X4321491Y3383992D01*
X4300552Y3400059D01*
X4276167Y3410160D01*
X4250000Y3413605D01*
X4223832Y3410160D01*
X4199447Y3400059D01*
X4178508Y3383992D01*
X4162440Y3363052D01*
X4152340Y3338668D01*
X4148895Y3312500D01*
Y3287500D01*
X4152340Y3261332D01*
X4162440Y3236948D01*
X4178508Y3216008D01*
X4199447Y3199941D01*
X4223832Y3189840D01*
X4250000Y3186395D01*
X4276167Y3189840D01*
X4281151Y3191905D01*
X4667816Y2805240D01*
X4659532Y2785240D01*
X4552260D01*
Y2734962D01*
X4247740D01*
Y2785240D01*
X4171704D01*
X4127932Y2829012D01*
X4116589Y2836590D01*
X4103210Y2839252D01*
X3647222D01*
X3633842Y2836590D01*
X3622500Y2829012D01*
X3622499Y2829011D01*
X3528450Y2734962D01*
X3162740D01*
Y2785240D01*
X3086704D01*
X3042932Y2829012D01*
X3031589Y2836590D01*
X3018210Y2839252D01*
X2550001D01*
X2550000Y2839252D01*
X2536621Y2836590D01*
X2525278Y2829012D01*
X2482178Y2785912D01*
X2028450D01*
X2025071Y2785240D01*
X1955468D01*
X1947183Y2805240D01*
X2006982Y2865038D01*
X3755164D01*
X3768544Y2867700D01*
X3779886Y2875278D01*
X4024721Y3120113D01*
X4024721Y3120114D01*
X4032300Y3131456D01*
X4034961Y3144835D01*
Y3193483D01*
X4050552Y3199941D01*
X4071491Y3216008D01*
X4087559Y3236948D01*
X4097659Y3261332D01*
X4101104Y3287500D01*
Y3312500D01*
X4097659Y3338668D01*
X4087559Y3363052D01*
X4071491Y3383992D01*
X4050552Y3400059D01*
X4026167Y3410160D01*
X4000000Y3413605D01*
X3973832Y3410160D01*
X3949447Y3400059D01*
X3928508Y3383992D01*
X3912440Y3363052D01*
X3902340Y3338668D01*
X3898895Y3312500D01*
Y3287500D01*
X3902340Y3261332D01*
X3912440Y3236948D01*
X3928508Y3216008D01*
X3949447Y3199941D01*
X3965038Y3193483D01*
Y3159317D01*
X3740682Y2934962D01*
X1992500D01*
X1979121Y2932300D01*
X1967778Y2924722D01*
X1967778Y2924721D01*
X1828296Y2785240D01*
X1752260D01*
Y2614760D01*
X1780038D01*
Y2185240D01*
X1752260D01*
Y2014760D01*
X1828296D01*
X1865038Y1978018D01*
Y1714481D01*
X1802428Y1651872D01*
X1794850Y1640530D01*
X1792188Y1627150D01*
Y1585240D01*
X1737260D01*
Y1414760D01*
X1765038D01*
Y985240D01*
X1737259D01*
Y814760D01*
X1862739D01*
Y985240D01*
X1834962D01*
Y1414760D01*
X1862740D01*
Y1585240D01*
X1862112D01*
Y1612668D01*
X1924721Y1675278D01*
X1924722Y1675278D01*
X1932300Y1686621D01*
X1934962Y1700000D01*
X1934962Y1700001D01*
Y1992500D01*
X1934265Y1996000D01*
X1948072Y2014083D01*
X1949374Y2014760D01*
X2062740D01*
Y2065038D01*
X2450432D01*
X2463811Y2067699D01*
X2475154Y2075278D01*
X2569203Y2169328D01*
X2852260D01*
Y2014760D01*
X2977740D01*
Y2169328D01*
X3003728D01*
X3037260Y2135796D01*
Y2014760D01*
X3162740D01*
Y2065038D01*
X3542932D01*
X3556311Y2067699D01*
X3567654Y2075278D01*
X3661703Y2169328D01*
X3937260D01*
Y2014760D01*
X4062740D01*
Y2169328D01*
X4088728D01*
X4122260Y2135796D01*
Y2014760D01*
X4247740D01*
Y2065038D01*
X4537260D01*
Y2014760D01*
X4662740D01*
Y2185240D01*
X4537260D01*
Y2134962D01*
X4247740D01*
Y2185240D01*
X4171704D01*
X4127932Y2229012D01*
X4116589Y2236590D01*
X4103210Y2239252D01*
X3647222D01*
X3633842Y2236590D01*
X3622500Y2229012D01*
X3622499Y2229011D01*
X3528450Y2134962D01*
X3162740D01*
Y2185240D01*
X3086704D01*
X3042932Y2229012D01*
X3031589Y2236590D01*
X3018210Y2239252D01*
X2554722D01*
X2541342Y2236590D01*
X2530000Y2229012D01*
X2530000Y2229011D01*
X2435950Y2134962D01*
X2062740D01*
Y2185240D01*
X1937260D01*
Y2032968D01*
X1917260Y2024684D01*
X1877740Y2064203D01*
Y2185240D01*
X1849962D01*
Y2614760D01*
X1877740D01*
Y2735796D01*
X1917260Y2775316D01*
X1937260Y2767032D01*
Y2614760D01*
X2062740D01*
Y2715988D01*
X2496660D01*
X2510039Y2718650D01*
X2521382Y2726228D01*
X2564482Y2769328D01*
X2852260D01*
Y2614760D01*
X2977740D01*
Y2769328D01*
X3003728D01*
X3037260Y2735796D01*
Y2614760D01*
X3162740D01*
Y2665038D01*
X3542932D01*
X3556311Y2667700D01*
X3567654Y2675278D01*
X3661703Y2769328D01*
X3937260D01*
Y2614760D01*
X4062740D01*
Y2769328D01*
X4088728D01*
X4122260Y2735796D01*
Y2614760D01*
X4247740D01*
Y2665038D01*
X4552260D01*
Y2614760D01*
X4677740D01*
Y2767032D01*
X4697740Y2775316D01*
X4737260Y2735797D01*
Y2614760D01*
X4860436D01*
X4862740Y2614760D01*
X4880436Y2609199D01*
Y2267380D01*
X4798295Y2185240D01*
X4722259D01*
Y2014760D01*
X4847739D01*
Y2135796D01*
X4925038Y2213095D01*
X4945038Y2204811D01*
Y1716982D01*
X4813296Y1585240D01*
X4737260D01*
Y1414760D01*
X4805178D01*
X4812832Y1396282D01*
X4760278Y1343728D01*
X4752699Y1332386D01*
X4750037Y1319006D01*
Y985240D01*
X4722259D01*
Y814760D01*
X4847739D01*
Y985240D01*
X4819961D01*
Y1304524D01*
X5070941Y1555504D01*
X5070942Y1555505D01*
X5078520Y1566848D01*
X5081182Y1580227D01*
Y3066714D01*
X5078520Y3080093D01*
X5070942Y3091436D01*
X5034961Y3127416D01*
Y3193483D01*
X5050552Y3199941D01*
X5071492Y3216008D01*
X5087559Y3236948D01*
X5097659Y3261332D01*
X5101104Y3287500D01*
Y3312500D01*
X5097659Y3338668D01*
X5087559Y3363052D01*
X5071492Y3383992D01*
X5050552Y3400059D01*
X5026167Y3410160D01*
X5000000Y3413605D01*
D02*
G37*
G36*
X3500000D02*
X3473832Y3410160D01*
X3449447Y3400059D01*
X3428508Y3383992D01*
X3412440Y3363052D01*
X3402340Y3338668D01*
X3398895Y3312500D01*
Y3287500D01*
X3402340Y3261332D01*
X3412440Y3236948D01*
X3428508Y3216008D01*
X3449447Y3199941D01*
X3473832Y3189840D01*
X3500000Y3186395D01*
X3526167Y3189840D01*
X3546177Y3198129D01*
X3649760Y3094546D01*
Y3090007D01*
X3657409Y3071541D01*
X3671541Y3057409D01*
X3690007Y3049760D01*
X3709993D01*
X3728459Y3057409D01*
X3742591Y3071541D01*
X3750240Y3090007D01*
Y3109993D01*
X3742591Y3128459D01*
X3728459Y3142591D01*
X3709993Y3150240D01*
X3692953D01*
X3593032Y3250161D01*
X3597659Y3261332D01*
X3601104Y3287500D01*
Y3312500D01*
X3597659Y3338668D01*
X3587559Y3363052D01*
X3571491Y3383992D01*
X3550552Y3400059D01*
X3526167Y3410160D01*
X3500000Y3413605D01*
D02*
G37*
G36*
X5227740Y2885240D02*
X5102260D01*
Y2714760D01*
X5227740D01*
Y2885240D01*
D02*
G37*
G36*
X7800000Y3626367D02*
X7731295Y3621864D01*
X7663766Y3608431D01*
X7598568Y3586300D01*
X7536817Y3555847D01*
X7479568Y3517595D01*
X7427802Y3472198D01*
X7382405Y3420432D01*
X7344153Y3363184D01*
X7313700Y3301432D01*
X7291568Y3236234D01*
X7278136Y3168705D01*
X7273633Y3100000D01*
X7278136Y3031295D01*
X7291568Y2963766D01*
X7313700Y2898568D01*
X7344153Y2836816D01*
X7382405Y2779568D01*
X7427802Y2727802D01*
X7479568Y2682405D01*
X7536817Y2644153D01*
X7598568Y2613700D01*
X7663766Y2591568D01*
X7731295Y2578136D01*
X7800000Y2573633D01*
X7868705Y2578136D01*
X7936234Y2591568D01*
X8001432Y2613700D01*
X8063183Y2644153D01*
X8120432Y2682405D01*
X8172198Y2727802D01*
X8217595Y2779568D01*
X8255847Y2836816D01*
X8286300Y2898568D01*
X8308431Y2963766D01*
X8321864Y3031295D01*
X8326367Y3100000D01*
X8321864Y3168705D01*
X8308431Y3236234D01*
X8286300Y3301432D01*
X8255847Y3363184D01*
X8217595Y3420432D01*
X8172198Y3472198D01*
X8120432Y3517595D01*
X8063183Y3555847D01*
X8001432Y3586300D01*
X7936234Y3608431D01*
X7868705Y3621864D01*
X7800000Y3626367D01*
D02*
G37*
G36*
X1100000D02*
X1031295Y3621864D01*
X963766Y3608431D01*
X898568Y3586300D01*
X836817Y3555847D01*
X779568Y3517595D01*
X727802Y3472198D01*
X682405Y3420432D01*
X644153Y3363184D01*
X613700Y3301432D01*
X591569Y3236234D01*
X578136Y3168705D01*
X573633Y3100000D01*
X578136Y3031295D01*
X591569Y2963766D01*
X613700Y2898568D01*
X644153Y2836816D01*
X682405Y2779568D01*
X727802Y2727802D01*
X779568Y2682405D01*
X836816Y2644153D01*
X898568Y2613700D01*
X963766Y2591568D01*
X1031295Y2578136D01*
X1100000Y2573633D01*
X1168705Y2578136D01*
X1236234Y2591568D01*
X1301432Y2613700D01*
X1363183Y2644153D01*
X1420432Y2682405D01*
X1472198Y2727802D01*
X1517595Y2779568D01*
X1555847Y2836816D01*
X1586300Y2898568D01*
X1608432Y2963766D01*
X1621864Y3031295D01*
X1626367Y3100000D01*
X1621864Y3168705D01*
X1608432Y3236234D01*
X1586300Y3301432D01*
X1555847Y3363184D01*
X1517595Y3420432D01*
X1472198Y3472198D01*
X1420432Y3517595D01*
X1363183Y3555847D01*
X1301432Y3586300D01*
X1236234Y3608431D01*
X1168705Y3621864D01*
X1100000Y3626367D01*
D02*
G37*
G36*
X6000000Y3413605D02*
X5973832Y3410160D01*
X5949447Y3400059D01*
X5928508Y3383992D01*
X5912441Y3363052D01*
X5902340Y3338668D01*
X5898895Y3312500D01*
Y3287500D01*
X5902340Y3261332D01*
X5912441Y3236948D01*
X5928508Y3216008D01*
X5949447Y3199941D01*
X5965038Y3193483D01*
Y2530167D01*
X5937562Y2502691D01*
X5880797Y2559456D01*
X5859387Y2538046D01*
X5572712Y2824722D01*
X5561370Y2832300D01*
X5547990Y2834962D01*
X5412740D01*
Y2885240D01*
X5287260D01*
Y2714760D01*
X5412740D01*
Y2765038D01*
X5533508D01*
X5809944Y2488603D01*
X5794176Y2472836D01*
X5780034Y2458694D01*
X5774392Y2453051D01*
X5758624Y2437284D01*
X5621186Y2574722D01*
X5609844Y2582300D01*
X5596465Y2584962D01*
X5412740D01*
Y2635240D01*
X5287260D01*
Y2464760D01*
X5412740D01*
Y2515038D01*
X5581983D01*
X5709181Y2387840D01*
X5693414Y2372073D01*
X5687771Y2366431D01*
X5673629Y2352288D01*
X5621970Y2300629D01*
X5420574D01*
Y2343074D01*
X5295094D01*
Y2172594D01*
X5420574D01*
Y2230706D01*
X5621971D01*
X5749983Y2102694D01*
X5754034Y2106745D01*
X5777626Y2102052D01*
X5779908Y2096541D01*
X5794041Y2082409D01*
X5812506Y2074760D01*
X5832493D01*
X5850958Y2082409D01*
X5865091Y2096541D01*
X5872740Y2115007D01*
Y2134993D01*
X5865091Y2153459D01*
X5850958Y2167591D01*
X5845447Y2169874D01*
X5840755Y2193466D01*
X5862392Y2215104D01*
X5873713Y2212103D01*
X5883266Y2207693D01*
X5890041Y2191337D01*
X5904173Y2177205D01*
X5922639Y2169556D01*
X5942625D01*
X5961091Y2177205D01*
X5975223Y2191337D01*
X5982872Y2209803D01*
Y2229789D01*
X5975223Y2248255D01*
X5961091Y2262387D01*
X5944735Y2269162D01*
X5940325Y2278715D01*
X5937324Y2290036D01*
X5951508Y2304219D01*
X5957150Y2309862D01*
X6043771Y2396482D01*
X5987006Y2453248D01*
X6024722Y2490964D01*
X6032300Y2502306D01*
X6034962Y2515685D01*
X6034962Y2515687D01*
Y3193483D01*
X6050552Y3199941D01*
X6071492Y3216008D01*
X6087559Y3236948D01*
X6097659Y3261332D01*
X6101104Y3287500D01*
Y3312500D01*
X6097659Y3338668D01*
X6087559Y3363052D01*
X6071492Y3383992D01*
X6050552Y3400059D01*
X6026168Y3410160D01*
X6000000Y3413605D01*
D02*
G37*
G36*
X5227740Y2635240D02*
X5102260D01*
Y2464760D01*
X5227740D01*
Y2635240D01*
D02*
G37*
G36*
X6379307Y2492281D02*
X6230475Y2343450D01*
X6393449Y2180475D01*
X6542281Y2329307D01*
X6379307Y2492281D01*
D02*
G37*
G36*
X5235574Y2343074D02*
X5110094D01*
Y2172594D01*
X5235574D01*
Y2343074D01*
D02*
G37*
G36*
X6245338Y2239590D02*
X6223362D01*
X6203059Y2231180D01*
X6187520Y2215641D01*
X6179110Y2195338D01*
Y2173362D01*
X6187520Y2153059D01*
X6203059Y2137520D01*
X6223362Y2129110D01*
X6245338D01*
X6265641Y2137520D01*
X6281180Y2153059D01*
X6289590Y2173362D01*
Y2195338D01*
X6281180Y2215641D01*
X6265641Y2231180D01*
X6257231Y2234664D01*
X6245338Y2239590D01*
D02*
G37*
G36*
X1334993Y2150240D02*
X1315007D01*
X1296541Y2142591D01*
X1282409Y2128459D01*
X1274760Y2109993D01*
Y2090007D01*
X1282409Y2071541D01*
X1290038Y2063912D01*
Y1936088D01*
X1282409Y1928459D01*
X1274760Y1909993D01*
Y1890007D01*
X1282409Y1871541D01*
X1296541Y1857409D01*
X1315007Y1849760D01*
X1334993D01*
X1353459Y1857409D01*
X1367591Y1871541D01*
X1375240Y1890007D01*
Y1909993D01*
X1367591Y1928459D01*
X1359962Y1936088D01*
Y2063912D01*
X1367591Y2071541D01*
X1375240Y2090007D01*
Y2109993D01*
X1367591Y2128459D01*
X1353459Y2142591D01*
X1334993Y2150240D01*
D02*
G37*
G36*
X5974897Y1985890D02*
X5956402D01*
X5938538Y1981103D01*
X5922521Y1971856D01*
X5909444Y1958778D01*
X5900196Y1942761D01*
X5895410Y1924897D01*
Y1906403D01*
X5900196Y1888538D01*
X5909444Y1872521D01*
X5922521Y1859444D01*
X5938538Y1850197D01*
X5956402Y1845410D01*
X5974897D01*
X5992761Y1850197D01*
X6008778Y1859444D01*
X6021855Y1872521D01*
X6031102Y1888538D01*
X6035889Y1906402D01*
Y1924897D01*
X6031102Y1942761D01*
X6021855Y1958778D01*
X6008778Y1971856D01*
X5992761Y1981103D01*
X5974897Y1985890D01*
D02*
G37*
G36*
X6283423Y1845081D02*
X6248939Y1810596D01*
X6239088Y1800745D01*
X6236027Y1786641D01*
X6224630Y1780836D01*
X6214309Y1780836D01*
X6199943Y1795202D01*
Y1798862D01*
X6192295Y1817327D01*
X6178162Y1831460D01*
X6159697Y1839108D01*
X6139710D01*
X6121245Y1831460D01*
X6107112Y1817327D01*
X6099464Y1798862D01*
Y1778875D01*
X6107112Y1760410D01*
X6121245Y1746277D01*
X6139710Y1738628D01*
X6156867D01*
X6174103Y1721393D01*
X6152694Y1699983D01*
X6315668Y1537009D01*
X6337077Y1558419D01*
X6419268Y1476228D01*
X6430610Y1468650D01*
X6443989Y1465988D01*
X6443991Y1465988D01*
X6794760D01*
Y1364760D01*
X6920240D01*
Y1535240D01*
X6832429D01*
X6829050Y1535912D01*
X6458471D01*
X6396521Y1597862D01*
Y1608946D01*
X6402325Y1620342D01*
X6416430Y1623402D01*
X6460766Y1667738D01*
X6372095Y1756409D01*
X6283423Y1845081D01*
D02*
G37*
G36*
X7105240Y1885240D02*
X6979760D01*
Y1714760D01*
X7105240D01*
Y1885240D01*
D02*
G37*
G36*
X6250000Y3413605D02*
X6223832Y3410160D01*
X6199447Y3400059D01*
X6178508Y3383992D01*
X6162441Y3363052D01*
X6152340Y3338668D01*
X6148895Y3312500D01*
Y3287500D01*
X6152340Y3261332D01*
X6162441Y3236948D01*
X6178508Y3216008D01*
X6199447Y3199941D01*
X6215038Y3193483D01*
Y2900000D01*
X6217699Y2886621D01*
X6225278Y2875278D01*
X6635038Y2465518D01*
Y2183278D01*
X6421760Y1970000D01*
X6419846Y1967136D01*
X6367045Y1914335D01*
X6345719Y1907377D01*
X6301384Y1863041D01*
X6390055Y1774370D01*
X6478726Y1685699D01*
X6513211Y1720184D01*
X6523062Y1730034D01*
X6527044Y1748385D01*
X6574494Y1795836D01*
X6794760D01*
Y1714760D01*
X6920240D01*
Y1885240D01*
X6794760D01*
Y1865759D01*
X6574494D01*
X6495450Y1944803D01*
X6694722Y2144074D01*
X6702300Y2155417D01*
X6704962Y2168796D01*
Y2480000D01*
X6702300Y2493379D01*
X6694722Y2504722D01*
X6694721Y2504722D01*
X6284962Y2914482D01*
Y3193483D01*
X6300552Y3199941D01*
X6321492Y3216008D01*
X6337559Y3236948D01*
X6347659Y3261332D01*
X6351104Y3287500D01*
Y3312500D01*
X6347659Y3338668D01*
X6337559Y3363052D01*
X6321492Y3383992D01*
X6300552Y3400059D01*
X6276168Y3410160D01*
X6250000Y3413605D01*
D02*
G37*
G36*
X5806550Y1919525D02*
X5657719Y1770693D01*
X5820693Y1607719D01*
X5969525Y1756550D01*
X5806550Y1919525D01*
D02*
G37*
G36*
X4103209Y1639252D02*
X3639721D01*
X3626342Y1636591D01*
X3615000Y1629012D01*
X3614999Y1629011D01*
X3520950Y1534962D01*
X3147740D01*
Y1585240D01*
X3071704D01*
X3027931Y1629012D01*
X3016589Y1636591D01*
X3003210Y1639252D01*
X2539722D01*
X2526342Y1636591D01*
X2515000Y1629012D01*
X2514999Y1629011D01*
X2420950Y1534962D01*
X2047740D01*
Y1585240D01*
X1922260D01*
Y1414760D01*
X2047740D01*
Y1465038D01*
X2435432D01*
X2448811Y1467700D01*
X2460153Y1475278D01*
X2554203Y1569328D01*
X2837260D01*
Y1414760D01*
X2962740D01*
Y1569328D01*
X2988728D01*
X3022260Y1535797D01*
Y1414760D01*
X3147740D01*
Y1465038D01*
X3535431D01*
X3548811Y1467700D01*
X3560153Y1475278D01*
X3654203Y1569328D01*
X3937260D01*
Y1414760D01*
X4062740D01*
Y1569328D01*
X4088728D01*
X4122259Y1535797D01*
Y1414760D01*
X4247740D01*
Y1465038D01*
X4552260D01*
Y1414760D01*
X4677740D01*
Y1585240D01*
X4552260D01*
Y1534962D01*
X4247740D01*
Y1585240D01*
X4171703D01*
X4127931Y1629012D01*
X4116589Y1636591D01*
X4103209Y1639252D01*
D02*
G37*
G36*
X7105240Y1535240D02*
X6979760D01*
Y1364760D01*
X7105240D01*
Y1535240D01*
D02*
G37*
G36*
X4103209Y1039252D02*
X3639721D01*
X3626342Y1036590D01*
X3614999Y1029012D01*
X3614999Y1029011D01*
X3520949Y934962D01*
X3147740D01*
Y985240D01*
X3071703D01*
X3027931Y1029012D01*
X3016589Y1036590D01*
X3003209Y1039252D01*
X2539721D01*
X2526342Y1036590D01*
X2514999Y1029012D01*
X2514999Y1029011D01*
X2420949Y934962D01*
X2047739D01*
Y985240D01*
X1922259D01*
Y814760D01*
X2047739D01*
Y865038D01*
X2435431D01*
X2448810Y867699D01*
X2460153Y875278D01*
X2554203Y969328D01*
X2837260D01*
Y814760D01*
X2962740D01*
Y969328D01*
X2988727D01*
X3022260Y935796D01*
Y814760D01*
X3147740D01*
Y865038D01*
X3535431D01*
X3548811Y867699D01*
X3560153Y875278D01*
X3654203Y969328D01*
X3937260D01*
Y814760D01*
X4062740D01*
Y969328D01*
X4088727D01*
X4122260Y935796D01*
Y814760D01*
X4247740D01*
Y865038D01*
X4537260D01*
Y814760D01*
X4662740D01*
Y985240D01*
X4537260D01*
Y934962D01*
X4247740D01*
Y985240D01*
X4171703D01*
X4127931Y1029012D01*
X4116589Y1036590D01*
X4103209Y1039252D01*
D02*
G37*
G36*
X7800000Y1526367D02*
X7731295Y1521864D01*
X7663766Y1508432D01*
X7598568Y1486300D01*
X7536817Y1455847D01*
X7479568Y1417595D01*
X7427802Y1372198D01*
X7382405Y1320432D01*
X7344153Y1263184D01*
X7313700Y1201432D01*
X7291568Y1136234D01*
X7278136Y1068705D01*
X7273633Y1000000D01*
X7278136Y931295D01*
X7291568Y863766D01*
X7313700Y798568D01*
X7344153Y736816D01*
X7382405Y679568D01*
X7427802Y627802D01*
X7479568Y582405D01*
X7536817Y544153D01*
X7598568Y513700D01*
X7663766Y491568D01*
X7731295Y478136D01*
X7800000Y473633D01*
X7868705Y478136D01*
X7936234Y491568D01*
X8001432Y513700D01*
X8063183Y544153D01*
X8120432Y582405D01*
X8172198Y627802D01*
X8217595Y679568D01*
X8255847Y736816D01*
X8286300Y798568D01*
X8308431Y863766D01*
X8321864Y931295D01*
X8326367Y1000000D01*
X8321864Y1068705D01*
X8308431Y1136234D01*
X8286300Y1201432D01*
X8255847Y1263184D01*
X8217595Y1320432D01*
X8172198Y1372198D01*
X8120432Y1417595D01*
X8063183Y1455847D01*
X8001432Y1486300D01*
X7936234Y1508432D01*
X7868705Y1521864D01*
X7800000Y1526367D01*
D02*
G37*
G36*
X1100000D02*
X1031295Y1521864D01*
X963766Y1508432D01*
X898568Y1486300D01*
X836817Y1455847D01*
X779568Y1417595D01*
X727802Y1372198D01*
X682405Y1320432D01*
X644153Y1263184D01*
X613700Y1201432D01*
X591569Y1136234D01*
X578136Y1068705D01*
X573633Y1000000D01*
X578136Y931295D01*
X591569Y863766D01*
X613700Y798568D01*
X644153Y736816D01*
X682405Y679568D01*
X727802Y627802D01*
X779568Y582405D01*
X836816Y544153D01*
X898568Y513700D01*
X963766Y491568D01*
X1031295Y478136D01*
X1100000Y473633D01*
X1168705Y478136D01*
X1236234Y491568D01*
X1301432Y513700D01*
X1363183Y544153D01*
X1420432Y582405D01*
X1472198Y627802D01*
X1517595Y679568D01*
X1555847Y736816D01*
X1586300Y798568D01*
X1608432Y863766D01*
X1621864Y931295D01*
X1626367Y1000000D01*
X1621864Y1068705D01*
X1608432Y1136234D01*
X1586300Y1201432D01*
X1555847Y1263184D01*
X1517595Y1320432D01*
X1472198Y1372198D01*
X1420432Y1417595D01*
X1363183Y1455847D01*
X1301432Y1486300D01*
X1236234Y1508432D01*
X1168705Y1521864D01*
X1100000Y1526367D01*
D02*
G37*
%LPD*%
D10*
X3085000Y900000D02*
D03*
X2900000D02*
D03*
X1984999D02*
D03*
X1799999D02*
D03*
X4185000D02*
D03*
X4000000D02*
D03*
X4600000D02*
D03*
X4784999D02*
D03*
X4000000Y2700000D02*
D03*
X4185000D02*
D03*
X2915000D02*
D03*
X3100000D02*
D03*
X1815000D02*
D03*
X2000000D02*
D03*
X4000000Y2100000D02*
D03*
X4185000D02*
D03*
X2915000D02*
D03*
X3100000D02*
D03*
X1815000D02*
D03*
X2000000D02*
D03*
X1800000Y1500000D02*
D03*
X1985000D02*
D03*
X4000000D02*
D03*
X4185000D02*
D03*
X2900000D02*
D03*
X3085000D02*
D03*
X4800000Y2700000D02*
D03*
X4615000D02*
D03*
X5357834Y2257834D02*
D03*
X5172834D02*
D03*
X5350000Y2550000D02*
D03*
X5165000D02*
D03*
X5350000Y2800000D02*
D03*
X5165000D02*
D03*
X7042500Y1450000D02*
D03*
X6857500D02*
D03*
X7042500Y1800000D02*
D03*
X6857500D02*
D03*
X4784999Y2100000D02*
D03*
X4600000D02*
D03*
X4800000Y1500000D02*
D03*
X4615000D02*
D03*
D11*
X6386378Y2336378D02*
D03*
X5813622Y1763622D02*
D03*
D12*
X6481837Y1866153D02*
D03*
X6381075Y1765390D02*
D03*
X6280312Y1664627D02*
D03*
X5916153Y2431838D02*
D03*
X5815389Y2331075D02*
D03*
X5714627Y2230312D02*
D03*
D13*
X4784999Y900000D02*
Y1319006D01*
X1799999Y900000D02*
X1800000Y900000D01*
X3084999Y900000D02*
X3535431D01*
X1984999D02*
X2435431D01*
X3084999D02*
Y922500D01*
X2435431Y900000D02*
X2539721Y1004290D01*
X3003209D02*
X3084999Y922500D01*
X2539721Y1004290D02*
X3003209D01*
X3535431Y900000D02*
X3639721Y1004290D01*
X4103209D01*
X4184999Y900000D02*
X4600000D01*
X4184999D02*
Y922500D01*
X4103209Y1004290D02*
X4184999Y922500D01*
X4000000Y3144835D02*
Y3300000D01*
X3755164Y2900000D02*
X4000000Y3144835D01*
X3647222Y2804290D02*
X4103210D01*
X3542932Y2700000D02*
X3647222Y2804290D01*
X3100000Y2700000D02*
X3542932D01*
X2496660Y2750950D02*
X2550000Y2804290D01*
X3018210D01*
X1815000Y2722500D02*
X1992500Y2900000D01*
X1815000Y2700000D02*
Y2722500D01*
X1992500Y2900000D02*
X3755164D01*
X2028450Y2750950D02*
X2496660D01*
X2000000Y2700000D02*
Y2722500D01*
X2028450Y2750950D01*
X3018210Y2804290D02*
X3100000Y2722500D01*
X3500000Y3293750D02*
Y3300000D01*
Y3293750D02*
X3693750Y3100000D01*
X3700000D01*
X1325000Y1900000D02*
Y2100000D01*
X6280312Y1664627D02*
X6443989Y1500950D01*
X6149703Y1788868D02*
X6156071D01*
X6280312Y1664627D01*
X6481837Y1866153D02*
X6517193Y1830797D01*
X6829050D01*
X6250000Y2900000D02*
X6670000Y2480000D01*
Y2168796D02*
Y2480000D01*
X5815389Y2331075D02*
X5821353D01*
X5932632Y2219796D01*
X5916153Y2431838D02*
Y2431838D01*
X6000000Y2515685D01*
X4185000Y2700000D02*
X4615000D01*
X4800000D02*
Y2722500D01*
X4784999Y2100000D02*
Y2122500D01*
X4800000Y1500000D02*
Y1522500D01*
X4915398Y2252899D02*
Y2872101D01*
X5350000Y2800000D02*
X5547990D01*
X5821219Y2125000D02*
X5822500D01*
X4784999Y2122500D02*
X4915398Y2252899D01*
X4800000Y1522500D02*
X4980000Y1702500D01*
X4784999Y1319006D02*
X5046220Y1580227D01*
X5357834Y2257834D02*
X5365667Y2265668D01*
X5596465Y2550000D02*
X5815389Y2331075D01*
X5350000Y2550000D02*
X5596465D01*
X5365667Y2265668D02*
X5680552D01*
X5547990Y2800000D02*
X5880797Y2467193D01*
X5680552Y2265668D02*
X5821219Y2125000D01*
X7040000Y1450000D02*
X7042500D01*
X6829050Y1500950D02*
X6857500Y1472500D01*
X6829050Y1830797D02*
X6857500Y1802347D01*
Y1450000D02*
Y1472500D01*
Y1800000D02*
Y1802347D01*
X7040000Y1790000D02*
Y1797500D01*
X7042500Y1800000D01*
X6443989Y1500950D02*
X6829050D01*
X6446482Y1945278D02*
X6670000Y2168796D01*
X6446482Y1901508D02*
Y1945278D01*
Y1901508D02*
X6481837Y1866153D01*
X4750000Y3287500D02*
X4980000Y3057500D01*
X4500000Y3287500D02*
X4915398Y2872101D01*
X6000000Y2515685D02*
Y3300000D01*
X5046220Y1580227D02*
Y3066714D01*
X5000000Y3112934D02*
Y3300000D01*
Y3112934D02*
X5046220Y3066714D01*
X6250000Y2900000D02*
Y3300000D01*
X4980000Y1702500D02*
Y3057500D01*
X1800000Y900000D02*
Y1500000D01*
X1815000Y2077500D02*
X1900000Y1992500D01*
X1815000Y2100000D02*
Y2700000D01*
X1985000Y1500000D02*
X2435432D01*
X2000000Y2100000D02*
X2450432D01*
X2554722Y2204290D02*
X3018210D01*
X2435432Y1500000D02*
X2539722Y1604290D01*
X2450432Y2100000D02*
X2554722Y2204290D01*
X2539722Y1604290D02*
X3003210D01*
X3535431Y1500000D02*
X3639721Y1604290D01*
X3085000Y1500000D02*
X3535431D01*
X3003210Y1604290D02*
X3085000Y1522500D01*
Y1500000D02*
Y1522500D01*
X4185000Y1500000D02*
Y1522500D01*
Y1500000D02*
X4615000D01*
X4185000Y2100000D02*
X4600000D01*
X4103209Y1604290D02*
X4185000Y1522500D01*
X4185000Y2100000D02*
Y2122500D01*
Y2700000D02*
Y2722500D01*
X4103210Y2804290D02*
X4185000Y2722500D01*
X4103210Y2204290D02*
X4185000Y2122500D01*
X3647222Y2204290D02*
X4103210D01*
X3100000Y2100000D02*
X3542932D01*
X3647222Y2204290D01*
X3100000Y2100000D02*
Y2122500D01*
X3018210Y2204290D02*
X3100000Y2122500D01*
Y2700000D02*
Y2722500D01*
X3639721Y1604290D02*
X4103209D01*
X1800000Y1500000D02*
X1827150Y1527150D01*
X1815000Y2077500D02*
Y2100000D01*
X1900000Y1700000D02*
Y1992500D01*
X1827150Y1527150D02*
Y1627150D01*
X1900000Y1700000D01*
X4250000Y3272500D02*
Y3300000D01*
Y3272500D02*
X4800000Y2722500D01*
X4500000Y3287500D02*
Y3300000D01*
X4750000Y3287500D02*
Y3300000D01*
D14*
X7800000Y1000000D02*
D03*
Y3100000D02*
D03*
X1100000D02*
D03*
Y1000000D02*
D03*
D15*
X2750000Y3300000D02*
D03*
X3000000D02*
D03*
X3250000D02*
D03*
X3500000D02*
D03*
X3750000D02*
D03*
X4000000D02*
D03*
X4250000D02*
D03*
X4500000D02*
D03*
X4750000D02*
D03*
X5000000D02*
D03*
X5250000D02*
D03*
X5500000D02*
D03*
X5750000D02*
D03*
X6000000D02*
D03*
X6250000D02*
D03*
D16*
X6500000D02*
D03*
D17*
X2900000Y900000D02*
D03*
X4000000D02*
D03*
X3700000Y3100000D02*
D03*
X1256537Y2262408D02*
D03*
X1325000Y2100000D02*
D03*
Y1900000D02*
D03*
X5165000Y2800000D02*
D03*
Y2550000D02*
D03*
X5168917Y2261751D02*
D03*
X6149703Y1788868D02*
D03*
X5822500Y2125000D02*
D03*
X5932632Y2219796D02*
D03*
X7040000Y1790000D02*
D03*
Y1450000D02*
D03*
X4003552Y1505805D02*
D03*
X2897432Y1497907D02*
D03*
X4000000Y2700000D02*
D03*
Y2100000D02*
D03*
X2915000Y2119290D02*
D03*
Y2700000D02*
D03*
%TF.MD5,b77066f4cb519a7a36b406bc05b86b34*%
M02*
